G04 #@! TF.GenerationSoftware,KiCad,Pcbnew,8.0.3*
G04 #@! TF.CreationDate,2024-11-19T19:49:35+13:00*
G04 #@! TF.ProjectId,DS8641N_tester,44533836-3431-44e5-9f74-65737465722e,rev?*
G04 #@! TF.SameCoordinates,Original*
G04 #@! TF.FileFunction,Copper,L2,Bot*
G04 #@! TF.FilePolarity,Positive*
%FSLAX46Y46*%
G04 Gerber Fmt 4.6, Leading zero omitted, Abs format (unit mm)*
G04 Created by KiCad (PCBNEW 8.0.3) date 2024-11-19 19:49:35*
%MOMM*%
%LPD*%
G01*
G04 APERTURE LIST*
G04 #@! TA.AperFunction,ComponentPad*
%ADD10C,2.000000*%
G04 #@! TD*
G04 #@! TA.AperFunction,ComponentPad*
%ADD11R,1.800000X1.800000*%
G04 #@! TD*
G04 #@! TA.AperFunction,ComponentPad*
%ADD12C,1.800000*%
G04 #@! TD*
G04 #@! TA.AperFunction,ComponentPad*
%ADD13C,1.400000*%
G04 #@! TD*
G04 #@! TA.AperFunction,ComponentPad*
%ADD14O,1.400000X1.400000*%
G04 #@! TD*
G04 #@! TA.AperFunction,ComponentPad*
%ADD15R,1.600000X1.600000*%
G04 #@! TD*
G04 #@! TA.AperFunction,ComponentPad*
%ADD16O,1.600000X1.600000*%
G04 #@! TD*
G04 #@! TA.AperFunction,ComponentPad*
%ADD17R,1.700000X1.700000*%
G04 #@! TD*
G04 #@! TA.AperFunction,ComponentPad*
%ADD18O,1.700000X1.700000*%
G04 #@! TD*
G04 #@! TA.AperFunction,ComponentPad*
%ADD19R,2.000000X1.440000*%
G04 #@! TD*
G04 #@! TA.AperFunction,ComponentPad*
%ADD20O,2.000000X1.440000*%
G04 #@! TD*
G04 #@! TA.AperFunction,ComponentPad*
%ADD21R,4.600000X2.000000*%
G04 #@! TD*
G04 #@! TA.AperFunction,ComponentPad*
%ADD22O,4.200000X2.000000*%
G04 #@! TD*
G04 #@! TA.AperFunction,ComponentPad*
%ADD23O,2.000000X4.200000*%
G04 #@! TD*
G04 #@! TA.AperFunction,Conductor*
%ADD24C,0.500000*%
G04 #@! TD*
G04 #@! TA.AperFunction,Conductor*
%ADD25C,0.200000*%
G04 #@! TD*
G04 APERTURE END LIST*
D10*
X130735000Y-109165000D03*
X137235000Y-109165000D03*
X130735000Y-113665000D03*
X137235000Y-113665000D03*
D11*
X177165000Y-91440000D03*
D12*
X174625000Y-91440000D03*
D11*
X183515000Y-78740000D03*
D12*
X180975000Y-78740000D03*
D10*
X120650000Y-109165000D03*
X127150000Y-109165000D03*
X120650000Y-113665000D03*
X127150000Y-113665000D03*
D11*
X183515000Y-91440000D03*
D12*
X180975000Y-91440000D03*
D13*
X162560000Y-100865000D03*
D14*
X170180000Y-100865000D03*
D13*
X122555000Y-86360000D03*
D14*
X122555000Y-93980000D03*
D10*
X125730000Y-97100000D03*
X132230000Y-97100000D03*
X125730000Y-101600000D03*
X132230000Y-101600000D03*
X125730000Y-71450000D03*
X132230000Y-71450000D03*
X125730000Y-75950000D03*
X132230000Y-75950000D03*
D11*
X177165000Y-78740000D03*
D12*
X174625000Y-78740000D03*
D10*
X125730000Y-80000000D03*
X132230000Y-80000000D03*
X125730000Y-84500000D03*
X132230000Y-84500000D03*
D15*
X157480000Y-109855000D03*
D16*
X154940000Y-109855000D03*
X152400000Y-109855000D03*
X149860000Y-109855000D03*
X147320000Y-109855000D03*
X144780000Y-109855000D03*
D13*
X162560000Y-94565000D03*
D14*
X170180000Y-94565000D03*
D13*
X162560000Y-91415000D03*
D14*
X170180000Y-91415000D03*
D17*
X157480000Y-120015000D03*
D18*
X154940000Y-120015000D03*
X152400000Y-120015000D03*
X149860000Y-120015000D03*
X147320000Y-120015000D03*
D11*
X183515000Y-85090000D03*
D12*
X180975000Y-85090000D03*
D13*
X122555000Y-74930000D03*
D14*
X122555000Y-67310000D03*
D10*
X125730000Y-88550000D03*
X132230000Y-88550000D03*
X125730000Y-93050000D03*
X132230000Y-93050000D03*
D11*
X177165000Y-97790000D03*
D12*
X174625000Y-97790000D03*
D13*
X122555000Y-103505000D03*
D14*
X122555000Y-95885000D03*
D13*
X162560000Y-85115000D03*
D14*
X170180000Y-85115000D03*
D13*
X162560000Y-97715000D03*
D14*
X170180000Y-97715000D03*
D17*
X180340000Y-120015000D03*
D18*
X177800000Y-120015000D03*
X175260000Y-120015000D03*
X172720000Y-120015000D03*
X170180000Y-120015000D03*
D15*
X187325000Y-107325000D03*
D16*
X184785000Y-107325000D03*
X182245000Y-107325000D03*
X179705000Y-107325000D03*
X177165000Y-107325000D03*
X174625000Y-107325000D03*
X172085000Y-107325000D03*
X169545000Y-107325000D03*
X167005000Y-107325000D03*
X164465000Y-107325000D03*
X164465000Y-114945000D03*
X167005000Y-114945000D03*
X169545000Y-114945000D03*
X172085000Y-114945000D03*
X174625000Y-114945000D03*
X177165000Y-114945000D03*
X179705000Y-114945000D03*
X182245000Y-114945000D03*
X184785000Y-114945000D03*
X187325000Y-114945000D03*
D13*
X162560000Y-81965000D03*
D14*
X170180000Y-81965000D03*
D19*
X147320000Y-81280000D03*
D20*
X147320000Y-83820000D03*
X147320000Y-86360000D03*
X147320000Y-88900000D03*
X147320000Y-91440000D03*
X147320000Y-93980000D03*
X147320000Y-96520000D03*
X147320000Y-99060000D03*
X154940000Y-99060000D03*
X154940000Y-96520000D03*
X154940000Y-93980000D03*
X154940000Y-91440000D03*
X154940000Y-88900000D03*
X154940000Y-86360000D03*
X154940000Y-83820000D03*
X154940000Y-81280000D03*
D11*
X177165000Y-85090000D03*
D12*
X174625000Y-85090000D03*
D13*
X162560000Y-78815000D03*
D14*
X170180000Y-78815000D03*
D21*
X180990000Y-71755000D03*
D22*
X180990000Y-65455000D03*
D23*
X176190000Y-68855000D03*
D13*
X127635000Y-106045000D03*
D14*
X120015000Y-106045000D03*
D13*
X130175000Y-106045000D03*
D14*
X137795000Y-106045000D03*
D13*
X122555000Y-76835000D03*
D14*
X122555000Y-84455000D03*
D15*
X157480000Y-115570000D03*
D16*
X154940000Y-115570000D03*
X152400000Y-115570000D03*
X149860000Y-115570000D03*
X147320000Y-115570000D03*
X144780000Y-115570000D03*
D13*
X162560000Y-88265000D03*
D14*
X170180000Y-88265000D03*
D11*
X183515000Y-97790000D03*
D12*
X180975000Y-97790000D03*
D24*
X154940000Y-81280000D02*
X151485600Y-77825600D01*
X151485600Y-77825600D02*
X150977600Y-77825600D01*
X123545600Y-77825600D02*
X123012200Y-77292200D01*
X150977600Y-77825600D02*
X123545600Y-77825600D01*
X123190000Y-77470000D02*
X122555000Y-76835000D01*
X164465000Y-71755000D02*
X154940000Y-81280000D01*
X180990000Y-71755000D02*
X164465000Y-71755000D01*
X127150000Y-109165000D02*
X120650000Y-109165000D01*
X130735000Y-109165000D02*
X127150000Y-109165000D01*
D25*
X150495000Y-106680000D02*
X150495000Y-90170000D01*
X149225000Y-88900000D02*
X147320000Y-88900000D01*
X147320000Y-109855000D02*
X147320000Y-120015000D01*
X150495000Y-90170000D02*
X149225000Y-88900000D01*
X147320000Y-109855000D02*
X150495000Y-106680000D01*
X151130000Y-81280000D02*
X151765000Y-81915000D01*
X147320000Y-81280000D02*
X151130000Y-81280000D01*
X151765000Y-107950000D02*
X149860000Y-109855000D01*
X151765000Y-81915000D02*
X151765000Y-107950000D01*
X149860000Y-109855000D02*
X149860000Y-120015000D01*
X154940000Y-109855000D02*
X156845000Y-107950000D01*
X156845000Y-107950000D02*
X156845000Y-85725000D01*
X156845000Y-85725000D02*
X154940000Y-83820000D01*
X154940000Y-109855000D02*
X154940000Y-120015000D01*
X152400000Y-109855000D02*
X152400000Y-120015000D01*
X152400000Y-109855000D02*
X152400000Y-93980000D01*
X152400000Y-93980000D02*
X154940000Y-91440000D01*
X181145000Y-110965000D02*
X181145000Y-116670000D01*
X184785000Y-107325000D02*
X181145000Y-110965000D01*
X181145000Y-116670000D02*
X177800000Y-120015000D01*
X175725000Y-117010000D02*
X172720000Y-120015000D01*
X174625000Y-107325000D02*
X175725000Y-108425000D01*
X175725000Y-108425000D02*
X175725000Y-117010000D01*
X169545000Y-107325000D02*
X170645000Y-108425000D01*
X170645000Y-108425000D02*
X170645000Y-119550000D01*
X170645000Y-119550000D02*
X170180000Y-120015000D01*
X178265000Y-117010000D02*
X175260000Y-120015000D01*
X178265000Y-108765000D02*
X178265000Y-117010000D01*
X179705000Y-107325000D02*
X178265000Y-108765000D01*
X138090000Y-93050000D02*
X147320000Y-83820000D01*
X132230000Y-93050000D02*
X138090000Y-93050000D01*
X142390000Y-91440000D02*
X147320000Y-91440000D01*
X132230000Y-101600000D02*
X142390000Y-91440000D01*
X139700000Y-96520000D02*
X147320000Y-96520000D01*
X130175000Y-106045000D02*
X139700000Y-96520000D01*
X173990000Y-81280000D02*
X184150000Y-81280000D01*
X184150000Y-81280000D02*
X185420000Y-82550000D01*
X163560000Y-79815000D02*
X172525000Y-79815000D01*
X185885000Y-106869365D02*
X185885000Y-111305000D01*
X172525000Y-79815000D02*
X173990000Y-81280000D01*
X185885000Y-111305000D02*
X182245000Y-114945000D01*
X186055000Y-106699365D02*
X185885000Y-106869365D01*
X185420000Y-87135000D02*
X186055000Y-87770000D01*
X185420000Y-82550000D02*
X185420000Y-87135000D01*
X162560000Y-78815000D02*
X163560000Y-79815000D01*
X186055000Y-87770000D02*
X186055000Y-106699365D01*
X179705000Y-108880635D02*
X179705000Y-114945000D01*
X168444214Y-81965000D02*
X174109214Y-87630000D01*
X162560000Y-81965000D02*
X168444214Y-81965000D01*
X179705000Y-100689365D02*
X180805000Y-101789365D01*
X177165000Y-87630000D02*
X179705000Y-90170000D01*
X180805000Y-107780635D02*
X179705000Y-108880635D01*
X179705000Y-90170000D02*
X179705000Y-100689365D01*
X180805000Y-101789365D02*
X180805000Y-107780635D01*
X174109214Y-87630000D02*
X177165000Y-87630000D01*
X170997057Y-86115000D02*
X175895000Y-91012943D01*
X175895000Y-107950000D02*
X177165000Y-109220000D01*
X177165000Y-109220000D02*
X177165000Y-114945000D01*
X162560000Y-85115000D02*
X163560000Y-86115000D01*
X163560000Y-86115000D02*
X170997057Y-86115000D01*
X175895000Y-91012943D02*
X175895000Y-107950000D01*
X168444214Y-88265000D02*
X173250330Y-93071116D01*
X173250330Y-93071116D02*
X173250330Y-113570330D01*
X173250330Y-113570330D02*
X174625000Y-114945000D01*
X162560000Y-88265000D02*
X168444214Y-88265000D01*
X170815000Y-107039365D02*
X170815000Y-107950000D01*
X168845000Y-97700000D02*
X168845000Y-105069365D01*
X162560000Y-91415000D02*
X168845000Y-97700000D01*
X170815000Y-107950000D02*
X172085000Y-109220000D01*
X168845000Y-105069365D02*
X170815000Y-107039365D01*
X172085000Y-109220000D02*
X172085000Y-114945000D01*
X162560000Y-94565000D02*
X168445000Y-100450000D01*
X168445000Y-113845000D02*
X169545000Y-114945000D01*
X168445000Y-100450000D02*
X168445000Y-113845000D01*
X162560000Y-97715000D02*
X165565000Y-100720000D01*
X165565000Y-100720000D02*
X165565000Y-113505000D01*
X165565000Y-113505000D02*
X167005000Y-114945000D01*
X161290000Y-111770000D02*
X164465000Y-114945000D01*
X162560000Y-100865000D02*
X161290000Y-102135000D01*
X161290000Y-102135000D02*
X161290000Y-111770000D01*
X144780000Y-109855000D02*
X144780000Y-115570000D01*
G04 #@! TA.AperFunction,Conductor*
G36*
X176931942Y-88250185D02*
G01*
X176952584Y-88266819D01*
X179068181Y-90382416D01*
X179101666Y-90443739D01*
X179104500Y-90470097D01*
X179104500Y-100602695D01*
X179104499Y-100602713D01*
X179104499Y-100768419D01*
X179104498Y-100768419D01*
X179145423Y-100921150D01*
X179174358Y-100971265D01*
X179174359Y-100971269D01*
X179174360Y-100971269D01*
X179224479Y-101058079D01*
X179224481Y-101058082D01*
X179343349Y-101176950D01*
X179343355Y-101176955D01*
X180168181Y-102001781D01*
X180201666Y-102063104D01*
X180204500Y-102089462D01*
X180204500Y-105950863D01*
X180184815Y-106017902D01*
X180132011Y-106063657D01*
X180062853Y-106073601D01*
X180048407Y-106070638D01*
X179931697Y-106039366D01*
X179931693Y-106039365D01*
X179931692Y-106039365D01*
X179931691Y-106039364D01*
X179931686Y-106039364D01*
X179705002Y-106019532D01*
X179704998Y-106019532D01*
X179478313Y-106039364D01*
X179478302Y-106039366D01*
X179258511Y-106098258D01*
X179258502Y-106098261D01*
X179052267Y-106194431D01*
X179052265Y-106194432D01*
X178865858Y-106324954D01*
X178704954Y-106485858D01*
X178574432Y-106672265D01*
X178574431Y-106672267D01*
X178547382Y-106730275D01*
X178501209Y-106782714D01*
X178434016Y-106801866D01*
X178367135Y-106781650D01*
X178322618Y-106730275D01*
X178299029Y-106679689D01*
X178295568Y-106672266D01*
X178165047Y-106485861D01*
X178165045Y-106485858D01*
X178004141Y-106324954D01*
X177817734Y-106194432D01*
X177817732Y-106194431D01*
X177611497Y-106098261D01*
X177611488Y-106098258D01*
X177391697Y-106039366D01*
X177391693Y-106039365D01*
X177391692Y-106039365D01*
X177391691Y-106039364D01*
X177391686Y-106039364D01*
X177165002Y-106019532D01*
X177164998Y-106019532D01*
X176938313Y-106039364D01*
X176938302Y-106039366D01*
X176718511Y-106098258D01*
X176718506Y-106098260D01*
X176671904Y-106119991D01*
X176602826Y-106130482D01*
X176539042Y-106101961D01*
X176500803Y-106043484D01*
X176495500Y-106007608D01*
X176495500Y-99314000D01*
X176515185Y-99246961D01*
X176567989Y-99201206D01*
X176619500Y-99190000D01*
X176915000Y-99190000D01*
X176915000Y-98165277D01*
X176991306Y-98209333D01*
X177105756Y-98240000D01*
X177224244Y-98240000D01*
X177338694Y-98209333D01*
X177415000Y-98165277D01*
X177415000Y-99190000D01*
X178112828Y-99190000D01*
X178112844Y-99189999D01*
X178172372Y-99183598D01*
X178172379Y-99183596D01*
X178307086Y-99133354D01*
X178307093Y-99133350D01*
X178422187Y-99047190D01*
X178422190Y-99047187D01*
X178508350Y-98932093D01*
X178508354Y-98932086D01*
X178558596Y-98797379D01*
X178558598Y-98797372D01*
X178564999Y-98737844D01*
X178565000Y-98737827D01*
X178565000Y-98040000D01*
X177540278Y-98040000D01*
X177584333Y-97963694D01*
X177615000Y-97849244D01*
X177615000Y-97730756D01*
X177584333Y-97616306D01*
X177540278Y-97540000D01*
X178565000Y-97540000D01*
X178565000Y-96842172D01*
X178564999Y-96842155D01*
X178558598Y-96782627D01*
X178558596Y-96782620D01*
X178508354Y-96647913D01*
X178508350Y-96647906D01*
X178422190Y-96532812D01*
X178422187Y-96532809D01*
X178307093Y-96446649D01*
X178307086Y-96446645D01*
X178172379Y-96396403D01*
X178172372Y-96396401D01*
X178112844Y-96390000D01*
X177415000Y-96390000D01*
X177415000Y-97414722D01*
X177338694Y-97370667D01*
X177224244Y-97340000D01*
X177105756Y-97340000D01*
X176991306Y-97370667D01*
X176915000Y-97414722D01*
X176915000Y-96390000D01*
X176619500Y-96390000D01*
X176552461Y-96370315D01*
X176506706Y-96317511D01*
X176495500Y-96266000D01*
X176495500Y-92964000D01*
X176515185Y-92896961D01*
X176567989Y-92851206D01*
X176619500Y-92840000D01*
X176915000Y-92840000D01*
X176915000Y-91815277D01*
X176991306Y-91859333D01*
X177105756Y-91890000D01*
X177224244Y-91890000D01*
X177338694Y-91859333D01*
X177415000Y-91815277D01*
X177415000Y-92840000D01*
X178112828Y-92840000D01*
X178112844Y-92839999D01*
X178172372Y-92833598D01*
X178172379Y-92833596D01*
X178307086Y-92783354D01*
X178307093Y-92783350D01*
X178422187Y-92697190D01*
X178422190Y-92697187D01*
X178508350Y-92582093D01*
X178508354Y-92582086D01*
X178558596Y-92447379D01*
X178558598Y-92447372D01*
X178564999Y-92387844D01*
X178565000Y-92387827D01*
X178565000Y-91690000D01*
X177540278Y-91690000D01*
X177584333Y-91613694D01*
X177615000Y-91499244D01*
X177615000Y-91380756D01*
X177584333Y-91266306D01*
X177540278Y-91190000D01*
X178565000Y-91190000D01*
X178565000Y-90492172D01*
X178564999Y-90492155D01*
X178558598Y-90432627D01*
X178558596Y-90432620D01*
X178508354Y-90297913D01*
X178508350Y-90297906D01*
X178422190Y-90182812D01*
X178422187Y-90182809D01*
X178307093Y-90096649D01*
X178307086Y-90096645D01*
X178172379Y-90046403D01*
X178172372Y-90046401D01*
X178112844Y-90040000D01*
X177415000Y-90040000D01*
X177415000Y-91064722D01*
X177338694Y-91020667D01*
X177224244Y-90990000D01*
X177105756Y-90990000D01*
X176991306Y-91020667D01*
X176915000Y-91064722D01*
X176915000Y-90040000D01*
X176217155Y-90040000D01*
X176157627Y-90046401D01*
X176157620Y-90046403D01*
X176022913Y-90096645D01*
X176022911Y-90096646D01*
X175997423Y-90115727D01*
X175931958Y-90140143D01*
X175863685Y-90125291D01*
X175835432Y-90104140D01*
X174173473Y-88442181D01*
X174139988Y-88380858D01*
X174144972Y-88311166D01*
X174186844Y-88255233D01*
X174252308Y-88230816D01*
X174261154Y-88230500D01*
X176864903Y-88230500D01*
X176931942Y-88250185D01*
G37*
G04 #@! TD.AperFunction*
G04 #@! TA.AperFunction,Conductor*
G36*
X191247996Y-59029715D02*
G01*
X191502040Y-59046370D01*
X191518094Y-59048484D01*
X191763823Y-59097367D01*
X191779471Y-59101560D01*
X192016718Y-59182100D01*
X192031684Y-59188300D01*
X192210588Y-59276529D01*
X192256368Y-59299107D01*
X192270415Y-59307217D01*
X192478710Y-59446402D01*
X192491578Y-59456276D01*
X192679928Y-59621461D01*
X192691397Y-59632931D01*
X192856568Y-59821279D01*
X192866442Y-59834147D01*
X193005623Y-60042455D01*
X193013732Y-60056502D01*
X193124527Y-60281183D01*
X193130734Y-60296169D01*
X193211255Y-60533390D01*
X193215453Y-60549057D01*
X193264322Y-60794764D01*
X193266439Y-60810846D01*
X193283183Y-61066390D01*
X193283448Y-61074497D01*
X193283448Y-61144818D01*
X193283449Y-61144831D01*
X193283449Y-121389884D01*
X193283183Y-121397997D01*
X193266527Y-121652035D01*
X193264410Y-121668115D01*
X193215531Y-121913826D01*
X193211333Y-121929492D01*
X193130802Y-122166722D01*
X193124595Y-122181707D01*
X193013788Y-122406398D01*
X193005678Y-122420445D01*
X192866494Y-122628746D01*
X192856620Y-122641614D01*
X192691437Y-122829968D01*
X192679968Y-122841437D01*
X192491614Y-123006620D01*
X192478746Y-123016494D01*
X192270445Y-123155678D01*
X192256398Y-123163788D01*
X192031707Y-123274595D01*
X192016722Y-123280802D01*
X191779492Y-123361333D01*
X191763826Y-123365531D01*
X191518115Y-123414410D01*
X191502035Y-123416527D01*
X191261977Y-123432266D01*
X191247995Y-123433183D01*
X191239884Y-123433449D01*
X120197441Y-123433449D01*
X120197425Y-123433448D01*
X120128000Y-123433448D01*
X120119893Y-123433183D01*
X119865833Y-123416537D01*
X119849750Y-123414420D01*
X119604031Y-123365547D01*
X119588365Y-123361349D01*
X119351131Y-123280825D01*
X119336145Y-123274618D01*
X119111453Y-123163817D01*
X119097406Y-123155708D01*
X118889087Y-123016520D01*
X118876219Y-123006646D01*
X118687862Y-122841467D01*
X118676393Y-122829998D01*
X118511199Y-122641638D01*
X118501324Y-122628770D01*
X118485208Y-122604652D01*
X118362126Y-122420455D01*
X118354026Y-122406426D01*
X118243209Y-122181722D01*
X118237005Y-122166745D01*
X118236997Y-122166722D01*
X118171726Y-121974449D01*
X118156468Y-121929503D01*
X118152270Y-121913836D01*
X118103390Y-121668121D01*
X118101273Y-121652040D01*
X118084715Y-121399490D01*
X118084449Y-121391378D01*
X118084449Y-120002660D01*
X119543449Y-120002660D01*
X119543449Y-120245237D01*
X119575110Y-120485734D01*
X119637896Y-120720053D01*
X119730722Y-120944154D01*
X119730725Y-120944161D01*
X119852013Y-121154238D01*
X119852015Y-121154241D01*
X119852016Y-121154242D01*
X119999682Y-121346685D01*
X119999688Y-121346692D01*
X120171205Y-121518209D01*
X120171211Y-121518214D01*
X120363660Y-121665885D01*
X120573737Y-121787173D01*
X120797849Y-121880003D01*
X121032160Y-121942787D01*
X121212535Y-121966533D01*
X121272660Y-121974449D01*
X121272661Y-121974449D01*
X121515238Y-121974449D01*
X121563337Y-121968116D01*
X121755738Y-121942787D01*
X121990049Y-121880003D01*
X122214161Y-121787173D01*
X122424238Y-121665885D01*
X122616687Y-121518214D01*
X122788214Y-121346687D01*
X122935885Y-121154238D01*
X123057173Y-120944161D01*
X123150003Y-120720049D01*
X123212787Y-120485738D01*
X123244449Y-120245237D01*
X123244449Y-120002661D01*
X123212787Y-119762160D01*
X123150003Y-119527849D01*
X123057173Y-119303737D01*
X122935885Y-119093660D01*
X122845986Y-118976501D01*
X122788215Y-118901212D01*
X122788209Y-118901205D01*
X122616692Y-118729688D01*
X122616685Y-118729682D01*
X122424242Y-118582016D01*
X122424241Y-118582015D01*
X122424238Y-118582013D01*
X122252610Y-118482923D01*
X122214163Y-118460726D01*
X122214154Y-118460722D01*
X121990053Y-118367896D01*
X121755734Y-118305110D01*
X121515238Y-118273449D01*
X121515237Y-118273449D01*
X121272661Y-118273449D01*
X121272660Y-118273449D01*
X121032163Y-118305110D01*
X120797844Y-118367896D01*
X120573743Y-118460722D01*
X120573734Y-118460726D01*
X120363655Y-118582016D01*
X120171212Y-118729682D01*
X120171205Y-118729688D01*
X119999688Y-118901205D01*
X119999682Y-118901212D01*
X119852016Y-119093655D01*
X119852013Y-119093659D01*
X119852013Y-119093660D01*
X119835766Y-119121800D01*
X119730726Y-119303734D01*
X119730722Y-119303743D01*
X119637896Y-119527844D01*
X119575110Y-119762163D01*
X119543449Y-120002660D01*
X118084449Y-120002660D01*
X118084449Y-113664994D01*
X119144357Y-113664994D01*
X119144357Y-113665005D01*
X119164890Y-113912812D01*
X119164892Y-113912824D01*
X119225936Y-114153881D01*
X119325826Y-114381606D01*
X119461833Y-114589782D01*
X119461836Y-114589785D01*
X119630256Y-114772738D01*
X119826491Y-114925474D01*
X120045190Y-115043828D01*
X120280386Y-115124571D01*
X120525665Y-115165500D01*
X120774335Y-115165500D01*
X121019614Y-115124571D01*
X121254810Y-115043828D01*
X121473509Y-114925474D01*
X121669744Y-114772738D01*
X121838164Y-114589785D01*
X121974173Y-114381607D01*
X122074063Y-114153881D01*
X122135108Y-113912821D01*
X122143101Y-113816365D01*
X122155643Y-113665005D01*
X122155643Y-113664994D01*
X125644357Y-113664994D01*
X125644357Y-113665005D01*
X125664890Y-113912812D01*
X125664892Y-113912824D01*
X125725936Y-114153881D01*
X125825826Y-114381606D01*
X125961833Y-114589782D01*
X125961836Y-114589785D01*
X126130256Y-114772738D01*
X126326491Y-114925474D01*
X126545190Y-115043828D01*
X126780386Y-115124571D01*
X127025665Y-115165500D01*
X127274335Y-115165500D01*
X127519614Y-115124571D01*
X127754810Y-115043828D01*
X127973509Y-114925474D01*
X128169744Y-114772738D01*
X128338164Y-114589785D01*
X128474173Y-114381607D01*
X128574063Y-114153881D01*
X128635108Y-113912821D01*
X128643101Y-113816365D01*
X128655643Y-113665005D01*
X128655643Y-113664994D01*
X129229357Y-113664994D01*
X129229357Y-113665005D01*
X129249890Y-113912812D01*
X129249892Y-113912824D01*
X129310936Y-114153881D01*
X129410826Y-114381606D01*
X129546833Y-114589782D01*
X129546836Y-114589785D01*
X129715256Y-114772738D01*
X129911491Y-114925474D01*
X130130190Y-115043828D01*
X130365386Y-115124571D01*
X130610665Y-115165500D01*
X130859335Y-115165500D01*
X131104614Y-115124571D01*
X131339810Y-115043828D01*
X131558509Y-114925474D01*
X131754744Y-114772738D01*
X131923164Y-114589785D01*
X132059173Y-114381607D01*
X132159063Y-114153881D01*
X132220108Y-113912821D01*
X132228101Y-113816365D01*
X132240643Y-113665005D01*
X132240643Y-113664994D01*
X135729357Y-113664994D01*
X135729357Y-113665005D01*
X135749890Y-113912812D01*
X135749892Y-113912824D01*
X135810936Y-114153881D01*
X135910826Y-114381606D01*
X136046833Y-114589782D01*
X136046836Y-114589785D01*
X136215256Y-114772738D01*
X136411491Y-114925474D01*
X136630190Y-115043828D01*
X136865386Y-115124571D01*
X137110665Y-115165500D01*
X137359335Y-115165500D01*
X137604614Y-115124571D01*
X137839810Y-115043828D01*
X138058509Y-114925474D01*
X138254744Y-114772738D01*
X138423164Y-114589785D01*
X138559173Y-114381607D01*
X138659063Y-114153881D01*
X138720108Y-113912821D01*
X138728101Y-113816365D01*
X138740643Y-113665005D01*
X138740643Y-113664994D01*
X138720109Y-113417187D01*
X138720107Y-113417175D01*
X138659063Y-113176118D01*
X138559173Y-112948393D01*
X138423166Y-112740217D01*
X138401557Y-112716744D01*
X138254744Y-112557262D01*
X138058509Y-112404526D01*
X138058507Y-112404525D01*
X138058506Y-112404524D01*
X137839811Y-112286172D01*
X137839802Y-112286169D01*
X137604616Y-112205429D01*
X137359335Y-112164500D01*
X137110665Y-112164500D01*
X136865383Y-112205429D01*
X136630197Y-112286169D01*
X136630188Y-112286172D01*
X136411493Y-112404524D01*
X136215257Y-112557261D01*
X136046833Y-112740217D01*
X135910826Y-112948393D01*
X135810936Y-113176118D01*
X135749892Y-113417175D01*
X135749890Y-113417187D01*
X135729357Y-113664994D01*
X132240643Y-113664994D01*
X132220109Y-113417187D01*
X132220107Y-113417175D01*
X132159063Y-113176118D01*
X132059173Y-112948393D01*
X131923166Y-112740217D01*
X131901557Y-112716744D01*
X131754744Y-112557262D01*
X131558509Y-112404526D01*
X131558507Y-112404525D01*
X131558506Y-112404524D01*
X131339811Y-112286172D01*
X131339802Y-112286169D01*
X131104616Y-112205429D01*
X130859335Y-112164500D01*
X130610665Y-112164500D01*
X130365383Y-112205429D01*
X130130197Y-112286169D01*
X130130188Y-112286172D01*
X129911493Y-112404524D01*
X129715257Y-112557261D01*
X129546833Y-112740217D01*
X129410826Y-112948393D01*
X129310936Y-113176118D01*
X129249892Y-113417175D01*
X129249890Y-113417187D01*
X129229357Y-113664994D01*
X128655643Y-113664994D01*
X128635109Y-113417187D01*
X128635107Y-113417175D01*
X128574063Y-113176118D01*
X128474173Y-112948393D01*
X128338166Y-112740217D01*
X128316557Y-112716744D01*
X128169744Y-112557262D01*
X127973509Y-112404526D01*
X127973507Y-112404525D01*
X127973506Y-112404524D01*
X127754811Y-112286172D01*
X127754802Y-112286169D01*
X127519616Y-112205429D01*
X127274335Y-112164500D01*
X127025665Y-112164500D01*
X126780383Y-112205429D01*
X126545197Y-112286169D01*
X126545188Y-112286172D01*
X126326493Y-112404524D01*
X126130257Y-112557261D01*
X125961833Y-112740217D01*
X125825826Y-112948393D01*
X125725936Y-113176118D01*
X125664892Y-113417175D01*
X125664890Y-113417187D01*
X125644357Y-113664994D01*
X122155643Y-113664994D01*
X122135109Y-113417187D01*
X122135107Y-113417175D01*
X122074063Y-113176118D01*
X121974173Y-112948393D01*
X121838166Y-112740217D01*
X121816557Y-112716744D01*
X121669744Y-112557262D01*
X121473509Y-112404526D01*
X121473507Y-112404525D01*
X121473506Y-112404524D01*
X121254811Y-112286172D01*
X121254802Y-112286169D01*
X121019616Y-112205429D01*
X120774335Y-112164500D01*
X120525665Y-112164500D01*
X120280383Y-112205429D01*
X120045197Y-112286169D01*
X120045188Y-112286172D01*
X119826493Y-112404524D01*
X119630257Y-112557261D01*
X119461833Y-112740217D01*
X119325826Y-112948393D01*
X119225936Y-113176118D01*
X119164892Y-113417175D01*
X119164890Y-113417187D01*
X119144357Y-113664994D01*
X118084449Y-113664994D01*
X118084449Y-109164994D01*
X119144357Y-109164994D01*
X119144357Y-109165005D01*
X119164890Y-109412812D01*
X119164892Y-109412824D01*
X119225936Y-109653881D01*
X119325826Y-109881606D01*
X119461833Y-110089782D01*
X119461835Y-110089784D01*
X119461836Y-110089785D01*
X119630256Y-110272738D01*
X119826491Y-110425474D01*
X120045190Y-110543828D01*
X120280386Y-110624571D01*
X120525665Y-110665500D01*
X120774335Y-110665500D01*
X121019614Y-110624571D01*
X121254810Y-110543828D01*
X121473509Y-110425474D01*
X121669744Y-110272738D01*
X121838164Y-110089785D01*
X121915327Y-109971677D01*
X121968474Y-109926322D01*
X122019136Y-109915500D01*
X125780864Y-109915500D01*
X125847903Y-109935185D01*
X125884672Y-109971677D01*
X125961836Y-110089785D01*
X126130256Y-110272738D01*
X126326491Y-110425474D01*
X126545190Y-110543828D01*
X126780386Y-110624571D01*
X127025665Y-110665500D01*
X127274335Y-110665500D01*
X127519614Y-110624571D01*
X127754810Y-110543828D01*
X127973509Y-110425474D01*
X128169744Y-110272738D01*
X128338164Y-110089785D01*
X128415327Y-109971677D01*
X128468474Y-109926322D01*
X128519136Y-109915500D01*
X129365864Y-109915500D01*
X129432903Y-109935185D01*
X129469672Y-109971677D01*
X129546836Y-110089785D01*
X129715256Y-110272738D01*
X129911491Y-110425474D01*
X130130190Y-110543828D01*
X130365386Y-110624571D01*
X130610665Y-110665500D01*
X130859335Y-110665500D01*
X131104614Y-110624571D01*
X131339810Y-110543828D01*
X131558509Y-110425474D01*
X131754744Y-110272738D01*
X131923164Y-110089785D01*
X132059173Y-109881607D01*
X132159063Y-109653881D01*
X132220108Y-109412821D01*
X132220466Y-109408502D01*
X132240643Y-109165005D01*
X132240643Y-109164994D01*
X135729357Y-109164994D01*
X135729357Y-109165005D01*
X135749890Y-109412812D01*
X135749892Y-109412824D01*
X135810936Y-109653881D01*
X135910826Y-109881606D01*
X136046833Y-110089782D01*
X136046835Y-110089784D01*
X136046836Y-110089785D01*
X136215256Y-110272738D01*
X136411491Y-110425474D01*
X136630190Y-110543828D01*
X136865386Y-110624571D01*
X137110665Y-110665500D01*
X137359335Y-110665500D01*
X137604614Y-110624571D01*
X137839810Y-110543828D01*
X138058509Y-110425474D01*
X138254744Y-110272738D01*
X138423164Y-110089785D01*
X138559173Y-109881607D01*
X138659063Y-109653881D01*
X138720108Y-109412821D01*
X138720466Y-109408502D01*
X138740643Y-109165005D01*
X138740643Y-109164994D01*
X138720109Y-108917187D01*
X138720107Y-108917175D01*
X138659063Y-108676118D01*
X138559173Y-108448393D01*
X138423166Y-108240217D01*
X138364996Y-108177028D01*
X138254744Y-108057262D01*
X138058509Y-107904526D01*
X138058507Y-107904525D01*
X138058506Y-107904524D01*
X137839811Y-107786172D01*
X137839802Y-107786169D01*
X137604616Y-107705429D01*
X137359335Y-107664500D01*
X137110665Y-107664500D01*
X136865383Y-107705429D01*
X136630197Y-107786169D01*
X136630188Y-107786172D01*
X136411493Y-107904524D01*
X136215257Y-108057261D01*
X136046833Y-108240217D01*
X135910826Y-108448393D01*
X135810936Y-108676118D01*
X135749892Y-108917175D01*
X135749890Y-108917187D01*
X135729357Y-109164994D01*
X132240643Y-109164994D01*
X132220109Y-108917187D01*
X132220107Y-108917175D01*
X132159063Y-108676118D01*
X132059173Y-108448393D01*
X131923166Y-108240217D01*
X131864996Y-108177028D01*
X131754744Y-108057262D01*
X131558509Y-107904526D01*
X131558507Y-107904525D01*
X131558506Y-107904524D01*
X131339811Y-107786172D01*
X131339802Y-107786169D01*
X131104616Y-107705429D01*
X130859335Y-107664500D01*
X130610665Y-107664500D01*
X130365383Y-107705429D01*
X130130197Y-107786169D01*
X130130188Y-107786172D01*
X129911493Y-107904524D01*
X129715257Y-108057261D01*
X129546836Y-108240215D01*
X129469673Y-108358322D01*
X129416526Y-108403678D01*
X129365864Y-108414500D01*
X128519136Y-108414500D01*
X128452097Y-108394815D01*
X128415327Y-108358322D01*
X128393586Y-108325045D01*
X128338164Y-108240215D01*
X128169744Y-108057262D01*
X127973509Y-107904526D01*
X127973507Y-107904525D01*
X127973506Y-107904524D01*
X127754811Y-107786172D01*
X127754802Y-107786169D01*
X127519616Y-107705429D01*
X127274335Y-107664500D01*
X127025665Y-107664500D01*
X126780383Y-107705429D01*
X126545197Y-107786169D01*
X126545188Y-107786172D01*
X126326493Y-107904524D01*
X126130257Y-108057261D01*
X125961836Y-108240215D01*
X125884673Y-108358322D01*
X125831526Y-108403678D01*
X125780864Y-108414500D01*
X122019136Y-108414500D01*
X121952097Y-108394815D01*
X121915327Y-108358322D01*
X121893586Y-108325045D01*
X121838164Y-108240215D01*
X121669744Y-108057262D01*
X121473509Y-107904526D01*
X121473507Y-107904525D01*
X121473506Y-107904524D01*
X121254811Y-107786172D01*
X121254802Y-107786169D01*
X121019616Y-107705429D01*
X120774335Y-107664500D01*
X120525665Y-107664500D01*
X120280383Y-107705429D01*
X120045197Y-107786169D01*
X120045188Y-107786172D01*
X119826493Y-107904524D01*
X119630257Y-108057261D01*
X119461833Y-108240217D01*
X119325826Y-108448393D01*
X119225936Y-108676118D01*
X119164892Y-108917175D01*
X119164890Y-108917187D01*
X119144357Y-109164994D01*
X118084449Y-109164994D01*
X118084449Y-106295000D01*
X118838505Y-106295000D01*
X118891239Y-106480349D01*
X118990368Y-106679425D01*
X119124391Y-106856900D01*
X119288738Y-107006721D01*
X119477820Y-107123797D01*
X119477822Y-107123798D01*
X119685195Y-107204135D01*
X119765000Y-107219052D01*
X120265000Y-107219052D01*
X120344804Y-107204135D01*
X120552177Y-107123798D01*
X120552179Y-107123797D01*
X120741261Y-107006721D01*
X120905608Y-106856900D01*
X121039631Y-106679425D01*
X121138760Y-106480349D01*
X121191495Y-106295000D01*
X120265000Y-106295000D01*
X120265000Y-107219052D01*
X119765000Y-107219052D01*
X119765000Y-106295000D01*
X118838505Y-106295000D01*
X118084449Y-106295000D01*
X118084449Y-105998922D01*
X119665000Y-105998922D01*
X119665000Y-106091078D01*
X119688852Y-106180095D01*
X119734930Y-106259905D01*
X119800095Y-106325070D01*
X119879905Y-106371148D01*
X119968922Y-106395000D01*
X120061078Y-106395000D01*
X120150095Y-106371148D01*
X120229905Y-106325070D01*
X120295070Y-106259905D01*
X120341148Y-106180095D01*
X120365000Y-106091078D01*
X120365000Y-105998922D01*
X120341148Y-105909905D01*
X120295070Y-105830095D01*
X120259975Y-105795000D01*
X120265000Y-105795000D01*
X121191495Y-105795000D01*
X121138760Y-105609650D01*
X121039631Y-105410574D01*
X120905608Y-105233099D01*
X120741261Y-105083278D01*
X120552179Y-104966202D01*
X120552177Y-104966201D01*
X120344799Y-104885864D01*
X120265000Y-104870946D01*
X120265000Y-105795000D01*
X120259975Y-105795000D01*
X120229905Y-105764930D01*
X120150095Y-105718852D01*
X120061078Y-105695000D01*
X119968922Y-105695000D01*
X119879905Y-105718852D01*
X119800095Y-105764930D01*
X119734930Y-105830095D01*
X119688852Y-105909905D01*
X119665000Y-105998922D01*
X118084449Y-105998922D01*
X118084449Y-105795000D01*
X118838505Y-105795000D01*
X119765000Y-105795000D01*
X119765000Y-104870946D01*
X119685200Y-104885864D01*
X119477822Y-104966201D01*
X119477820Y-104966202D01*
X119288738Y-105083278D01*
X119124391Y-105233099D01*
X118990368Y-105410574D01*
X118891239Y-105609650D01*
X118838505Y-105795000D01*
X118084449Y-105795000D01*
X118084449Y-103504999D01*
X121349357Y-103504999D01*
X121349357Y-103505000D01*
X121369884Y-103726535D01*
X121369885Y-103726537D01*
X121430769Y-103940523D01*
X121430775Y-103940538D01*
X121529938Y-104139683D01*
X121529943Y-104139691D01*
X121664020Y-104317238D01*
X121828437Y-104467123D01*
X121828439Y-104467125D01*
X122017595Y-104584245D01*
X122017596Y-104584245D01*
X122017599Y-104584247D01*
X122225060Y-104664618D01*
X122443757Y-104705500D01*
X122443759Y-104705500D01*
X122666241Y-104705500D01*
X122666243Y-104705500D01*
X122884940Y-104664618D01*
X123092401Y-104584247D01*
X123281562Y-104467124D01*
X123445981Y-104317236D01*
X123580058Y-104139689D01*
X123679229Y-103940528D01*
X123740115Y-103726536D01*
X123760643Y-103505000D01*
X123740115Y-103283464D01*
X123679229Y-103069472D01*
X123674299Y-103059571D01*
X123580061Y-102870316D01*
X123580056Y-102870308D01*
X123445979Y-102692761D01*
X123281562Y-102542876D01*
X123281560Y-102542874D01*
X123092404Y-102425754D01*
X123092398Y-102425752D01*
X122884940Y-102345382D01*
X122666243Y-102304500D01*
X122443757Y-102304500D01*
X122225060Y-102345382D01*
X122126060Y-102383735D01*
X122017601Y-102425752D01*
X122017595Y-102425754D01*
X121828439Y-102542874D01*
X121828437Y-102542876D01*
X121664020Y-102692761D01*
X121529943Y-102870308D01*
X121529938Y-102870316D01*
X121430775Y-103069461D01*
X121430769Y-103069476D01*
X121369885Y-103283462D01*
X121369884Y-103283464D01*
X121349357Y-103504999D01*
X118084449Y-103504999D01*
X118084449Y-101599994D01*
X124224357Y-101599994D01*
X124224357Y-101600005D01*
X124244890Y-101847812D01*
X124244891Y-101847819D01*
X124244892Y-101847821D01*
X124252642Y-101878424D01*
X124305936Y-102088881D01*
X124405826Y-102316606D01*
X124541833Y-102524782D01*
X124541836Y-102524785D01*
X124710256Y-102707738D01*
X124906491Y-102860474D01*
X125125190Y-102978828D01*
X125360386Y-103059571D01*
X125605665Y-103100500D01*
X125854335Y-103100500D01*
X126099614Y-103059571D01*
X126334810Y-102978828D01*
X126553509Y-102860474D01*
X126749744Y-102707738D01*
X126918164Y-102524785D01*
X127054173Y-102316607D01*
X127154063Y-102088881D01*
X127215108Y-101847821D01*
X127217423Y-101819887D01*
X127235643Y-101600005D01*
X127235643Y-101599994D01*
X127215109Y-101352187D01*
X127215107Y-101352175D01*
X127154063Y-101111118D01*
X127054173Y-100883393D01*
X126918166Y-100675217D01*
X126851421Y-100602713D01*
X126749744Y-100492262D01*
X126553509Y-100339526D01*
X126553507Y-100339525D01*
X126553506Y-100339524D01*
X126334811Y-100221172D01*
X126334802Y-100221169D01*
X126099616Y-100140429D01*
X125854335Y-100099500D01*
X125605665Y-100099500D01*
X125360383Y-100140429D01*
X125125197Y-100221169D01*
X125125188Y-100221172D01*
X124906493Y-100339524D01*
X124710257Y-100492261D01*
X124541833Y-100675217D01*
X124405826Y-100883393D01*
X124305936Y-101111118D01*
X124244892Y-101352175D01*
X124244890Y-101352187D01*
X124224357Y-101599994D01*
X118084449Y-101599994D01*
X118084449Y-97099994D01*
X124224859Y-97099994D01*
X124224859Y-97100005D01*
X124245385Y-97347729D01*
X124245387Y-97347738D01*
X124306412Y-97588717D01*
X124406266Y-97816364D01*
X124506564Y-97969882D01*
X125206212Y-97270234D01*
X125217482Y-97312292D01*
X125289890Y-97437708D01*
X125392292Y-97540110D01*
X125517708Y-97612518D01*
X125559765Y-97623787D01*
X124859942Y-98323609D01*
X124906768Y-98360055D01*
X124906770Y-98360056D01*
X125125385Y-98478364D01*
X125125396Y-98478369D01*
X125360506Y-98559083D01*
X125605707Y-98600000D01*
X125854293Y-98600000D01*
X126099493Y-98559083D01*
X126334603Y-98478369D01*
X126334614Y-98478364D01*
X126553228Y-98360057D01*
X126553231Y-98360055D01*
X126600056Y-98323609D01*
X125900234Y-97623787D01*
X125942292Y-97612518D01*
X126067708Y-97540110D01*
X126170110Y-97437708D01*
X126242518Y-97312292D01*
X126253787Y-97270235D01*
X126953434Y-97969882D01*
X127053731Y-97816369D01*
X127153587Y-97588717D01*
X127214612Y-97347738D01*
X127214614Y-97347729D01*
X127235141Y-97100005D01*
X127235141Y-97099994D01*
X130724859Y-97099994D01*
X130724859Y-97100005D01*
X130745385Y-97347729D01*
X130745387Y-97347738D01*
X130806412Y-97588717D01*
X130906266Y-97816364D01*
X131006564Y-97969882D01*
X131706212Y-97270234D01*
X131717482Y-97312292D01*
X131789890Y-97437708D01*
X131892292Y-97540110D01*
X132017708Y-97612518D01*
X132059765Y-97623787D01*
X131359942Y-98323609D01*
X131406768Y-98360055D01*
X131406770Y-98360056D01*
X131625385Y-98478364D01*
X131625396Y-98478369D01*
X131860506Y-98559083D01*
X132105707Y-98600000D01*
X132354293Y-98600000D01*
X132599493Y-98559083D01*
X132834603Y-98478369D01*
X132834614Y-98478364D01*
X133053228Y-98360057D01*
X133053231Y-98360055D01*
X133100056Y-98323609D01*
X132400234Y-97623787D01*
X132442292Y-97612518D01*
X132567708Y-97540110D01*
X132670110Y-97437708D01*
X132742518Y-97312292D01*
X132753787Y-97270235D01*
X133453434Y-97969882D01*
X133553731Y-97816369D01*
X133653587Y-97588717D01*
X133714612Y-97347738D01*
X133714614Y-97347729D01*
X133735141Y-97100005D01*
X133735141Y-97099994D01*
X133714614Y-96852270D01*
X133714612Y-96852261D01*
X133653587Y-96611282D01*
X133553731Y-96383630D01*
X133453434Y-96230116D01*
X132753787Y-96929764D01*
X132742518Y-96887708D01*
X132670110Y-96762292D01*
X132567708Y-96659890D01*
X132442292Y-96587482D01*
X132400235Y-96576212D01*
X133100057Y-95876390D01*
X133100056Y-95876389D01*
X133053229Y-95839943D01*
X132834614Y-95721635D01*
X132834603Y-95721630D01*
X132599493Y-95640916D01*
X132354293Y-95600000D01*
X132105707Y-95600000D01*
X131860506Y-95640916D01*
X131625396Y-95721630D01*
X131625390Y-95721632D01*
X131406761Y-95839949D01*
X131359942Y-95876388D01*
X131359942Y-95876390D01*
X132059765Y-96576212D01*
X132017708Y-96587482D01*
X131892292Y-96659890D01*
X131789890Y-96762292D01*
X131717482Y-96887708D01*
X131706212Y-96929764D01*
X131006564Y-96230116D01*
X130906267Y-96383632D01*
X130806412Y-96611282D01*
X130745387Y-96852261D01*
X130745385Y-96852270D01*
X130724859Y-97099994D01*
X127235141Y-97099994D01*
X127214614Y-96852270D01*
X127214612Y-96852261D01*
X127153587Y-96611282D01*
X127053731Y-96383630D01*
X126953434Y-96230116D01*
X126253787Y-96929764D01*
X126242518Y-96887708D01*
X126170110Y-96762292D01*
X126067708Y-96659890D01*
X125942292Y-96587482D01*
X125900235Y-96576212D01*
X126600057Y-95876390D01*
X126600056Y-95876389D01*
X126553229Y-95839943D01*
X126334614Y-95721635D01*
X126334603Y-95721630D01*
X126099493Y-95640916D01*
X125854293Y-95600000D01*
X125605707Y-95600000D01*
X125360506Y-95640916D01*
X125125396Y-95721630D01*
X125125390Y-95721632D01*
X124906761Y-95839949D01*
X124859942Y-95876388D01*
X124859942Y-95876390D01*
X125559765Y-96576212D01*
X125517708Y-96587482D01*
X125392292Y-96659890D01*
X125289890Y-96762292D01*
X125217482Y-96887708D01*
X125206212Y-96929764D01*
X124506564Y-96230116D01*
X124406267Y-96383632D01*
X124306412Y-96611282D01*
X124245387Y-96852261D01*
X124245385Y-96852270D01*
X124224859Y-97099994D01*
X118084449Y-97099994D01*
X118084449Y-93979999D01*
X121349357Y-93979999D01*
X121349357Y-93980000D01*
X121369884Y-94201535D01*
X121369885Y-94201537D01*
X121430769Y-94415523D01*
X121430775Y-94415538D01*
X121529938Y-94614683D01*
X121529943Y-94614691D01*
X121553839Y-94646334D01*
X121659715Y-94786537D01*
X121664020Y-94792237D01*
X121717360Y-94840863D01*
X121753641Y-94900575D01*
X121751880Y-94970422D01*
X121717360Y-95024137D01*
X121664020Y-95072762D01*
X121529943Y-95250308D01*
X121529938Y-95250316D01*
X121430775Y-95449461D01*
X121430769Y-95449476D01*
X121369885Y-95663462D01*
X121369884Y-95663464D01*
X121349357Y-95884999D01*
X121349357Y-95885000D01*
X121369884Y-96106535D01*
X121369885Y-96106537D01*
X121430769Y-96320523D01*
X121430775Y-96320538D01*
X121529938Y-96519683D01*
X121529943Y-96519691D01*
X121664020Y-96697238D01*
X121828437Y-96847123D01*
X121828439Y-96847125D01*
X122017595Y-96964245D01*
X122017596Y-96964245D01*
X122017599Y-96964247D01*
X122225060Y-97044618D01*
X122443757Y-97085500D01*
X122443759Y-97085500D01*
X122666241Y-97085500D01*
X122666243Y-97085500D01*
X122884940Y-97044618D01*
X123092401Y-96964247D01*
X123281562Y-96847124D01*
X123445981Y-96697236D01*
X123580058Y-96519689D01*
X123679229Y-96320528D01*
X123740115Y-96106536D01*
X123760643Y-95885000D01*
X123757739Y-95853665D01*
X123740115Y-95663464D01*
X123740114Y-95663462D01*
X123734646Y-95644245D01*
X123679229Y-95449472D01*
X123649076Y-95388916D01*
X123580061Y-95250316D01*
X123580056Y-95250308D01*
X123445979Y-95072761D01*
X123392640Y-95024137D01*
X123356358Y-94964426D01*
X123358119Y-94894579D01*
X123392640Y-94840863D01*
X123445979Y-94792238D01*
X123450285Y-94786537D01*
X123580058Y-94614689D01*
X123679229Y-94415528D01*
X123740115Y-94201536D01*
X123760643Y-93980000D01*
X123760159Y-93974782D01*
X123740115Y-93758464D01*
X123740114Y-93758462D01*
X123709400Y-93650514D01*
X123679229Y-93544472D01*
X123672281Y-93530518D01*
X123580061Y-93345316D01*
X123580056Y-93345308D01*
X123445979Y-93167761D01*
X123316794Y-93049994D01*
X124224357Y-93049994D01*
X124224357Y-93050005D01*
X124244890Y-93297812D01*
X124244892Y-93297824D01*
X124305936Y-93538881D01*
X124405826Y-93766606D01*
X124541833Y-93974782D01*
X124541836Y-93974785D01*
X124710256Y-94157738D01*
X124906491Y-94310474D01*
X124967451Y-94343464D01*
X125100604Y-94415523D01*
X125125190Y-94428828D01*
X125360386Y-94509571D01*
X125605665Y-94550500D01*
X125854335Y-94550500D01*
X126099614Y-94509571D01*
X126334810Y-94428828D01*
X126553509Y-94310474D01*
X126749744Y-94157738D01*
X126918164Y-93974785D01*
X127054173Y-93766607D01*
X127154063Y-93538881D01*
X127215108Y-93297821D01*
X127224465Y-93184898D01*
X127235643Y-93050005D01*
X127235643Y-93049994D01*
X127215109Y-92802187D01*
X127215107Y-92802175D01*
X127154063Y-92561118D01*
X127054173Y-92333393D01*
X126918166Y-92125217D01*
X126861739Y-92063921D01*
X126749744Y-91942262D01*
X126553509Y-91789526D01*
X126553507Y-91789525D01*
X126553506Y-91789524D01*
X126334811Y-91671172D01*
X126334802Y-91671169D01*
X126099616Y-91590429D01*
X125854335Y-91549500D01*
X125605665Y-91549500D01*
X125360383Y-91590429D01*
X125125197Y-91671169D01*
X125125188Y-91671172D01*
X124906493Y-91789524D01*
X124710257Y-91942261D01*
X124541833Y-92125217D01*
X124405826Y-92333393D01*
X124305936Y-92561118D01*
X124244892Y-92802175D01*
X124244890Y-92802187D01*
X124224357Y-93049994D01*
X123316794Y-93049994D01*
X123281562Y-93017876D01*
X123281560Y-93017874D01*
X123092404Y-92900754D01*
X123092398Y-92900752D01*
X122884940Y-92820382D01*
X122666243Y-92779500D01*
X122443757Y-92779500D01*
X122225060Y-92820382D01*
X122111016Y-92864563D01*
X122017601Y-92900752D01*
X122017595Y-92900754D01*
X121828439Y-93017874D01*
X121828437Y-93017876D01*
X121664020Y-93167761D01*
X121529943Y-93345308D01*
X121529938Y-93345316D01*
X121430775Y-93544461D01*
X121430769Y-93544476D01*
X121369885Y-93758462D01*
X121369884Y-93758464D01*
X121349357Y-93979999D01*
X118084449Y-93979999D01*
X118084449Y-88549994D01*
X124224859Y-88549994D01*
X124224859Y-88550005D01*
X124245385Y-88797729D01*
X124245387Y-88797738D01*
X124306412Y-89038717D01*
X124406266Y-89266364D01*
X124506564Y-89419882D01*
X125206212Y-88720234D01*
X125217482Y-88762292D01*
X125289890Y-88887708D01*
X125392292Y-88990110D01*
X125517708Y-89062518D01*
X125559765Y-89073787D01*
X124859942Y-89773609D01*
X124906768Y-89810055D01*
X124906770Y-89810056D01*
X125125385Y-89928364D01*
X125125396Y-89928369D01*
X125360506Y-90009083D01*
X125605707Y-90050000D01*
X125854293Y-90050000D01*
X126099493Y-90009083D01*
X126334603Y-89928369D01*
X126334614Y-89928364D01*
X126553228Y-89810057D01*
X126553231Y-89810055D01*
X126600056Y-89773609D01*
X125900234Y-89073787D01*
X125942292Y-89062518D01*
X126067708Y-88990110D01*
X126170110Y-88887708D01*
X126242518Y-88762292D01*
X126253787Y-88720235D01*
X126953434Y-89419882D01*
X127053731Y-89266369D01*
X127153587Y-89038717D01*
X127214612Y-88797738D01*
X127214614Y-88797729D01*
X127235141Y-88550005D01*
X127235141Y-88549994D01*
X130724859Y-88549994D01*
X130724859Y-88550005D01*
X130745385Y-88797729D01*
X130745387Y-88797738D01*
X130806412Y-89038717D01*
X130906266Y-89266364D01*
X131006564Y-89419882D01*
X131706212Y-88720234D01*
X131717482Y-88762292D01*
X131789890Y-88887708D01*
X131892292Y-88990110D01*
X132017708Y-89062518D01*
X132059765Y-89073787D01*
X131359942Y-89773609D01*
X131406768Y-89810055D01*
X131406770Y-89810056D01*
X131625385Y-89928364D01*
X131625396Y-89928369D01*
X131860506Y-90009083D01*
X132105707Y-90050000D01*
X132354293Y-90050000D01*
X132599493Y-90009083D01*
X132834603Y-89928369D01*
X132834614Y-89928364D01*
X133053228Y-89810057D01*
X133053231Y-89810055D01*
X133100056Y-89773609D01*
X132400234Y-89073787D01*
X132442292Y-89062518D01*
X132567708Y-88990110D01*
X132670110Y-88887708D01*
X132742518Y-88762292D01*
X132753787Y-88720235D01*
X133453434Y-89419882D01*
X133553731Y-89266369D01*
X133653587Y-89038717D01*
X133714612Y-88797738D01*
X133714614Y-88797729D01*
X133735141Y-88550005D01*
X133735141Y-88549994D01*
X133714614Y-88302270D01*
X133714612Y-88302261D01*
X133653587Y-88061282D01*
X133553731Y-87833630D01*
X133453434Y-87680116D01*
X132753787Y-88379764D01*
X132742518Y-88337708D01*
X132670110Y-88212292D01*
X132567708Y-88109890D01*
X132442292Y-88037482D01*
X132400235Y-88026212D01*
X133100057Y-87326390D01*
X133100056Y-87326389D01*
X133053229Y-87289943D01*
X132834614Y-87171635D01*
X132834603Y-87171630D01*
X132599493Y-87090916D01*
X132354293Y-87050000D01*
X132105707Y-87050000D01*
X131860506Y-87090916D01*
X131625396Y-87171630D01*
X131625390Y-87171632D01*
X131406761Y-87289949D01*
X131359942Y-87326388D01*
X131359942Y-87326390D01*
X132059765Y-88026212D01*
X132017708Y-88037482D01*
X131892292Y-88109890D01*
X131789890Y-88212292D01*
X131717482Y-88337708D01*
X131706212Y-88379764D01*
X131006564Y-87680116D01*
X130906267Y-87833632D01*
X130806412Y-88061282D01*
X130745387Y-88302261D01*
X130745385Y-88302270D01*
X130724859Y-88549994D01*
X127235141Y-88549994D01*
X127214614Y-88302270D01*
X127214612Y-88302261D01*
X127153587Y-88061282D01*
X127053731Y-87833630D01*
X126953434Y-87680116D01*
X126253787Y-88379764D01*
X126242518Y-88337708D01*
X126170110Y-88212292D01*
X126067708Y-88109890D01*
X125942292Y-88037482D01*
X125900235Y-88026212D01*
X126600057Y-87326390D01*
X126600056Y-87326389D01*
X126553229Y-87289943D01*
X126334614Y-87171635D01*
X126334603Y-87171630D01*
X126099493Y-87090916D01*
X125854293Y-87050000D01*
X125605707Y-87050000D01*
X125360506Y-87090916D01*
X125125396Y-87171630D01*
X125125390Y-87171632D01*
X124906761Y-87289949D01*
X124859942Y-87326388D01*
X124859942Y-87326390D01*
X125559765Y-88026212D01*
X125517708Y-88037482D01*
X125392292Y-88109890D01*
X125289890Y-88212292D01*
X125217482Y-88337708D01*
X125206212Y-88379764D01*
X124506564Y-87680116D01*
X124406267Y-87833632D01*
X124306412Y-88061282D01*
X124245387Y-88302261D01*
X124245385Y-88302270D01*
X124224859Y-88549994D01*
X118084449Y-88549994D01*
X118084449Y-84454999D01*
X121349357Y-84454999D01*
X121349357Y-84455000D01*
X121369884Y-84676535D01*
X121369885Y-84676537D01*
X121430769Y-84890523D01*
X121430775Y-84890538D01*
X121529938Y-85089683D01*
X121529943Y-85089691D01*
X121664020Y-85267237D01*
X121717360Y-85315863D01*
X121753641Y-85375575D01*
X121751880Y-85445422D01*
X121717360Y-85499137D01*
X121664020Y-85547762D01*
X121529943Y-85725308D01*
X121529938Y-85725316D01*
X121430775Y-85924461D01*
X121430769Y-85924476D01*
X121369885Y-86138462D01*
X121369884Y-86138464D01*
X121349357Y-86359999D01*
X121349357Y-86360000D01*
X121369884Y-86581535D01*
X121369885Y-86581537D01*
X121430769Y-86795523D01*
X121430775Y-86795538D01*
X121529938Y-86994683D01*
X121529943Y-86994691D01*
X121664020Y-87172238D01*
X121828437Y-87322123D01*
X121828439Y-87322125D01*
X122017595Y-87439245D01*
X122017596Y-87439245D01*
X122017599Y-87439247D01*
X122225060Y-87519618D01*
X122443757Y-87560500D01*
X122443759Y-87560500D01*
X122666241Y-87560500D01*
X122666243Y-87560500D01*
X122884940Y-87519618D01*
X123092401Y-87439247D01*
X123281562Y-87322124D01*
X123421282Y-87194751D01*
X123445979Y-87172238D01*
X123446435Y-87171635D01*
X123580058Y-86994689D01*
X123679229Y-86795528D01*
X123740115Y-86581536D01*
X123760643Y-86360000D01*
X123759580Y-86348533D01*
X123740115Y-86138464D01*
X123740114Y-86138462D01*
X123735974Y-86123913D01*
X123679229Y-85924472D01*
X123679224Y-85924461D01*
X123580061Y-85725316D01*
X123580056Y-85725308D01*
X123445979Y-85547761D01*
X123392640Y-85499137D01*
X123356358Y-85439426D01*
X123358119Y-85369579D01*
X123392640Y-85315863D01*
X123445979Y-85267238D01*
X123448656Y-85263694D01*
X123580058Y-85089689D01*
X123679229Y-84890528D01*
X123740115Y-84676536D01*
X123756474Y-84499994D01*
X124224357Y-84499994D01*
X124224357Y-84500005D01*
X124244890Y-84747812D01*
X124244892Y-84747824D01*
X124305936Y-84988881D01*
X124405826Y-85216606D01*
X124541833Y-85424782D01*
X124555314Y-85439426D01*
X124710256Y-85607738D01*
X124906491Y-85760474D01*
X125125190Y-85878828D01*
X125360386Y-85959571D01*
X125605665Y-86000500D01*
X125854335Y-86000500D01*
X126099614Y-85959571D01*
X126334810Y-85878828D01*
X126553509Y-85760474D01*
X126749744Y-85607738D01*
X126918164Y-85424785D01*
X127054173Y-85216607D01*
X127154063Y-84988881D01*
X127215108Y-84747821D01*
X127216592Y-84729910D01*
X127235643Y-84500005D01*
X127235643Y-84499994D01*
X130724357Y-84499994D01*
X130724357Y-84500005D01*
X130744890Y-84747812D01*
X130744892Y-84747824D01*
X130805936Y-84988881D01*
X130905826Y-85216606D01*
X131041833Y-85424782D01*
X131055314Y-85439426D01*
X131210256Y-85607738D01*
X131406491Y-85760474D01*
X131625190Y-85878828D01*
X131860386Y-85959571D01*
X132105665Y-86000500D01*
X132354335Y-86000500D01*
X132599614Y-85959571D01*
X132834810Y-85878828D01*
X133053509Y-85760474D01*
X133249744Y-85607738D01*
X133418164Y-85424785D01*
X133554173Y-85216607D01*
X133654063Y-84988881D01*
X133715108Y-84747821D01*
X133716592Y-84729910D01*
X133735643Y-84500005D01*
X133735643Y-84499994D01*
X133715109Y-84252187D01*
X133715107Y-84252175D01*
X133654063Y-84011118D01*
X133554173Y-83783393D01*
X133418166Y-83575217D01*
X133380404Y-83534197D01*
X133249744Y-83392262D01*
X133053509Y-83239526D01*
X133053507Y-83239525D01*
X133053506Y-83239524D01*
X132834811Y-83121172D01*
X132834802Y-83121169D01*
X132599616Y-83040429D01*
X132354335Y-82999500D01*
X132105665Y-82999500D01*
X131860383Y-83040429D01*
X131625197Y-83121169D01*
X131625188Y-83121172D01*
X131406493Y-83239524D01*
X131210257Y-83392261D01*
X131041833Y-83575217D01*
X130905826Y-83783393D01*
X130805936Y-84011118D01*
X130744892Y-84252175D01*
X130744890Y-84252187D01*
X130724357Y-84499994D01*
X127235643Y-84499994D01*
X127215109Y-84252187D01*
X127215107Y-84252175D01*
X127154063Y-84011118D01*
X127054173Y-83783393D01*
X126918166Y-83575217D01*
X126880404Y-83534197D01*
X126749744Y-83392262D01*
X126553509Y-83239526D01*
X126553507Y-83239525D01*
X126553506Y-83239524D01*
X126334811Y-83121172D01*
X126334802Y-83121169D01*
X126099616Y-83040429D01*
X125854335Y-82999500D01*
X125605665Y-82999500D01*
X125360383Y-83040429D01*
X125125197Y-83121169D01*
X125125188Y-83121172D01*
X124906493Y-83239524D01*
X124710257Y-83392261D01*
X124541833Y-83575217D01*
X124405826Y-83783393D01*
X124305936Y-84011118D01*
X124244892Y-84252175D01*
X124244890Y-84252187D01*
X124224357Y-84499994D01*
X123756474Y-84499994D01*
X123760643Y-84455000D01*
X123757506Y-84421151D01*
X123740115Y-84233464D01*
X123740114Y-84233462D01*
X123738233Y-84226852D01*
X123679229Y-84019472D01*
X123675070Y-84011119D01*
X123580061Y-83820316D01*
X123580056Y-83820308D01*
X123445979Y-83642761D01*
X123281562Y-83492876D01*
X123281560Y-83492874D01*
X123092404Y-83375754D01*
X123092398Y-83375752D01*
X122884940Y-83295382D01*
X122666243Y-83254500D01*
X122443757Y-83254500D01*
X122225060Y-83295382D01*
X122093864Y-83346207D01*
X122017601Y-83375752D01*
X122017595Y-83375754D01*
X121828439Y-83492874D01*
X121828437Y-83492876D01*
X121664020Y-83642761D01*
X121529943Y-83820308D01*
X121529938Y-83820316D01*
X121430775Y-84019461D01*
X121430769Y-84019476D01*
X121369885Y-84233462D01*
X121369884Y-84233464D01*
X121349357Y-84454999D01*
X118084449Y-84454999D01*
X118084449Y-74929999D01*
X121349357Y-74929999D01*
X121349357Y-74930000D01*
X121369884Y-75151535D01*
X121369885Y-75151537D01*
X121430769Y-75365523D01*
X121430775Y-75365538D01*
X121529938Y-75564683D01*
X121529943Y-75564691D01*
X121620550Y-75684673D01*
X121633775Y-75702187D01*
X121664020Y-75742237D01*
X121717360Y-75790863D01*
X121753641Y-75850575D01*
X121751880Y-75920422D01*
X121717360Y-75974137D01*
X121664020Y-76022762D01*
X121529943Y-76200308D01*
X121529938Y-76200316D01*
X121430775Y-76399461D01*
X121430769Y-76399476D01*
X121369885Y-76613462D01*
X121369884Y-76613464D01*
X121349357Y-76834999D01*
X121349357Y-76835000D01*
X121369884Y-77056535D01*
X121369885Y-77056537D01*
X121430769Y-77270523D01*
X121430775Y-77270538D01*
X121529938Y-77469683D01*
X121529943Y-77469691D01*
X121664020Y-77647238D01*
X121828437Y-77797123D01*
X121828439Y-77797125D01*
X122017595Y-77914245D01*
X122017596Y-77914245D01*
X122017599Y-77914247D01*
X122225060Y-77994618D01*
X122443757Y-78035500D01*
X122443759Y-78035500D01*
X122642771Y-78035500D01*
X122709810Y-78055185D01*
X122730452Y-78071819D01*
X123067185Y-78408552D01*
X123094439Y-78426762D01*
X123107974Y-78435806D01*
X123190098Y-78490680D01*
X123190111Y-78490687D01*
X123246679Y-78514118D01*
X123246680Y-78514118D01*
X123326688Y-78547259D01*
X123442841Y-78570363D01*
X123462068Y-78574187D01*
X123471681Y-78576100D01*
X123471682Y-78576100D01*
X123471683Y-78576100D01*
X123619518Y-78576100D01*
X124756073Y-78576100D01*
X124823112Y-78595785D01*
X124868867Y-78648589D01*
X124878811Y-78717747D01*
X124861187Y-78756336D01*
X124859942Y-78776390D01*
X125559765Y-79476212D01*
X125517708Y-79487482D01*
X125392292Y-79559890D01*
X125289890Y-79662292D01*
X125217482Y-79787708D01*
X125206212Y-79829764D01*
X124506564Y-79130116D01*
X124406267Y-79283632D01*
X124306412Y-79511282D01*
X124245387Y-79752261D01*
X124245385Y-79752270D01*
X124224859Y-79999994D01*
X124224859Y-80000005D01*
X124245385Y-80247729D01*
X124245387Y-80247738D01*
X124306412Y-80488717D01*
X124406266Y-80716364D01*
X124506564Y-80869882D01*
X125206212Y-80170234D01*
X125217482Y-80212292D01*
X125289890Y-80337708D01*
X125392292Y-80440110D01*
X125517708Y-80512518D01*
X125559765Y-80523787D01*
X124859942Y-81223609D01*
X124906768Y-81260055D01*
X124906770Y-81260056D01*
X125125385Y-81378364D01*
X125125396Y-81378369D01*
X125360506Y-81459083D01*
X125605707Y-81500000D01*
X125854293Y-81500000D01*
X126099493Y-81459083D01*
X126334603Y-81378369D01*
X126334614Y-81378364D01*
X126553228Y-81260057D01*
X126553231Y-81260055D01*
X126600056Y-81223609D01*
X125900234Y-80523787D01*
X125942292Y-80512518D01*
X126067708Y-80440110D01*
X126170110Y-80337708D01*
X126242518Y-80212292D01*
X126253787Y-80170235D01*
X126953434Y-80869882D01*
X127053731Y-80716369D01*
X127153587Y-80488717D01*
X127214612Y-80247738D01*
X127214614Y-80247729D01*
X127235141Y-80000005D01*
X127235141Y-79999994D01*
X127214614Y-79752270D01*
X127214612Y-79752261D01*
X127153587Y-79511282D01*
X127053731Y-79283630D01*
X126953434Y-79130116D01*
X126253787Y-79829764D01*
X126242518Y-79787708D01*
X126170110Y-79662292D01*
X126067708Y-79559890D01*
X125942292Y-79487482D01*
X125900235Y-79476212D01*
X126600057Y-78776390D01*
X126598906Y-78757855D01*
X126586952Y-78741246D01*
X126583276Y-78671473D01*
X126617905Y-78610789D01*
X126679846Y-78578461D01*
X126703926Y-78576100D01*
X131256073Y-78576100D01*
X131323112Y-78595785D01*
X131368867Y-78648589D01*
X131378811Y-78717747D01*
X131361187Y-78756336D01*
X131359942Y-78776390D01*
X132059765Y-79476212D01*
X132017708Y-79487482D01*
X131892292Y-79559890D01*
X131789890Y-79662292D01*
X131717482Y-79787708D01*
X131706212Y-79829764D01*
X131006564Y-79130116D01*
X130906267Y-79283632D01*
X130806412Y-79511282D01*
X130745387Y-79752261D01*
X130745385Y-79752270D01*
X130724859Y-79999994D01*
X130724859Y-80000005D01*
X130745385Y-80247729D01*
X130745387Y-80247738D01*
X130806412Y-80488717D01*
X130906266Y-80716364D01*
X131006564Y-80869882D01*
X131706212Y-80170234D01*
X131717482Y-80212292D01*
X131789890Y-80337708D01*
X131892292Y-80440110D01*
X132017708Y-80512518D01*
X132059765Y-80523787D01*
X131359942Y-81223609D01*
X131406768Y-81260055D01*
X131406770Y-81260056D01*
X131625385Y-81378364D01*
X131625396Y-81378369D01*
X131860506Y-81459083D01*
X132105707Y-81500000D01*
X132354293Y-81500000D01*
X132599493Y-81459083D01*
X132834603Y-81378369D01*
X132834614Y-81378364D01*
X133053228Y-81260057D01*
X133053231Y-81260055D01*
X133100056Y-81223609D01*
X132400234Y-80523787D01*
X132442292Y-80512518D01*
X132567708Y-80440110D01*
X132670110Y-80337708D01*
X132742518Y-80212292D01*
X132753787Y-80170235D01*
X133453434Y-80869882D01*
X133553731Y-80716369D01*
X133653587Y-80488717D01*
X133714612Y-80247738D01*
X133714614Y-80247729D01*
X133735141Y-80000005D01*
X133735141Y-79999994D01*
X133714614Y-79752270D01*
X133714612Y-79752261D01*
X133653587Y-79511282D01*
X133553731Y-79283630D01*
X133453434Y-79130116D01*
X132753787Y-79829764D01*
X132742518Y-79787708D01*
X132670110Y-79662292D01*
X132567708Y-79559890D01*
X132442292Y-79487482D01*
X132400235Y-79476212D01*
X133100057Y-78776390D01*
X133098906Y-78757855D01*
X133086952Y-78741246D01*
X133083276Y-78671473D01*
X133117905Y-78610789D01*
X133179846Y-78578461D01*
X133203926Y-78576100D01*
X150903682Y-78576100D01*
X151123370Y-78576100D01*
X151190409Y-78595785D01*
X151211051Y-78612419D01*
X152329170Y-79730538D01*
X153446054Y-80847421D01*
X153479539Y-80908744D01*
X153476304Y-80973419D01*
X153469553Y-80994195D01*
X153444439Y-81152761D01*
X153439500Y-81183945D01*
X153439500Y-81376055D01*
X153446910Y-81422837D01*
X153469553Y-81565802D01*
X153528916Y-81748506D01*
X153575320Y-81839577D01*
X153616135Y-81919681D01*
X153729055Y-82075102D01*
X153864898Y-82210945D01*
X154020319Y-82323865D01*
X154191491Y-82411082D01*
X154191493Y-82411083D01*
X154256081Y-82432069D01*
X154313756Y-82471506D01*
X154340955Y-82535865D01*
X154329041Y-82604711D01*
X154281797Y-82656187D01*
X154256081Y-82667931D01*
X154191493Y-82688916D01*
X154020318Y-82776135D01*
X153931645Y-82840560D01*
X153864898Y-82889055D01*
X153864896Y-82889057D01*
X153864895Y-82889057D01*
X153729057Y-83024895D01*
X153729057Y-83024896D01*
X153729055Y-83024898D01*
X153695013Y-83071753D01*
X153616135Y-83180318D01*
X153528916Y-83351493D01*
X153469553Y-83534197D01*
X153439500Y-83723945D01*
X153439500Y-83916054D01*
X153469553Y-84105802D01*
X153528916Y-84288506D01*
X153536181Y-84302764D01*
X153616135Y-84459681D01*
X153729055Y-84615102D01*
X153864898Y-84750945D01*
X154020319Y-84863865D01*
X154123240Y-84916306D01*
X154191493Y-84951083D01*
X154256081Y-84972069D01*
X154313756Y-85011506D01*
X154340955Y-85075865D01*
X154329041Y-85144711D01*
X154281797Y-85196187D01*
X154256081Y-85207931D01*
X154191493Y-85228916D01*
X154020318Y-85316135D01*
X153864895Y-85429057D01*
X153729057Y-85564895D01*
X153729057Y-85564896D01*
X153729055Y-85564898D01*
X153697930Y-85607738D01*
X153616135Y-85720318D01*
X153528916Y-85891493D01*
X153469553Y-86074197D01*
X153450539Y-86194245D01*
X153439500Y-86263945D01*
X153439500Y-86456055D01*
X153444876Y-86489999D01*
X153469553Y-86645802D01*
X153528916Y-86828506D01*
X153558346Y-86886264D01*
X153616135Y-86999681D01*
X153729055Y-87155102D01*
X153864898Y-87290945D01*
X154020319Y-87403865D01*
X154191491Y-87491082D01*
X154191493Y-87491083D01*
X154256081Y-87512069D01*
X154313756Y-87551506D01*
X154340955Y-87615865D01*
X154329041Y-87684711D01*
X154281797Y-87736187D01*
X154256081Y-87747931D01*
X154191493Y-87768916D01*
X154020318Y-87856135D01*
X153965056Y-87896286D01*
X153864898Y-87969055D01*
X153864896Y-87969057D01*
X153864895Y-87969057D01*
X153729057Y-88104895D01*
X153729057Y-88104896D01*
X153729055Y-88104898D01*
X153680560Y-88171645D01*
X153616135Y-88260318D01*
X153528916Y-88431493D01*
X153469553Y-88614197D01*
X153439500Y-88803945D01*
X153439500Y-88996054D01*
X153469553Y-89185802D01*
X153528916Y-89368506D01*
X153596171Y-89500500D01*
X153616135Y-89539681D01*
X153729055Y-89695102D01*
X153864898Y-89830945D01*
X154020319Y-89943865D01*
X154148316Y-90009083D01*
X154191493Y-90031083D01*
X154256081Y-90052069D01*
X154313756Y-90091506D01*
X154340955Y-90155865D01*
X154329041Y-90224711D01*
X154281797Y-90276187D01*
X154256081Y-90287931D01*
X154191493Y-90308916D01*
X154020318Y-90396135D01*
X153942224Y-90452874D01*
X153864898Y-90509055D01*
X153864896Y-90509057D01*
X153864895Y-90509057D01*
X153729057Y-90644895D01*
X153729057Y-90644896D01*
X153729055Y-90644898D01*
X153680560Y-90711645D01*
X153616135Y-90800318D01*
X153528916Y-90971493D01*
X153469553Y-91154197D01*
X153451797Y-91266306D01*
X153439500Y-91343945D01*
X153439500Y-91536055D01*
X153448112Y-91590429D01*
X153469553Y-91725802D01*
X153528326Y-91906688D01*
X153530321Y-91976529D01*
X153498076Y-92032687D01*
X152577181Y-92953583D01*
X152515858Y-92987068D01*
X152446167Y-92982084D01*
X152390233Y-92940212D01*
X152365816Y-92874748D01*
X152365500Y-92865902D01*
X152365500Y-82004060D01*
X152365501Y-82004047D01*
X152365501Y-81835944D01*
X152358721Y-81810641D01*
X152324577Y-81683216D01*
X152302152Y-81644374D01*
X152245524Y-81546290D01*
X152245518Y-81546282D01*
X151617590Y-80918355D01*
X151617588Y-80918352D01*
X151498717Y-80799481D01*
X151498716Y-80799480D01*
X151411904Y-80749360D01*
X151411904Y-80749359D01*
X151411900Y-80749358D01*
X151361785Y-80720423D01*
X151209057Y-80679499D01*
X151050943Y-80679499D01*
X151043347Y-80679499D01*
X151043331Y-80679500D01*
X148944499Y-80679500D01*
X148877460Y-80659815D01*
X148831705Y-80607011D01*
X148820499Y-80555500D01*
X148820499Y-80512129D01*
X148820498Y-80512123D01*
X148820497Y-80512116D01*
X148814091Y-80452517D01*
X148809463Y-80440110D01*
X148763797Y-80317671D01*
X148763793Y-80317664D01*
X148677547Y-80202455D01*
X148677544Y-80202452D01*
X148562335Y-80116206D01*
X148562328Y-80116202D01*
X148427482Y-80065908D01*
X148427483Y-80065908D01*
X148367883Y-80059501D01*
X148367881Y-80059500D01*
X148367873Y-80059500D01*
X148367864Y-80059500D01*
X146272129Y-80059500D01*
X146272123Y-80059501D01*
X146212516Y-80065908D01*
X146077671Y-80116202D01*
X146077664Y-80116206D01*
X145962455Y-80202452D01*
X145962452Y-80202455D01*
X145876206Y-80317664D01*
X145876202Y-80317671D01*
X145825908Y-80452517D01*
X145819501Y-80512116D01*
X145819501Y-80512123D01*
X145819500Y-80512135D01*
X145819500Y-82047870D01*
X145819501Y-82047876D01*
X145825908Y-82107483D01*
X145876202Y-82242328D01*
X145876206Y-82242335D01*
X145962452Y-82357544D01*
X145962455Y-82357547D01*
X146077664Y-82443793D01*
X146077671Y-82443797D01*
X146212517Y-82494091D01*
X146212516Y-82494091D01*
X146219444Y-82494835D01*
X146272127Y-82500500D01*
X146424787Y-82500499D01*
X146491824Y-82520183D01*
X146537579Y-82572987D01*
X146547523Y-82642145D01*
X146518498Y-82705701D01*
X146481081Y-82734983D01*
X146400321Y-82776133D01*
X146334798Y-82823739D01*
X146244898Y-82889055D01*
X146244896Y-82889057D01*
X146244895Y-82889057D01*
X146109057Y-83024895D01*
X146109057Y-83024896D01*
X146109055Y-83024898D01*
X146075013Y-83071753D01*
X145996135Y-83180318D01*
X145908916Y-83351493D01*
X145849553Y-83534197D01*
X145819500Y-83723945D01*
X145819500Y-83916054D01*
X145849553Y-84105802D01*
X145908326Y-84286688D01*
X145910321Y-84356529D01*
X145878076Y-84412687D01*
X137877584Y-92413181D01*
X137816261Y-92446666D01*
X137789903Y-92449500D01*
X133686116Y-92449500D01*
X133619077Y-92429815D01*
X133573322Y-92377011D01*
X133572560Y-92375311D01*
X133554172Y-92333391D01*
X133418166Y-92125217D01*
X133361739Y-92063921D01*
X133249744Y-91942262D01*
X133053509Y-91789526D01*
X133053507Y-91789525D01*
X133053506Y-91789524D01*
X132834811Y-91671172D01*
X132834802Y-91671169D01*
X132599616Y-91590429D01*
X132354335Y-91549500D01*
X132105665Y-91549500D01*
X131860383Y-91590429D01*
X131625197Y-91671169D01*
X131625188Y-91671172D01*
X131406493Y-91789524D01*
X131210257Y-91942261D01*
X131041833Y-92125217D01*
X130905826Y-92333393D01*
X130805936Y-92561118D01*
X130744892Y-92802175D01*
X130744890Y-92802187D01*
X130724357Y-93049994D01*
X130724357Y-93050005D01*
X130744890Y-93297812D01*
X130744892Y-93297824D01*
X130805936Y-93538881D01*
X130905826Y-93766606D01*
X131041833Y-93974782D01*
X131041836Y-93974785D01*
X131210256Y-94157738D01*
X131406491Y-94310474D01*
X131467451Y-94343464D01*
X131600604Y-94415523D01*
X131625190Y-94428828D01*
X131860386Y-94509571D01*
X132105665Y-94550500D01*
X132354335Y-94550500D01*
X132599614Y-94509571D01*
X132834810Y-94428828D01*
X133053509Y-94310474D01*
X133249744Y-94157738D01*
X133418164Y-93974785D01*
X133554173Y-93766607D01*
X133572560Y-93724689D01*
X133617517Y-93671204D01*
X133684253Y-93650514D01*
X133686116Y-93650500D01*
X138003331Y-93650500D01*
X138003347Y-93650501D01*
X138010943Y-93650501D01*
X138169054Y-93650501D01*
X138169057Y-93650501D01*
X138321785Y-93609577D01*
X138377972Y-93577137D01*
X138458716Y-93530520D01*
X138570520Y-93418716D01*
X138570520Y-93418714D01*
X138580724Y-93408511D01*
X138580728Y-93408506D01*
X145608417Y-86380816D01*
X145669738Y-86347333D01*
X145739430Y-86352317D01*
X145795363Y-86394189D01*
X145816986Y-86451520D01*
X145818738Y-86451243D01*
X145819500Y-86456054D01*
X145819500Y-86456055D01*
X145824876Y-86489999D01*
X145849553Y-86645802D01*
X145908916Y-86828506D01*
X145938346Y-86886264D01*
X145996135Y-86999681D01*
X146109055Y-87155102D01*
X146244898Y-87290945D01*
X146400319Y-87403865D01*
X146571491Y-87491082D01*
X146571493Y-87491083D01*
X146636081Y-87512069D01*
X146693756Y-87551506D01*
X146720955Y-87615865D01*
X146709041Y-87684711D01*
X146661797Y-87736187D01*
X146636081Y-87747931D01*
X146571493Y-87768916D01*
X146400318Y-87856135D01*
X146345056Y-87896286D01*
X146244898Y-87969055D01*
X146244896Y-87969057D01*
X146244895Y-87969057D01*
X146109057Y-88104895D01*
X146109057Y-88104896D01*
X146109055Y-88104898D01*
X146060560Y-88171645D01*
X145996135Y-88260318D01*
X145908916Y-88431493D01*
X145849553Y-88614197D01*
X145819500Y-88803945D01*
X145819500Y-88996054D01*
X145849553Y-89185802D01*
X145908916Y-89368506D01*
X145976171Y-89500500D01*
X145996135Y-89539681D01*
X146109055Y-89695102D01*
X146244898Y-89830945D01*
X146400319Y-89943865D01*
X146528316Y-90009083D01*
X146571493Y-90031083D01*
X146636081Y-90052069D01*
X146693756Y-90091506D01*
X146720955Y-90155865D01*
X146709041Y-90224711D01*
X146661797Y-90276187D01*
X146636081Y-90287931D01*
X146571493Y-90308916D01*
X146400318Y-90396135D01*
X146322224Y-90452874D01*
X146244898Y-90509055D01*
X146244896Y-90509057D01*
X146244895Y-90509057D01*
X146109057Y-90644895D01*
X146109057Y-90644896D01*
X146109055Y-90644898D01*
X146017327Y-90771151D01*
X146004805Y-90788386D01*
X145949475Y-90831051D01*
X145904487Y-90839500D01*
X142476670Y-90839500D01*
X142476654Y-90839499D01*
X142469058Y-90839499D01*
X142310943Y-90839499D01*
X142158215Y-90880423D01*
X142158213Y-90880423D01*
X142158213Y-90880424D01*
X142021281Y-90959482D01*
X132833548Y-100147215D01*
X132772225Y-100180700D01*
X132705604Y-100176815D01*
X132599616Y-100140429D01*
X132354335Y-100099500D01*
X132105665Y-100099500D01*
X131860383Y-100140429D01*
X131625197Y-100221169D01*
X131625188Y-100221172D01*
X131406493Y-100339524D01*
X131210257Y-100492261D01*
X131041833Y-100675217D01*
X130905826Y-100883393D01*
X130805936Y-101111118D01*
X130744892Y-101352175D01*
X130744890Y-101352187D01*
X130724357Y-101599994D01*
X130724357Y-101600005D01*
X130744890Y-101847812D01*
X130744891Y-101847819D01*
X130744892Y-101847821D01*
X130752642Y-101878424D01*
X130805936Y-102088881D01*
X130905826Y-102316606D01*
X131041833Y-102524782D01*
X131041836Y-102524785D01*
X131210256Y-102707738D01*
X131406491Y-102860474D01*
X131625190Y-102978828D01*
X131860386Y-103059571D01*
X132009116Y-103084389D01*
X132071999Y-103114838D01*
X132108439Y-103174452D01*
X132106865Y-103244304D01*
X132076386Y-103294378D01*
X130534680Y-104836083D01*
X130473357Y-104869568D01*
X130424215Y-104870291D01*
X130391442Y-104864164D01*
X130286243Y-104844500D01*
X130063757Y-104844500D01*
X129845060Y-104885382D01*
X129713864Y-104936207D01*
X129637601Y-104965752D01*
X129637595Y-104965754D01*
X129448439Y-105082874D01*
X129448437Y-105082876D01*
X129284020Y-105232761D01*
X129149943Y-105410308D01*
X129149938Y-105410316D01*
X129050775Y-105609461D01*
X129050769Y-105609476D01*
X129024266Y-105702627D01*
X128986987Y-105761721D01*
X128923677Y-105791278D01*
X128854438Y-105781916D01*
X128801251Y-105736606D01*
X128785734Y-105702627D01*
X128759230Y-105609476D01*
X128759229Y-105609472D01*
X128660189Y-105410574D01*
X128660061Y-105410316D01*
X128660056Y-105410308D01*
X128525979Y-105232761D01*
X128361562Y-105082876D01*
X128361560Y-105082874D01*
X128172404Y-104965754D01*
X128172398Y-104965752D01*
X127964940Y-104885382D01*
X127746243Y-104844500D01*
X127523757Y-104844500D01*
X127305060Y-104885382D01*
X127173864Y-104936207D01*
X127097601Y-104965752D01*
X127097595Y-104965754D01*
X126908439Y-105082874D01*
X126908437Y-105082876D01*
X126744020Y-105232761D01*
X126609943Y-105410308D01*
X126609938Y-105410316D01*
X126510775Y-105609461D01*
X126510769Y-105609476D01*
X126449885Y-105823462D01*
X126449884Y-105823464D01*
X126429357Y-106044999D01*
X126429357Y-106045000D01*
X126449884Y-106266535D01*
X126449885Y-106266537D01*
X126510769Y-106480523D01*
X126510775Y-106480538D01*
X126609938Y-106679683D01*
X126609943Y-106679691D01*
X126744020Y-106857238D01*
X126908437Y-107007123D01*
X126908439Y-107007125D01*
X127097595Y-107124245D01*
X127097596Y-107124245D01*
X127097599Y-107124247D01*
X127305060Y-107204618D01*
X127523757Y-107245500D01*
X127523759Y-107245500D01*
X127746241Y-107245500D01*
X127746243Y-107245500D01*
X127964940Y-107204618D01*
X128172401Y-107124247D01*
X128361562Y-107007124D01*
X128525981Y-106857236D01*
X128660058Y-106679689D01*
X128759229Y-106480528D01*
X128785734Y-106387371D01*
X128823013Y-106328278D01*
X128886323Y-106298721D01*
X128955562Y-106308083D01*
X129008749Y-106353393D01*
X129024266Y-106387372D01*
X129050769Y-106480523D01*
X129050775Y-106480538D01*
X129149938Y-106679683D01*
X129149943Y-106679691D01*
X129284020Y-106857238D01*
X129448437Y-107007123D01*
X129448439Y-107007125D01*
X129637595Y-107124245D01*
X129637596Y-107124245D01*
X129637599Y-107124247D01*
X129845060Y-107204618D01*
X130063757Y-107245500D01*
X130063759Y-107245500D01*
X130286241Y-107245500D01*
X130286243Y-107245500D01*
X130504940Y-107204618D01*
X130712401Y-107124247D01*
X130901562Y-107007124D01*
X131065981Y-106857236D01*
X131200058Y-106679689D01*
X131299229Y-106480528D01*
X131352016Y-106295000D01*
X136618505Y-106295000D01*
X136671239Y-106480349D01*
X136770368Y-106679425D01*
X136904391Y-106856900D01*
X137068738Y-107006721D01*
X137257820Y-107123797D01*
X137257822Y-107123798D01*
X137465195Y-107204135D01*
X137545000Y-107219052D01*
X138045000Y-107219052D01*
X138124804Y-107204135D01*
X138332177Y-107123798D01*
X138332179Y-107123797D01*
X138521261Y-107006721D01*
X138685608Y-106856900D01*
X138819631Y-106679425D01*
X138918760Y-106480349D01*
X138971495Y-106295000D01*
X138045000Y-106295000D01*
X138045000Y-107219052D01*
X137545000Y-107219052D01*
X137545000Y-106295000D01*
X136618505Y-106295000D01*
X131352016Y-106295000D01*
X131360115Y-106266536D01*
X131380643Y-106045000D01*
X131376373Y-105998922D01*
X137445000Y-105998922D01*
X137445000Y-106091078D01*
X137468852Y-106180095D01*
X137514930Y-106259905D01*
X137580095Y-106325070D01*
X137659905Y-106371148D01*
X137748922Y-106395000D01*
X137841078Y-106395000D01*
X137930095Y-106371148D01*
X138009905Y-106325070D01*
X138075070Y-106259905D01*
X138121148Y-106180095D01*
X138145000Y-106091078D01*
X138145000Y-105998922D01*
X138121148Y-105909905D01*
X138075070Y-105830095D01*
X138039975Y-105795000D01*
X138045000Y-105795000D01*
X138971495Y-105795000D01*
X138918760Y-105609650D01*
X138819631Y-105410574D01*
X138685608Y-105233099D01*
X138521261Y-105083278D01*
X138332179Y-104966202D01*
X138332177Y-104966201D01*
X138124799Y-104885864D01*
X138045000Y-104870946D01*
X138045000Y-105795000D01*
X138039975Y-105795000D01*
X138009905Y-105764930D01*
X137930095Y-105718852D01*
X137841078Y-105695000D01*
X137748922Y-105695000D01*
X137659905Y-105718852D01*
X137580095Y-105764930D01*
X137514930Y-105830095D01*
X137468852Y-105909905D01*
X137445000Y-105998922D01*
X131376373Y-105998922D01*
X131360115Y-105823464D01*
X131354729Y-105804534D01*
X131354809Y-105795000D01*
X136618505Y-105795000D01*
X137545000Y-105795000D01*
X137545000Y-104870946D01*
X137465200Y-104885864D01*
X137257822Y-104966201D01*
X137257820Y-104966202D01*
X137068738Y-105083278D01*
X136904391Y-105233099D01*
X136770368Y-105410574D01*
X136671239Y-105609650D01*
X136618505Y-105795000D01*
X131354809Y-105795000D01*
X131355315Y-105734669D01*
X131386312Y-105682921D01*
X139912416Y-97156819D01*
X139973739Y-97123334D01*
X140000097Y-97120500D01*
X145904487Y-97120500D01*
X145971526Y-97140185D01*
X146004804Y-97171613D01*
X146109055Y-97315102D01*
X146244898Y-97450945D01*
X146400319Y-97563865D01*
X146571491Y-97651082D01*
X146571495Y-97651084D01*
X146636890Y-97672332D01*
X146694566Y-97711769D01*
X146721765Y-97776127D01*
X146709851Y-97844974D01*
X146662607Y-97896450D01*
X146636893Y-97908194D01*
X146571677Y-97929384D01*
X146400577Y-98016565D01*
X146245230Y-98129430D01*
X146245225Y-98129434D01*
X146109434Y-98265225D01*
X146109430Y-98265230D01*
X145996565Y-98420577D01*
X145909383Y-98591680D01*
X145850040Y-98774318D01*
X145844389Y-98810000D01*
X146886988Y-98810000D01*
X146854075Y-98867007D01*
X146820000Y-98994174D01*
X146820000Y-99125826D01*
X146854075Y-99252993D01*
X146886988Y-99310000D01*
X145844389Y-99310000D01*
X145850040Y-99345681D01*
X145909383Y-99528319D01*
X145996565Y-99699422D01*
X146109430Y-99854769D01*
X146109434Y-99854774D01*
X146245225Y-99990565D01*
X146245230Y-99990569D01*
X146400577Y-100103434D01*
X146571678Y-100190616D01*
X146754315Y-100249959D01*
X146943985Y-100280000D01*
X147070000Y-100280000D01*
X147070000Y-99493012D01*
X147127007Y-99525925D01*
X147254174Y-99560000D01*
X147385826Y-99560000D01*
X147512993Y-99525925D01*
X147570000Y-99493012D01*
X147570000Y-100280000D01*
X147696015Y-100280000D01*
X147885684Y-100249959D01*
X148068321Y-100190616D01*
X148239422Y-100103434D01*
X148394769Y-99990569D01*
X148394774Y-99990565D01*
X148530565Y-99854774D01*
X148530569Y-99854769D01*
X148643434Y-99699422D01*
X148730616Y-99528319D01*
X148789959Y-99345681D01*
X148795611Y-99310000D01*
X147753012Y-99310000D01*
X147785925Y-99252993D01*
X147820000Y-99125826D01*
X147820000Y-98994174D01*
X147785925Y-98867007D01*
X147753012Y-98810000D01*
X148795611Y-98810000D01*
X148789959Y-98774318D01*
X148730616Y-98591680D01*
X148643434Y-98420577D01*
X148530569Y-98265230D01*
X148530565Y-98265225D01*
X148394774Y-98129434D01*
X148394769Y-98129430D01*
X148239422Y-98016565D01*
X148068321Y-97929383D01*
X148003107Y-97908194D01*
X147945432Y-97868756D01*
X147918234Y-97804397D01*
X147930149Y-97735551D01*
X147977394Y-97684075D01*
X148003109Y-97672332D01*
X148068504Y-97651084D01*
X148068506Y-97651082D01*
X148068509Y-97651082D01*
X148239681Y-97563865D01*
X148395102Y-97450945D01*
X148530945Y-97315102D01*
X148643865Y-97159681D01*
X148731082Y-96988509D01*
X148790447Y-96805801D01*
X148820500Y-96616055D01*
X148820500Y-96423945D01*
X148790447Y-96234199D01*
X148760764Y-96142845D01*
X148731083Y-96051493D01*
X148724962Y-96039480D01*
X148643865Y-95880319D01*
X148530945Y-95724898D01*
X148395102Y-95589055D01*
X148239681Y-95476135D01*
X148187331Y-95449461D01*
X148068504Y-95388915D01*
X148003919Y-95367931D01*
X147946243Y-95328494D01*
X147919044Y-95264136D01*
X147930958Y-95195289D01*
X147978202Y-95143813D01*
X148003919Y-95132069D01*
X148068504Y-95111084D01*
X148068506Y-95111082D01*
X148068509Y-95111082D01*
X148239681Y-95023865D01*
X148395102Y-94910945D01*
X148530945Y-94775102D01*
X148643865Y-94619681D01*
X148731082Y-94448509D01*
X148790447Y-94265801D01*
X148820500Y-94076055D01*
X148820500Y-93883945D01*
X148790447Y-93694199D01*
X148752411Y-93577135D01*
X148731083Y-93511493D01*
X148717967Y-93485752D01*
X148643865Y-93340319D01*
X148530945Y-93184898D01*
X148395102Y-93049055D01*
X148239681Y-92936135D01*
X148068504Y-92848915D01*
X148003919Y-92827931D01*
X147946243Y-92788494D01*
X147919044Y-92724136D01*
X147930958Y-92655289D01*
X147978202Y-92603813D01*
X148003919Y-92592069D01*
X148068504Y-92571084D01*
X148068506Y-92571082D01*
X148068509Y-92571082D01*
X148239681Y-92483865D01*
X148395102Y-92370945D01*
X148530945Y-92235102D01*
X148643865Y-92079681D01*
X148731082Y-91908509D01*
X148790447Y-91725801D01*
X148820500Y-91536055D01*
X148820500Y-91343945D01*
X148790447Y-91154199D01*
X148735049Y-90983699D01*
X148731083Y-90971493D01*
X148684680Y-90880423D01*
X148643865Y-90800319D01*
X148530945Y-90644898D01*
X148395102Y-90509055D01*
X148239681Y-90396135D01*
X148212756Y-90382416D01*
X148068504Y-90308915D01*
X148003919Y-90287931D01*
X147946243Y-90248494D01*
X147919044Y-90184136D01*
X147930958Y-90115289D01*
X147978202Y-90063813D01*
X148003919Y-90052069D01*
X148068504Y-90031084D01*
X148068506Y-90031082D01*
X148068509Y-90031082D01*
X148239681Y-89943865D01*
X148395102Y-89830945D01*
X148530945Y-89695102D01*
X148635195Y-89551613D01*
X148690525Y-89508949D01*
X148735513Y-89500500D01*
X148924903Y-89500500D01*
X148991942Y-89520185D01*
X149012584Y-89536819D01*
X149858181Y-90382416D01*
X149891666Y-90443739D01*
X149894500Y-90470097D01*
X149894500Y-106379902D01*
X149874815Y-106446941D01*
X149858181Y-106467583D01*
X147762705Y-108563058D01*
X147701382Y-108596543D01*
X147642931Y-108595152D01*
X147546697Y-108569366D01*
X147546693Y-108569365D01*
X147546692Y-108569365D01*
X147546691Y-108569364D01*
X147546686Y-108569364D01*
X147320002Y-108549532D01*
X147319998Y-108549532D01*
X147093313Y-108569364D01*
X147093302Y-108569366D01*
X146873511Y-108628258D01*
X146873502Y-108628261D01*
X146667267Y-108724431D01*
X146667265Y-108724432D01*
X146480858Y-108854954D01*
X146319954Y-109015858D01*
X146189432Y-109202265D01*
X146189431Y-109202267D01*
X146162382Y-109260275D01*
X146116209Y-109312714D01*
X146049016Y-109331866D01*
X145982135Y-109311650D01*
X145937618Y-109260275D01*
X145910568Y-109202267D01*
X145910567Y-109202265D01*
X145780045Y-109015858D01*
X145619141Y-108854954D01*
X145432734Y-108724432D01*
X145432732Y-108724431D01*
X145226497Y-108628261D01*
X145226488Y-108628258D01*
X145006697Y-108569366D01*
X145006693Y-108569365D01*
X145006692Y-108569365D01*
X145006691Y-108569364D01*
X145006686Y-108569364D01*
X144780002Y-108549532D01*
X144779998Y-108549532D01*
X144553313Y-108569364D01*
X144553302Y-108569366D01*
X144333511Y-108628258D01*
X144333502Y-108628261D01*
X144127267Y-108724431D01*
X144127265Y-108724432D01*
X143940858Y-108854954D01*
X143779954Y-109015858D01*
X143649432Y-109202265D01*
X143649431Y-109202267D01*
X143553261Y-109408502D01*
X143553258Y-109408511D01*
X143494366Y-109628302D01*
X143494364Y-109628313D01*
X143474532Y-109854998D01*
X143474532Y-109855001D01*
X143494364Y-110081686D01*
X143494366Y-110081697D01*
X143553258Y-110301488D01*
X143553261Y-110301497D01*
X143649431Y-110507732D01*
X143649432Y-110507734D01*
X143779954Y-110694141D01*
X143940858Y-110855045D01*
X143940861Y-110855047D01*
X144126624Y-110985118D01*
X144170248Y-111039693D01*
X144179500Y-111086692D01*
X144179500Y-114338306D01*
X144159815Y-114405345D01*
X144126623Y-114439881D01*
X143940859Y-114569953D01*
X143779954Y-114730858D01*
X143649432Y-114917265D01*
X143649431Y-114917267D01*
X143553261Y-115123502D01*
X143553258Y-115123511D01*
X143494366Y-115343302D01*
X143494364Y-115343313D01*
X143474532Y-115569998D01*
X143474532Y-115570001D01*
X143494364Y-115796686D01*
X143494366Y-115796697D01*
X143553258Y-116016488D01*
X143553261Y-116016497D01*
X143649431Y-116222732D01*
X143649432Y-116222734D01*
X143779954Y-116409141D01*
X143940858Y-116570045D01*
X143940861Y-116570047D01*
X144127266Y-116700568D01*
X144333504Y-116796739D01*
X144333509Y-116796740D01*
X144333511Y-116796741D01*
X144351989Y-116801692D01*
X144553308Y-116855635D01*
X144715230Y-116869801D01*
X144779998Y-116875468D01*
X144780000Y-116875468D01*
X144780002Y-116875468D01*
X144836807Y-116870498D01*
X145006692Y-116855635D01*
X145226496Y-116796739D01*
X145432734Y-116700568D01*
X145619139Y-116570047D01*
X145780047Y-116409139D01*
X145910568Y-116222734D01*
X145937618Y-116164724D01*
X145983790Y-116112285D01*
X146050983Y-116093133D01*
X146117865Y-116113348D01*
X146162381Y-116164724D01*
X146170676Y-116182512D01*
X146189429Y-116222728D01*
X146189432Y-116222734D01*
X146319954Y-116409141D01*
X146480858Y-116570045D01*
X146480861Y-116570047D01*
X146666624Y-116700118D01*
X146710248Y-116754693D01*
X146719500Y-116801692D01*
X146719500Y-118725908D01*
X146699815Y-118792947D01*
X146647914Y-118838286D01*
X146642173Y-118840963D01*
X146642169Y-118840965D01*
X146448597Y-118976505D01*
X146281505Y-119143597D01*
X146145965Y-119337169D01*
X146145964Y-119337171D01*
X146046098Y-119551335D01*
X146046094Y-119551344D01*
X145984938Y-119779586D01*
X145984936Y-119779596D01*
X145964341Y-120014999D01*
X145964341Y-120015000D01*
X145984936Y-120250403D01*
X145984938Y-120250413D01*
X146046094Y-120478655D01*
X146046096Y-120478659D01*
X146046097Y-120478663D01*
X146126004Y-120650023D01*
X146145965Y-120692830D01*
X146145967Y-120692834D01*
X146254281Y-120847521D01*
X146281505Y-120886401D01*
X146448599Y-121053495D01*
X146525135Y-121107086D01*
X146642165Y-121189032D01*
X146642167Y-121189033D01*
X146642170Y-121189035D01*
X146856337Y-121288903D01*
X147084592Y-121350063D01*
X147255319Y-121365000D01*
X147319999Y-121370659D01*
X147320000Y-121370659D01*
X147320001Y-121370659D01*
X147384681Y-121365000D01*
X147555408Y-121350063D01*
X147783663Y-121288903D01*
X147997830Y-121189035D01*
X148191401Y-121053495D01*
X148358495Y-120886401D01*
X148488425Y-120700842D01*
X148543002Y-120657217D01*
X148612500Y-120650023D01*
X148674855Y-120681546D01*
X148691575Y-120700842D01*
X148821500Y-120886395D01*
X148821505Y-120886401D01*
X148988599Y-121053495D01*
X149065135Y-121107086D01*
X149182165Y-121189032D01*
X149182167Y-121189033D01*
X149182170Y-121189035D01*
X149396337Y-121288903D01*
X149624592Y-121350063D01*
X149795319Y-121365000D01*
X149859999Y-121370659D01*
X149860000Y-121370659D01*
X149860001Y-121370659D01*
X149924681Y-121365000D01*
X150095408Y-121350063D01*
X150323663Y-121288903D01*
X150537830Y-121189035D01*
X150731401Y-121053495D01*
X150898495Y-120886401D01*
X151028425Y-120700842D01*
X151083002Y-120657217D01*
X151152500Y-120650023D01*
X151214855Y-120681546D01*
X151231575Y-120700842D01*
X151361500Y-120886395D01*
X151361505Y-120886401D01*
X151528599Y-121053495D01*
X151605135Y-121107086D01*
X151722165Y-121189032D01*
X151722167Y-121189033D01*
X151722170Y-121189035D01*
X151936337Y-121288903D01*
X152164592Y-121350063D01*
X152335319Y-121365000D01*
X152399999Y-121370659D01*
X152400000Y-121370659D01*
X152400001Y-121370659D01*
X152464681Y-121365000D01*
X152635408Y-121350063D01*
X152863663Y-121288903D01*
X153077830Y-121189035D01*
X153271401Y-121053495D01*
X153438495Y-120886401D01*
X153568425Y-120700842D01*
X153623002Y-120657217D01*
X153692500Y-120650023D01*
X153754855Y-120681546D01*
X153771575Y-120700842D01*
X153901500Y-120886395D01*
X153901505Y-120886401D01*
X154068599Y-121053495D01*
X154145135Y-121107086D01*
X154262165Y-121189032D01*
X154262167Y-121189033D01*
X154262170Y-121189035D01*
X154476337Y-121288903D01*
X154704592Y-121350063D01*
X154875319Y-121365000D01*
X154939999Y-121370659D01*
X154940000Y-121370659D01*
X154940001Y-121370659D01*
X155004681Y-121365000D01*
X155175408Y-121350063D01*
X155403663Y-121288903D01*
X155617830Y-121189035D01*
X155811401Y-121053495D01*
X155933717Y-120931178D01*
X155995036Y-120897696D01*
X156064728Y-120902680D01*
X156120662Y-120944551D01*
X156137577Y-120975528D01*
X156186646Y-121107088D01*
X156186649Y-121107093D01*
X156272809Y-121222187D01*
X156272812Y-121222190D01*
X156387906Y-121308350D01*
X156387913Y-121308354D01*
X156522620Y-121358596D01*
X156522627Y-121358598D01*
X156582155Y-121364999D01*
X156582172Y-121365000D01*
X157230000Y-121365000D01*
X157230000Y-120448012D01*
X157287007Y-120480925D01*
X157414174Y-120515000D01*
X157545826Y-120515000D01*
X157672993Y-120480925D01*
X157730000Y-120448012D01*
X157730000Y-121365000D01*
X158377828Y-121365000D01*
X158377844Y-121364999D01*
X158437372Y-121358598D01*
X158437379Y-121358596D01*
X158572086Y-121308354D01*
X158572093Y-121308350D01*
X158687187Y-121222190D01*
X158687190Y-121222187D01*
X158773350Y-121107093D01*
X158773354Y-121107086D01*
X158823596Y-120972379D01*
X158823598Y-120972372D01*
X158829999Y-120912844D01*
X158830000Y-120912827D01*
X158830000Y-120265000D01*
X157913012Y-120265000D01*
X157945925Y-120207993D01*
X157980000Y-120080826D01*
X157980000Y-119949174D01*
X157945925Y-119822007D01*
X157913012Y-119765000D01*
X158830000Y-119765000D01*
X158830000Y-119117172D01*
X158829999Y-119117155D01*
X158823598Y-119057627D01*
X158823596Y-119057620D01*
X158773354Y-118922913D01*
X158773350Y-118922906D01*
X158687190Y-118807812D01*
X158687187Y-118807809D01*
X158572093Y-118721649D01*
X158572086Y-118721645D01*
X158437379Y-118671403D01*
X158437372Y-118671401D01*
X158377844Y-118665000D01*
X157730000Y-118665000D01*
X157730000Y-119581988D01*
X157672993Y-119549075D01*
X157545826Y-119515000D01*
X157414174Y-119515000D01*
X157287007Y-119549075D01*
X157230000Y-119581988D01*
X157230000Y-118665000D01*
X156582155Y-118665000D01*
X156522627Y-118671401D01*
X156522620Y-118671403D01*
X156387913Y-118721645D01*
X156387906Y-118721649D01*
X156272812Y-118807809D01*
X156272809Y-118807812D01*
X156186649Y-118922906D01*
X156186645Y-118922913D01*
X156137578Y-119054470D01*
X156095707Y-119110404D01*
X156030242Y-119134821D01*
X155961969Y-119119969D01*
X155933715Y-119098819D01*
X155889366Y-119054470D01*
X155811401Y-118976505D01*
X155811397Y-118976502D01*
X155811396Y-118976501D01*
X155617831Y-118840965D01*
X155617826Y-118840962D01*
X155612091Y-118838288D01*
X155559653Y-118792113D01*
X155540500Y-118725908D01*
X155540500Y-116801692D01*
X155560185Y-116734653D01*
X155593374Y-116700119D01*
X155779139Y-116570047D01*
X155940047Y-116409139D01*
X155957272Y-116384539D01*
X156011848Y-116340913D01*
X156081346Y-116333718D01*
X156143701Y-116365239D01*
X156179116Y-116425468D01*
X156182138Y-116442406D01*
X156185908Y-116477483D01*
X156236202Y-116612328D01*
X156236206Y-116612335D01*
X156322452Y-116727544D01*
X156322455Y-116727547D01*
X156437664Y-116813793D01*
X156437671Y-116813797D01*
X156572517Y-116864091D01*
X156572516Y-116864091D01*
X156579444Y-116864835D01*
X156632127Y-116870500D01*
X158327872Y-116870499D01*
X158387483Y-116864091D01*
X158522331Y-116813796D01*
X158637546Y-116727546D01*
X158723796Y-116612331D01*
X158774091Y-116477483D01*
X158780500Y-116417873D01*
X158780499Y-114722128D01*
X158774091Y-114662517D01*
X158773136Y-114659957D01*
X158723797Y-114527671D01*
X158723793Y-114527664D01*
X158637547Y-114412455D01*
X158637544Y-114412452D01*
X158522335Y-114326206D01*
X158522328Y-114326202D01*
X158387482Y-114275908D01*
X158387483Y-114275908D01*
X158327883Y-114269501D01*
X158327881Y-114269500D01*
X158327873Y-114269500D01*
X158327864Y-114269500D01*
X156632129Y-114269500D01*
X156632123Y-114269501D01*
X156572516Y-114275908D01*
X156437671Y-114326202D01*
X156437664Y-114326206D01*
X156322455Y-114412452D01*
X156322452Y-114412455D01*
X156236206Y-114527664D01*
X156236202Y-114527671D01*
X156185908Y-114662516D01*
X156182137Y-114697596D01*
X156155398Y-114762146D01*
X156098006Y-114801994D01*
X156028180Y-114804487D01*
X155968092Y-114768834D01*
X155957273Y-114755462D01*
X155940045Y-114730858D01*
X155779140Y-114569953D01*
X155593377Y-114439881D01*
X155549752Y-114385304D01*
X155540500Y-114338306D01*
X155540500Y-111849054D01*
X160689498Y-111849054D01*
X160730423Y-112001785D01*
X160759358Y-112051900D01*
X160759359Y-112051904D01*
X160759360Y-112051904D01*
X160809479Y-112138714D01*
X160809481Y-112138717D01*
X160928349Y-112257585D01*
X160928355Y-112257590D01*
X163173058Y-114502293D01*
X163206543Y-114563616D01*
X163205152Y-114622067D01*
X163179366Y-114718302D01*
X163179364Y-114718313D01*
X163159532Y-114944998D01*
X163159532Y-114945001D01*
X163179364Y-115171686D01*
X163179366Y-115171697D01*
X163238258Y-115391488D01*
X163238261Y-115391497D01*
X163334431Y-115597732D01*
X163334432Y-115597734D01*
X163464954Y-115784141D01*
X163625858Y-115945045D01*
X163625861Y-115945047D01*
X163812266Y-116075568D01*
X164018504Y-116171739D01*
X164018509Y-116171740D01*
X164018511Y-116171741D01*
X164071415Y-116185916D01*
X164238308Y-116230635D01*
X164400230Y-116244801D01*
X164464998Y-116250468D01*
X164465000Y-116250468D01*
X164465002Y-116250468D01*
X164521673Y-116245509D01*
X164691692Y-116230635D01*
X164911496Y-116171739D01*
X165117734Y-116075568D01*
X165304139Y-115945047D01*
X165465047Y-115784139D01*
X165595568Y-115597734D01*
X165622618Y-115539724D01*
X165668790Y-115487285D01*
X165735983Y-115468133D01*
X165802865Y-115488348D01*
X165847382Y-115539725D01*
X165874429Y-115597728D01*
X165874432Y-115597734D01*
X166004954Y-115784141D01*
X166165858Y-115945045D01*
X166165861Y-115945047D01*
X166352266Y-116075568D01*
X166558504Y-116171739D01*
X166558509Y-116171740D01*
X166558511Y-116171741D01*
X166611415Y-116185916D01*
X166778308Y-116230635D01*
X166940230Y-116244801D01*
X167004998Y-116250468D01*
X167005000Y-116250468D01*
X167005002Y-116250468D01*
X167061673Y-116245509D01*
X167231692Y-116230635D01*
X167451496Y-116171739D01*
X167657734Y-116075568D01*
X167844139Y-115945047D01*
X168005047Y-115784139D01*
X168135568Y-115597734D01*
X168162618Y-115539724D01*
X168208790Y-115487285D01*
X168275983Y-115468133D01*
X168342865Y-115488348D01*
X168387382Y-115539725D01*
X168414429Y-115597728D01*
X168414432Y-115597734D01*
X168544954Y-115784141D01*
X168705858Y-115945045D01*
X168705861Y-115945047D01*
X168892266Y-116075568D01*
X169098504Y-116171739D01*
X169098509Y-116171740D01*
X169098511Y-116171741D01*
X169151415Y-116185916D01*
X169318308Y-116230635D01*
X169480230Y-116244801D01*
X169544998Y-116250468D01*
X169545000Y-116250468D01*
X169545002Y-116250468D01*
X169601673Y-116245509D01*
X169771692Y-116230635D01*
X169888408Y-116199361D01*
X169958256Y-116201024D01*
X170016119Y-116240186D01*
X170043623Y-116304415D01*
X170044500Y-116319136D01*
X170044500Y-118558272D01*
X170024815Y-118625311D01*
X169972011Y-118671066D01*
X169949680Y-118678010D01*
X169949821Y-118678536D01*
X169716344Y-118741094D01*
X169716335Y-118741098D01*
X169502171Y-118840964D01*
X169502169Y-118840965D01*
X169308597Y-118976505D01*
X169141505Y-119143597D01*
X169005965Y-119337169D01*
X169005964Y-119337171D01*
X168906098Y-119551335D01*
X168906094Y-119551344D01*
X168844938Y-119779586D01*
X168844936Y-119779596D01*
X168824341Y-120014999D01*
X168824341Y-120015000D01*
X168844936Y-120250403D01*
X168844938Y-120250413D01*
X168906094Y-120478655D01*
X168906096Y-120478659D01*
X168906097Y-120478663D01*
X168986004Y-120650023D01*
X169005965Y-120692830D01*
X169005967Y-120692834D01*
X169114281Y-120847521D01*
X169141505Y-120886401D01*
X169308599Y-121053495D01*
X169385135Y-121107086D01*
X169502165Y-121189032D01*
X169502167Y-121189033D01*
X169502170Y-121189035D01*
X169716337Y-121288903D01*
X169944592Y-121350063D01*
X170115319Y-121365000D01*
X170179999Y-121370659D01*
X170180000Y-121370659D01*
X170180001Y-121370659D01*
X170244681Y-121365000D01*
X170415408Y-121350063D01*
X170643663Y-121288903D01*
X170857830Y-121189035D01*
X171051401Y-121053495D01*
X171218495Y-120886401D01*
X171348425Y-120700842D01*
X171403002Y-120657217D01*
X171472500Y-120650023D01*
X171534855Y-120681546D01*
X171551575Y-120700842D01*
X171681500Y-120886395D01*
X171681505Y-120886401D01*
X171848599Y-121053495D01*
X171925135Y-121107086D01*
X172042165Y-121189032D01*
X172042167Y-121189033D01*
X172042170Y-121189035D01*
X172256337Y-121288903D01*
X172484592Y-121350063D01*
X172655319Y-121365000D01*
X172719999Y-121370659D01*
X172720000Y-121370659D01*
X172720001Y-121370659D01*
X172784681Y-121365000D01*
X172955408Y-121350063D01*
X173183663Y-121288903D01*
X173397830Y-121189035D01*
X173591401Y-121053495D01*
X173758495Y-120886401D01*
X173888425Y-120700842D01*
X173943002Y-120657217D01*
X174012500Y-120650023D01*
X174074855Y-120681546D01*
X174091575Y-120700842D01*
X174221500Y-120886395D01*
X174221505Y-120886401D01*
X174388599Y-121053495D01*
X174465135Y-121107086D01*
X174582165Y-121189032D01*
X174582167Y-121189033D01*
X174582170Y-121189035D01*
X174796337Y-121288903D01*
X175024592Y-121350063D01*
X175195319Y-121365000D01*
X175259999Y-121370659D01*
X175260000Y-121370659D01*
X175260001Y-121370659D01*
X175324681Y-121365000D01*
X175495408Y-121350063D01*
X175723663Y-121288903D01*
X175937830Y-121189035D01*
X176131401Y-121053495D01*
X176298495Y-120886401D01*
X176428425Y-120700842D01*
X176483002Y-120657217D01*
X176552500Y-120650023D01*
X176614855Y-120681546D01*
X176631575Y-120700842D01*
X176761500Y-120886395D01*
X176761505Y-120886401D01*
X176928599Y-121053495D01*
X177005135Y-121107086D01*
X177122165Y-121189032D01*
X177122167Y-121189033D01*
X177122170Y-121189035D01*
X177336337Y-121288903D01*
X177564592Y-121350063D01*
X177735319Y-121365000D01*
X177799999Y-121370659D01*
X177800000Y-121370659D01*
X177800001Y-121370659D01*
X177864681Y-121365000D01*
X178035408Y-121350063D01*
X178263663Y-121288903D01*
X178477830Y-121189035D01*
X178671401Y-121053495D01*
X178793717Y-120931178D01*
X178855036Y-120897696D01*
X178924728Y-120902680D01*
X178980662Y-120944551D01*
X178997577Y-120975528D01*
X179046646Y-121107088D01*
X179046649Y-121107093D01*
X179132809Y-121222187D01*
X179132812Y-121222190D01*
X179247906Y-121308350D01*
X179247913Y-121308354D01*
X179382620Y-121358596D01*
X179382627Y-121358598D01*
X179442155Y-121364999D01*
X179442172Y-121365000D01*
X180090000Y-121365000D01*
X180090000Y-120448012D01*
X180147007Y-120480925D01*
X180274174Y-120515000D01*
X180405826Y-120515000D01*
X180532993Y-120480925D01*
X180590000Y-120448012D01*
X180590000Y-121365000D01*
X181237828Y-121365000D01*
X181237844Y-121364999D01*
X181297372Y-121358598D01*
X181297379Y-121358596D01*
X181432086Y-121308354D01*
X181432093Y-121308350D01*
X181547187Y-121222190D01*
X181547190Y-121222187D01*
X181633350Y-121107093D01*
X181633354Y-121107086D01*
X181683596Y-120972379D01*
X181683598Y-120972372D01*
X181689999Y-120912844D01*
X181690000Y-120912827D01*
X181690000Y-120265000D01*
X180773012Y-120265000D01*
X180805925Y-120207993D01*
X180840000Y-120080826D01*
X180840000Y-120002660D01*
X188123449Y-120002660D01*
X188123449Y-120245237D01*
X188155110Y-120485734D01*
X188217896Y-120720053D01*
X188310722Y-120944154D01*
X188310725Y-120944161D01*
X188432013Y-121154238D01*
X188432015Y-121154241D01*
X188432016Y-121154242D01*
X188579682Y-121346685D01*
X188579688Y-121346692D01*
X188751205Y-121518209D01*
X188751211Y-121518214D01*
X188943660Y-121665885D01*
X189153737Y-121787173D01*
X189377849Y-121880003D01*
X189612160Y-121942787D01*
X189792535Y-121966533D01*
X189852660Y-121974449D01*
X189852661Y-121974449D01*
X190095238Y-121974449D01*
X190143337Y-121968116D01*
X190335738Y-121942787D01*
X190570049Y-121880003D01*
X190794161Y-121787173D01*
X191004238Y-121665885D01*
X191196687Y-121518214D01*
X191368214Y-121346687D01*
X191515885Y-121154238D01*
X191637173Y-120944161D01*
X191730003Y-120720049D01*
X191792787Y-120485738D01*
X191824449Y-120245237D01*
X191824449Y-120002661D01*
X191792787Y-119762160D01*
X191730003Y-119527849D01*
X191637173Y-119303737D01*
X191515885Y-119093660D01*
X191425986Y-118976501D01*
X191368215Y-118901212D01*
X191368209Y-118901205D01*
X191196692Y-118729688D01*
X191196685Y-118729682D01*
X191004242Y-118582016D01*
X191004241Y-118582015D01*
X191004238Y-118582013D01*
X190832610Y-118482923D01*
X190794163Y-118460726D01*
X190794154Y-118460722D01*
X190570053Y-118367896D01*
X190335734Y-118305110D01*
X190095238Y-118273449D01*
X190095237Y-118273449D01*
X189852661Y-118273449D01*
X189852660Y-118273449D01*
X189612163Y-118305110D01*
X189377844Y-118367896D01*
X189153743Y-118460722D01*
X189153734Y-118460726D01*
X188943655Y-118582016D01*
X188751212Y-118729682D01*
X188751205Y-118729688D01*
X188579688Y-118901205D01*
X188579682Y-118901212D01*
X188432016Y-119093655D01*
X188432013Y-119093659D01*
X188432013Y-119093660D01*
X188415766Y-119121800D01*
X188310726Y-119303734D01*
X188310722Y-119303743D01*
X188217896Y-119527844D01*
X188155110Y-119762163D01*
X188123449Y-120002660D01*
X180840000Y-120002660D01*
X180840000Y-119949174D01*
X180805925Y-119822007D01*
X180773012Y-119765000D01*
X181690000Y-119765000D01*
X181690000Y-119117172D01*
X181689999Y-119117155D01*
X181683598Y-119057627D01*
X181683596Y-119057620D01*
X181633354Y-118922913D01*
X181633350Y-118922906D01*
X181547190Y-118807812D01*
X181547187Y-118807809D01*
X181432093Y-118721649D01*
X181432086Y-118721645D01*
X181297379Y-118671403D01*
X181297372Y-118671401D01*
X181237844Y-118665000D01*
X180590000Y-118665000D01*
X180590000Y-119581988D01*
X180532993Y-119549075D01*
X180405826Y-119515000D01*
X180274174Y-119515000D01*
X180147007Y-119549075D01*
X180090000Y-119581988D01*
X180090000Y-118625596D01*
X180109685Y-118558557D01*
X180126319Y-118537915D01*
X180390785Y-118273449D01*
X181503506Y-117160728D01*
X181503511Y-117160724D01*
X181513714Y-117150520D01*
X181513716Y-117150520D01*
X181625520Y-117038716D01*
X181704577Y-116901784D01*
X181745500Y-116749057D01*
X181745500Y-116319136D01*
X181765185Y-116252097D01*
X181817989Y-116206342D01*
X181887147Y-116196398D01*
X181901582Y-116199358D01*
X182018308Y-116230635D01*
X182180230Y-116244801D01*
X182244998Y-116250468D01*
X182245000Y-116250468D01*
X182245002Y-116250468D01*
X182301673Y-116245509D01*
X182471692Y-116230635D01*
X182691496Y-116171739D01*
X182897734Y-116075568D01*
X183084139Y-115945047D01*
X183245047Y-115784139D01*
X183375568Y-115597734D01*
X183402895Y-115539129D01*
X183449064Y-115486695D01*
X183516257Y-115467542D01*
X183583139Y-115487757D01*
X183627657Y-115539133D01*
X183654865Y-115597482D01*
X183785342Y-115783820D01*
X183946179Y-115944657D01*
X184132517Y-116075134D01*
X184338673Y-116171265D01*
X184338682Y-116171269D01*
X184534999Y-116223872D01*
X184535000Y-116223871D01*
X184535000Y-115260686D01*
X184539394Y-115265080D01*
X184630606Y-115317741D01*
X184732339Y-115345000D01*
X184837661Y-115345000D01*
X184939394Y-115317741D01*
X185030606Y-115265080D01*
X185035000Y-115260686D01*
X185035000Y-116223872D01*
X185231317Y-116171269D01*
X185231326Y-116171265D01*
X185437482Y-116075134D01*
X185623820Y-115944657D01*
X185784657Y-115783820D01*
X185915132Y-115597484D01*
X185942341Y-115539134D01*
X185988513Y-115486695D01*
X186055707Y-115467542D01*
X186122588Y-115487757D01*
X186167105Y-115539132D01*
X186181499Y-115570000D01*
X186194431Y-115597732D01*
X186194432Y-115597734D01*
X186324954Y-115784141D01*
X186485858Y-115945045D01*
X186485861Y-115945047D01*
X186672266Y-116075568D01*
X186878504Y-116171739D01*
X186878509Y-116171740D01*
X186878511Y-116171741D01*
X186931415Y-116185916D01*
X187098308Y-116230635D01*
X187260230Y-116244801D01*
X187324998Y-116250468D01*
X187325000Y-116250468D01*
X187325002Y-116250468D01*
X187381673Y-116245509D01*
X187551692Y-116230635D01*
X187771496Y-116171739D01*
X187977734Y-116075568D01*
X188164139Y-115945047D01*
X188325047Y-115784139D01*
X188455568Y-115597734D01*
X188551739Y-115391496D01*
X188610635Y-115171692D01*
X188630468Y-114945000D01*
X188628041Y-114917265D01*
X188624801Y-114880230D01*
X188610635Y-114718308D01*
X188551739Y-114498504D01*
X188455568Y-114292266D01*
X188325047Y-114105861D01*
X188325045Y-114105858D01*
X188164141Y-113944954D01*
X187977734Y-113814432D01*
X187977732Y-113814431D01*
X187771497Y-113718261D01*
X187771488Y-113718258D01*
X187551697Y-113659366D01*
X187551693Y-113659365D01*
X187551692Y-113659365D01*
X187551691Y-113659364D01*
X187551686Y-113659364D01*
X187325002Y-113639532D01*
X187324998Y-113639532D01*
X187098313Y-113659364D01*
X187098302Y-113659366D01*
X186878511Y-113718258D01*
X186878502Y-113718261D01*
X186672267Y-113814431D01*
X186672265Y-113814432D01*
X186485858Y-113944954D01*
X186324954Y-114105858D01*
X186205885Y-114275909D01*
X186194432Y-114292266D01*
X186178606Y-114326206D01*
X186167106Y-114350867D01*
X186120933Y-114403306D01*
X186053739Y-114422457D01*
X185986858Y-114402241D01*
X185942342Y-114350865D01*
X185915135Y-114292520D01*
X185915134Y-114292518D01*
X185784657Y-114106179D01*
X185623820Y-113945342D01*
X185437482Y-113814865D01*
X185231328Y-113718734D01*
X185035000Y-113666127D01*
X185035000Y-114629314D01*
X185030606Y-114624920D01*
X184939394Y-114572259D01*
X184837661Y-114545000D01*
X184732339Y-114545000D01*
X184630606Y-114572259D01*
X184539394Y-114624920D01*
X184535000Y-114629314D01*
X184535000Y-113653738D01*
X184514368Y-113625483D01*
X184510214Y-113555737D01*
X184543374Y-113495859D01*
X186243506Y-111795728D01*
X186243511Y-111795724D01*
X186253714Y-111785520D01*
X186253716Y-111785520D01*
X186365520Y-111673716D01*
X186444577Y-111536784D01*
X186485500Y-111384057D01*
X186485500Y-108749000D01*
X186505185Y-108681961D01*
X186557989Y-108636206D01*
X186609500Y-108625000D01*
X187075000Y-108625000D01*
X187075000Y-107640686D01*
X187079394Y-107645080D01*
X187170606Y-107697741D01*
X187272339Y-107725000D01*
X187377661Y-107725000D01*
X187479394Y-107697741D01*
X187570606Y-107645080D01*
X187575000Y-107640686D01*
X187575000Y-108625000D01*
X188172828Y-108625000D01*
X188172844Y-108624999D01*
X188232372Y-108618598D01*
X188232379Y-108618596D01*
X188367086Y-108568354D01*
X188367093Y-108568350D01*
X188482187Y-108482190D01*
X188482190Y-108482187D01*
X188568350Y-108367093D01*
X188568354Y-108367086D01*
X188618596Y-108232379D01*
X188618598Y-108232372D01*
X188624999Y-108172844D01*
X188625000Y-108172827D01*
X188625000Y-107575000D01*
X187640686Y-107575000D01*
X187645080Y-107570606D01*
X187697741Y-107479394D01*
X187725000Y-107377661D01*
X187725000Y-107272339D01*
X187697741Y-107170606D01*
X187645080Y-107079394D01*
X187640686Y-107075000D01*
X188625000Y-107075000D01*
X188625000Y-106477172D01*
X188624999Y-106477155D01*
X188618598Y-106417627D01*
X188618596Y-106417620D01*
X188568354Y-106282913D01*
X188568350Y-106282906D01*
X188482190Y-106167812D01*
X188482187Y-106167809D01*
X188367093Y-106081649D01*
X188367086Y-106081645D01*
X188232379Y-106031403D01*
X188232372Y-106031401D01*
X188172844Y-106025000D01*
X187575000Y-106025000D01*
X187575000Y-107009314D01*
X187570606Y-107004920D01*
X187479394Y-106952259D01*
X187377661Y-106925000D01*
X187272339Y-106925000D01*
X187170606Y-106952259D01*
X187079394Y-107004920D01*
X187075000Y-107009314D01*
X187075000Y-106025000D01*
X186779500Y-106025000D01*
X186712461Y-106005315D01*
X186666706Y-105952511D01*
X186655500Y-105901000D01*
X186655500Y-87859060D01*
X186655501Y-87859047D01*
X186655501Y-87690944D01*
X186648415Y-87664499D01*
X186614577Y-87538216D01*
X186594659Y-87503716D01*
X186535524Y-87401290D01*
X186535518Y-87401282D01*
X186056819Y-86922583D01*
X186023334Y-86861260D01*
X186020500Y-86834902D01*
X186020500Y-82470943D01*
X186020499Y-82470939D01*
X186013231Y-82443813D01*
X186004461Y-82411082D01*
X185979577Y-82318215D01*
X185935765Y-82242331D01*
X185903553Y-82186537D01*
X185900521Y-82181285D01*
X185784385Y-82065149D01*
X185784374Y-82065139D01*
X184637590Y-80918355D01*
X184637588Y-80918352D01*
X184518717Y-80799481D01*
X184518716Y-80799480D01*
X184431904Y-80749360D01*
X184431904Y-80749359D01*
X184431900Y-80749358D01*
X184381785Y-80720423D01*
X184229057Y-80679499D01*
X184070943Y-80679499D01*
X184063347Y-80679499D01*
X184063331Y-80679500D01*
X174290097Y-80679500D01*
X174223058Y-80659815D01*
X174202416Y-80643181D01*
X173551370Y-79992135D01*
X173517885Y-79930812D01*
X173522869Y-79861120D01*
X173564741Y-79805187D01*
X173630205Y-79780770D01*
X173698478Y-79795622D01*
X173715213Y-79806601D01*
X173856365Y-79916464D01*
X173856371Y-79916468D01*
X173856374Y-79916470D01*
X174004698Y-79996739D01*
X174054916Y-80023916D01*
X174060497Y-80026936D01*
X174147098Y-80056666D01*
X174280015Y-80102297D01*
X174280017Y-80102297D01*
X174280019Y-80102298D01*
X174508951Y-80140500D01*
X174508952Y-80140500D01*
X174741048Y-80140500D01*
X174741049Y-80140500D01*
X174969981Y-80102298D01*
X175189503Y-80026936D01*
X175393626Y-79916470D01*
X175576784Y-79773913D01*
X175585511Y-79764432D01*
X175645394Y-79728441D01*
X175715232Y-79730538D01*
X175772850Y-79770060D01*
X175792924Y-79805080D01*
X175821645Y-79882086D01*
X175821649Y-79882093D01*
X175907809Y-79997187D01*
X175907812Y-79997190D01*
X176022906Y-80083350D01*
X176022913Y-80083354D01*
X176157620Y-80133596D01*
X176157627Y-80133598D01*
X176217155Y-80139999D01*
X176217172Y-80140000D01*
X176915000Y-80140000D01*
X176915000Y-79115277D01*
X176991306Y-79159333D01*
X177105756Y-79190000D01*
X177224244Y-79190000D01*
X177338694Y-79159333D01*
X177415000Y-79115277D01*
X177415000Y-80140000D01*
X178112828Y-80140000D01*
X178112844Y-80139999D01*
X178172372Y-80133598D01*
X178172379Y-80133596D01*
X178307086Y-80083354D01*
X178307093Y-80083350D01*
X178422187Y-79997190D01*
X178422190Y-79997187D01*
X178508350Y-79882093D01*
X178508354Y-79882086D01*
X178558596Y-79747379D01*
X178558598Y-79747372D01*
X178564999Y-79687844D01*
X178565000Y-79687827D01*
X178565000Y-78990000D01*
X177540278Y-78990000D01*
X177584333Y-78913694D01*
X177615000Y-78799244D01*
X177615000Y-78739993D01*
X179569700Y-78739993D01*
X179569700Y-78740006D01*
X179588864Y-78971297D01*
X179588866Y-78971308D01*
X179645842Y-79196300D01*
X179739075Y-79408848D01*
X179866016Y-79603147D01*
X179866019Y-79603151D01*
X179866021Y-79603153D01*
X180023216Y-79773913D01*
X180023219Y-79773915D01*
X180023222Y-79773918D01*
X180206365Y-79916464D01*
X180206371Y-79916468D01*
X180206374Y-79916470D01*
X180354698Y-79996739D01*
X180404916Y-80023916D01*
X180410497Y-80026936D01*
X180497098Y-80056666D01*
X180630015Y-80102297D01*
X180630017Y-80102297D01*
X180630019Y-80102298D01*
X180858951Y-80140500D01*
X180858952Y-80140500D01*
X181091048Y-80140500D01*
X181091049Y-80140500D01*
X181319981Y-80102298D01*
X181539503Y-80026936D01*
X181743626Y-79916470D01*
X181926784Y-79773913D01*
X181935511Y-79764432D01*
X181995394Y-79728441D01*
X182065232Y-79730538D01*
X182122850Y-79770060D01*
X182142924Y-79805080D01*
X182171645Y-79882086D01*
X182171649Y-79882093D01*
X182257809Y-79997187D01*
X182257812Y-79997190D01*
X182372906Y-80083350D01*
X182372913Y-80083354D01*
X182507620Y-80133596D01*
X182507627Y-80133598D01*
X182567155Y-80139999D01*
X182567172Y-80140000D01*
X183265000Y-80140000D01*
X183265000Y-79115277D01*
X183341306Y-79159333D01*
X183455756Y-79190000D01*
X183574244Y-79190000D01*
X183688694Y-79159333D01*
X183765000Y-79115277D01*
X183765000Y-80140000D01*
X184462828Y-80140000D01*
X184462844Y-80139999D01*
X184522372Y-80133598D01*
X184522379Y-80133596D01*
X184657086Y-80083354D01*
X184657093Y-80083350D01*
X184772187Y-79997190D01*
X184772190Y-79997187D01*
X184858350Y-79882093D01*
X184858354Y-79882086D01*
X184908596Y-79747379D01*
X184908598Y-79747372D01*
X184914999Y-79687844D01*
X184915000Y-79687827D01*
X184915000Y-78990000D01*
X183890278Y-78990000D01*
X183934333Y-78913694D01*
X183965000Y-78799244D01*
X183965000Y-78680756D01*
X183934333Y-78566306D01*
X183890278Y-78490000D01*
X184915000Y-78490000D01*
X184915000Y-77792172D01*
X184914999Y-77792155D01*
X184908598Y-77732627D01*
X184908596Y-77732620D01*
X184858354Y-77597913D01*
X184858350Y-77597906D01*
X184772190Y-77482812D01*
X184772187Y-77482809D01*
X184657093Y-77396649D01*
X184657086Y-77396645D01*
X184522379Y-77346403D01*
X184522372Y-77346401D01*
X184462844Y-77340000D01*
X183765000Y-77340000D01*
X183765000Y-78364722D01*
X183688694Y-78320667D01*
X183574244Y-78290000D01*
X183455756Y-78290000D01*
X183341306Y-78320667D01*
X183265000Y-78364722D01*
X183265000Y-77340000D01*
X182567155Y-77340000D01*
X182507627Y-77346401D01*
X182507620Y-77346403D01*
X182372913Y-77396645D01*
X182372906Y-77396649D01*
X182257812Y-77482809D01*
X182257809Y-77482812D01*
X182171649Y-77597906D01*
X182171646Y-77597911D01*
X182142924Y-77674920D01*
X182101052Y-77730853D01*
X182035588Y-77755270D01*
X181967315Y-77740418D01*
X181935514Y-77715571D01*
X181926784Y-77706087D01*
X181926779Y-77706083D01*
X181926777Y-77706081D01*
X181743634Y-77563535D01*
X181743628Y-77563531D01*
X181539504Y-77453064D01*
X181539495Y-77453061D01*
X181319984Y-77377702D01*
X181132404Y-77346401D01*
X181091049Y-77339500D01*
X180858951Y-77339500D01*
X180817596Y-77346401D01*
X180630015Y-77377702D01*
X180410504Y-77453061D01*
X180410495Y-77453064D01*
X180206371Y-77563531D01*
X180206365Y-77563535D01*
X180023222Y-77706081D01*
X180023219Y-77706084D01*
X180023216Y-77706086D01*
X180023216Y-77706087D01*
X179998791Y-77732620D01*
X179866016Y-77876852D01*
X179739075Y-78071151D01*
X179645842Y-78283699D01*
X179588866Y-78508691D01*
X179588864Y-78508702D01*
X179569700Y-78739993D01*
X177615000Y-78739993D01*
X177615000Y-78680756D01*
X177584333Y-78566306D01*
X177540278Y-78490000D01*
X178565000Y-78490000D01*
X178565000Y-77792172D01*
X178564999Y-77792155D01*
X178558598Y-77732627D01*
X178558596Y-77732620D01*
X178508354Y-77597913D01*
X178508350Y-77597906D01*
X178422190Y-77482812D01*
X178422187Y-77482809D01*
X178307093Y-77396649D01*
X178307086Y-77396645D01*
X178172379Y-77346403D01*
X178172372Y-77346401D01*
X178112844Y-77340000D01*
X177415000Y-77340000D01*
X177415000Y-78364722D01*
X177338694Y-78320667D01*
X177224244Y-78290000D01*
X177105756Y-78290000D01*
X176991306Y-78320667D01*
X176915000Y-78364722D01*
X176915000Y-77340000D01*
X176217155Y-77340000D01*
X176157627Y-77346401D01*
X176157620Y-77346403D01*
X176022913Y-77396645D01*
X176022906Y-77396649D01*
X175907812Y-77482809D01*
X175907809Y-77482812D01*
X175821649Y-77597906D01*
X175821646Y-77597911D01*
X175792924Y-77674920D01*
X175751052Y-77730853D01*
X175685588Y-77755270D01*
X175617315Y-77740418D01*
X175585514Y-77715571D01*
X175576784Y-77706087D01*
X175576779Y-77706083D01*
X175576777Y-77706081D01*
X175393634Y-77563535D01*
X175393628Y-77563531D01*
X175189504Y-77453064D01*
X175189495Y-77453061D01*
X174969984Y-77377702D01*
X174782404Y-77346401D01*
X174741049Y-77339500D01*
X174508951Y-77339500D01*
X174467596Y-77346401D01*
X174280015Y-77377702D01*
X174060504Y-77453061D01*
X174060495Y-77453064D01*
X173856371Y-77563531D01*
X173856365Y-77563535D01*
X173673222Y-77706081D01*
X173673219Y-77706084D01*
X173673216Y-77706086D01*
X173673216Y-77706087D01*
X173648791Y-77732620D01*
X173516016Y-77876852D01*
X173389075Y-78071151D01*
X173295842Y-78283699D01*
X173238866Y-78508691D01*
X173238864Y-78508702D01*
X173219700Y-78739993D01*
X173219700Y-78740006D01*
X173238864Y-78971297D01*
X173238866Y-78971308D01*
X173295842Y-79196300D01*
X173389075Y-79408848D01*
X173516016Y-79603147D01*
X173516019Y-79603151D01*
X173516021Y-79603153D01*
X173551472Y-79641663D01*
X173582393Y-79704316D01*
X173574533Y-79773742D01*
X173530385Y-79827897D01*
X173463968Y-79849588D01*
X173396367Y-79831927D01*
X173372560Y-79813325D01*
X173012590Y-79453355D01*
X173012588Y-79453352D01*
X172893717Y-79334481D01*
X172893716Y-79334480D01*
X172806904Y-79284360D01*
X172806904Y-79284359D01*
X172806900Y-79284358D01*
X172756785Y-79255423D01*
X172604057Y-79214499D01*
X172445943Y-79214499D01*
X172438347Y-79214499D01*
X172438331Y-79214500D01*
X171478682Y-79214500D01*
X171411643Y-79194815D01*
X171365888Y-79142011D01*
X171355944Y-79072853D01*
X171359416Y-79056565D01*
X171365115Y-79036536D01*
X171385643Y-78815000D01*
X171372343Y-78671473D01*
X171365115Y-78593464D01*
X171365114Y-78593462D01*
X171360174Y-78576100D01*
X171304229Y-78379472D01*
X171304224Y-78379461D01*
X171205061Y-78180316D01*
X171205056Y-78180308D01*
X171070979Y-78002761D01*
X170906562Y-77852876D01*
X170906560Y-77852874D01*
X170717404Y-77735754D01*
X170717398Y-77735752D01*
X170509940Y-77655382D01*
X170291243Y-77614500D01*
X170068757Y-77614500D01*
X169850060Y-77655382D01*
X169799627Y-77674920D01*
X169642601Y-77735752D01*
X169642595Y-77735754D01*
X169453439Y-77852874D01*
X169453437Y-77852876D01*
X169289020Y-78002761D01*
X169154943Y-78180308D01*
X169154938Y-78180316D01*
X169055775Y-78379461D01*
X169055769Y-78379476D01*
X168994885Y-78593462D01*
X168994884Y-78593464D01*
X168974357Y-78814999D01*
X168974357Y-78815000D01*
X168994884Y-79036535D01*
X168994885Y-79036537D01*
X169000268Y-79055457D01*
X169000584Y-79056565D01*
X168999998Y-79126433D01*
X168961731Y-79184891D01*
X168897934Y-79213382D01*
X168881318Y-79214500D01*
X163860099Y-79214500D01*
X163793060Y-79194815D01*
X163772457Y-79178221D01*
X163772001Y-79177765D01*
X163771352Y-79177116D01*
X163737841Y-79115810D01*
X163739729Y-79055462D01*
X163745115Y-79036536D01*
X163765643Y-78815000D01*
X163752343Y-78671473D01*
X163745115Y-78593464D01*
X163745114Y-78593462D01*
X163740174Y-78576100D01*
X163684229Y-78379472D01*
X163684224Y-78379461D01*
X163585061Y-78180316D01*
X163585056Y-78180308D01*
X163450979Y-78002761D01*
X163286562Y-77852876D01*
X163286560Y-77852874D01*
X163097404Y-77735754D01*
X163097398Y-77735752D01*
X162889940Y-77655382D01*
X162671243Y-77614500D01*
X162448757Y-77614500D01*
X162230060Y-77655382D01*
X162179627Y-77674920D01*
X162022601Y-77735752D01*
X162022595Y-77735754D01*
X161833439Y-77852874D01*
X161833437Y-77852876D01*
X161669020Y-78002761D01*
X161534943Y-78180308D01*
X161534938Y-78180316D01*
X161435775Y-78379461D01*
X161435769Y-78379476D01*
X161374885Y-78593462D01*
X161374884Y-78593464D01*
X161354357Y-78814999D01*
X161354357Y-78815000D01*
X161374884Y-79036535D01*
X161374885Y-79036537D01*
X161435769Y-79250523D01*
X161435775Y-79250538D01*
X161534938Y-79449683D01*
X161534943Y-79449691D01*
X161669020Y-79627238D01*
X161833437Y-79777123D01*
X161833439Y-79777125D01*
X162022595Y-79894245D01*
X162022596Y-79894245D01*
X162022599Y-79894247D01*
X162230060Y-79974618D01*
X162448757Y-80015500D01*
X162448759Y-80015500D01*
X162671241Y-80015500D01*
X162671243Y-80015500D01*
X162809214Y-79989708D01*
X162878729Y-79996739D01*
X162919680Y-80023916D01*
X163191284Y-80295520D01*
X163191286Y-80295521D01*
X163191290Y-80295524D01*
X163264356Y-80337708D01*
X163328216Y-80374577D01*
X163480943Y-80415501D01*
X163480945Y-80415501D01*
X163646654Y-80415501D01*
X163646670Y-80415500D01*
X172224903Y-80415500D01*
X172291942Y-80435185D01*
X172312584Y-80451819D01*
X173505139Y-81644374D01*
X173505149Y-81644385D01*
X173509479Y-81648715D01*
X173509480Y-81648716D01*
X173621284Y-81760520D01*
X173708095Y-81810639D01*
X173708097Y-81810641D01*
X173746151Y-81832611D01*
X173758215Y-81839577D01*
X173910943Y-81880501D01*
X173910946Y-81880501D01*
X174076653Y-81880501D01*
X174076669Y-81880500D01*
X183849903Y-81880500D01*
X183916942Y-81900185D01*
X183937584Y-81916819D01*
X184783181Y-82762416D01*
X184816666Y-82823739D01*
X184819500Y-82850097D01*
X184819500Y-83628628D01*
X184799815Y-83695667D01*
X184747011Y-83741422D01*
X184677853Y-83751366D01*
X184652167Y-83744810D01*
X184522380Y-83696403D01*
X184522372Y-83696401D01*
X184462844Y-83690000D01*
X183765000Y-83690000D01*
X183765000Y-84714722D01*
X183688694Y-84670667D01*
X183574244Y-84640000D01*
X183455756Y-84640000D01*
X183341306Y-84670667D01*
X183265000Y-84714722D01*
X183265000Y-83690000D01*
X182567155Y-83690000D01*
X182507627Y-83696401D01*
X182507620Y-83696403D01*
X182372913Y-83746645D01*
X182372906Y-83746649D01*
X182257812Y-83832809D01*
X182257809Y-83832812D01*
X182171649Y-83947906D01*
X182171646Y-83947911D01*
X182142924Y-84024920D01*
X182101052Y-84080853D01*
X182035588Y-84105270D01*
X181967315Y-84090418D01*
X181935514Y-84065571D01*
X181926784Y-84056087D01*
X181926779Y-84056083D01*
X181926777Y-84056081D01*
X181743634Y-83913535D01*
X181743628Y-83913531D01*
X181539504Y-83803064D01*
X181539495Y-83803061D01*
X181319984Y-83727702D01*
X181132404Y-83696401D01*
X181091049Y-83689500D01*
X180858951Y-83689500D01*
X180821994Y-83695667D01*
X180630015Y-83727702D01*
X180410504Y-83803061D01*
X180410495Y-83803064D01*
X180206371Y-83913531D01*
X180206365Y-83913535D01*
X180023222Y-84056081D01*
X180023219Y-84056084D01*
X180023216Y-84056086D01*
X180023216Y-84056087D01*
X179998791Y-84082620D01*
X179866016Y-84226852D01*
X179739075Y-84421151D01*
X179645842Y-84633699D01*
X179588866Y-84858691D01*
X179588864Y-84858702D01*
X179569700Y-85089993D01*
X179569700Y-85090006D01*
X179588864Y-85321297D01*
X179588866Y-85321308D01*
X179645842Y-85546300D01*
X179739075Y-85758848D01*
X179866016Y-85953147D01*
X179866019Y-85953151D01*
X179866021Y-85953153D01*
X180023216Y-86123913D01*
X180023219Y-86123915D01*
X180023222Y-86123918D01*
X180206365Y-86266464D01*
X180206371Y-86266468D01*
X180206374Y-86266470D01*
X180312525Y-86323916D01*
X180403131Y-86372950D01*
X180410497Y-86376936D01*
X180524487Y-86416068D01*
X180630015Y-86452297D01*
X180630017Y-86452297D01*
X180630019Y-86452298D01*
X180858951Y-86490500D01*
X180858952Y-86490500D01*
X181091048Y-86490500D01*
X181091049Y-86490500D01*
X181319981Y-86452298D01*
X181539503Y-86376936D01*
X181743626Y-86266470D01*
X181926784Y-86123913D01*
X181935511Y-86114432D01*
X181995394Y-86078441D01*
X182065232Y-86080538D01*
X182122850Y-86120060D01*
X182142924Y-86155080D01*
X182171645Y-86232086D01*
X182171649Y-86232093D01*
X182257809Y-86347187D01*
X182257812Y-86347190D01*
X182372906Y-86433350D01*
X182372913Y-86433354D01*
X182507620Y-86483596D01*
X182507627Y-86483598D01*
X182567155Y-86489999D01*
X182567172Y-86490000D01*
X183265000Y-86490000D01*
X183265000Y-85465277D01*
X183341306Y-85509333D01*
X183455756Y-85540000D01*
X183574244Y-85540000D01*
X183688694Y-85509333D01*
X183765000Y-85465277D01*
X183765000Y-86490000D01*
X184462828Y-86490000D01*
X184462844Y-86489999D01*
X184522372Y-86483598D01*
X184522379Y-86483596D01*
X184652167Y-86435189D01*
X184721858Y-86430205D01*
X184783181Y-86463690D01*
X184816666Y-86525013D01*
X184819500Y-86551371D01*
X184819500Y-87048330D01*
X184819499Y-87048348D01*
X184819499Y-87214054D01*
X184819498Y-87214054D01*
X184860423Y-87366785D01*
X184880340Y-87401282D01*
X184887970Y-87414496D01*
X184887971Y-87414500D01*
X184887972Y-87414500D01*
X184932186Y-87491083D01*
X184939479Y-87503714D01*
X184939481Y-87503717D01*
X185058349Y-87622585D01*
X185058355Y-87622590D01*
X185418181Y-87982416D01*
X185451666Y-88043739D01*
X185454500Y-88070097D01*
X185454500Y-106007608D01*
X185434815Y-106074647D01*
X185382011Y-106120402D01*
X185312853Y-106130346D01*
X185278096Y-106119991D01*
X185270170Y-106116295D01*
X185231496Y-106098261D01*
X185231493Y-106098260D01*
X185231488Y-106098258D01*
X185011697Y-106039366D01*
X185011693Y-106039365D01*
X185011692Y-106039365D01*
X185011691Y-106039364D01*
X185011686Y-106039364D01*
X184785002Y-106019532D01*
X184784998Y-106019532D01*
X184558313Y-106039364D01*
X184558302Y-106039366D01*
X184338511Y-106098258D01*
X184338502Y-106098261D01*
X184132267Y-106194431D01*
X184132265Y-106194432D01*
X183945858Y-106324954D01*
X183784954Y-106485858D01*
X183654432Y-106672265D01*
X183654431Y-106672267D01*
X183627382Y-106730275D01*
X183581209Y-106782714D01*
X183514016Y-106801866D01*
X183447135Y-106781650D01*
X183402618Y-106730275D01*
X183379029Y-106679689D01*
X183375568Y-106672266D01*
X183245047Y-106485861D01*
X183245045Y-106485858D01*
X183084141Y-106324954D01*
X182897734Y-106194432D01*
X182897732Y-106194431D01*
X182691497Y-106098261D01*
X182691488Y-106098258D01*
X182471697Y-106039366D01*
X182471693Y-106039365D01*
X182471692Y-106039365D01*
X182471691Y-106039364D01*
X182471686Y-106039364D01*
X182245002Y-106019532D01*
X182244998Y-106019532D01*
X182018313Y-106039364D01*
X182018302Y-106039366D01*
X181798511Y-106098258D01*
X181798502Y-106098261D01*
X181592261Y-106194434D01*
X181591493Y-106194878D01*
X181591111Y-106194970D01*
X181587360Y-106196720D01*
X181587008Y-106195965D01*
X181523592Y-106211346D01*
X181457567Y-106188490D01*
X181414380Y-106133566D01*
X181405500Y-106087487D01*
X181405500Y-101878424D01*
X181405501Y-101878411D01*
X181405501Y-101710310D01*
X181405501Y-101710308D01*
X181364577Y-101557580D01*
X181349680Y-101531779D01*
X181329332Y-101496534D01*
X181329332Y-101496533D01*
X181285524Y-101420655D01*
X181285521Y-101420651D01*
X181285520Y-101420649D01*
X181173716Y-101308845D01*
X181173715Y-101308844D01*
X181169385Y-101304514D01*
X181169374Y-101304504D01*
X180341819Y-100476949D01*
X180308334Y-100415626D01*
X180305500Y-100389268D01*
X180305500Y-99214563D01*
X180325185Y-99147524D01*
X180377989Y-99101769D01*
X180447147Y-99091825D01*
X180469762Y-99097281D01*
X180482833Y-99101769D01*
X180630015Y-99152297D01*
X180630017Y-99152297D01*
X180630019Y-99152298D01*
X180858951Y-99190500D01*
X180858952Y-99190500D01*
X181091048Y-99190500D01*
X181091049Y-99190500D01*
X181319981Y-99152298D01*
X181539503Y-99076936D01*
X181743626Y-98966470D01*
X181926784Y-98823913D01*
X181935511Y-98814432D01*
X181995394Y-98778441D01*
X182065232Y-98780538D01*
X182122850Y-98820060D01*
X182142924Y-98855080D01*
X182171645Y-98932086D01*
X182171649Y-98932093D01*
X182257809Y-99047187D01*
X182257812Y-99047190D01*
X182372906Y-99133350D01*
X182372913Y-99133354D01*
X182507620Y-99183596D01*
X182507627Y-99183598D01*
X182567155Y-99189999D01*
X182567172Y-99190000D01*
X183265000Y-99190000D01*
X183265000Y-98165277D01*
X183341306Y-98209333D01*
X183455756Y-98240000D01*
X183574244Y-98240000D01*
X183688694Y-98209333D01*
X183765000Y-98165277D01*
X183765000Y-99190000D01*
X184462828Y-99190000D01*
X184462844Y-99189999D01*
X184522372Y-99183598D01*
X184522379Y-99183596D01*
X184657086Y-99133354D01*
X184657093Y-99133350D01*
X184772187Y-99047190D01*
X184772190Y-99047187D01*
X184858350Y-98932093D01*
X184858354Y-98932086D01*
X184908596Y-98797379D01*
X184908598Y-98797372D01*
X184914999Y-98737844D01*
X184915000Y-98737827D01*
X184915000Y-98040000D01*
X183890278Y-98040000D01*
X183934333Y-97963694D01*
X183965000Y-97849244D01*
X183965000Y-97730756D01*
X183934333Y-97616306D01*
X183890278Y-97540000D01*
X184915000Y-97540000D01*
X184915000Y-96842172D01*
X184914999Y-96842155D01*
X184908598Y-96782627D01*
X184908596Y-96782620D01*
X184858354Y-96647913D01*
X184858350Y-96647906D01*
X184772190Y-96532812D01*
X184772187Y-96532809D01*
X184657093Y-96446649D01*
X184657086Y-96446645D01*
X184522379Y-96396403D01*
X184522372Y-96396401D01*
X184462844Y-96390000D01*
X183765000Y-96390000D01*
X183765000Y-97414722D01*
X183688694Y-97370667D01*
X183574244Y-97340000D01*
X183455756Y-97340000D01*
X183341306Y-97370667D01*
X183265000Y-97414722D01*
X183265000Y-96390000D01*
X182567155Y-96390000D01*
X182507627Y-96396401D01*
X182507620Y-96396403D01*
X182372913Y-96446645D01*
X182372906Y-96446649D01*
X182257812Y-96532809D01*
X182257809Y-96532812D01*
X182171649Y-96647906D01*
X182171646Y-96647911D01*
X182142924Y-96724920D01*
X182101052Y-96780853D01*
X182035588Y-96805270D01*
X181967315Y-96790418D01*
X181935514Y-96765571D01*
X181926784Y-96756087D01*
X181926779Y-96756083D01*
X181926777Y-96756081D01*
X181743634Y-96613535D01*
X181743628Y-96613531D01*
X181539504Y-96503064D01*
X181539495Y-96503061D01*
X181319984Y-96427702D01*
X181132404Y-96396401D01*
X181091049Y-96389500D01*
X180858951Y-96389500D01*
X180817596Y-96396401D01*
X180630015Y-96427702D01*
X180469763Y-96482717D01*
X180399964Y-96485867D01*
X180339543Y-96450781D01*
X180307682Y-96388598D01*
X180305500Y-96365436D01*
X180305500Y-92864563D01*
X180325185Y-92797524D01*
X180377989Y-92751769D01*
X180447147Y-92741825D01*
X180469763Y-92747282D01*
X180630015Y-92802297D01*
X180630017Y-92802297D01*
X180630019Y-92802298D01*
X180858951Y-92840500D01*
X180858952Y-92840500D01*
X181091048Y-92840500D01*
X181091049Y-92840500D01*
X181319981Y-92802298D01*
X181539503Y-92726936D01*
X181743626Y-92616470D01*
X181744873Y-92615500D01*
X181886740Y-92505080D01*
X181926784Y-92473913D01*
X181935511Y-92464432D01*
X181995394Y-92428441D01*
X182065232Y-92430538D01*
X182122850Y-92470060D01*
X182142924Y-92505080D01*
X182171645Y-92582086D01*
X182171649Y-92582093D01*
X182257809Y-92697187D01*
X182257812Y-92697190D01*
X182372906Y-92783350D01*
X182372913Y-92783354D01*
X182507620Y-92833596D01*
X182507627Y-92833598D01*
X182567155Y-92839999D01*
X182567172Y-92840000D01*
X183265000Y-92840000D01*
X183265000Y-91815277D01*
X183341306Y-91859333D01*
X183455756Y-91890000D01*
X183574244Y-91890000D01*
X183688694Y-91859333D01*
X183765000Y-91815277D01*
X183765000Y-92840000D01*
X184462828Y-92840000D01*
X184462844Y-92839999D01*
X184522372Y-92833598D01*
X184522379Y-92833596D01*
X184657086Y-92783354D01*
X184657093Y-92783350D01*
X184772187Y-92697190D01*
X184772190Y-92697187D01*
X184858350Y-92582093D01*
X184858354Y-92582086D01*
X184908596Y-92447379D01*
X184908598Y-92447372D01*
X184914999Y-92387844D01*
X184915000Y-92387827D01*
X184915000Y-91690000D01*
X183890278Y-91690000D01*
X183934333Y-91613694D01*
X183965000Y-91499244D01*
X183965000Y-91380756D01*
X183934333Y-91266306D01*
X183890278Y-91190000D01*
X184915000Y-91190000D01*
X184915000Y-90492172D01*
X184914999Y-90492155D01*
X184908598Y-90432627D01*
X184908596Y-90432620D01*
X184858354Y-90297913D01*
X184858350Y-90297906D01*
X184772190Y-90182812D01*
X184772187Y-90182809D01*
X184657093Y-90096649D01*
X184657086Y-90096645D01*
X184522379Y-90046403D01*
X184522372Y-90046401D01*
X184462844Y-90040000D01*
X183765000Y-90040000D01*
X183765000Y-91064722D01*
X183688694Y-91020667D01*
X183574244Y-90990000D01*
X183455756Y-90990000D01*
X183341306Y-91020667D01*
X183265000Y-91064722D01*
X183265000Y-90040000D01*
X182567155Y-90040000D01*
X182507627Y-90046401D01*
X182507620Y-90046403D01*
X182372913Y-90096645D01*
X182372906Y-90096649D01*
X182257812Y-90182809D01*
X182257809Y-90182812D01*
X182171649Y-90297906D01*
X182171646Y-90297911D01*
X182142924Y-90374920D01*
X182101052Y-90430853D01*
X182035588Y-90455270D01*
X181967315Y-90440418D01*
X181935514Y-90415571D01*
X181926784Y-90406087D01*
X181926779Y-90406083D01*
X181926777Y-90406081D01*
X181743634Y-90263535D01*
X181743628Y-90263531D01*
X181539504Y-90153064D01*
X181539495Y-90153061D01*
X181319984Y-90077702D01*
X181132404Y-90046401D01*
X181091049Y-90039500D01*
X180858951Y-90039500D01*
X180817596Y-90046401D01*
X180630015Y-90077702D01*
X180455240Y-90137703D01*
X180385441Y-90140853D01*
X180325020Y-90105767D01*
X180295204Y-90052519D01*
X180264577Y-89938216D01*
X180202643Y-89830942D01*
X180185524Y-89801290D01*
X180185521Y-89801286D01*
X180185520Y-89801284D01*
X180073716Y-89689480D01*
X180073715Y-89689479D01*
X180069385Y-89685149D01*
X180069374Y-89685139D01*
X177652590Y-87268355D01*
X177652588Y-87268352D01*
X177533717Y-87149481D01*
X177533716Y-87149480D01*
X177446904Y-87099360D01*
X177446904Y-87099359D01*
X177446900Y-87099358D01*
X177396785Y-87070423D01*
X177244057Y-87029499D01*
X177085943Y-87029499D01*
X177078347Y-87029499D01*
X177078331Y-87029500D01*
X174409311Y-87029500D01*
X174342272Y-87009815D01*
X174321630Y-86993181D01*
X173888347Y-86559898D01*
X173854862Y-86498575D01*
X173859846Y-86428883D01*
X173901718Y-86372950D01*
X173967182Y-86348533D01*
X174035047Y-86363163D01*
X174053131Y-86372950D01*
X174060497Y-86376936D01*
X174174487Y-86416068D01*
X174280015Y-86452297D01*
X174280017Y-86452297D01*
X174280019Y-86452298D01*
X174508951Y-86490500D01*
X174508952Y-86490500D01*
X174741048Y-86490500D01*
X174741049Y-86490500D01*
X174969981Y-86452298D01*
X175189503Y-86376936D01*
X175393626Y-86266470D01*
X175576784Y-86123913D01*
X175585511Y-86114432D01*
X175645394Y-86078441D01*
X175715232Y-86080538D01*
X175772850Y-86120060D01*
X175792924Y-86155080D01*
X175821645Y-86232086D01*
X175821649Y-86232093D01*
X175907809Y-86347187D01*
X175907812Y-86347190D01*
X176022906Y-86433350D01*
X176022913Y-86433354D01*
X176157620Y-86483596D01*
X176157627Y-86483598D01*
X176217155Y-86489999D01*
X176217172Y-86490000D01*
X176915000Y-86490000D01*
X176915000Y-85465277D01*
X176991306Y-85509333D01*
X177105756Y-85540000D01*
X177224244Y-85540000D01*
X177338694Y-85509333D01*
X177415000Y-85465277D01*
X177415000Y-86490000D01*
X178112828Y-86490000D01*
X178112844Y-86489999D01*
X178172372Y-86483598D01*
X178172379Y-86483596D01*
X178307086Y-86433354D01*
X178307093Y-86433350D01*
X178422187Y-86347190D01*
X178422190Y-86347187D01*
X178508350Y-86232093D01*
X178508354Y-86232086D01*
X178558596Y-86097379D01*
X178558598Y-86097372D01*
X178564999Y-86037844D01*
X178565000Y-86037827D01*
X178565000Y-85340000D01*
X177540278Y-85340000D01*
X177584333Y-85263694D01*
X177615000Y-85149244D01*
X177615000Y-85030756D01*
X177584333Y-84916306D01*
X177540278Y-84840000D01*
X178565000Y-84840000D01*
X178565000Y-84142172D01*
X178564999Y-84142155D01*
X178558598Y-84082627D01*
X178558596Y-84082620D01*
X178508354Y-83947913D01*
X178508350Y-83947906D01*
X178422190Y-83832812D01*
X178422187Y-83832809D01*
X178307093Y-83746649D01*
X178307086Y-83746645D01*
X178172379Y-83696403D01*
X178172372Y-83696401D01*
X178112844Y-83690000D01*
X177415000Y-83690000D01*
X177415000Y-84714722D01*
X177338694Y-84670667D01*
X177224244Y-84640000D01*
X177105756Y-84640000D01*
X176991306Y-84670667D01*
X176915000Y-84714722D01*
X176915000Y-83690000D01*
X176217155Y-83690000D01*
X176157627Y-83696401D01*
X176157620Y-83696403D01*
X176022913Y-83746645D01*
X176022906Y-83746649D01*
X175907812Y-83832809D01*
X175907809Y-83832812D01*
X175821649Y-83947906D01*
X175821646Y-83947911D01*
X175792924Y-84024920D01*
X175751052Y-84080853D01*
X175685588Y-84105270D01*
X175617315Y-84090418D01*
X175585514Y-84065571D01*
X175576784Y-84056087D01*
X175576779Y-84056083D01*
X175576777Y-84056081D01*
X175393634Y-83913535D01*
X175393628Y-83913531D01*
X175189504Y-83803064D01*
X175189495Y-83803061D01*
X174969984Y-83727702D01*
X174782404Y-83696401D01*
X174741049Y-83689500D01*
X174508951Y-83689500D01*
X174471994Y-83695667D01*
X174280015Y-83727702D01*
X174060504Y-83803061D01*
X174060495Y-83803064D01*
X173856371Y-83913531D01*
X173856365Y-83913535D01*
X173673222Y-84056081D01*
X173673219Y-84056084D01*
X173673216Y-84056086D01*
X173673216Y-84056087D01*
X173648791Y-84082620D01*
X173516016Y-84226852D01*
X173389075Y-84421151D01*
X173295842Y-84633699D01*
X173238866Y-84858691D01*
X173238864Y-84858702D01*
X173219700Y-85089993D01*
X173219700Y-85090006D01*
X173238864Y-85321297D01*
X173238866Y-85321308D01*
X173295842Y-85546300D01*
X173360202Y-85693025D01*
X173369105Y-85762325D01*
X173339128Y-85825437D01*
X173279788Y-85862324D01*
X173209926Y-85861273D01*
X173158965Y-85830516D01*
X170603510Y-83275061D01*
X170570025Y-83213738D01*
X170575009Y-83144046D01*
X170616881Y-83088113D01*
X170646396Y-83071754D01*
X170676736Y-83060000D01*
X170717392Y-83044251D01*
X170717396Y-83044248D01*
X170717401Y-83044247D01*
X170906562Y-82927124D01*
X171070981Y-82777236D01*
X171205058Y-82599689D01*
X171304229Y-82400528D01*
X171365115Y-82186536D01*
X171385643Y-81965000D01*
X171381178Y-81916819D01*
X171365115Y-81743464D01*
X171365114Y-81743462D01*
X171336924Y-81644385D01*
X171304229Y-81529472D01*
X171304224Y-81529461D01*
X171205061Y-81330316D01*
X171205056Y-81330308D01*
X171070979Y-81152761D01*
X170906562Y-81002876D01*
X170906560Y-81002874D01*
X170717404Y-80885754D01*
X170717398Y-80885752D01*
X170509940Y-80805382D01*
X170291243Y-80764500D01*
X170068757Y-80764500D01*
X169850060Y-80805382D01*
X169741545Y-80847421D01*
X169642601Y-80885752D01*
X169642595Y-80885754D01*
X169453439Y-81002874D01*
X169453437Y-81002876D01*
X169289020Y-81152761D01*
X169154943Y-81330308D01*
X169154938Y-81330316D01*
X169066821Y-81507281D01*
X169019318Y-81558518D01*
X168951655Y-81575939D01*
X168885315Y-81554013D01*
X168868140Y-81539690D01*
X168812931Y-81484481D01*
X168812930Y-81484480D01*
X168706162Y-81422838D01*
X168706161Y-81422837D01*
X168675997Y-81405422D01*
X168620095Y-81390443D01*
X168523271Y-81364499D01*
X168365157Y-81364499D01*
X168357561Y-81364499D01*
X168357545Y-81364500D01*
X163672621Y-81364500D01*
X163605582Y-81344815D01*
X163573667Y-81315227D01*
X163450979Y-81152761D01*
X163286562Y-81002876D01*
X163286560Y-81002874D01*
X163097404Y-80885754D01*
X163097398Y-80885752D01*
X162889940Y-80805382D01*
X162671243Y-80764500D01*
X162448757Y-80764500D01*
X162230060Y-80805382D01*
X162121545Y-80847421D01*
X162022601Y-80885752D01*
X162022595Y-80885754D01*
X161833439Y-81002874D01*
X161833437Y-81002876D01*
X161669020Y-81152761D01*
X161534943Y-81330308D01*
X161534938Y-81330316D01*
X161435775Y-81529461D01*
X161435769Y-81529476D01*
X161374885Y-81743462D01*
X161374884Y-81743464D01*
X161354357Y-81964999D01*
X161354357Y-81965000D01*
X161374884Y-82186535D01*
X161374885Y-82186537D01*
X161435769Y-82400523D01*
X161435775Y-82400538D01*
X161534938Y-82599683D01*
X161534943Y-82599691D01*
X161669020Y-82777238D01*
X161833437Y-82927123D01*
X161833439Y-82927125D01*
X162022595Y-83044245D01*
X162022596Y-83044245D01*
X162022599Y-83044247D01*
X162230060Y-83124618D01*
X162448757Y-83165500D01*
X162448759Y-83165500D01*
X162671241Y-83165500D01*
X162671243Y-83165500D01*
X162889940Y-83124618D01*
X163097401Y-83044247D01*
X163286562Y-82927124D01*
X163450981Y-82777236D01*
X163573667Y-82614772D01*
X163629776Y-82573137D01*
X163672621Y-82565500D01*
X168144117Y-82565500D01*
X168211156Y-82585185D01*
X168231798Y-82601819D01*
X169546189Y-83916210D01*
X169579674Y-83977533D01*
X169574690Y-84047225D01*
X169532818Y-84103158D01*
X169523786Y-84109318D01*
X169453436Y-84152877D01*
X169289020Y-84302761D01*
X169154943Y-84480308D01*
X169154938Y-84480316D01*
X169055775Y-84679461D01*
X169055769Y-84679476D01*
X168994885Y-84893462D01*
X168994884Y-84893464D01*
X168974357Y-85114999D01*
X168974357Y-85115000D01*
X168994884Y-85336535D01*
X168999013Y-85351046D01*
X169000504Y-85356286D01*
X169000584Y-85356565D01*
X168999998Y-85426433D01*
X168961731Y-85484891D01*
X168897934Y-85513382D01*
X168881318Y-85514500D01*
X163860099Y-85514500D01*
X163793060Y-85494815D01*
X163772457Y-85478221D01*
X163772001Y-85477765D01*
X163771352Y-85477116D01*
X163737841Y-85415810D01*
X163739729Y-85355462D01*
X163745115Y-85336536D01*
X163765643Y-85115000D01*
X163763326Y-85090000D01*
X163745115Y-84893464D01*
X163745114Y-84893462D01*
X163744279Y-84890528D01*
X163684229Y-84679472D01*
X163682768Y-84676537D01*
X163585061Y-84480316D01*
X163585056Y-84480308D01*
X163450979Y-84302761D01*
X163286562Y-84152876D01*
X163286560Y-84152874D01*
X163097404Y-84035754D01*
X163097398Y-84035752D01*
X162889940Y-83955382D01*
X162671243Y-83914500D01*
X162448757Y-83914500D01*
X162230060Y-83955382D01*
X162172882Y-83977533D01*
X162022601Y-84035752D01*
X162022595Y-84035754D01*
X161833439Y-84152874D01*
X161833437Y-84152876D01*
X161669020Y-84302761D01*
X161534943Y-84480308D01*
X161534938Y-84480316D01*
X161435775Y-84679461D01*
X161435769Y-84679476D01*
X161374885Y-84893462D01*
X161374884Y-84893464D01*
X161354357Y-85114999D01*
X161354357Y-85115000D01*
X161374884Y-85336535D01*
X161374885Y-85336537D01*
X161435769Y-85550523D01*
X161435775Y-85550538D01*
X161534938Y-85749683D01*
X161534943Y-85749691D01*
X161669020Y-85927238D01*
X161790331Y-86037827D01*
X161830229Y-86074199D01*
X161833437Y-86077123D01*
X161833439Y-86077125D01*
X162022595Y-86194245D01*
X162022596Y-86194245D01*
X162022599Y-86194247D01*
X162230060Y-86274618D01*
X162448757Y-86315500D01*
X162448759Y-86315500D01*
X162671241Y-86315500D01*
X162671243Y-86315500D01*
X162809214Y-86289708D01*
X162878729Y-86296739D01*
X162919680Y-86323916D01*
X163191284Y-86595520D01*
X163191286Y-86595521D01*
X163191290Y-86595524D01*
X163328209Y-86674573D01*
X163328216Y-86674577D01*
X163480943Y-86715501D01*
X163480945Y-86715501D01*
X163646654Y-86715501D01*
X163646670Y-86715500D01*
X170696960Y-86715500D01*
X170763999Y-86735185D01*
X170784641Y-86751819D01*
X174024268Y-89991446D01*
X174057753Y-90052769D01*
X174052769Y-90122461D01*
X174010897Y-90178394D01*
X173995605Y-90188182D01*
X173856371Y-90263531D01*
X173856365Y-90263535D01*
X173673222Y-90406081D01*
X173673219Y-90406084D01*
X173673216Y-90406086D01*
X173673216Y-90406087D01*
X173648791Y-90432620D01*
X173516016Y-90576852D01*
X173389075Y-90771151D01*
X173295842Y-90983699D01*
X173238866Y-91208691D01*
X173238864Y-91208702D01*
X173219700Y-91439993D01*
X173219700Y-91440006D01*
X173238864Y-91671297D01*
X173238866Y-91671308D01*
X173295842Y-91896300D01*
X173321133Y-91953956D01*
X173330036Y-92023256D01*
X173300059Y-92086368D01*
X173240719Y-92123255D01*
X173170858Y-92122205D01*
X173119896Y-92091447D01*
X170603510Y-89575061D01*
X170570025Y-89513738D01*
X170575009Y-89444046D01*
X170616881Y-89388113D01*
X170646396Y-89371754D01*
X170676736Y-89360000D01*
X170717392Y-89344251D01*
X170717396Y-89344248D01*
X170717401Y-89344247D01*
X170906562Y-89227124D01*
X171070981Y-89077236D01*
X171205058Y-88899689D01*
X171304229Y-88700528D01*
X171365115Y-88486536D01*
X171385643Y-88265000D01*
X171382739Y-88233665D01*
X171365115Y-88043464D01*
X171365114Y-88043462D01*
X171348984Y-87986772D01*
X171304229Y-87829472D01*
X171304224Y-87829461D01*
X171205061Y-87630316D01*
X171205056Y-87630308D01*
X171070979Y-87452761D01*
X170906562Y-87302876D01*
X170906560Y-87302874D01*
X170717404Y-87185754D01*
X170717398Y-87185752D01*
X170509940Y-87105382D01*
X170291243Y-87064500D01*
X170068757Y-87064500D01*
X169850060Y-87105382D01*
X169736233Y-87149479D01*
X169642601Y-87185752D01*
X169642595Y-87185754D01*
X169453439Y-87302874D01*
X169453437Y-87302876D01*
X169289020Y-87452761D01*
X169154943Y-87630308D01*
X169154938Y-87630316D01*
X169066821Y-87807281D01*
X169019318Y-87858518D01*
X168951655Y-87875939D01*
X168885315Y-87854013D01*
X168868140Y-87839690D01*
X168812931Y-87784481D01*
X168812930Y-87784480D01*
X168706162Y-87722838D01*
X168706161Y-87722837D01*
X168675997Y-87705422D01*
X168620095Y-87690443D01*
X168523271Y-87664499D01*
X168365157Y-87664499D01*
X168357561Y-87664499D01*
X168357545Y-87664500D01*
X163672621Y-87664500D01*
X163605582Y-87644815D01*
X163573667Y-87615227D01*
X163450979Y-87452761D01*
X163286562Y-87302876D01*
X163286560Y-87302874D01*
X163097404Y-87185754D01*
X163097398Y-87185752D01*
X162889940Y-87105382D01*
X162671243Y-87064500D01*
X162448757Y-87064500D01*
X162230060Y-87105382D01*
X162116233Y-87149479D01*
X162022601Y-87185752D01*
X162022595Y-87185754D01*
X161833439Y-87302874D01*
X161833437Y-87302876D01*
X161669020Y-87452761D01*
X161534943Y-87630308D01*
X161534938Y-87630316D01*
X161435775Y-87829461D01*
X161435769Y-87829476D01*
X161374885Y-88043462D01*
X161374884Y-88043464D01*
X161354357Y-88264999D01*
X161354357Y-88265000D01*
X161374884Y-88486535D01*
X161374885Y-88486537D01*
X161435769Y-88700523D01*
X161435775Y-88700538D01*
X161534938Y-88899683D01*
X161534943Y-88899691D01*
X161669020Y-89077238D01*
X161833437Y-89227123D01*
X161833439Y-89227125D01*
X162022595Y-89344245D01*
X162022596Y-89344245D01*
X162022599Y-89344247D01*
X162230060Y-89424618D01*
X162448757Y-89465500D01*
X162448759Y-89465500D01*
X162671241Y-89465500D01*
X162671243Y-89465500D01*
X162889940Y-89424618D01*
X163097401Y-89344247D01*
X163286562Y-89227124D01*
X163450981Y-89077236D01*
X163573667Y-88914772D01*
X163629776Y-88873137D01*
X163672621Y-88865500D01*
X168144117Y-88865500D01*
X168211156Y-88885185D01*
X168231798Y-88901819D01*
X169546189Y-90216210D01*
X169579674Y-90277533D01*
X169574690Y-90347225D01*
X169532818Y-90403158D01*
X169523786Y-90409318D01*
X169453436Y-90452877D01*
X169289020Y-90602761D01*
X169154943Y-90780308D01*
X169154938Y-90780316D01*
X169055775Y-90979461D01*
X169055769Y-90979476D01*
X168994885Y-91193462D01*
X168994884Y-91193464D01*
X168974357Y-91414999D01*
X168974357Y-91415000D01*
X168994884Y-91636535D01*
X168994885Y-91636537D01*
X169055769Y-91850523D01*
X169055775Y-91850538D01*
X169154938Y-92049683D01*
X169154943Y-92049691D01*
X169289020Y-92227238D01*
X169453437Y-92377123D01*
X169453439Y-92377125D01*
X169642595Y-92494245D01*
X169642596Y-92494245D01*
X169642599Y-92494247D01*
X169850060Y-92574618D01*
X170068757Y-92615500D01*
X170068759Y-92615500D01*
X170291241Y-92615500D01*
X170291243Y-92615500D01*
X170509940Y-92574618D01*
X170717401Y-92494247D01*
X170906562Y-92377124D01*
X171070981Y-92227236D01*
X171194312Y-92063918D01*
X171250418Y-92022284D01*
X171320130Y-92017592D01*
X171380945Y-92050966D01*
X172613511Y-93283532D01*
X172646996Y-93344855D01*
X172649830Y-93371213D01*
X172649830Y-105968368D01*
X172630145Y-106035407D01*
X172577341Y-106081162D01*
X172508183Y-106091106D01*
X172493737Y-106088143D01*
X172311697Y-106039366D01*
X172311693Y-106039365D01*
X172311692Y-106039365D01*
X172311691Y-106039364D01*
X172311686Y-106039364D01*
X172085002Y-106019532D01*
X172084998Y-106019532D01*
X171858313Y-106039364D01*
X171858302Y-106039366D01*
X171638511Y-106098258D01*
X171638502Y-106098261D01*
X171432267Y-106194431D01*
X171432265Y-106194432D01*
X171245861Y-106324952D01*
X171185521Y-106385291D01*
X171124197Y-106418775D01*
X171054506Y-106413789D01*
X171010160Y-106385289D01*
X169481819Y-104856948D01*
X169448334Y-104795625D01*
X169445500Y-104769267D01*
X169445500Y-102044831D01*
X169465185Y-101977792D01*
X169517989Y-101932037D01*
X169587147Y-101922093D01*
X169634777Y-101939404D01*
X169642595Y-101944245D01*
X169642596Y-101944245D01*
X169642599Y-101944247D01*
X169850060Y-102024618D01*
X170068757Y-102065500D01*
X170068759Y-102065500D01*
X170291241Y-102065500D01*
X170291243Y-102065500D01*
X170509940Y-102024618D01*
X170717401Y-101944247D01*
X170906562Y-101827124D01*
X171070981Y-101677236D01*
X171205058Y-101499689D01*
X171304229Y-101300528D01*
X171365115Y-101086536D01*
X171385643Y-100865000D01*
X171380459Y-100809060D01*
X171365115Y-100643464D01*
X171365114Y-100643462D01*
X171364397Y-100640943D01*
X171304229Y-100429472D01*
X171304224Y-100429461D01*
X171205061Y-100230316D01*
X171205056Y-100230308D01*
X171070979Y-100052761D01*
X170906562Y-99902876D01*
X170906560Y-99902874D01*
X170717404Y-99785754D01*
X170717398Y-99785752D01*
X170509940Y-99705382D01*
X170291243Y-99664500D01*
X170068757Y-99664500D01*
X169850060Y-99705382D01*
X169718864Y-99756207D01*
X169642601Y-99785752D01*
X169642594Y-99785755D01*
X169634771Y-99790599D01*
X169567410Y-99809150D01*
X169500712Y-99788338D01*
X169455853Y-99734771D01*
X169445500Y-99685168D01*
X169445500Y-98894831D01*
X169465185Y-98827792D01*
X169517989Y-98782037D01*
X169587147Y-98772093D01*
X169634777Y-98789404D01*
X169642595Y-98794245D01*
X169642596Y-98794245D01*
X169642599Y-98794247D01*
X169850060Y-98874618D01*
X170068757Y-98915500D01*
X170068759Y-98915500D01*
X170291241Y-98915500D01*
X170291243Y-98915500D01*
X170509940Y-98874618D01*
X170717401Y-98794247D01*
X170906562Y-98677124D01*
X171070981Y-98527236D01*
X171205058Y-98349689D01*
X171304229Y-98150528D01*
X171365115Y-97936536D01*
X171385643Y-97715000D01*
X171382777Y-97684075D01*
X171365115Y-97493464D01*
X171365114Y-97493462D01*
X171351780Y-97446599D01*
X171304229Y-97279472D01*
X171231783Y-97133981D01*
X171205061Y-97080316D01*
X171205056Y-97080308D01*
X171070979Y-96902761D01*
X170906562Y-96752876D01*
X170906560Y-96752874D01*
X170717404Y-96635754D01*
X170717398Y-96635752D01*
X170509940Y-96555382D01*
X170291243Y-96514500D01*
X170068757Y-96514500D01*
X169850060Y-96555382D01*
X169767201Y-96587482D01*
X169642601Y-96635752D01*
X169642595Y-96635754D01*
X169453439Y-96752874D01*
X169453437Y-96752876D01*
X169289020Y-96902761D01*
X169206225Y-97012401D01*
X169150116Y-97054037D01*
X169080404Y-97058728D01*
X169019590Y-97025355D01*
X166559234Y-94564999D01*
X168974357Y-94564999D01*
X168974357Y-94565000D01*
X168994884Y-94786535D01*
X168994885Y-94786537D01*
X169055769Y-95000523D01*
X169055775Y-95000538D01*
X169154938Y-95199683D01*
X169154943Y-95199691D01*
X169289020Y-95377238D01*
X169453437Y-95527123D01*
X169453439Y-95527125D01*
X169642595Y-95644245D01*
X169642596Y-95644245D01*
X169642599Y-95644247D01*
X169850060Y-95724618D01*
X170068757Y-95765500D01*
X170068759Y-95765500D01*
X170291241Y-95765500D01*
X170291243Y-95765500D01*
X170509940Y-95724618D01*
X170717401Y-95644247D01*
X170906562Y-95527124D01*
X171046282Y-95399751D01*
X171070979Y-95377238D01*
X171078008Y-95367931D01*
X171205058Y-95199689D01*
X171304229Y-95000528D01*
X171365115Y-94786536D01*
X171385643Y-94565000D01*
X171365115Y-94343464D01*
X171304229Y-94129472D01*
X171304224Y-94129461D01*
X171205061Y-93930316D01*
X171205056Y-93930308D01*
X171070979Y-93752761D01*
X170906562Y-93602876D01*
X170906560Y-93602874D01*
X170717404Y-93485754D01*
X170717398Y-93485752D01*
X170509940Y-93405382D01*
X170291243Y-93364500D01*
X170068757Y-93364500D01*
X169850060Y-93405382D01*
X169718864Y-93456207D01*
X169642601Y-93485752D01*
X169642595Y-93485754D01*
X169453439Y-93602874D01*
X169453437Y-93602876D01*
X169289020Y-93752761D01*
X169154943Y-93930308D01*
X169154938Y-93930316D01*
X169055775Y-94129461D01*
X169055769Y-94129476D01*
X168994885Y-94343462D01*
X168994884Y-94343464D01*
X168974357Y-94564999D01*
X166559234Y-94564999D01*
X163771314Y-91777079D01*
X163737829Y-91715756D01*
X163739730Y-91655460D01*
X163745115Y-91636536D01*
X163765643Y-91415000D01*
X163745115Y-91193464D01*
X163684229Y-90979472D01*
X163680255Y-90971491D01*
X163585061Y-90780316D01*
X163585056Y-90780308D01*
X163450979Y-90602761D01*
X163286562Y-90452876D01*
X163286560Y-90452874D01*
X163097404Y-90335754D01*
X163097398Y-90335752D01*
X162889940Y-90255382D01*
X162671243Y-90214500D01*
X162448757Y-90214500D01*
X162230060Y-90255382D01*
X162172882Y-90277533D01*
X162022601Y-90335752D01*
X162022595Y-90335754D01*
X161833439Y-90452874D01*
X161833437Y-90452876D01*
X161669020Y-90602761D01*
X161534943Y-90780308D01*
X161534938Y-90780316D01*
X161435775Y-90979461D01*
X161435769Y-90979476D01*
X161374885Y-91193462D01*
X161374884Y-91193464D01*
X161354357Y-91414999D01*
X161354357Y-91415000D01*
X161374884Y-91636535D01*
X161374885Y-91636537D01*
X161435769Y-91850523D01*
X161435775Y-91850538D01*
X161534938Y-92049683D01*
X161534943Y-92049691D01*
X161669020Y-92227238D01*
X161833437Y-92377123D01*
X161833439Y-92377125D01*
X162022595Y-92494245D01*
X162022596Y-92494245D01*
X162022599Y-92494247D01*
X162230060Y-92574618D01*
X162448757Y-92615500D01*
X162448759Y-92615500D01*
X162671241Y-92615500D01*
X162671243Y-92615500D01*
X162809215Y-92589708D01*
X162878730Y-92596739D01*
X162919681Y-92623916D01*
X168208181Y-97912416D01*
X168241666Y-97973739D01*
X168244500Y-98000097D01*
X168244500Y-99100903D01*
X168224815Y-99167942D01*
X168172011Y-99213697D01*
X168102853Y-99223641D01*
X168039297Y-99194616D01*
X168032819Y-99188584D01*
X163771314Y-94927079D01*
X163737829Y-94865756D01*
X163739730Y-94805460D01*
X163745115Y-94786536D01*
X163765643Y-94565000D01*
X163745115Y-94343464D01*
X163684229Y-94129472D01*
X163684224Y-94129461D01*
X163585061Y-93930316D01*
X163585056Y-93930308D01*
X163450979Y-93752761D01*
X163286562Y-93602876D01*
X163286560Y-93602874D01*
X163097404Y-93485754D01*
X163097398Y-93485752D01*
X162889940Y-93405382D01*
X162671243Y-93364500D01*
X162448757Y-93364500D01*
X162230060Y-93405382D01*
X162098864Y-93456207D01*
X162022601Y-93485752D01*
X162022595Y-93485754D01*
X161833439Y-93602874D01*
X161833437Y-93602876D01*
X161669020Y-93752761D01*
X161534943Y-93930308D01*
X161534938Y-93930316D01*
X161435775Y-94129461D01*
X161435769Y-94129476D01*
X161374885Y-94343462D01*
X161374884Y-94343464D01*
X161354357Y-94564999D01*
X161354357Y-94565000D01*
X161374884Y-94786535D01*
X161374885Y-94786537D01*
X161435769Y-95000523D01*
X161435775Y-95000538D01*
X161534938Y-95199683D01*
X161534943Y-95199691D01*
X161669020Y-95377238D01*
X161833437Y-95527123D01*
X161833439Y-95527125D01*
X162022595Y-95644245D01*
X162022596Y-95644245D01*
X162022599Y-95644247D01*
X162230060Y-95724618D01*
X162448757Y-95765500D01*
X162448759Y-95765500D01*
X162671241Y-95765500D01*
X162671243Y-95765500D01*
X162809215Y-95739708D01*
X162878730Y-95746739D01*
X162919681Y-95773916D01*
X167808181Y-100662416D01*
X167841666Y-100723739D01*
X167844500Y-100750097D01*
X167844500Y-106087487D01*
X167824815Y-106154526D01*
X167772011Y-106200281D01*
X167702853Y-106210225D01*
X167662805Y-106196365D01*
X167662640Y-106196720D01*
X167659216Y-106195123D01*
X167658507Y-106194878D01*
X167657738Y-106194434D01*
X167451497Y-106098261D01*
X167451488Y-106098258D01*
X167231697Y-106039366D01*
X167231693Y-106039365D01*
X167231692Y-106039365D01*
X167231691Y-106039364D01*
X167231686Y-106039364D01*
X167005002Y-106019532D01*
X167004998Y-106019532D01*
X166778313Y-106039364D01*
X166778302Y-106039366D01*
X166558511Y-106098258D01*
X166558502Y-106098261D01*
X166352261Y-106194434D01*
X166351493Y-106194878D01*
X166351111Y-106194970D01*
X166347360Y-106196720D01*
X166347008Y-106195965D01*
X166283592Y-106211346D01*
X166217567Y-106188490D01*
X166174380Y-106133566D01*
X166165500Y-106087487D01*
X166165500Y-100809060D01*
X166165501Y-100809047D01*
X166165501Y-100640944D01*
X166125661Y-100492262D01*
X166124577Y-100488216D01*
X166118072Y-100476949D01*
X166045524Y-100351290D01*
X166045518Y-100351282D01*
X164908799Y-99214563D01*
X163771313Y-98077078D01*
X163737829Y-98015756D01*
X163739730Y-97955460D01*
X163745115Y-97936536D01*
X163765643Y-97715000D01*
X163762777Y-97684075D01*
X163745115Y-97493464D01*
X163745114Y-97493462D01*
X163731780Y-97446599D01*
X163684229Y-97279472D01*
X163611783Y-97133981D01*
X163585061Y-97080316D01*
X163585056Y-97080308D01*
X163450979Y-96902761D01*
X163286562Y-96752876D01*
X163286560Y-96752874D01*
X163097404Y-96635754D01*
X163097398Y-96635752D01*
X162889940Y-96555382D01*
X162671243Y-96514500D01*
X162448757Y-96514500D01*
X162230060Y-96555382D01*
X162147201Y-96587482D01*
X162022601Y-96635752D01*
X162022595Y-96635754D01*
X161833439Y-96752874D01*
X161833437Y-96752876D01*
X161669020Y-96902761D01*
X161534943Y-97080308D01*
X161534938Y-97080316D01*
X161435775Y-97279461D01*
X161435769Y-97279476D01*
X161374885Y-97493462D01*
X161374884Y-97493464D01*
X161354357Y-97714999D01*
X161354357Y-97715000D01*
X161374884Y-97936535D01*
X161374885Y-97936537D01*
X161435769Y-98150523D01*
X161435775Y-98150538D01*
X161534938Y-98349683D01*
X161534943Y-98349691D01*
X161669020Y-98527238D01*
X161833437Y-98677123D01*
X161833439Y-98677125D01*
X162022595Y-98794245D01*
X162022596Y-98794245D01*
X162022599Y-98794247D01*
X162230060Y-98874618D01*
X162448757Y-98915500D01*
X162448759Y-98915500D01*
X162671241Y-98915500D01*
X162671243Y-98915500D01*
X162809214Y-98889708D01*
X162878729Y-98896739D01*
X162919680Y-98923916D01*
X164928181Y-100932416D01*
X164961666Y-100993739D01*
X164964500Y-101020097D01*
X164964500Y-105951380D01*
X164944815Y-106018419D01*
X164892011Y-106064174D01*
X164822853Y-106074118D01*
X164808406Y-106071155D01*
X164715000Y-106046126D01*
X164715000Y-107009314D01*
X164710606Y-107004920D01*
X164619394Y-106952259D01*
X164517661Y-106925000D01*
X164412339Y-106925000D01*
X164310606Y-106952259D01*
X164219394Y-107004920D01*
X164215000Y-107009314D01*
X164215000Y-106046127D01*
X164018671Y-106098734D01*
X163812517Y-106194865D01*
X163626179Y-106325342D01*
X163465342Y-106486179D01*
X163334865Y-106672517D01*
X163238734Y-106878673D01*
X163238730Y-106878682D01*
X163186127Y-107074999D01*
X163186128Y-107075000D01*
X164149314Y-107075000D01*
X164144920Y-107079394D01*
X164092259Y-107170606D01*
X164065000Y-107272339D01*
X164065000Y-107377661D01*
X164092259Y-107479394D01*
X164144920Y-107570606D01*
X164149314Y-107575000D01*
X163186128Y-107575000D01*
X163238730Y-107771317D01*
X163238734Y-107771326D01*
X163334865Y-107977482D01*
X163465342Y-108163820D01*
X163626179Y-108324657D01*
X163812517Y-108455134D01*
X164018673Y-108551265D01*
X164018682Y-108551269D01*
X164214999Y-108603872D01*
X164215000Y-108603871D01*
X164215000Y-107640686D01*
X164219394Y-107645080D01*
X164310606Y-107697741D01*
X164412339Y-107725000D01*
X164517661Y-107725000D01*
X164619394Y-107697741D01*
X164710606Y-107645080D01*
X164715000Y-107640686D01*
X164715000Y-108603871D01*
X164808406Y-108578844D01*
X164878256Y-108580507D01*
X164936119Y-108619669D01*
X164963623Y-108683898D01*
X164964500Y-108698619D01*
X164964500Y-113418330D01*
X164964499Y-113418348D01*
X164964499Y-113570863D01*
X164944814Y-113637902D01*
X164892010Y-113683657D01*
X164822852Y-113693601D01*
X164808406Y-113690638D01*
X164691697Y-113659366D01*
X164691693Y-113659365D01*
X164691692Y-113659365D01*
X164691691Y-113659364D01*
X164691686Y-113659364D01*
X164465002Y-113639532D01*
X164464998Y-113639532D01*
X164238313Y-113659364D01*
X164238302Y-113659366D01*
X164142067Y-113685152D01*
X164072217Y-113683489D01*
X164022293Y-113653058D01*
X161926819Y-111557584D01*
X161893334Y-111496261D01*
X161890500Y-111469903D01*
X161890500Y-102435096D01*
X161910185Y-102368057D01*
X161926815Y-102347419D01*
X162200318Y-102073915D01*
X162261641Y-102040431D01*
X162310783Y-102039708D01*
X162448757Y-102065500D01*
X162448759Y-102065500D01*
X162671241Y-102065500D01*
X162671243Y-102065500D01*
X162889940Y-102024618D01*
X163097401Y-101944247D01*
X163286562Y-101827124D01*
X163450981Y-101677236D01*
X163585058Y-101499689D01*
X163684229Y-101300528D01*
X163745115Y-101086536D01*
X163765643Y-100865000D01*
X163760459Y-100809060D01*
X163745115Y-100643464D01*
X163745114Y-100643462D01*
X163744397Y-100640943D01*
X163684229Y-100429472D01*
X163684224Y-100429461D01*
X163585061Y-100230316D01*
X163585056Y-100230308D01*
X163450979Y-100052761D01*
X163286562Y-99902876D01*
X163286560Y-99902874D01*
X163097404Y-99785754D01*
X163097398Y-99785752D01*
X162889940Y-99705382D01*
X162671243Y-99664500D01*
X162448757Y-99664500D01*
X162230060Y-99705382D01*
X162098864Y-99756207D01*
X162022601Y-99785752D01*
X162022595Y-99785754D01*
X161833439Y-99902874D01*
X161833437Y-99902876D01*
X161669020Y-100052761D01*
X161534943Y-100230308D01*
X161534938Y-100230316D01*
X161435775Y-100429461D01*
X161435769Y-100429476D01*
X161374885Y-100643462D01*
X161374884Y-100643464D01*
X161354357Y-100864999D01*
X161354357Y-100865000D01*
X161374885Y-101086537D01*
X161380270Y-101105463D01*
X161379683Y-101175330D01*
X161348685Y-101227078D01*
X160921286Y-101654478D01*
X160809481Y-101766282D01*
X160809480Y-101766284D01*
X160762405Y-101847821D01*
X160730423Y-101903215D01*
X160689499Y-102055943D01*
X160689499Y-102055945D01*
X160689499Y-102224046D01*
X160689500Y-102224059D01*
X160689500Y-111683330D01*
X160689499Y-111683348D01*
X160689499Y-111849054D01*
X160689498Y-111849054D01*
X155540500Y-111849054D01*
X155540500Y-111086692D01*
X155560185Y-111019653D01*
X155593374Y-110985119D01*
X155779139Y-110855047D01*
X155940047Y-110694139D01*
X155957710Y-110668912D01*
X156012285Y-110625289D01*
X156081783Y-110618094D01*
X156144138Y-110649615D01*
X156179553Y-110709844D01*
X156182574Y-110726778D01*
X156186401Y-110762373D01*
X156186403Y-110762379D01*
X156236645Y-110897086D01*
X156236649Y-110897093D01*
X156322809Y-111012187D01*
X156322812Y-111012190D01*
X156437906Y-111098350D01*
X156437913Y-111098354D01*
X156572620Y-111148596D01*
X156572627Y-111148598D01*
X156632155Y-111154999D01*
X156632172Y-111155000D01*
X157230000Y-111155000D01*
X157230000Y-110170686D01*
X157234394Y-110175080D01*
X157325606Y-110227741D01*
X157427339Y-110255000D01*
X157532661Y-110255000D01*
X157634394Y-110227741D01*
X157725606Y-110175080D01*
X157730000Y-110170686D01*
X157730000Y-111155000D01*
X158327828Y-111155000D01*
X158327844Y-111154999D01*
X158387372Y-111148598D01*
X158387379Y-111148596D01*
X158522086Y-111098354D01*
X158522093Y-111098350D01*
X158637187Y-111012190D01*
X158637190Y-111012187D01*
X158723350Y-110897093D01*
X158723354Y-110897086D01*
X158773596Y-110762379D01*
X158773598Y-110762372D01*
X158779999Y-110702844D01*
X158780000Y-110702827D01*
X158780000Y-110105000D01*
X157795686Y-110105000D01*
X157800080Y-110100606D01*
X157852741Y-110009394D01*
X157880000Y-109907661D01*
X157880000Y-109802339D01*
X157852741Y-109700606D01*
X157800080Y-109609394D01*
X157795686Y-109605000D01*
X158780000Y-109605000D01*
X158780000Y-109007172D01*
X158779999Y-109007155D01*
X158773598Y-108947627D01*
X158773596Y-108947620D01*
X158723354Y-108812913D01*
X158723350Y-108812906D01*
X158637190Y-108697812D01*
X158637187Y-108697809D01*
X158522093Y-108611649D01*
X158522086Y-108611645D01*
X158387379Y-108561403D01*
X158387372Y-108561401D01*
X158327844Y-108555000D01*
X157730000Y-108555000D01*
X157730000Y-109539314D01*
X157725606Y-109534920D01*
X157634394Y-109482259D01*
X157532661Y-109455000D01*
X157427339Y-109455000D01*
X157325606Y-109482259D01*
X157234394Y-109534920D01*
X157230000Y-109539314D01*
X157230000Y-108540618D01*
X157213814Y-108510976D01*
X157218798Y-108441284D01*
X157247299Y-108396937D01*
X157285914Y-108358322D01*
X157325520Y-108318716D01*
X157397976Y-108193218D01*
X157397977Y-108193217D01*
X157400654Y-108188578D01*
X157404577Y-108181785D01*
X157445501Y-108029057D01*
X157445501Y-107870943D01*
X157445501Y-107863348D01*
X157445500Y-107863330D01*
X157445500Y-85814059D01*
X157445501Y-85814046D01*
X157445501Y-85645945D01*
X157445501Y-85645943D01*
X157404577Y-85493215D01*
X157367534Y-85429055D01*
X157325520Y-85356284D01*
X157213716Y-85244480D01*
X157213715Y-85244479D01*
X157209385Y-85240149D01*
X157209374Y-85240139D01*
X156381923Y-84412688D01*
X156348438Y-84351365D01*
X156351673Y-84286689D01*
X156410447Y-84105801D01*
X156440500Y-83916055D01*
X156440500Y-83723945D01*
X156410447Y-83534199D01*
X156364329Y-83392261D01*
X156351083Y-83351493D01*
X156301662Y-83254500D01*
X156263865Y-83180319D01*
X156150945Y-83024898D01*
X156015102Y-82889055D01*
X155859681Y-82776135D01*
X155832756Y-82762416D01*
X155688504Y-82688915D01*
X155623919Y-82667931D01*
X155566243Y-82628494D01*
X155539044Y-82564136D01*
X155550958Y-82495289D01*
X155598202Y-82443813D01*
X155623919Y-82432069D01*
X155688504Y-82411084D01*
X155688506Y-82411082D01*
X155688509Y-82411082D01*
X155859681Y-82323865D01*
X156015102Y-82210945D01*
X156150945Y-82075102D01*
X156263865Y-81919681D01*
X156351082Y-81748509D01*
X156410447Y-81565801D01*
X156440500Y-81376055D01*
X156440500Y-81183945D01*
X156410447Y-80994199D01*
X156403694Y-80973418D01*
X156401700Y-80903580D01*
X156433943Y-80847423D01*
X164739548Y-72541819D01*
X164800871Y-72508334D01*
X164827229Y-72505500D01*
X178065501Y-72505500D01*
X178132540Y-72525185D01*
X178178295Y-72577989D01*
X178189501Y-72629500D01*
X178189501Y-72802876D01*
X178195908Y-72862483D01*
X178246202Y-72997328D01*
X178246206Y-72997335D01*
X178332452Y-73112544D01*
X178332455Y-73112547D01*
X178447664Y-73198793D01*
X178447671Y-73198797D01*
X178582517Y-73249091D01*
X178582516Y-73249091D01*
X178589444Y-73249835D01*
X178642127Y-73255500D01*
X183337872Y-73255499D01*
X183397483Y-73249091D01*
X183532331Y-73198796D01*
X183647546Y-73112546D01*
X183733796Y-72997331D01*
X183784091Y-72862483D01*
X183790500Y-72802873D01*
X183790499Y-70707128D01*
X183784091Y-70647517D01*
X183733796Y-70512669D01*
X183733795Y-70512668D01*
X183733793Y-70512664D01*
X183647547Y-70397455D01*
X183647544Y-70397452D01*
X183532335Y-70311206D01*
X183532328Y-70311202D01*
X183397482Y-70260908D01*
X183397483Y-70260908D01*
X183337883Y-70254501D01*
X183337881Y-70254500D01*
X183337873Y-70254500D01*
X183337864Y-70254500D01*
X178642129Y-70254500D01*
X178642123Y-70254501D01*
X178582516Y-70260908D01*
X178447671Y-70311202D01*
X178447664Y-70311206D01*
X178332455Y-70397452D01*
X178332452Y-70397455D01*
X178246206Y-70512664D01*
X178246202Y-70512671D01*
X178195908Y-70647517D01*
X178189501Y-70707116D01*
X178189501Y-70707123D01*
X178189500Y-70707135D01*
X178189500Y-70880500D01*
X178169815Y-70947539D01*
X178117011Y-70993294D01*
X178065500Y-71004500D01*
X177525577Y-71004500D01*
X177458538Y-70984815D01*
X177412783Y-70932011D01*
X177402839Y-70862853D01*
X177425258Y-70807615D01*
X177473343Y-70741433D01*
X177580568Y-70530992D01*
X177653553Y-70306368D01*
X177666220Y-70226390D01*
X177690500Y-70073097D01*
X177690500Y-67636902D01*
X177653553Y-67403631D01*
X177580566Y-67179003D01*
X177473342Y-66968566D01*
X177463486Y-66955000D01*
X177334517Y-66777490D01*
X177167510Y-66610483D01*
X176976433Y-66471657D01*
X176765996Y-66364433D01*
X176541368Y-66291446D01*
X176308097Y-66254500D01*
X176308092Y-66254500D01*
X176071908Y-66254500D01*
X176071903Y-66254500D01*
X175838631Y-66291446D01*
X175614003Y-66364433D01*
X175403566Y-66471657D01*
X175294550Y-66550862D01*
X175212490Y-66610483D01*
X175212488Y-66610485D01*
X175212487Y-66610485D01*
X175045485Y-66777487D01*
X175045485Y-66777488D01*
X175045483Y-66777490D01*
X174996360Y-66845102D01*
X174906657Y-66968566D01*
X174799433Y-67179003D01*
X174726446Y-67403631D01*
X174689500Y-67636902D01*
X174689500Y-70073097D01*
X174726446Y-70306368D01*
X174799433Y-70530996D01*
X174889175Y-70707123D01*
X174906657Y-70741433D01*
X174954741Y-70807615D01*
X174978221Y-70873420D01*
X174962396Y-70941474D01*
X174912290Y-70990169D01*
X174854423Y-71004500D01*
X164391080Y-71004500D01*
X164246092Y-71033340D01*
X164246082Y-71033343D01*
X164109511Y-71089912D01*
X164109498Y-71089919D01*
X163986584Y-71172048D01*
X163986580Y-71172051D01*
X155135451Y-80023181D01*
X155074128Y-80056666D01*
X155047770Y-80059500D01*
X154832229Y-80059500D01*
X154765190Y-80039815D01*
X154744548Y-80023181D01*
X153369956Y-78648589D01*
X151964016Y-77242648D01*
X151964015Y-77242647D01*
X151964013Y-77242645D01*
X151917182Y-77211355D01*
X151885960Y-77190494D01*
X151885959Y-77190493D01*
X151841103Y-77160520D01*
X151841088Y-77160512D01*
X151704517Y-77103943D01*
X151704507Y-77103940D01*
X151559520Y-77075100D01*
X151559518Y-77075100D01*
X151051518Y-77075100D01*
X133515899Y-77075100D01*
X133448860Y-77055415D01*
X133403105Y-77002611D01*
X133393161Y-76933453D01*
X133416083Y-76879552D01*
X133415359Y-76879079D01*
X133418010Y-76875020D01*
X133418046Y-76874937D01*
X133418159Y-76874790D01*
X133418164Y-76874785D01*
X133554173Y-76666607D01*
X133654063Y-76438881D01*
X133715108Y-76197821D01*
X133735643Y-75950000D01*
X133733192Y-75920422D01*
X133715109Y-75702187D01*
X133715107Y-75702175D01*
X133654063Y-75461118D01*
X133554173Y-75233393D01*
X133418166Y-75025217D01*
X133330512Y-74930000D01*
X133249744Y-74842262D01*
X133053509Y-74689526D01*
X133053507Y-74689525D01*
X133053506Y-74689524D01*
X132834811Y-74571172D01*
X132834802Y-74571169D01*
X132599616Y-74490429D01*
X132354335Y-74449500D01*
X132105665Y-74449500D01*
X131860383Y-74490429D01*
X131625197Y-74571169D01*
X131625188Y-74571172D01*
X131406493Y-74689524D01*
X131210257Y-74842261D01*
X131041833Y-75025217D01*
X130905826Y-75233393D01*
X130805936Y-75461118D01*
X130744892Y-75702175D01*
X130744890Y-75702187D01*
X130724357Y-75949994D01*
X130724357Y-75950005D01*
X130744890Y-76197812D01*
X130744892Y-76197824D01*
X130805936Y-76438881D01*
X130905826Y-76666606D01*
X131041835Y-76874784D01*
X131041954Y-76874937D01*
X131041983Y-76875010D01*
X131044641Y-76879079D01*
X131043803Y-76879625D01*
X131067597Y-76939932D01*
X131054031Y-77008471D01*
X131005562Y-77058796D01*
X130944101Y-77075100D01*
X127015899Y-77075100D01*
X126948860Y-77055415D01*
X126903105Y-77002611D01*
X126893161Y-76933453D01*
X126916083Y-76879552D01*
X126915359Y-76879079D01*
X126918010Y-76875020D01*
X126918046Y-76874937D01*
X126918159Y-76874790D01*
X126918164Y-76874785D01*
X127054173Y-76666607D01*
X127154063Y-76438881D01*
X127215108Y-76197821D01*
X127235643Y-75950000D01*
X127233192Y-75920422D01*
X127215109Y-75702187D01*
X127215107Y-75702175D01*
X127154063Y-75461118D01*
X127054173Y-75233393D01*
X126918166Y-75025217D01*
X126830512Y-74930000D01*
X126749744Y-74842262D01*
X126553509Y-74689526D01*
X126553507Y-74689525D01*
X126553506Y-74689524D01*
X126334811Y-74571172D01*
X126334802Y-74571169D01*
X126099616Y-74490429D01*
X125854335Y-74449500D01*
X125605665Y-74449500D01*
X125360383Y-74490429D01*
X125125197Y-74571169D01*
X125125188Y-74571172D01*
X124906493Y-74689524D01*
X124710257Y-74842261D01*
X124541833Y-75025217D01*
X124405826Y-75233393D01*
X124305936Y-75461118D01*
X124244892Y-75702175D01*
X124244890Y-75702187D01*
X124224357Y-75949994D01*
X124224357Y-75950005D01*
X124244890Y-76197812D01*
X124244892Y-76197824D01*
X124305936Y-76438881D01*
X124405826Y-76666606D01*
X124541835Y-76874784D01*
X124541954Y-76874937D01*
X124541983Y-76875010D01*
X124544641Y-76879079D01*
X124543803Y-76879625D01*
X124567597Y-76939932D01*
X124554031Y-77008471D01*
X124505562Y-77058796D01*
X124444101Y-77075100D01*
X123907829Y-77075100D01*
X123840790Y-77055415D01*
X123820148Y-77038781D01*
X123789568Y-77008201D01*
X123756083Y-76946878D01*
X123753778Y-76909078D01*
X123756508Y-76879625D01*
X123760643Y-76835000D01*
X123740115Y-76613464D01*
X123679229Y-76399472D01*
X123679224Y-76399461D01*
X123580061Y-76200316D01*
X123580056Y-76200308D01*
X123445979Y-76022761D01*
X123392640Y-75974137D01*
X123356358Y-75914426D01*
X123358119Y-75844579D01*
X123392640Y-75790863D01*
X123445979Y-75742238D01*
X123476225Y-75702187D01*
X123580058Y-75564689D01*
X123679229Y-75365528D01*
X123740115Y-75151536D01*
X123760643Y-74930000D01*
X123740115Y-74708464D01*
X123679229Y-74494472D01*
X123677216Y-74490429D01*
X123580061Y-74295316D01*
X123580056Y-74295308D01*
X123445979Y-74117761D01*
X123281562Y-73967876D01*
X123281560Y-73967874D01*
X123092404Y-73850754D01*
X123092398Y-73850752D01*
X122884940Y-73770382D01*
X122666243Y-73729500D01*
X122443757Y-73729500D01*
X122225060Y-73770382D01*
X122093864Y-73821207D01*
X122017601Y-73850752D01*
X122017595Y-73850754D01*
X121828439Y-73967874D01*
X121828437Y-73967876D01*
X121664020Y-74117761D01*
X121529943Y-74295308D01*
X121529938Y-74295316D01*
X121430775Y-74494461D01*
X121430769Y-74494476D01*
X121369885Y-74708462D01*
X121369884Y-74708464D01*
X121349357Y-74929999D01*
X118084449Y-74929999D01*
X118084449Y-71449994D01*
X124224859Y-71449994D01*
X124224859Y-71450005D01*
X124245385Y-71697729D01*
X124245387Y-71697738D01*
X124306412Y-71938717D01*
X124406266Y-72166364D01*
X124506564Y-72319882D01*
X125206212Y-71620234D01*
X125217482Y-71662292D01*
X125289890Y-71787708D01*
X125392292Y-71890110D01*
X125517708Y-71962518D01*
X125559765Y-71973787D01*
X124859942Y-72673609D01*
X124906768Y-72710055D01*
X124906770Y-72710056D01*
X125125385Y-72828364D01*
X125125396Y-72828369D01*
X125360506Y-72909083D01*
X125605707Y-72950000D01*
X125854293Y-72950000D01*
X126099493Y-72909083D01*
X126334603Y-72828369D01*
X126334614Y-72828364D01*
X126553228Y-72710057D01*
X126553231Y-72710055D01*
X126600056Y-72673609D01*
X125900234Y-71973787D01*
X125942292Y-71962518D01*
X126067708Y-71890110D01*
X126170110Y-71787708D01*
X126242518Y-71662292D01*
X126253787Y-71620235D01*
X126953434Y-72319882D01*
X127053731Y-72166369D01*
X127153587Y-71938717D01*
X127214612Y-71697738D01*
X127214614Y-71697729D01*
X127235141Y-71450005D01*
X127235141Y-71449994D01*
X130724859Y-71449994D01*
X130724859Y-71450005D01*
X130745385Y-71697729D01*
X130745387Y-71697738D01*
X130806412Y-71938717D01*
X130906266Y-72166364D01*
X131006564Y-72319882D01*
X131706212Y-71620234D01*
X131717482Y-71662292D01*
X131789890Y-71787708D01*
X131892292Y-71890110D01*
X132017708Y-71962518D01*
X132059765Y-71973787D01*
X131359942Y-72673609D01*
X131406768Y-72710055D01*
X131406770Y-72710056D01*
X131625385Y-72828364D01*
X131625396Y-72828369D01*
X131860506Y-72909083D01*
X132105707Y-72950000D01*
X132354293Y-72950000D01*
X132599493Y-72909083D01*
X132834603Y-72828369D01*
X132834614Y-72828364D01*
X133053228Y-72710057D01*
X133053231Y-72710055D01*
X133100056Y-72673609D01*
X132400234Y-71973787D01*
X132442292Y-71962518D01*
X132567708Y-71890110D01*
X132670110Y-71787708D01*
X132742518Y-71662292D01*
X132753787Y-71620235D01*
X133453434Y-72319882D01*
X133553731Y-72166369D01*
X133653587Y-71938717D01*
X133714612Y-71697738D01*
X133714614Y-71697729D01*
X133735141Y-71450005D01*
X133735141Y-71449994D01*
X133714614Y-71202270D01*
X133714612Y-71202261D01*
X133653587Y-70961282D01*
X133553731Y-70733630D01*
X133453434Y-70580116D01*
X132753787Y-71279764D01*
X132742518Y-71237708D01*
X132670110Y-71112292D01*
X132567708Y-71009890D01*
X132442292Y-70937482D01*
X132400235Y-70926212D01*
X133100057Y-70226390D01*
X133100056Y-70226389D01*
X133053229Y-70189943D01*
X132834614Y-70071635D01*
X132834603Y-70071630D01*
X132599493Y-69990916D01*
X132354293Y-69950000D01*
X132105707Y-69950000D01*
X131860506Y-69990916D01*
X131625396Y-70071630D01*
X131625390Y-70071632D01*
X131406761Y-70189949D01*
X131359942Y-70226388D01*
X131359942Y-70226390D01*
X132059765Y-70926212D01*
X132017708Y-70937482D01*
X131892292Y-71009890D01*
X131789890Y-71112292D01*
X131717482Y-71237708D01*
X131706212Y-71279764D01*
X131006564Y-70580116D01*
X130906267Y-70733632D01*
X130806412Y-70961282D01*
X130745387Y-71202261D01*
X130745385Y-71202270D01*
X130724859Y-71449994D01*
X127235141Y-71449994D01*
X127214614Y-71202270D01*
X127214612Y-71202261D01*
X127153587Y-70961282D01*
X127053731Y-70733630D01*
X126953434Y-70580116D01*
X126253787Y-71279764D01*
X126242518Y-71237708D01*
X126170110Y-71112292D01*
X126067708Y-71009890D01*
X125942292Y-70937482D01*
X125900235Y-70926212D01*
X126600057Y-70226390D01*
X126600056Y-70226389D01*
X126553229Y-70189943D01*
X126334614Y-70071635D01*
X126334603Y-70071630D01*
X126099493Y-69990916D01*
X125854293Y-69950000D01*
X125605707Y-69950000D01*
X125360506Y-69990916D01*
X125125396Y-70071630D01*
X125125390Y-70071632D01*
X124906761Y-70189949D01*
X124859942Y-70226388D01*
X124859942Y-70226390D01*
X125559765Y-70926212D01*
X125517708Y-70937482D01*
X125392292Y-71009890D01*
X125289890Y-71112292D01*
X125217482Y-71237708D01*
X125206212Y-71279764D01*
X124506564Y-70580116D01*
X124406267Y-70733632D01*
X124306412Y-70961282D01*
X124245387Y-71202261D01*
X124245385Y-71202270D01*
X124224859Y-71449994D01*
X118084449Y-71449994D01*
X118084449Y-67309999D01*
X121349357Y-67309999D01*
X121349357Y-67310000D01*
X121369884Y-67531535D01*
X121369885Y-67531537D01*
X121430769Y-67745523D01*
X121430775Y-67745538D01*
X121529938Y-67944683D01*
X121529943Y-67944691D01*
X121664020Y-68122238D01*
X121828437Y-68272123D01*
X121828439Y-68272125D01*
X122017595Y-68389245D01*
X122017596Y-68389245D01*
X122017599Y-68389247D01*
X122225060Y-68469618D01*
X122443757Y-68510500D01*
X122443759Y-68510500D01*
X122666241Y-68510500D01*
X122666243Y-68510500D01*
X122884940Y-68469618D01*
X123092401Y-68389247D01*
X123281562Y-68272124D01*
X123445981Y-68122236D01*
X123580058Y-67944689D01*
X123679229Y-67745528D01*
X123740115Y-67531536D01*
X123760643Y-67310000D01*
X123740115Y-67088464D01*
X123679229Y-66874472D01*
X123679224Y-66874461D01*
X123580061Y-66675316D01*
X123580056Y-66675308D01*
X123445979Y-66497761D01*
X123281562Y-66347876D01*
X123281560Y-66347874D01*
X123092404Y-66230754D01*
X123092398Y-66230752D01*
X122884940Y-66150382D01*
X122666243Y-66109500D01*
X122443757Y-66109500D01*
X122225060Y-66150382D01*
X122093864Y-66201207D01*
X122017601Y-66230752D01*
X122017595Y-66230754D01*
X121828439Y-66347874D01*
X121828437Y-66347876D01*
X121664020Y-66497761D01*
X121529943Y-66675308D01*
X121529938Y-66675316D01*
X121430775Y-66874461D01*
X121430769Y-66874476D01*
X121369885Y-67088462D01*
X121369884Y-67088464D01*
X121349357Y-67309999D01*
X118084449Y-67309999D01*
X118084449Y-65205000D01*
X178410898Y-65205000D01*
X179456988Y-65205000D01*
X179424075Y-65262007D01*
X179390000Y-65389174D01*
X179390000Y-65520826D01*
X179424075Y-65647993D01*
X179456988Y-65705000D01*
X178410898Y-65705000D01*
X178426934Y-65806247D01*
X178499897Y-66030802D01*
X178607085Y-66241171D01*
X178745866Y-66432186D01*
X178912813Y-66599133D01*
X179103828Y-66737914D01*
X179314197Y-66845102D01*
X179538752Y-66918065D01*
X179538751Y-66918065D01*
X179771948Y-66955000D01*
X180740000Y-66955000D01*
X180740000Y-65955000D01*
X181240000Y-65955000D01*
X181240000Y-66955000D01*
X182208052Y-66955000D01*
X182441247Y-66918065D01*
X182665802Y-66845102D01*
X182876171Y-66737914D01*
X183067186Y-66599133D01*
X183234133Y-66432186D01*
X183372914Y-66241171D01*
X183480102Y-66030802D01*
X183553065Y-65806247D01*
X183569102Y-65705000D01*
X182523012Y-65705000D01*
X182555925Y-65647993D01*
X182590000Y-65520826D01*
X182590000Y-65389174D01*
X182555925Y-65262007D01*
X182523012Y-65205000D01*
X183569102Y-65205000D01*
X183553065Y-65103752D01*
X183480102Y-64879197D01*
X183372914Y-64668828D01*
X183234133Y-64477813D01*
X183067186Y-64310866D01*
X182876171Y-64172085D01*
X182665802Y-64064897D01*
X182441247Y-63991934D01*
X182441248Y-63991934D01*
X182208052Y-63955000D01*
X181240000Y-63955000D01*
X181240000Y-64955000D01*
X180740000Y-64955000D01*
X180740000Y-63955000D01*
X179771948Y-63955000D01*
X179538752Y-63991934D01*
X179314197Y-64064897D01*
X179103828Y-64172085D01*
X178912813Y-64310866D01*
X178745866Y-64477813D01*
X178607085Y-64668828D01*
X178499897Y-64879197D01*
X178426934Y-65103752D01*
X178410898Y-65205000D01*
X118084449Y-65205000D01*
X118084449Y-62217660D01*
X119543449Y-62217660D01*
X119543449Y-62460237D01*
X119575110Y-62700734D01*
X119637896Y-62935053D01*
X119730722Y-63159154D01*
X119730725Y-63159161D01*
X119852013Y-63369238D01*
X119852015Y-63369241D01*
X119852016Y-63369242D01*
X119999682Y-63561685D01*
X119999688Y-63561692D01*
X120171205Y-63733209D01*
X120171211Y-63733214D01*
X120363660Y-63880885D01*
X120573737Y-64002173D01*
X120797849Y-64095003D01*
X121032160Y-64157787D01*
X121212535Y-64181533D01*
X121272660Y-64189449D01*
X121272661Y-64189449D01*
X121515238Y-64189449D01*
X121563337Y-64183116D01*
X121755738Y-64157787D01*
X121990049Y-64095003D01*
X122214161Y-64002173D01*
X122424238Y-63880885D01*
X122616687Y-63733214D01*
X122788214Y-63561687D01*
X122935885Y-63369238D01*
X123057173Y-63159161D01*
X123150003Y-62935049D01*
X123212787Y-62700738D01*
X123244449Y-62460237D01*
X123244449Y-62217661D01*
X123244449Y-62217660D01*
X188123449Y-62217660D01*
X188123449Y-62460237D01*
X188155110Y-62700734D01*
X188217896Y-62935053D01*
X188310722Y-63159154D01*
X188310725Y-63159161D01*
X188432013Y-63369238D01*
X188432015Y-63369241D01*
X188432016Y-63369242D01*
X188579682Y-63561685D01*
X188579688Y-63561692D01*
X188751205Y-63733209D01*
X188751211Y-63733214D01*
X188943660Y-63880885D01*
X189153737Y-64002173D01*
X189377849Y-64095003D01*
X189612160Y-64157787D01*
X189792535Y-64181533D01*
X189852660Y-64189449D01*
X189852661Y-64189449D01*
X190095238Y-64189449D01*
X190143337Y-64183116D01*
X190335738Y-64157787D01*
X190570049Y-64095003D01*
X190794161Y-64002173D01*
X191004238Y-63880885D01*
X191196687Y-63733214D01*
X191368214Y-63561687D01*
X191515885Y-63369238D01*
X191637173Y-63159161D01*
X191730003Y-62935049D01*
X191792787Y-62700738D01*
X191824449Y-62460237D01*
X191824449Y-62217661D01*
X191792787Y-61977160D01*
X191730003Y-61742849D01*
X191637173Y-61518737D01*
X191515885Y-61308660D01*
X191368214Y-61116211D01*
X191368209Y-61116205D01*
X191196692Y-60944688D01*
X191196685Y-60944682D01*
X191004242Y-60797016D01*
X191004241Y-60797015D01*
X191004238Y-60797013D01*
X190794161Y-60675725D01*
X190794154Y-60675722D01*
X190570053Y-60582896D01*
X190335734Y-60520110D01*
X190095238Y-60488449D01*
X190095237Y-60488449D01*
X189852661Y-60488449D01*
X189852660Y-60488449D01*
X189612163Y-60520110D01*
X189377844Y-60582896D01*
X189153743Y-60675722D01*
X189153734Y-60675726D01*
X188971800Y-60780766D01*
X188947556Y-60794764D01*
X188943655Y-60797016D01*
X188751212Y-60944682D01*
X188751205Y-60944688D01*
X188579688Y-61116205D01*
X188579682Y-61116212D01*
X188432016Y-61308655D01*
X188310726Y-61518734D01*
X188310722Y-61518743D01*
X188217896Y-61742844D01*
X188155110Y-61977163D01*
X188123449Y-62217660D01*
X123244449Y-62217660D01*
X123212787Y-61977160D01*
X123150003Y-61742849D01*
X123057173Y-61518737D01*
X122935885Y-61308660D01*
X122788214Y-61116211D01*
X122788209Y-61116205D01*
X122616692Y-60944688D01*
X122616685Y-60944682D01*
X122424242Y-60797016D01*
X122424241Y-60797015D01*
X122424238Y-60797013D01*
X122214161Y-60675725D01*
X122214154Y-60675722D01*
X121990053Y-60582896D01*
X121755734Y-60520110D01*
X121515238Y-60488449D01*
X121515237Y-60488449D01*
X121272661Y-60488449D01*
X121272660Y-60488449D01*
X121032163Y-60520110D01*
X120797844Y-60582896D01*
X120573743Y-60675722D01*
X120573734Y-60675726D01*
X120391800Y-60780766D01*
X120367556Y-60794764D01*
X120363655Y-60797016D01*
X120171212Y-60944682D01*
X120171205Y-60944688D01*
X119999688Y-61116205D01*
X119999682Y-61116212D01*
X119852016Y-61308655D01*
X119730726Y-61518734D01*
X119730722Y-61518743D01*
X119637896Y-61742844D01*
X119575110Y-61977163D01*
X119543449Y-62217660D01*
X118084449Y-62217660D01*
X118084449Y-61134834D01*
X118084450Y-61134831D01*
X118084449Y-61073002D01*
X118084714Y-61064894D01*
X118088766Y-61003057D01*
X118101362Y-60810828D01*
X118103476Y-60794769D01*
X118152351Y-60549039D01*
X118156544Y-60533389D01*
X118237073Y-60296146D01*
X118243279Y-60281165D01*
X118354088Y-60056461D01*
X118362193Y-60042427D01*
X118501377Y-59834122D01*
X118511244Y-59821261D01*
X118676436Y-59632894D01*
X118687894Y-59621436D01*
X118876261Y-59456244D01*
X118889122Y-59446377D01*
X119097427Y-59307193D01*
X119111461Y-59299088D01*
X119336171Y-59188276D01*
X119351146Y-59182073D01*
X119588389Y-59101544D01*
X119604039Y-59097351D01*
X119849769Y-59048476D01*
X119865828Y-59046362D01*
X120119895Y-59029713D01*
X120128002Y-59029449D01*
X120189831Y-59029450D01*
X120189835Y-59029449D01*
X191239884Y-59029449D01*
X191247996Y-59029715D01*
G37*
G04 #@! TD.AperFunction*
M02*
