G04 #@! TF.GenerationSoftware,KiCad,Pcbnew,8.0.3*
G04 #@! TF.CreationDate,2024-11-19T19:49:35+13:00*
G04 #@! TF.ProjectId,DS8641N_tester,44533836-3431-44e5-9f74-65737465722e,rev?*
G04 #@! TF.SameCoordinates,Original*
G04 #@! TF.FileFunction,Soldermask,Bot*
G04 #@! TF.FilePolarity,Negative*
%FSLAX46Y46*%
G04 Gerber Fmt 4.6, Leading zero omitted, Abs format (unit mm)*
G04 Created by KiCad (PCBNEW 8.0.3) date 2024-11-19 19:49:35*
%MOMM*%
%LPD*%
G01*
G04 APERTURE LIST*
%ADD10C,2.000000*%
%ADD11R,1.800000X1.800000*%
%ADD12C,1.800000*%
%ADD13C,1.400000*%
%ADD14O,1.400000X1.400000*%
%ADD15C,3.200000*%
%ADD16R,1.600000X1.600000*%
%ADD17O,1.600000X1.600000*%
%ADD18R,1.700000X1.700000*%
%ADD19O,1.700000X1.700000*%
%ADD20R,2.000000X1.440000*%
%ADD21O,2.000000X1.440000*%
%ADD22R,4.600000X2.000000*%
%ADD23O,4.200000X2.000000*%
%ADD24O,2.000000X4.200000*%
G04 APERTURE END LIST*
D10*
X130735000Y-109165000D03*
X137235000Y-109165000D03*
X130735000Y-113665000D03*
X137235000Y-113665000D03*
D11*
X177165000Y-91440000D03*
D12*
X174625000Y-91440000D03*
D11*
X183515000Y-78740000D03*
D12*
X180975000Y-78740000D03*
D10*
X120650000Y-109165000D03*
X127150000Y-109165000D03*
X120650000Y-113665000D03*
X127150000Y-113665000D03*
D11*
X183515000Y-91440000D03*
D12*
X180975000Y-91440000D03*
D13*
X162560000Y-100865000D03*
D14*
X170180000Y-100865000D03*
D13*
X122555000Y-86360000D03*
D14*
X122555000Y-93980000D03*
D10*
X125730000Y-97100000D03*
X132230000Y-97100000D03*
X125730000Y-101600000D03*
X132230000Y-101600000D03*
D15*
X189973949Y-62338949D03*
D10*
X125730000Y-71450000D03*
X132230000Y-71450000D03*
X125730000Y-75950000D03*
X132230000Y-75950000D03*
D11*
X177165000Y-78740000D03*
D12*
X174625000Y-78740000D03*
D10*
X125730000Y-80000000D03*
X132230000Y-80000000D03*
X125730000Y-84500000D03*
X132230000Y-84500000D03*
D15*
X121393949Y-62338949D03*
D16*
X157480000Y-109855000D03*
D17*
X154940000Y-109855000D03*
X152400000Y-109855000D03*
X149860000Y-109855000D03*
X147320000Y-109855000D03*
X144780000Y-109855000D03*
D13*
X162560000Y-94565000D03*
D14*
X170180000Y-94565000D03*
D13*
X162560000Y-91415000D03*
D14*
X170180000Y-91415000D03*
D18*
X157480000Y-120015000D03*
D19*
X154940000Y-120015000D03*
X152400000Y-120015000D03*
X149860000Y-120015000D03*
X147320000Y-120015000D03*
D15*
X121393949Y-120123949D03*
D11*
X183515000Y-85090000D03*
D12*
X180975000Y-85090000D03*
D13*
X122555000Y-74930000D03*
D14*
X122555000Y-67310000D03*
D10*
X125730000Y-88550000D03*
X132230000Y-88550000D03*
X125730000Y-93050000D03*
X132230000Y-93050000D03*
D11*
X177165000Y-97790000D03*
D12*
X174625000Y-97790000D03*
D13*
X122555000Y-103505000D03*
D14*
X122555000Y-95885000D03*
D13*
X162560000Y-85115000D03*
D14*
X170180000Y-85115000D03*
D13*
X162560000Y-97715000D03*
D14*
X170180000Y-97715000D03*
D18*
X180340000Y-120015000D03*
D19*
X177800000Y-120015000D03*
X175260000Y-120015000D03*
X172720000Y-120015000D03*
X170180000Y-120015000D03*
D16*
X187325000Y-107325000D03*
D17*
X184785000Y-107325000D03*
X182245000Y-107325000D03*
X179705000Y-107325000D03*
X177165000Y-107325000D03*
X174625000Y-107325000D03*
X172085000Y-107325000D03*
X169545000Y-107325000D03*
X167005000Y-107325000D03*
X164465000Y-107325000D03*
X164465000Y-114945000D03*
X167005000Y-114945000D03*
X169545000Y-114945000D03*
X172085000Y-114945000D03*
X174625000Y-114945000D03*
X177165000Y-114945000D03*
X179705000Y-114945000D03*
X182245000Y-114945000D03*
X184785000Y-114945000D03*
X187325000Y-114945000D03*
D13*
X162560000Y-81965000D03*
D14*
X170180000Y-81965000D03*
D20*
X147320000Y-81280000D03*
D21*
X147320000Y-83820000D03*
X147320000Y-86360000D03*
X147320000Y-88900000D03*
X147320000Y-91440000D03*
X147320000Y-93980000D03*
X147320000Y-96520000D03*
X147320000Y-99060000D03*
X154940000Y-99060000D03*
X154940000Y-96520000D03*
X154940000Y-93980000D03*
X154940000Y-91440000D03*
X154940000Y-88900000D03*
X154940000Y-86360000D03*
X154940000Y-83820000D03*
X154940000Y-81280000D03*
D11*
X177165000Y-85090000D03*
D12*
X174625000Y-85090000D03*
D13*
X162560000Y-78815000D03*
D14*
X170180000Y-78815000D03*
D22*
X180990000Y-71755000D03*
D23*
X180990000Y-65455000D03*
D24*
X176190000Y-68855000D03*
D13*
X127635000Y-106045000D03*
D14*
X120015000Y-106045000D03*
D13*
X130175000Y-106045000D03*
D14*
X137795000Y-106045000D03*
D13*
X122555000Y-76835000D03*
D14*
X122555000Y-84455000D03*
D16*
X157480000Y-115570000D03*
D17*
X154940000Y-115570000D03*
X152400000Y-115570000D03*
X149860000Y-115570000D03*
X147320000Y-115570000D03*
X144780000Y-115570000D03*
D13*
X162560000Y-88265000D03*
D14*
X170180000Y-88265000D03*
D15*
X189973949Y-120123949D03*
D11*
X183515000Y-97790000D03*
D12*
X180975000Y-97790000D03*
M02*
