M48
; DRILL file {KiCad 8.0.3} date 2024-11-19T19:49:55+1300
; FORMAT={-:-/ absolute / metric / decimal}
; #@! TF.CreationDate,2024-11-19T19:49:55+13:00
; #@! TF.GenerationSoftware,Kicad,Pcbnew,8.0.3
; #@! TF.FileFunction,Plated,1,2,PTH
FMAT,2
METRIC
; #@! TA.AperFunction,Plated,PTH,ComponentDrill
T1C0.700
; #@! TA.AperFunction,Plated,PTH,ComponentDrill
T2C0.800
; #@! TA.AperFunction,Plated,PTH,ComponentDrill
T3C0.900
; #@! TA.AperFunction,Plated,PTH,ComponentDrill
T4C1.000
; #@! TA.AperFunction,Plated,PTH,ComponentDrill
T5C1.100
%
G90
G05
T1
X120.015Y-106.045
X122.555Y-67.31
X122.555Y-74.93
X122.555Y-76.835
X122.555Y-84.455
X122.555Y-86.36
X122.555Y-93.98
X122.555Y-95.885
X122.555Y-103.505
X127.635Y-106.045
X130.175Y-106.045
X137.795Y-106.045
X162.56Y-78.815
X162.56Y-81.965
X162.56Y-85.115
X162.56Y-88.265
X162.56Y-91.415
X162.56Y-94.565
X162.56Y-97.715
X162.56Y-100.865
X170.18Y-78.815
X170.18Y-81.965
X170.18Y-85.115
X170.18Y-88.265
X170.18Y-91.415
X170.18Y-94.565
X170.18Y-97.715
X170.18Y-100.865
T2
X144.78Y-109.855
X144.78Y-115.57
X147.32Y-109.855
X147.32Y-115.57
X149.86Y-109.855
X149.86Y-115.57
X152.4Y-109.855
X152.4Y-115.57
X154.94Y-109.855
X154.94Y-115.57
X157.48Y-109.855
X157.48Y-115.57
X164.465Y-107.325
X164.465Y-114.945
X167.005Y-107.325
X167.005Y-114.945
X169.545Y-107.325
X169.545Y-114.945
X172.085Y-107.325
X172.085Y-114.945
X174.625Y-107.325
X174.625Y-114.945
X177.165Y-107.325
X177.165Y-114.945
X179.705Y-107.325
X179.705Y-114.945
X182.245Y-107.325
X182.245Y-114.945
X184.785Y-107.325
X184.785Y-114.945
X187.325Y-107.325
X187.325Y-114.945
T3
X174.625Y-78.74
X174.625Y-85.09
X174.625Y-91.44
X174.625Y-97.79
X177.165Y-78.74
X177.165Y-85.09
X177.165Y-91.44
X177.165Y-97.79
X180.975Y-78.74
X180.975Y-85.09
X180.975Y-91.44
X180.975Y-97.79
X183.515Y-78.74
X183.515Y-85.09
X183.515Y-91.44
X183.515Y-97.79
T4
X147.32Y-81.28
X147.32Y-83.82
X147.32Y-86.36
X147.32Y-88.9
X147.32Y-91.44
X147.32Y-93.98
X147.32Y-96.52
X147.32Y-99.06
X147.32Y-120.015
X149.86Y-120.015
X152.4Y-120.015
X154.94Y-81.28
X154.94Y-83.82
X154.94Y-86.36
X154.94Y-88.9
X154.94Y-91.44
X154.94Y-93.98
X154.94Y-96.52
X154.94Y-99.06
X154.94Y-120.015
X157.48Y-120.015
X170.18Y-120.015
X172.72Y-120.015
X175.26Y-120.015
X177.8Y-120.015
X180.34Y-120.015
T5
X120.65Y-109.165
X120.65Y-113.665
X125.73Y-71.45
X125.73Y-75.95
X125.73Y-80.0
X125.73Y-84.5
X125.73Y-88.55
X125.73Y-93.05
X125.73Y-97.1
X125.73Y-101.6
X127.15Y-109.165
X127.15Y-113.665
X130.735Y-109.165
X130.735Y-113.665
X132.23Y-71.45
X132.23Y-75.95
X132.23Y-80.0
X132.23Y-84.5
X132.23Y-88.55
X132.23Y-93.05
X132.23Y-97.1
X132.23Y-101.6
X137.235Y-109.165
X137.235Y-113.665
T4
X176.19Y-69.955G85X176.19Y-67.755
G05
X182.09Y-65.455G85X179.89Y-65.455
G05
X182.29Y-71.755G85X179.69Y-71.755
G05
M30
