%TF.GenerationSoftware,KiCad,Pcbnew,8.0.3*%
%TF.CreationDate,2024-11-19T19:50:02+13:00*%
%TF.ProjectId,DS8641N_tester,44533836-3431-44e5-9f74-65737465722e,rev?*%
%TF.SameCoordinates,Original*%
%TF.FileFunction,Drillmap*%
%TF.FilePolarity,Positive*%
%FSLAX45Y45*%
G04 Gerber Fmt 4.5, Leading zero omitted, Abs format (unit mm)*
G04 Created by KiCad (PCBNEW 8.0.3) date 2024-11-19 19:50:02*
%MOMM*%
%LPD*%
G01*
G04 APERTURE LIST*
%ADD10C,0.050000*%
%ADD11C,0.200000*%
%ADD12C,0.320000*%
G04 APERTURE END LIST*
D10*
X11758395Y-12139395D02*
X11758395Y-6106895D01*
X19124395Y-5852895D02*
G75*
G02*
X19378385Y-6106895I-5J-253995D01*
G01*
X12012395Y-5852895D02*
X19124395Y-5852895D01*
X19378395Y-6106895D02*
X19378395Y-12139395D01*
X19378395Y-12139395D02*
G75*
G02*
X19124395Y-12393395I-254005J5D01*
G01*
X19124395Y-12393395D02*
X12012395Y-12393395D01*
X12012395Y-12393395D02*
G75*
G02*
X11758385Y-12139395I-5J254005D01*
G01*
X11758395Y-6106895D02*
G75*
G02*
X12012395Y-5852895I253995J5D01*
G01*
D11*
D12*
X11979395Y-6073895D02*
X12299395Y-6393895D01*
X12299395Y-6073895D02*
X11979395Y-6393895D01*
X11979395Y-11852395D02*
X12299395Y-12172395D01*
X12299395Y-11852395D02*
X11979395Y-12172395D01*
X18837395Y-6073895D02*
X19157395Y-6393895D01*
X19157395Y-6073895D02*
X18837395Y-6393895D01*
X18837395Y-11852395D02*
X19157395Y-12172395D01*
X19157395Y-11852395D02*
X18837395Y-12172395D01*
D11*
X12016672Y-12707379D02*
X12016672Y-12507379D01*
X12016672Y-12507379D02*
X12064291Y-12507379D01*
X12064291Y-12507379D02*
X12092862Y-12516902D01*
X12092862Y-12516902D02*
X12111910Y-12535950D01*
X12111910Y-12535950D02*
X12121434Y-12554998D01*
X12121434Y-12554998D02*
X12130957Y-12593093D01*
X12130957Y-12593093D02*
X12130957Y-12621664D01*
X12130957Y-12621664D02*
X12121434Y-12659760D01*
X12121434Y-12659760D02*
X12111910Y-12678807D01*
X12111910Y-12678807D02*
X12092862Y-12697855D01*
X12092862Y-12697855D02*
X12064291Y-12707379D01*
X12064291Y-12707379D02*
X12016672Y-12707379D01*
X12216672Y-12707379D02*
X12216672Y-12574045D01*
X12216672Y-12612141D02*
X12226195Y-12593093D01*
X12226195Y-12593093D02*
X12235719Y-12583569D01*
X12235719Y-12583569D02*
X12254767Y-12574045D01*
X12254767Y-12574045D02*
X12273815Y-12574045D01*
X12340481Y-12707379D02*
X12340481Y-12574045D01*
X12340481Y-12507379D02*
X12330957Y-12516902D01*
X12330957Y-12516902D02*
X12340481Y-12526426D01*
X12340481Y-12526426D02*
X12350005Y-12516902D01*
X12350005Y-12516902D02*
X12340481Y-12507379D01*
X12340481Y-12507379D02*
X12340481Y-12526426D01*
X12464291Y-12707379D02*
X12445243Y-12697855D01*
X12445243Y-12697855D02*
X12435719Y-12678807D01*
X12435719Y-12678807D02*
X12435719Y-12507379D01*
X12569053Y-12707379D02*
X12550005Y-12697855D01*
X12550005Y-12697855D02*
X12540481Y-12678807D01*
X12540481Y-12678807D02*
X12540481Y-12507379D01*
X12797624Y-12707379D02*
X12797624Y-12507379D01*
X12797624Y-12507379D02*
X12864291Y-12650236D01*
X12864291Y-12650236D02*
X12930957Y-12507379D01*
X12930957Y-12507379D02*
X12930957Y-12707379D01*
X13111910Y-12707379D02*
X13111910Y-12602617D01*
X13111910Y-12602617D02*
X13102386Y-12583569D01*
X13102386Y-12583569D02*
X13083338Y-12574045D01*
X13083338Y-12574045D02*
X13045243Y-12574045D01*
X13045243Y-12574045D02*
X13026195Y-12583569D01*
X13111910Y-12697855D02*
X13092862Y-12707379D01*
X13092862Y-12707379D02*
X13045243Y-12707379D01*
X13045243Y-12707379D02*
X13026195Y-12697855D01*
X13026195Y-12697855D02*
X13016672Y-12678807D01*
X13016672Y-12678807D02*
X13016672Y-12659760D01*
X13016672Y-12659760D02*
X13026195Y-12640712D01*
X13026195Y-12640712D02*
X13045243Y-12631188D01*
X13045243Y-12631188D02*
X13092862Y-12631188D01*
X13092862Y-12631188D02*
X13111910Y-12621664D01*
X13207148Y-12574045D02*
X13207148Y-12774045D01*
X13207148Y-12583569D02*
X13226195Y-12574045D01*
X13226195Y-12574045D02*
X13264291Y-12574045D01*
X13264291Y-12574045D02*
X13283338Y-12583569D01*
X13283338Y-12583569D02*
X13292862Y-12593093D01*
X13292862Y-12593093D02*
X13302386Y-12612141D01*
X13302386Y-12612141D02*
X13302386Y-12669283D01*
X13302386Y-12669283D02*
X13292862Y-12688331D01*
X13292862Y-12688331D02*
X13283338Y-12697855D01*
X13283338Y-12697855D02*
X13264291Y-12707379D01*
X13264291Y-12707379D02*
X13226195Y-12707379D01*
X13226195Y-12707379D02*
X13207148Y-12697855D01*
X13388100Y-12688331D02*
X13397624Y-12697855D01*
X13397624Y-12697855D02*
X13388100Y-12707379D01*
X13388100Y-12707379D02*
X13378576Y-12697855D01*
X13378576Y-12697855D02*
X13388100Y-12688331D01*
X13388100Y-12688331D02*
X13388100Y-12707379D01*
X13388100Y-12583569D02*
X13397624Y-12593093D01*
X13397624Y-12593093D02*
X13388100Y-12602617D01*
X13388100Y-12602617D02*
X13378576Y-12593093D01*
X13378576Y-12593093D02*
X13388100Y-12583569D01*
X13388100Y-12583569D02*
X13388100Y-12602617D01*
X11555895Y-12935895D02*
X11755895Y-13135895D01*
X11755895Y-12935895D02*
X11555895Y-13135895D01*
X11997624Y-12927379D02*
X12121434Y-12927379D01*
X12121434Y-12927379D02*
X12054767Y-13003569D01*
X12054767Y-13003569D02*
X12083338Y-13003569D01*
X12083338Y-13003569D02*
X12102386Y-13013093D01*
X12102386Y-13013093D02*
X12111910Y-13022617D01*
X12111910Y-13022617D02*
X12121434Y-13041664D01*
X12121434Y-13041664D02*
X12121434Y-13089283D01*
X12121434Y-13089283D02*
X12111910Y-13108331D01*
X12111910Y-13108331D02*
X12102386Y-13117855D01*
X12102386Y-13117855D02*
X12083338Y-13127379D01*
X12083338Y-13127379D02*
X12026195Y-13127379D01*
X12026195Y-13127379D02*
X12007148Y-13117855D01*
X12007148Y-13117855D02*
X11997624Y-13108331D01*
X12207148Y-13108331D02*
X12216672Y-13117855D01*
X12216672Y-13117855D02*
X12207148Y-13127379D01*
X12207148Y-13127379D02*
X12197624Y-13117855D01*
X12197624Y-13117855D02*
X12207148Y-13108331D01*
X12207148Y-13108331D02*
X12207148Y-13127379D01*
X12292862Y-12946426D02*
X12302386Y-12936902D01*
X12302386Y-12936902D02*
X12321434Y-12927379D01*
X12321434Y-12927379D02*
X12369053Y-12927379D01*
X12369053Y-12927379D02*
X12388100Y-12936902D01*
X12388100Y-12936902D02*
X12397624Y-12946426D01*
X12397624Y-12946426D02*
X12407148Y-12965474D01*
X12407148Y-12965474D02*
X12407148Y-12984521D01*
X12407148Y-12984521D02*
X12397624Y-13013093D01*
X12397624Y-13013093D02*
X12283338Y-13127379D01*
X12283338Y-13127379D02*
X12407148Y-13127379D01*
X12530957Y-12927379D02*
X12550005Y-12927379D01*
X12550005Y-12927379D02*
X12569053Y-12936902D01*
X12569053Y-12936902D02*
X12578576Y-12946426D01*
X12578576Y-12946426D02*
X12588100Y-12965474D01*
X12588100Y-12965474D02*
X12597624Y-13003569D01*
X12597624Y-13003569D02*
X12597624Y-13051188D01*
X12597624Y-13051188D02*
X12588100Y-13089283D01*
X12588100Y-13089283D02*
X12578576Y-13108331D01*
X12578576Y-13108331D02*
X12569053Y-13117855D01*
X12569053Y-13117855D02*
X12550005Y-13127379D01*
X12550005Y-13127379D02*
X12530957Y-13127379D01*
X12530957Y-13127379D02*
X12511910Y-13117855D01*
X12511910Y-13117855D02*
X12502386Y-13108331D01*
X12502386Y-13108331D02*
X12492862Y-13089283D01*
X12492862Y-13089283D02*
X12483338Y-13051188D01*
X12483338Y-13051188D02*
X12483338Y-13003569D01*
X12483338Y-13003569D02*
X12492862Y-12965474D01*
X12492862Y-12965474D02*
X12502386Y-12946426D01*
X12502386Y-12946426D02*
X12511910Y-12936902D01*
X12511910Y-12936902D02*
X12530957Y-12927379D01*
X12721434Y-12927379D02*
X12740481Y-12927379D01*
X12740481Y-12927379D02*
X12759529Y-12936902D01*
X12759529Y-12936902D02*
X12769053Y-12946426D01*
X12769053Y-12946426D02*
X12778576Y-12965474D01*
X12778576Y-12965474D02*
X12788100Y-13003569D01*
X12788100Y-13003569D02*
X12788100Y-13051188D01*
X12788100Y-13051188D02*
X12778576Y-13089283D01*
X12778576Y-13089283D02*
X12769053Y-13108331D01*
X12769053Y-13108331D02*
X12759529Y-13117855D01*
X12759529Y-13117855D02*
X12740481Y-13127379D01*
X12740481Y-13127379D02*
X12721434Y-13127379D01*
X12721434Y-13127379D02*
X12702386Y-13117855D01*
X12702386Y-13117855D02*
X12692862Y-13108331D01*
X12692862Y-13108331D02*
X12683338Y-13089283D01*
X12683338Y-13089283D02*
X12673815Y-13051188D01*
X12673815Y-13051188D02*
X12673815Y-13003569D01*
X12673815Y-13003569D02*
X12683338Y-12965474D01*
X12683338Y-12965474D02*
X12692862Y-12946426D01*
X12692862Y-12946426D02*
X12702386Y-12936902D01*
X12702386Y-12936902D02*
X12721434Y-12927379D01*
X12873815Y-13127379D02*
X12873815Y-12994045D01*
X12873815Y-13013093D02*
X12883338Y-13003569D01*
X12883338Y-13003569D02*
X12902386Y-12994045D01*
X12902386Y-12994045D02*
X12930957Y-12994045D01*
X12930957Y-12994045D02*
X12950005Y-13003569D01*
X12950005Y-13003569D02*
X12959529Y-13022617D01*
X12959529Y-13022617D02*
X12959529Y-13127379D01*
X12959529Y-13022617D02*
X12969053Y-13003569D01*
X12969053Y-13003569D02*
X12988100Y-12994045D01*
X12988100Y-12994045D02*
X13016672Y-12994045D01*
X13016672Y-12994045D02*
X13035719Y-13003569D01*
X13035719Y-13003569D02*
X13045243Y-13022617D01*
X13045243Y-13022617D02*
X13045243Y-13127379D01*
X13140481Y-13127379D02*
X13140481Y-12994045D01*
X13140481Y-13013093D02*
X13150005Y-13003569D01*
X13150005Y-13003569D02*
X13169053Y-12994045D01*
X13169053Y-12994045D02*
X13197624Y-12994045D01*
X13197624Y-12994045D02*
X13216672Y-13003569D01*
X13216672Y-13003569D02*
X13226196Y-13022617D01*
X13226196Y-13022617D02*
X13226196Y-13127379D01*
X13226196Y-13022617D02*
X13235719Y-13003569D01*
X13235719Y-13003569D02*
X13254767Y-12994045D01*
X13254767Y-12994045D02*
X13283338Y-12994045D01*
X13283338Y-12994045D02*
X13302386Y-13003569D01*
X13302386Y-13003569D02*
X13311910Y-13022617D01*
X13311910Y-13022617D02*
X13311910Y-13127379D01*
X13702386Y-12917855D02*
X13530958Y-13174998D01*
X13959529Y-12927379D02*
X13978577Y-12927379D01*
X13978577Y-12927379D02*
X13997624Y-12936902D01*
X13997624Y-12936902D02*
X14007148Y-12946426D01*
X14007148Y-12946426D02*
X14016672Y-12965474D01*
X14016672Y-12965474D02*
X14026196Y-13003569D01*
X14026196Y-13003569D02*
X14026196Y-13051188D01*
X14026196Y-13051188D02*
X14016672Y-13089283D01*
X14016672Y-13089283D02*
X14007148Y-13108331D01*
X14007148Y-13108331D02*
X13997624Y-13117855D01*
X13997624Y-13117855D02*
X13978577Y-13127379D01*
X13978577Y-13127379D02*
X13959529Y-13127379D01*
X13959529Y-13127379D02*
X13940481Y-13117855D01*
X13940481Y-13117855D02*
X13930958Y-13108331D01*
X13930958Y-13108331D02*
X13921434Y-13089283D01*
X13921434Y-13089283D02*
X13911910Y-13051188D01*
X13911910Y-13051188D02*
X13911910Y-13003569D01*
X13911910Y-13003569D02*
X13921434Y-12965474D01*
X13921434Y-12965474D02*
X13930958Y-12946426D01*
X13930958Y-12946426D02*
X13940481Y-12936902D01*
X13940481Y-12936902D02*
X13959529Y-12927379D01*
X14111910Y-13108331D02*
X14121434Y-13117855D01*
X14121434Y-13117855D02*
X14111910Y-13127379D01*
X14111910Y-13127379D02*
X14102386Y-13117855D01*
X14102386Y-13117855D02*
X14111910Y-13108331D01*
X14111910Y-13108331D02*
X14111910Y-13127379D01*
X14311910Y-13127379D02*
X14197624Y-13127379D01*
X14254767Y-13127379D02*
X14254767Y-12927379D01*
X14254767Y-12927379D02*
X14235719Y-12955950D01*
X14235719Y-12955950D02*
X14216672Y-12974998D01*
X14216672Y-12974998D02*
X14197624Y-12984521D01*
X14388100Y-12946426D02*
X14397624Y-12936902D01*
X14397624Y-12936902D02*
X14416672Y-12927379D01*
X14416672Y-12927379D02*
X14464291Y-12927379D01*
X14464291Y-12927379D02*
X14483339Y-12936902D01*
X14483339Y-12936902D02*
X14492862Y-12946426D01*
X14492862Y-12946426D02*
X14502386Y-12965474D01*
X14502386Y-12965474D02*
X14502386Y-12984521D01*
X14502386Y-12984521D02*
X14492862Y-13013093D01*
X14492862Y-13013093D02*
X14378577Y-13127379D01*
X14378577Y-13127379D02*
X14502386Y-13127379D01*
X14673815Y-12927379D02*
X14635719Y-12927379D01*
X14635719Y-12927379D02*
X14616672Y-12936902D01*
X14616672Y-12936902D02*
X14607148Y-12946426D01*
X14607148Y-12946426D02*
X14588100Y-12974998D01*
X14588100Y-12974998D02*
X14578577Y-13013093D01*
X14578577Y-13013093D02*
X14578577Y-13089283D01*
X14578577Y-13089283D02*
X14588100Y-13108331D01*
X14588100Y-13108331D02*
X14597624Y-13117855D01*
X14597624Y-13117855D02*
X14616672Y-13127379D01*
X14616672Y-13127379D02*
X14654767Y-13127379D01*
X14654767Y-13127379D02*
X14673815Y-13117855D01*
X14673815Y-13117855D02*
X14683339Y-13108331D01*
X14683339Y-13108331D02*
X14692862Y-13089283D01*
X14692862Y-13089283D02*
X14692862Y-13041664D01*
X14692862Y-13041664D02*
X14683339Y-13022617D01*
X14683339Y-13022617D02*
X14673815Y-13013093D01*
X14673815Y-13013093D02*
X14654767Y-13003569D01*
X14654767Y-13003569D02*
X14616672Y-13003569D01*
X14616672Y-13003569D02*
X14597624Y-13013093D01*
X14597624Y-13013093D02*
X14588100Y-13022617D01*
X14588100Y-13022617D02*
X14578577Y-13041664D01*
X14816672Y-12927379D02*
X14835720Y-12927379D01*
X14835720Y-12927379D02*
X14854767Y-12936902D01*
X14854767Y-12936902D02*
X14864291Y-12946426D01*
X14864291Y-12946426D02*
X14873815Y-12965474D01*
X14873815Y-12965474D02*
X14883339Y-13003569D01*
X14883339Y-13003569D02*
X14883339Y-13051188D01*
X14883339Y-13051188D02*
X14873815Y-13089283D01*
X14873815Y-13089283D02*
X14864291Y-13108331D01*
X14864291Y-13108331D02*
X14854767Y-13117855D01*
X14854767Y-13117855D02*
X14835720Y-13127379D01*
X14835720Y-13127379D02*
X14816672Y-13127379D01*
X14816672Y-13127379D02*
X14797624Y-13117855D01*
X14797624Y-13117855D02*
X14788100Y-13108331D01*
X14788100Y-13108331D02*
X14778577Y-13089283D01*
X14778577Y-13089283D02*
X14769053Y-13051188D01*
X14769053Y-13051188D02*
X14769053Y-13003569D01*
X14769053Y-13003569D02*
X14778577Y-12965474D01*
X14778577Y-12965474D02*
X14788100Y-12946426D01*
X14788100Y-12946426D02*
X14797624Y-12936902D01*
X14797624Y-12936902D02*
X14816672Y-12927379D01*
X14959529Y-12927379D02*
X14959529Y-12965474D01*
X15035720Y-12927379D02*
X15035720Y-12965474D01*
X15330958Y-13203569D02*
X15321434Y-13194045D01*
X15321434Y-13194045D02*
X15302386Y-13165474D01*
X15302386Y-13165474D02*
X15292862Y-13146426D01*
X15292862Y-13146426D02*
X15283339Y-13117855D01*
X15283339Y-13117855D02*
X15273815Y-13070236D01*
X15273815Y-13070236D02*
X15273815Y-13032141D01*
X15273815Y-13032141D02*
X15283339Y-12984521D01*
X15283339Y-12984521D02*
X15292862Y-12955950D01*
X15292862Y-12955950D02*
X15302386Y-12936902D01*
X15302386Y-12936902D02*
X15321434Y-12908331D01*
X15321434Y-12908331D02*
X15330958Y-12898807D01*
X15492862Y-12994045D02*
X15492862Y-13127379D01*
X15445243Y-12917855D02*
X15397624Y-13060712D01*
X15397624Y-13060712D02*
X15521434Y-13060712D01*
X15750005Y-13127379D02*
X15750005Y-12927379D01*
X15835720Y-13127379D02*
X15835720Y-13022617D01*
X15835720Y-13022617D02*
X15826196Y-13003569D01*
X15826196Y-13003569D02*
X15807148Y-12994045D01*
X15807148Y-12994045D02*
X15778577Y-12994045D01*
X15778577Y-12994045D02*
X15759529Y-13003569D01*
X15759529Y-13003569D02*
X15750005Y-13013093D01*
X15959529Y-13127379D02*
X15940482Y-13117855D01*
X15940482Y-13117855D02*
X15930958Y-13108331D01*
X15930958Y-13108331D02*
X15921434Y-13089283D01*
X15921434Y-13089283D02*
X15921434Y-13032141D01*
X15921434Y-13032141D02*
X15930958Y-13013093D01*
X15930958Y-13013093D02*
X15940482Y-13003569D01*
X15940482Y-13003569D02*
X15959529Y-12994045D01*
X15959529Y-12994045D02*
X15988101Y-12994045D01*
X15988101Y-12994045D02*
X16007148Y-13003569D01*
X16007148Y-13003569D02*
X16016672Y-13013093D01*
X16016672Y-13013093D02*
X16026196Y-13032141D01*
X16026196Y-13032141D02*
X16026196Y-13089283D01*
X16026196Y-13089283D02*
X16016672Y-13108331D01*
X16016672Y-13108331D02*
X16007148Y-13117855D01*
X16007148Y-13117855D02*
X15988101Y-13127379D01*
X15988101Y-13127379D02*
X15959529Y-13127379D01*
X16140482Y-13127379D02*
X16121434Y-13117855D01*
X16121434Y-13117855D02*
X16111910Y-13098807D01*
X16111910Y-13098807D02*
X16111910Y-12927379D01*
X16292863Y-13117855D02*
X16273815Y-13127379D01*
X16273815Y-13127379D02*
X16235720Y-13127379D01*
X16235720Y-13127379D02*
X16216672Y-13117855D01*
X16216672Y-13117855D02*
X16207148Y-13098807D01*
X16207148Y-13098807D02*
X16207148Y-13022617D01*
X16207148Y-13022617D02*
X16216672Y-13003569D01*
X16216672Y-13003569D02*
X16235720Y-12994045D01*
X16235720Y-12994045D02*
X16273815Y-12994045D01*
X16273815Y-12994045D02*
X16292863Y-13003569D01*
X16292863Y-13003569D02*
X16302386Y-13022617D01*
X16302386Y-13022617D02*
X16302386Y-13041664D01*
X16302386Y-13041664D02*
X16207148Y-13060712D01*
X16378577Y-13117855D02*
X16397624Y-13127379D01*
X16397624Y-13127379D02*
X16435720Y-13127379D01*
X16435720Y-13127379D02*
X16454767Y-13117855D01*
X16454767Y-13117855D02*
X16464291Y-13098807D01*
X16464291Y-13098807D02*
X16464291Y-13089283D01*
X16464291Y-13089283D02*
X16454767Y-13070236D01*
X16454767Y-13070236D02*
X16435720Y-13060712D01*
X16435720Y-13060712D02*
X16407148Y-13060712D01*
X16407148Y-13060712D02*
X16388101Y-13051188D01*
X16388101Y-13051188D02*
X16378577Y-13032141D01*
X16378577Y-13032141D02*
X16378577Y-13022617D01*
X16378577Y-13022617D02*
X16388101Y-13003569D01*
X16388101Y-13003569D02*
X16407148Y-12994045D01*
X16407148Y-12994045D02*
X16435720Y-12994045D01*
X16435720Y-12994045D02*
X16454767Y-13003569D01*
X16530958Y-13203569D02*
X16540482Y-13194045D01*
X16540482Y-13194045D02*
X16559529Y-13165474D01*
X16559529Y-13165474D02*
X16569053Y-13146426D01*
X16569053Y-13146426D02*
X16578577Y-13117855D01*
X16578577Y-13117855D02*
X16588101Y-13070236D01*
X16588101Y-13070236D02*
X16588101Y-13032141D01*
X16588101Y-13032141D02*
X16578577Y-12984521D01*
X16578577Y-12984521D02*
X16569053Y-12955950D01*
X16569053Y-12955950D02*
X16559529Y-12936902D01*
X16559529Y-12936902D02*
X16540482Y-12908331D01*
X16540482Y-12908331D02*
X16530958Y-12898807D01*
X16892863Y-13203569D02*
X16883339Y-13194045D01*
X16883339Y-13194045D02*
X16864291Y-13165474D01*
X16864291Y-13165474D02*
X16854767Y-13146426D01*
X16854767Y-13146426D02*
X16845244Y-13117855D01*
X16845244Y-13117855D02*
X16835720Y-13070236D01*
X16835720Y-13070236D02*
X16835720Y-13032141D01*
X16835720Y-13032141D02*
X16845244Y-12984521D01*
X16845244Y-12984521D02*
X16854767Y-12955950D01*
X16854767Y-12955950D02*
X16864291Y-12936902D01*
X16864291Y-12936902D02*
X16883339Y-12908331D01*
X16883339Y-12908331D02*
X16892863Y-12898807D01*
X16969053Y-12994045D02*
X16969053Y-13127379D01*
X16969053Y-13013093D02*
X16978577Y-13003569D01*
X16978577Y-13003569D02*
X16997625Y-12994045D01*
X16997625Y-12994045D02*
X17026196Y-12994045D01*
X17026196Y-12994045D02*
X17045244Y-13003569D01*
X17045244Y-13003569D02*
X17054767Y-13022617D01*
X17054767Y-13022617D02*
X17054767Y-13127379D01*
X17178577Y-13127379D02*
X17159529Y-13117855D01*
X17159529Y-13117855D02*
X17150006Y-13108331D01*
X17150006Y-13108331D02*
X17140482Y-13089283D01*
X17140482Y-13089283D02*
X17140482Y-13032141D01*
X17140482Y-13032141D02*
X17150006Y-13013093D01*
X17150006Y-13013093D02*
X17159529Y-13003569D01*
X17159529Y-13003569D02*
X17178577Y-12994045D01*
X17178577Y-12994045D02*
X17207148Y-12994045D01*
X17207148Y-12994045D02*
X17226196Y-13003569D01*
X17226196Y-13003569D02*
X17235720Y-13013093D01*
X17235720Y-13013093D02*
X17245244Y-13032141D01*
X17245244Y-13032141D02*
X17245244Y-13089283D01*
X17245244Y-13089283D02*
X17235720Y-13108331D01*
X17235720Y-13108331D02*
X17226196Y-13117855D01*
X17226196Y-13117855D02*
X17207148Y-13127379D01*
X17207148Y-13127379D02*
X17178577Y-13127379D01*
X17302387Y-12994045D02*
X17378577Y-12994045D01*
X17330958Y-12927379D02*
X17330958Y-13098807D01*
X17330958Y-13098807D02*
X17340482Y-13117855D01*
X17340482Y-13117855D02*
X17359529Y-13127379D01*
X17359529Y-13127379D02*
X17378577Y-13127379D01*
X17597625Y-12994045D02*
X17597625Y-13194045D01*
X17597625Y-13003569D02*
X17616672Y-12994045D01*
X17616672Y-12994045D02*
X17654768Y-12994045D01*
X17654768Y-12994045D02*
X17673815Y-13003569D01*
X17673815Y-13003569D02*
X17683339Y-13013093D01*
X17683339Y-13013093D02*
X17692863Y-13032141D01*
X17692863Y-13032141D02*
X17692863Y-13089283D01*
X17692863Y-13089283D02*
X17683339Y-13108331D01*
X17683339Y-13108331D02*
X17673815Y-13117855D01*
X17673815Y-13117855D02*
X17654768Y-13127379D01*
X17654768Y-13127379D02*
X17616672Y-13127379D01*
X17616672Y-13127379D02*
X17597625Y-13117855D01*
X17807148Y-13127379D02*
X17788101Y-13117855D01*
X17788101Y-13117855D02*
X17778577Y-13098807D01*
X17778577Y-13098807D02*
X17778577Y-12927379D01*
X17969053Y-13127379D02*
X17969053Y-13022617D01*
X17969053Y-13022617D02*
X17959529Y-13003569D01*
X17959529Y-13003569D02*
X17940482Y-12994045D01*
X17940482Y-12994045D02*
X17902387Y-12994045D01*
X17902387Y-12994045D02*
X17883339Y-13003569D01*
X17969053Y-13117855D02*
X17950006Y-13127379D01*
X17950006Y-13127379D02*
X17902387Y-13127379D01*
X17902387Y-13127379D02*
X17883339Y-13117855D01*
X17883339Y-13117855D02*
X17873815Y-13098807D01*
X17873815Y-13098807D02*
X17873815Y-13079760D01*
X17873815Y-13079760D02*
X17883339Y-13060712D01*
X17883339Y-13060712D02*
X17902387Y-13051188D01*
X17902387Y-13051188D02*
X17950006Y-13051188D01*
X17950006Y-13051188D02*
X17969053Y-13041664D01*
X18035720Y-12994045D02*
X18111910Y-12994045D01*
X18064291Y-12927379D02*
X18064291Y-13098807D01*
X18064291Y-13098807D02*
X18073815Y-13117855D01*
X18073815Y-13117855D02*
X18092863Y-13127379D01*
X18092863Y-13127379D02*
X18111910Y-13127379D01*
X18254768Y-13117855D02*
X18235720Y-13127379D01*
X18235720Y-13127379D02*
X18197625Y-13127379D01*
X18197625Y-13127379D02*
X18178577Y-13117855D01*
X18178577Y-13117855D02*
X18169053Y-13098807D01*
X18169053Y-13098807D02*
X18169053Y-13022617D01*
X18169053Y-13022617D02*
X18178577Y-13003569D01*
X18178577Y-13003569D02*
X18197625Y-12994045D01*
X18197625Y-12994045D02*
X18235720Y-12994045D01*
X18235720Y-12994045D02*
X18254768Y-13003569D01*
X18254768Y-13003569D02*
X18264291Y-13022617D01*
X18264291Y-13022617D02*
X18264291Y-13041664D01*
X18264291Y-13041664D02*
X18169053Y-13060712D01*
X18435720Y-13127379D02*
X18435720Y-12927379D01*
X18435720Y-13117855D02*
X18416672Y-13127379D01*
X18416672Y-13127379D02*
X18378577Y-13127379D01*
X18378577Y-13127379D02*
X18359529Y-13117855D01*
X18359529Y-13117855D02*
X18350006Y-13108331D01*
X18350006Y-13108331D02*
X18340482Y-13089283D01*
X18340482Y-13089283D02*
X18340482Y-13032141D01*
X18340482Y-13032141D02*
X18350006Y-13013093D01*
X18350006Y-13013093D02*
X18359529Y-13003569D01*
X18359529Y-13003569D02*
X18378577Y-12994045D01*
X18378577Y-12994045D02*
X18416672Y-12994045D01*
X18416672Y-12994045D02*
X18435720Y-13003569D01*
X18511910Y-13203569D02*
X18521434Y-13194045D01*
X18521434Y-13194045D02*
X18540482Y-13165474D01*
X18540482Y-13165474D02*
X18550006Y-13146426D01*
X18550006Y-13146426D02*
X18559529Y-13117855D01*
X18559529Y-13117855D02*
X18569053Y-13070236D01*
X18569053Y-13070236D02*
X18569053Y-13032141D01*
X18569053Y-13032141D02*
X18559529Y-12984521D01*
X18559529Y-12984521D02*
X18550006Y-12955950D01*
X18550006Y-12955950D02*
X18540482Y-12936902D01*
X18540482Y-12936902D02*
X18521434Y-12908331D01*
X18521434Y-12908331D02*
X18511910Y-12898807D01*
M02*
