G04 #@! TF.GenerationSoftware,KiCad,Pcbnew,8.0.3*
G04 #@! TF.CreationDate,2024-11-19T19:49:35+13:00*
G04 #@! TF.ProjectId,DS8641N_tester,44533836-3431-44e5-9f74-65737465722e,rev?*
G04 #@! TF.SameCoordinates,Original*
G04 #@! TF.FileFunction,Legend,Top*
G04 #@! TF.FilePolarity,Positive*
%FSLAX46Y46*%
G04 Gerber Fmt 4.6, Leading zero omitted, Abs format (unit mm)*
G04 Created by KiCad (PCBNEW 8.0.3) date 2024-11-19 19:49:35*
%MOMM*%
%LPD*%
G01*
G04 APERTURE LIST*
%ADD10C,0.050000*%
%ADD11C,0.100000*%
%ADD12C,0.200000*%
%ADD13C,0.400000*%
%ADD14C,0.500000*%
%ADD15C,0.150000*%
%ADD16C,0.120000*%
%ADD17C,2.000000*%
%ADD18R,1.800000X1.800000*%
%ADD19C,1.800000*%
%ADD20C,1.400000*%
%ADD21O,1.400000X1.400000*%
%ADD22C,3.200000*%
%ADD23R,1.600000X1.600000*%
%ADD24O,1.600000X1.600000*%
%ADD25R,1.700000X1.700000*%
%ADD26O,1.700000X1.700000*%
%ADD27R,2.000000X1.440000*%
%ADD28O,2.000000X1.440000*%
%ADD29R,4.600000X2.000000*%
%ADD30O,4.200000X2.000000*%
%ADD31O,2.000000X4.200000*%
G04 APERTURE END LIST*
D10*
X163008571Y-69443709D02*
X163008571Y-68943709D01*
X163246666Y-69110376D02*
X163246666Y-69443709D01*
X163246666Y-69157995D02*
X163270476Y-69134185D01*
X163270476Y-69134185D02*
X163318095Y-69110376D01*
X163318095Y-69110376D02*
X163389523Y-69110376D01*
X163389523Y-69110376D02*
X163437142Y-69134185D01*
X163437142Y-69134185D02*
X163460952Y-69181804D01*
X163460952Y-69181804D02*
X163460952Y-69443709D01*
X163699047Y-69110376D02*
X163699047Y-69610376D01*
X163699047Y-69134185D02*
X163746666Y-69110376D01*
X163746666Y-69110376D02*
X163841904Y-69110376D01*
X163841904Y-69110376D02*
X163889523Y-69134185D01*
X163889523Y-69134185D02*
X163913333Y-69157995D01*
X163913333Y-69157995D02*
X163937142Y-69205614D01*
X163937142Y-69205614D02*
X163937142Y-69348471D01*
X163937142Y-69348471D02*
X163913333Y-69396090D01*
X163913333Y-69396090D02*
X163889523Y-69419900D01*
X163889523Y-69419900D02*
X163841904Y-69443709D01*
X163841904Y-69443709D02*
X163746666Y-69443709D01*
X163746666Y-69443709D02*
X163699047Y-69419900D01*
X164365714Y-69110376D02*
X164365714Y-69443709D01*
X164151428Y-69110376D02*
X164151428Y-69372280D01*
X164151428Y-69372280D02*
X164175238Y-69419900D01*
X164175238Y-69419900D02*
X164222857Y-69443709D01*
X164222857Y-69443709D02*
X164294285Y-69443709D01*
X164294285Y-69443709D02*
X164341904Y-69419900D01*
X164341904Y-69419900D02*
X164365714Y-69396090D01*
X164532381Y-69110376D02*
X164722857Y-69110376D01*
X164603809Y-68943709D02*
X164603809Y-69372280D01*
X164603809Y-69372280D02*
X164627619Y-69419900D01*
X164627619Y-69419900D02*
X164675238Y-69443709D01*
X164675238Y-69443709D02*
X164722857Y-69443709D01*
X163730833Y-72753709D02*
X163826071Y-72753709D01*
X163826071Y-72753709D02*
X163873690Y-72777519D01*
X163873690Y-72777519D02*
X163921309Y-72825138D01*
X163921309Y-72825138D02*
X163945119Y-72920376D01*
X163945119Y-72920376D02*
X163945119Y-73087042D01*
X163945119Y-73087042D02*
X163921309Y-73182280D01*
X163921309Y-73182280D02*
X163873690Y-73229900D01*
X163873690Y-73229900D02*
X163826071Y-73253709D01*
X163826071Y-73253709D02*
X163730833Y-73253709D01*
X163730833Y-73253709D02*
X163683214Y-73229900D01*
X163683214Y-73229900D02*
X163635595Y-73182280D01*
X163635595Y-73182280D02*
X163611786Y-73087042D01*
X163611786Y-73087042D02*
X163611786Y-72920376D01*
X163611786Y-72920376D02*
X163635595Y-72825138D01*
X163635595Y-72825138D02*
X163683214Y-72777519D01*
X163683214Y-72777519D02*
X163730833Y-72753709D01*
X164373691Y-72920376D02*
X164373691Y-73253709D01*
X164159405Y-72920376D02*
X164159405Y-73182280D01*
X164159405Y-73182280D02*
X164183215Y-73229900D01*
X164183215Y-73229900D02*
X164230834Y-73253709D01*
X164230834Y-73253709D02*
X164302262Y-73253709D01*
X164302262Y-73253709D02*
X164349881Y-73229900D01*
X164349881Y-73229900D02*
X164373691Y-73206090D01*
X164540358Y-72920376D02*
X164730834Y-72920376D01*
X164611786Y-72753709D02*
X164611786Y-73182280D01*
X164611786Y-73182280D02*
X164635596Y-73229900D01*
X164635596Y-73229900D02*
X164683215Y-73253709D01*
X164683215Y-73253709D02*
X164730834Y-73253709D01*
X172644643Y-71404304D02*
X172716071Y-71428114D01*
X172716071Y-71428114D02*
X172739881Y-71451923D01*
X172739881Y-71451923D02*
X172763690Y-71499542D01*
X172763690Y-71499542D02*
X172763690Y-71570971D01*
X172763690Y-71570971D02*
X172739881Y-71618590D01*
X172739881Y-71618590D02*
X172716071Y-71642400D01*
X172716071Y-71642400D02*
X172668452Y-71666209D01*
X172668452Y-71666209D02*
X172477976Y-71666209D01*
X172477976Y-71666209D02*
X172477976Y-71166209D01*
X172477976Y-71166209D02*
X172644643Y-71166209D01*
X172644643Y-71166209D02*
X172692262Y-71190019D01*
X172692262Y-71190019D02*
X172716071Y-71213828D01*
X172716071Y-71213828D02*
X172739881Y-71261447D01*
X172739881Y-71261447D02*
X172739881Y-71309066D01*
X172739881Y-71309066D02*
X172716071Y-71356685D01*
X172716071Y-71356685D02*
X172692262Y-71380495D01*
X172692262Y-71380495D02*
X172644643Y-71404304D01*
X172644643Y-71404304D02*
X172477976Y-71404304D01*
X173192262Y-71332876D02*
X173192262Y-71666209D01*
X172977976Y-71332876D02*
X172977976Y-71594780D01*
X172977976Y-71594780D02*
X173001786Y-71642400D01*
X173001786Y-71642400D02*
X173049405Y-71666209D01*
X173049405Y-71666209D02*
X173120833Y-71666209D01*
X173120833Y-71666209D02*
X173168452Y-71642400D01*
X173168452Y-71642400D02*
X173192262Y-71618590D01*
X173406548Y-71642400D02*
X173454167Y-71666209D01*
X173454167Y-71666209D02*
X173549405Y-71666209D01*
X173549405Y-71666209D02*
X173597024Y-71642400D01*
X173597024Y-71642400D02*
X173620833Y-71594780D01*
X173620833Y-71594780D02*
X173620833Y-71570971D01*
X173620833Y-71570971D02*
X173597024Y-71523352D01*
X173597024Y-71523352D02*
X173549405Y-71499542D01*
X173549405Y-71499542D02*
X173477976Y-71499542D01*
X173477976Y-71499542D02*
X173430357Y-71475733D01*
X173430357Y-71475733D02*
X173406548Y-71428114D01*
X173406548Y-71428114D02*
X173406548Y-71404304D01*
X173406548Y-71404304D02*
X173430357Y-71356685D01*
X173430357Y-71356685D02*
X173477976Y-71332876D01*
X173477976Y-71332876D02*
X173549405Y-71332876D01*
X173549405Y-71332876D02*
X173597024Y-71356685D01*
X162381547Y-70451804D02*
X162548214Y-70451804D01*
X162619642Y-70713709D02*
X162381547Y-70713709D01*
X162381547Y-70713709D02*
X162381547Y-70213709D01*
X162381547Y-70213709D02*
X162619642Y-70213709D01*
X162833928Y-70380376D02*
X162833928Y-70713709D01*
X162833928Y-70427995D02*
X162857738Y-70404185D01*
X162857738Y-70404185D02*
X162905357Y-70380376D01*
X162905357Y-70380376D02*
X162976785Y-70380376D01*
X162976785Y-70380376D02*
X163024404Y-70404185D01*
X163024404Y-70404185D02*
X163048214Y-70451804D01*
X163048214Y-70451804D02*
X163048214Y-70713709D01*
X163500595Y-70713709D02*
X163500595Y-70451804D01*
X163500595Y-70451804D02*
X163476785Y-70404185D01*
X163476785Y-70404185D02*
X163429166Y-70380376D01*
X163429166Y-70380376D02*
X163333928Y-70380376D01*
X163333928Y-70380376D02*
X163286309Y-70404185D01*
X163500595Y-70689900D02*
X163452976Y-70713709D01*
X163452976Y-70713709D02*
X163333928Y-70713709D01*
X163333928Y-70713709D02*
X163286309Y-70689900D01*
X163286309Y-70689900D02*
X163262500Y-70642280D01*
X163262500Y-70642280D02*
X163262500Y-70594661D01*
X163262500Y-70594661D02*
X163286309Y-70547042D01*
X163286309Y-70547042D02*
X163333928Y-70523233D01*
X163333928Y-70523233D02*
X163452976Y-70523233D01*
X163452976Y-70523233D02*
X163500595Y-70499423D01*
X163738690Y-70713709D02*
X163738690Y-70213709D01*
X163738690Y-70404185D02*
X163786309Y-70380376D01*
X163786309Y-70380376D02*
X163881547Y-70380376D01*
X163881547Y-70380376D02*
X163929166Y-70404185D01*
X163929166Y-70404185D02*
X163952976Y-70427995D01*
X163952976Y-70427995D02*
X163976785Y-70475614D01*
X163976785Y-70475614D02*
X163976785Y-70618471D01*
X163976785Y-70618471D02*
X163952976Y-70666090D01*
X163952976Y-70666090D02*
X163929166Y-70689900D01*
X163929166Y-70689900D02*
X163881547Y-70713709D01*
X163881547Y-70713709D02*
X163786309Y-70713709D01*
X163786309Y-70713709D02*
X163738690Y-70689900D01*
X164262500Y-70713709D02*
X164214881Y-70689900D01*
X164214881Y-70689900D02*
X164191071Y-70642280D01*
X164191071Y-70642280D02*
X164191071Y-70213709D01*
X164643452Y-70689900D02*
X164595833Y-70713709D01*
X164595833Y-70713709D02*
X164500595Y-70713709D01*
X164500595Y-70713709D02*
X164452976Y-70689900D01*
X164452976Y-70689900D02*
X164429167Y-70642280D01*
X164429167Y-70642280D02*
X164429167Y-70451804D01*
X164429167Y-70451804D02*
X164452976Y-70404185D01*
X164452976Y-70404185D02*
X164500595Y-70380376D01*
X164500595Y-70380376D02*
X164595833Y-70380376D01*
X164595833Y-70380376D02*
X164643452Y-70404185D01*
X164643452Y-70404185D02*
X164667262Y-70451804D01*
X164667262Y-70451804D02*
X164667262Y-70499423D01*
X164667262Y-70499423D02*
X164429167Y-70547042D01*
D11*
X170815000Y-71437500D02*
X172085000Y-71437500D01*
X166370000Y-73025000D02*
X165100000Y-73025000D01*
X166370000Y-70485000D02*
X165100000Y-70485000D01*
X166370000Y-69215000D02*
X165100000Y-69215000D01*
X170815000Y-69850000D02*
X170180000Y-69850000D01*
X170815000Y-73025000D02*
X170815000Y-69850000D01*
X169545000Y-73025000D02*
X170815000Y-73025000D01*
X167005000Y-73025000D02*
X169545000Y-74295000D01*
X169545000Y-74295000D02*
X169545000Y-71755000D01*
X167005000Y-73025000D02*
X169545000Y-71755000D01*
X167005000Y-73025000D02*
G75*
G02*
X166370000Y-73025000I-317500J0D01*
G01*
X166370000Y-73025000D02*
G75*
G02*
X167005000Y-73025000I317500J0D01*
G01*
X170180000Y-69850000D02*
G75*
G02*
X169545000Y-69850000I-317500J0D01*
G01*
X169545000Y-69850000D02*
G75*
G02*
X170180000Y-69850000I317500J0D01*
G01*
X166370000Y-68580000D02*
X168275000Y-68580000D01*
X166370000Y-71120000D02*
X166370000Y-68580000D01*
X168275000Y-71120000D02*
X166370000Y-71120000D01*
X168275000Y-68580000D02*
G75*
G02*
X168275000Y-71120000I0J-1270000D01*
G01*
X174974286Y-122107657D02*
X175021905Y-122060038D01*
X175021905Y-122060038D02*
X175117143Y-122012419D01*
X175117143Y-122012419D02*
X175355238Y-122012419D01*
X175355238Y-122012419D02*
X175450476Y-122060038D01*
X175450476Y-122060038D02*
X175498095Y-122107657D01*
X175498095Y-122107657D02*
X175545714Y-122202895D01*
X175545714Y-122202895D02*
X175545714Y-122298133D01*
X175545714Y-122298133D02*
X175498095Y-122440990D01*
X175498095Y-122440990D02*
X174926667Y-123012419D01*
X174926667Y-123012419D02*
X175545714Y-123012419D01*
X172386667Y-122012419D02*
X173005714Y-122012419D01*
X173005714Y-122012419D02*
X172672381Y-122393371D01*
X172672381Y-122393371D02*
X172815238Y-122393371D01*
X172815238Y-122393371D02*
X172910476Y-122440990D01*
X172910476Y-122440990D02*
X172958095Y-122488609D01*
X172958095Y-122488609D02*
X173005714Y-122583847D01*
X173005714Y-122583847D02*
X173005714Y-122821942D01*
X173005714Y-122821942D02*
X172958095Y-122917180D01*
X172958095Y-122917180D02*
X172910476Y-122964800D01*
X172910476Y-122964800D02*
X172815238Y-123012419D01*
X172815238Y-123012419D02*
X172529524Y-123012419D01*
X172529524Y-123012419D02*
X172434286Y-122964800D01*
X172434286Y-122964800D02*
X172386667Y-122917180D01*
X170370476Y-122345752D02*
X170370476Y-123012419D01*
X170132381Y-121964800D02*
X169894286Y-122679085D01*
X169894286Y-122679085D02*
X170513333Y-122679085D01*
X178085714Y-123012419D02*
X177514286Y-123012419D01*
X177800000Y-123012419D02*
X177800000Y-122012419D01*
X177800000Y-122012419D02*
X177704762Y-122155276D01*
X177704762Y-122155276D02*
X177609524Y-122250514D01*
X177609524Y-122250514D02*
X177514286Y-122298133D01*
X182753095Y-119520038D02*
X182657857Y-119472419D01*
X182657857Y-119472419D02*
X182515000Y-119472419D01*
X182515000Y-119472419D02*
X182372143Y-119520038D01*
X182372143Y-119520038D02*
X182276905Y-119615276D01*
X182276905Y-119615276D02*
X182229286Y-119710514D01*
X182229286Y-119710514D02*
X182181667Y-119900990D01*
X182181667Y-119900990D02*
X182181667Y-120043847D01*
X182181667Y-120043847D02*
X182229286Y-120234323D01*
X182229286Y-120234323D02*
X182276905Y-120329561D01*
X182276905Y-120329561D02*
X182372143Y-120424800D01*
X182372143Y-120424800D02*
X182515000Y-120472419D01*
X182515000Y-120472419D02*
X182610238Y-120472419D01*
X182610238Y-120472419D02*
X182753095Y-120424800D01*
X182753095Y-120424800D02*
X182800714Y-120377180D01*
X182800714Y-120377180D02*
X182800714Y-120043847D01*
X182800714Y-120043847D02*
X182610238Y-120043847D01*
X183229286Y-120472419D02*
X183229286Y-119472419D01*
X183229286Y-119472419D02*
X183800714Y-120472419D01*
X183800714Y-120472419D02*
X183800714Y-119472419D01*
X184276905Y-120472419D02*
X184276905Y-119472419D01*
X184276905Y-119472419D02*
X184515000Y-119472419D01*
X184515000Y-119472419D02*
X184657857Y-119520038D01*
X184657857Y-119520038D02*
X184753095Y-119615276D01*
X184753095Y-119615276D02*
X184800714Y-119710514D01*
X184800714Y-119710514D02*
X184848333Y-119900990D01*
X184848333Y-119900990D02*
X184848333Y-120043847D01*
X184848333Y-120043847D02*
X184800714Y-120234323D01*
X184800714Y-120234323D02*
X184753095Y-120329561D01*
X184753095Y-120329561D02*
X184657857Y-120424800D01*
X184657857Y-120424800D02*
X184515000Y-120472419D01*
X184515000Y-120472419D02*
X184276905Y-120472419D01*
X159893095Y-119520038D02*
X159797857Y-119472419D01*
X159797857Y-119472419D02*
X159655000Y-119472419D01*
X159655000Y-119472419D02*
X159512143Y-119520038D01*
X159512143Y-119520038D02*
X159416905Y-119615276D01*
X159416905Y-119615276D02*
X159369286Y-119710514D01*
X159369286Y-119710514D02*
X159321667Y-119900990D01*
X159321667Y-119900990D02*
X159321667Y-120043847D01*
X159321667Y-120043847D02*
X159369286Y-120234323D01*
X159369286Y-120234323D02*
X159416905Y-120329561D01*
X159416905Y-120329561D02*
X159512143Y-120424800D01*
X159512143Y-120424800D02*
X159655000Y-120472419D01*
X159655000Y-120472419D02*
X159750238Y-120472419D01*
X159750238Y-120472419D02*
X159893095Y-120424800D01*
X159893095Y-120424800D02*
X159940714Y-120377180D01*
X159940714Y-120377180D02*
X159940714Y-120043847D01*
X159940714Y-120043847D02*
X159750238Y-120043847D01*
X160369286Y-120472419D02*
X160369286Y-119472419D01*
X160369286Y-119472419D02*
X160940714Y-120472419D01*
X160940714Y-120472419D02*
X160940714Y-119472419D01*
X161416905Y-120472419D02*
X161416905Y-119472419D01*
X161416905Y-119472419D02*
X161655000Y-119472419D01*
X161655000Y-119472419D02*
X161797857Y-119520038D01*
X161797857Y-119520038D02*
X161893095Y-119615276D01*
X161893095Y-119615276D02*
X161940714Y-119710514D01*
X161940714Y-119710514D02*
X161988333Y-119900990D01*
X161988333Y-119900990D02*
X161988333Y-120043847D01*
X161988333Y-120043847D02*
X161940714Y-120234323D01*
X161940714Y-120234323D02*
X161893095Y-120329561D01*
X161893095Y-120329561D02*
X161797857Y-120424800D01*
X161797857Y-120424800D02*
X161655000Y-120472419D01*
X161655000Y-120472419D02*
X161416905Y-120472419D01*
X147510476Y-122345752D02*
X147510476Y-123012419D01*
X147272381Y-121964800D02*
X147034286Y-122679085D01*
X147034286Y-122679085D02*
X147653333Y-122679085D01*
X149526667Y-122012419D02*
X150145714Y-122012419D01*
X150145714Y-122012419D02*
X149812381Y-122393371D01*
X149812381Y-122393371D02*
X149955238Y-122393371D01*
X149955238Y-122393371D02*
X150050476Y-122440990D01*
X150050476Y-122440990D02*
X150098095Y-122488609D01*
X150098095Y-122488609D02*
X150145714Y-122583847D01*
X150145714Y-122583847D02*
X150145714Y-122821942D01*
X150145714Y-122821942D02*
X150098095Y-122917180D01*
X150098095Y-122917180D02*
X150050476Y-122964800D01*
X150050476Y-122964800D02*
X149955238Y-123012419D01*
X149955238Y-123012419D02*
X149669524Y-123012419D01*
X149669524Y-123012419D02*
X149574286Y-122964800D01*
X149574286Y-122964800D02*
X149526667Y-122917180D01*
X152114286Y-122107657D02*
X152161905Y-122060038D01*
X152161905Y-122060038D02*
X152257143Y-122012419D01*
X152257143Y-122012419D02*
X152495238Y-122012419D01*
X152495238Y-122012419D02*
X152590476Y-122060038D01*
X152590476Y-122060038D02*
X152638095Y-122107657D01*
X152638095Y-122107657D02*
X152685714Y-122202895D01*
X152685714Y-122202895D02*
X152685714Y-122298133D01*
X152685714Y-122298133D02*
X152638095Y-122440990D01*
X152638095Y-122440990D02*
X152066667Y-123012419D01*
X152066667Y-123012419D02*
X152685714Y-123012419D01*
X155225714Y-123012419D02*
X154654286Y-123012419D01*
X154940000Y-123012419D02*
X154940000Y-122012419D01*
X154940000Y-122012419D02*
X154844762Y-122155276D01*
X154844762Y-122155276D02*
X154749524Y-122250514D01*
X154749524Y-122250514D02*
X154654286Y-122298133D01*
D12*
X173355000Y-76200000D02*
X184785000Y-76200000D01*
X179070000Y-74295000D02*
X179070000Y-100965000D01*
D11*
X181612217Y-74913609D02*
X181755074Y-74961228D01*
X181755074Y-74961228D02*
X181802693Y-75008847D01*
X181802693Y-75008847D02*
X181850312Y-75104085D01*
X181850312Y-75104085D02*
X181850312Y-75246942D01*
X181850312Y-75246942D02*
X181802693Y-75342180D01*
X181802693Y-75342180D02*
X181755074Y-75389800D01*
X181755074Y-75389800D02*
X181659836Y-75437419D01*
X181659836Y-75437419D02*
X181278884Y-75437419D01*
X181278884Y-75437419D02*
X181278884Y-74437419D01*
X181278884Y-74437419D02*
X181612217Y-74437419D01*
X181612217Y-74437419D02*
X181707455Y-74485038D01*
X181707455Y-74485038D02*
X181755074Y-74532657D01*
X181755074Y-74532657D02*
X181802693Y-74627895D01*
X181802693Y-74627895D02*
X181802693Y-74723133D01*
X181802693Y-74723133D02*
X181755074Y-74818371D01*
X181755074Y-74818371D02*
X181707455Y-74865990D01*
X181707455Y-74865990D02*
X181612217Y-74913609D01*
X181612217Y-74913609D02*
X181278884Y-74913609D01*
X182707455Y-74770752D02*
X182707455Y-75437419D01*
X182278884Y-74770752D02*
X182278884Y-75294561D01*
X182278884Y-75294561D02*
X182326503Y-75389800D01*
X182326503Y-75389800D02*
X182421741Y-75437419D01*
X182421741Y-75437419D02*
X182564598Y-75437419D01*
X182564598Y-75437419D02*
X182659836Y-75389800D01*
X182659836Y-75389800D02*
X182707455Y-75342180D01*
X183136027Y-75389800D02*
X183231265Y-75437419D01*
X183231265Y-75437419D02*
X183421741Y-75437419D01*
X183421741Y-75437419D02*
X183516979Y-75389800D01*
X183516979Y-75389800D02*
X183564598Y-75294561D01*
X183564598Y-75294561D02*
X183564598Y-75246942D01*
X183564598Y-75246942D02*
X183516979Y-75151704D01*
X183516979Y-75151704D02*
X183421741Y-75104085D01*
X183421741Y-75104085D02*
X183278884Y-75104085D01*
X183278884Y-75104085D02*
X183183646Y-75056466D01*
X183183646Y-75056466D02*
X183136027Y-74961228D01*
X183136027Y-74961228D02*
X183136027Y-74913609D01*
X183136027Y-74913609D02*
X183183646Y-74818371D01*
X183183646Y-74818371D02*
X183278884Y-74770752D01*
X183278884Y-74770752D02*
X183421741Y-74770752D01*
X183421741Y-74770752D02*
X183516979Y-74818371D01*
D13*
X136883157Y-98577057D02*
X136883157Y-100577057D01*
X136168871Y-97434200D02*
X135454585Y-99577057D01*
X135454585Y-99577057D02*
X137311728Y-99577057D01*
X135454585Y-80717771D02*
X135597442Y-80574914D01*
X135597442Y-80574914D02*
X135883157Y-80432057D01*
X135883157Y-80432057D02*
X136597442Y-80432057D01*
X136597442Y-80432057D02*
X136883157Y-80574914D01*
X136883157Y-80574914D02*
X137026014Y-80717771D01*
X137026014Y-80717771D02*
X137168871Y-81003485D01*
X137168871Y-81003485D02*
X137168871Y-81289200D01*
X137168871Y-81289200D02*
X137026014Y-81717771D01*
X137026014Y-81717771D02*
X135311728Y-83432057D01*
X135311728Y-83432057D02*
X137168871Y-83432057D01*
X135311728Y-89322057D02*
X137168871Y-89322057D01*
X137168871Y-89322057D02*
X136168871Y-90464914D01*
X136168871Y-90464914D02*
X136597442Y-90464914D01*
X136597442Y-90464914D02*
X136883157Y-90607771D01*
X136883157Y-90607771D02*
X137026014Y-90750628D01*
X137026014Y-90750628D02*
X137168871Y-91036342D01*
X137168871Y-91036342D02*
X137168871Y-91750628D01*
X137168871Y-91750628D02*
X137026014Y-92036342D01*
X137026014Y-92036342D02*
X136883157Y-92179200D01*
X136883157Y-92179200D02*
X136597442Y-92322057D01*
X136597442Y-92322057D02*
X135740299Y-92322057D01*
X135740299Y-92322057D02*
X135454585Y-92179200D01*
X135454585Y-92179200D02*
X135311728Y-92036342D01*
D11*
X125690475Y-123062419D02*
X125357142Y-122586228D01*
X125119047Y-123062419D02*
X125119047Y-122062419D01*
X125119047Y-122062419D02*
X125499999Y-122062419D01*
X125499999Y-122062419D02*
X125595237Y-122110038D01*
X125595237Y-122110038D02*
X125642856Y-122157657D01*
X125642856Y-122157657D02*
X125690475Y-122252895D01*
X125690475Y-122252895D02*
X125690475Y-122395752D01*
X125690475Y-122395752D02*
X125642856Y-122490990D01*
X125642856Y-122490990D02*
X125595237Y-122538609D01*
X125595237Y-122538609D02*
X125499999Y-122586228D01*
X125499999Y-122586228D02*
X125119047Y-122586228D01*
X126499999Y-123014800D02*
X126404761Y-123062419D01*
X126404761Y-123062419D02*
X126214285Y-123062419D01*
X126214285Y-123062419D02*
X126119047Y-123014800D01*
X126119047Y-123014800D02*
X126071428Y-122919561D01*
X126071428Y-122919561D02*
X126071428Y-122538609D01*
X126071428Y-122538609D02*
X126119047Y-122443371D01*
X126119047Y-122443371D02*
X126214285Y-122395752D01*
X126214285Y-122395752D02*
X126404761Y-122395752D01*
X126404761Y-122395752D02*
X126499999Y-122443371D01*
X126499999Y-122443371D02*
X126547618Y-122538609D01*
X126547618Y-122538609D02*
X126547618Y-122633847D01*
X126547618Y-122633847D02*
X126071428Y-122729085D01*
X126880952Y-122395752D02*
X127119047Y-123062419D01*
X127119047Y-123062419D02*
X127357142Y-122395752D01*
X128452381Y-122776704D02*
X128928571Y-122776704D01*
X128357143Y-123062419D02*
X128690476Y-122062419D01*
X128690476Y-122062419D02*
X129023809Y-123062419D01*
X188263884Y-68071466D02*
X189025789Y-68071466D01*
X188644836Y-68452419D02*
X188644836Y-67690514D01*
X189978169Y-67452419D02*
X189501979Y-67452419D01*
X189501979Y-67452419D02*
X189454360Y-67928609D01*
X189454360Y-67928609D02*
X189501979Y-67880990D01*
X189501979Y-67880990D02*
X189597217Y-67833371D01*
X189597217Y-67833371D02*
X189835312Y-67833371D01*
X189835312Y-67833371D02*
X189930550Y-67880990D01*
X189930550Y-67880990D02*
X189978169Y-67928609D01*
X189978169Y-67928609D02*
X190025788Y-68023847D01*
X190025788Y-68023847D02*
X190025788Y-68261942D01*
X190025788Y-68261942D02*
X189978169Y-68357180D01*
X189978169Y-68357180D02*
X189930550Y-68404800D01*
X189930550Y-68404800D02*
X189835312Y-68452419D01*
X189835312Y-68452419D02*
X189597217Y-68452419D01*
X189597217Y-68452419D02*
X189501979Y-68404800D01*
X189501979Y-68404800D02*
X189454360Y-68357180D01*
X190359122Y-67785752D02*
X190597217Y-68452419D01*
X190597217Y-68452419D02*
X190835312Y-67785752D01*
X173849360Y-74437419D02*
X174039836Y-74437419D01*
X174039836Y-74437419D02*
X174135074Y-74485038D01*
X174135074Y-74485038D02*
X174230312Y-74580276D01*
X174230312Y-74580276D02*
X174277931Y-74770752D01*
X174277931Y-74770752D02*
X174277931Y-75104085D01*
X174277931Y-75104085D02*
X174230312Y-75294561D01*
X174230312Y-75294561D02*
X174135074Y-75389800D01*
X174135074Y-75389800D02*
X174039836Y-75437419D01*
X174039836Y-75437419D02*
X173849360Y-75437419D01*
X173849360Y-75437419D02*
X173754122Y-75389800D01*
X173754122Y-75389800D02*
X173658884Y-75294561D01*
X173658884Y-75294561D02*
X173611265Y-75104085D01*
X173611265Y-75104085D02*
X173611265Y-74770752D01*
X173611265Y-74770752D02*
X173658884Y-74580276D01*
X173658884Y-74580276D02*
X173754122Y-74485038D01*
X173754122Y-74485038D02*
X173849360Y-74437419D01*
X175135074Y-74770752D02*
X175135074Y-75437419D01*
X174706503Y-74770752D02*
X174706503Y-75294561D01*
X174706503Y-75294561D02*
X174754122Y-75389800D01*
X174754122Y-75389800D02*
X174849360Y-75437419D01*
X174849360Y-75437419D02*
X174992217Y-75437419D01*
X174992217Y-75437419D02*
X175087455Y-75389800D01*
X175087455Y-75389800D02*
X175135074Y-75342180D01*
X175468408Y-74770752D02*
X175849360Y-74770752D01*
X175611265Y-74437419D02*
X175611265Y-75294561D01*
X175611265Y-75294561D02*
X175658884Y-75389800D01*
X175658884Y-75389800D02*
X175754122Y-75437419D01*
X175754122Y-75437419D02*
X175849360Y-75437419D01*
X176182694Y-74770752D02*
X176182694Y-75770752D01*
X176182694Y-74818371D02*
X176277932Y-74770752D01*
X176277932Y-74770752D02*
X176468408Y-74770752D01*
X176468408Y-74770752D02*
X176563646Y-74818371D01*
X176563646Y-74818371D02*
X176611265Y-74865990D01*
X176611265Y-74865990D02*
X176658884Y-74961228D01*
X176658884Y-74961228D02*
X176658884Y-75246942D01*
X176658884Y-75246942D02*
X176611265Y-75342180D01*
X176611265Y-75342180D02*
X176563646Y-75389800D01*
X176563646Y-75389800D02*
X176468408Y-75437419D01*
X176468408Y-75437419D02*
X176277932Y-75437419D01*
X176277932Y-75437419D02*
X176182694Y-75389800D01*
X177516027Y-74770752D02*
X177516027Y-75437419D01*
X177087456Y-74770752D02*
X177087456Y-75294561D01*
X177087456Y-75294561D02*
X177135075Y-75389800D01*
X177135075Y-75389800D02*
X177230313Y-75437419D01*
X177230313Y-75437419D02*
X177373170Y-75437419D01*
X177373170Y-75437419D02*
X177468408Y-75389800D01*
X177468408Y-75389800D02*
X177516027Y-75342180D01*
X177849361Y-74770752D02*
X178230313Y-74770752D01*
X177992218Y-74437419D02*
X177992218Y-75294561D01*
X177992218Y-75294561D02*
X178039837Y-75389800D01*
X178039837Y-75389800D02*
X178135075Y-75437419D01*
X178135075Y-75437419D02*
X178230313Y-75437419D01*
D14*
X131352381Y-64315667D02*
X131352381Y-60815667D01*
X131352381Y-60815667D02*
X132304762Y-60815667D01*
X132304762Y-60815667D02*
X132876191Y-60982334D01*
X132876191Y-60982334D02*
X133257143Y-61315667D01*
X133257143Y-61315667D02*
X133447620Y-61649001D01*
X133447620Y-61649001D02*
X133638096Y-62315667D01*
X133638096Y-62315667D02*
X133638096Y-62815667D01*
X133638096Y-62815667D02*
X133447620Y-63482334D01*
X133447620Y-63482334D02*
X133257143Y-63815667D01*
X133257143Y-63815667D02*
X132876191Y-64149001D01*
X132876191Y-64149001D02*
X132304762Y-64315667D01*
X132304762Y-64315667D02*
X131352381Y-64315667D01*
X135161905Y-64149001D02*
X135733334Y-64315667D01*
X135733334Y-64315667D02*
X136685715Y-64315667D01*
X136685715Y-64315667D02*
X137066667Y-64149001D01*
X137066667Y-64149001D02*
X137257143Y-63982334D01*
X137257143Y-63982334D02*
X137447620Y-63649001D01*
X137447620Y-63649001D02*
X137447620Y-63315667D01*
X137447620Y-63315667D02*
X137257143Y-62982334D01*
X137257143Y-62982334D02*
X137066667Y-62815667D01*
X137066667Y-62815667D02*
X136685715Y-62649001D01*
X136685715Y-62649001D02*
X135923810Y-62482334D01*
X135923810Y-62482334D02*
X135542858Y-62315667D01*
X135542858Y-62315667D02*
X135352381Y-62149001D01*
X135352381Y-62149001D02*
X135161905Y-61815667D01*
X135161905Y-61815667D02*
X135161905Y-61482334D01*
X135161905Y-61482334D02*
X135352381Y-61149001D01*
X135352381Y-61149001D02*
X135542858Y-60982334D01*
X135542858Y-60982334D02*
X135923810Y-60815667D01*
X135923810Y-60815667D02*
X136876191Y-60815667D01*
X136876191Y-60815667D02*
X137447620Y-60982334D01*
X139733334Y-62315667D02*
X139352382Y-62149001D01*
X139352382Y-62149001D02*
X139161905Y-61982334D01*
X139161905Y-61982334D02*
X138971429Y-61649001D01*
X138971429Y-61649001D02*
X138971429Y-61482334D01*
X138971429Y-61482334D02*
X139161905Y-61149001D01*
X139161905Y-61149001D02*
X139352382Y-60982334D01*
X139352382Y-60982334D02*
X139733334Y-60815667D01*
X139733334Y-60815667D02*
X140495239Y-60815667D01*
X140495239Y-60815667D02*
X140876191Y-60982334D01*
X140876191Y-60982334D02*
X141066667Y-61149001D01*
X141066667Y-61149001D02*
X141257144Y-61482334D01*
X141257144Y-61482334D02*
X141257144Y-61649001D01*
X141257144Y-61649001D02*
X141066667Y-61982334D01*
X141066667Y-61982334D02*
X140876191Y-62149001D01*
X140876191Y-62149001D02*
X140495239Y-62315667D01*
X140495239Y-62315667D02*
X139733334Y-62315667D01*
X139733334Y-62315667D02*
X139352382Y-62482334D01*
X139352382Y-62482334D02*
X139161905Y-62649001D01*
X139161905Y-62649001D02*
X138971429Y-62982334D01*
X138971429Y-62982334D02*
X138971429Y-63649001D01*
X138971429Y-63649001D02*
X139161905Y-63982334D01*
X139161905Y-63982334D02*
X139352382Y-64149001D01*
X139352382Y-64149001D02*
X139733334Y-64315667D01*
X139733334Y-64315667D02*
X140495239Y-64315667D01*
X140495239Y-64315667D02*
X140876191Y-64149001D01*
X140876191Y-64149001D02*
X141066667Y-63982334D01*
X141066667Y-63982334D02*
X141257144Y-63649001D01*
X141257144Y-63649001D02*
X141257144Y-62982334D01*
X141257144Y-62982334D02*
X141066667Y-62649001D01*
X141066667Y-62649001D02*
X140876191Y-62482334D01*
X140876191Y-62482334D02*
X140495239Y-62315667D01*
X144685715Y-60815667D02*
X143923810Y-60815667D01*
X143923810Y-60815667D02*
X143542858Y-60982334D01*
X143542858Y-60982334D02*
X143352382Y-61149001D01*
X143352382Y-61149001D02*
X142971429Y-61649001D01*
X142971429Y-61649001D02*
X142780953Y-62315667D01*
X142780953Y-62315667D02*
X142780953Y-63649001D01*
X142780953Y-63649001D02*
X142971429Y-63982334D01*
X142971429Y-63982334D02*
X143161906Y-64149001D01*
X143161906Y-64149001D02*
X143542858Y-64315667D01*
X143542858Y-64315667D02*
X144304763Y-64315667D01*
X144304763Y-64315667D02*
X144685715Y-64149001D01*
X144685715Y-64149001D02*
X144876191Y-63982334D01*
X144876191Y-63982334D02*
X145066668Y-63649001D01*
X145066668Y-63649001D02*
X145066668Y-62815667D01*
X145066668Y-62815667D02*
X144876191Y-62482334D01*
X144876191Y-62482334D02*
X144685715Y-62315667D01*
X144685715Y-62315667D02*
X144304763Y-62149001D01*
X144304763Y-62149001D02*
X143542858Y-62149001D01*
X143542858Y-62149001D02*
X143161906Y-62315667D01*
X143161906Y-62315667D02*
X142971429Y-62482334D01*
X142971429Y-62482334D02*
X142780953Y-62815667D01*
X148495239Y-61982334D02*
X148495239Y-64315667D01*
X147542858Y-60649001D02*
X146590477Y-63149001D01*
X146590477Y-63149001D02*
X149066668Y-63149001D01*
X152685716Y-64315667D02*
X150400001Y-64315667D01*
X151542858Y-64315667D02*
X151542858Y-60815667D01*
X151542858Y-60815667D02*
X151161906Y-61315667D01*
X151161906Y-61315667D02*
X150780954Y-61649001D01*
X150780954Y-61649001D02*
X150400001Y-61815667D01*
X156876192Y-60815667D02*
X159161906Y-60815667D01*
X158019049Y-64315667D02*
X158019049Y-60815667D01*
X162019049Y-64149001D02*
X161638097Y-64315667D01*
X161638097Y-64315667D02*
X160876192Y-64315667D01*
X160876192Y-64315667D02*
X160495239Y-64149001D01*
X160495239Y-64149001D02*
X160304763Y-63815667D01*
X160304763Y-63815667D02*
X160304763Y-62482334D01*
X160304763Y-62482334D02*
X160495239Y-62149001D01*
X160495239Y-62149001D02*
X160876192Y-61982334D01*
X160876192Y-61982334D02*
X161638097Y-61982334D01*
X161638097Y-61982334D02*
X162019049Y-62149001D01*
X162019049Y-62149001D02*
X162209525Y-62482334D01*
X162209525Y-62482334D02*
X162209525Y-62815667D01*
X162209525Y-62815667D02*
X160304763Y-63149001D01*
X163733334Y-64149001D02*
X164114287Y-64315667D01*
X164114287Y-64315667D02*
X164876191Y-64315667D01*
X164876191Y-64315667D02*
X165257144Y-64149001D01*
X165257144Y-64149001D02*
X165447620Y-63815667D01*
X165447620Y-63815667D02*
X165447620Y-63649001D01*
X165447620Y-63649001D02*
X165257144Y-63315667D01*
X165257144Y-63315667D02*
X164876191Y-63149001D01*
X164876191Y-63149001D02*
X164304763Y-63149001D01*
X164304763Y-63149001D02*
X163923810Y-62982334D01*
X163923810Y-62982334D02*
X163733334Y-62649001D01*
X163733334Y-62649001D02*
X163733334Y-62482334D01*
X163733334Y-62482334D02*
X163923810Y-62149001D01*
X163923810Y-62149001D02*
X164304763Y-61982334D01*
X164304763Y-61982334D02*
X164876191Y-61982334D01*
X164876191Y-61982334D02*
X165257144Y-62149001D01*
X166590477Y-61982334D02*
X168114286Y-61982334D01*
X167161905Y-60815667D02*
X167161905Y-63815667D01*
X167161905Y-63815667D02*
X167352382Y-64149001D01*
X167352382Y-64149001D02*
X167733334Y-64315667D01*
X167733334Y-64315667D02*
X168114286Y-64315667D01*
X170971429Y-64149001D02*
X170590477Y-64315667D01*
X170590477Y-64315667D02*
X169828572Y-64315667D01*
X169828572Y-64315667D02*
X169447619Y-64149001D01*
X169447619Y-64149001D02*
X169257143Y-63815667D01*
X169257143Y-63815667D02*
X169257143Y-62482334D01*
X169257143Y-62482334D02*
X169447619Y-62149001D01*
X169447619Y-62149001D02*
X169828572Y-61982334D01*
X169828572Y-61982334D02*
X170590477Y-61982334D01*
X170590477Y-61982334D02*
X170971429Y-62149001D01*
X170971429Y-62149001D02*
X171161905Y-62482334D01*
X171161905Y-62482334D02*
X171161905Y-62815667D01*
X171161905Y-62815667D02*
X169257143Y-63149001D01*
X172876190Y-64315667D02*
X172876190Y-61982334D01*
X172876190Y-62649001D02*
X173066667Y-62315667D01*
X173066667Y-62315667D02*
X173257143Y-62149001D01*
X173257143Y-62149001D02*
X173638095Y-61982334D01*
X173638095Y-61982334D02*
X174019048Y-61982334D01*
D13*
X137168871Y-75177057D02*
X135454585Y-75177057D01*
X136311728Y-75177057D02*
X136311728Y-72177057D01*
X136311728Y-72177057D02*
X136026014Y-72605628D01*
X136026014Y-72605628D02*
X135740299Y-72891342D01*
X135740299Y-72891342D02*
X135454585Y-73034200D01*
D15*
X189109819Y-111896904D02*
X189919342Y-111896904D01*
X189919342Y-111896904D02*
X190014580Y-111849285D01*
X190014580Y-111849285D02*
X190062200Y-111801666D01*
X190062200Y-111801666D02*
X190109819Y-111706428D01*
X190109819Y-111706428D02*
X190109819Y-111515952D01*
X190109819Y-111515952D02*
X190062200Y-111420714D01*
X190062200Y-111420714D02*
X190014580Y-111373095D01*
X190014580Y-111373095D02*
X189919342Y-111325476D01*
X189919342Y-111325476D02*
X189109819Y-111325476D01*
X189109819Y-110944523D02*
X189109819Y-110325476D01*
X189109819Y-110325476D02*
X189490771Y-110658809D01*
X189490771Y-110658809D02*
X189490771Y-110515952D01*
X189490771Y-110515952D02*
X189538390Y-110420714D01*
X189538390Y-110420714D02*
X189586009Y-110373095D01*
X189586009Y-110373095D02*
X189681247Y-110325476D01*
X189681247Y-110325476D02*
X189919342Y-110325476D01*
X189919342Y-110325476D02*
X190014580Y-110373095D01*
X190014580Y-110373095D02*
X190062200Y-110420714D01*
X190062200Y-110420714D02*
X190109819Y-110515952D01*
X190109819Y-110515952D02*
X190109819Y-110801666D01*
X190109819Y-110801666D02*
X190062200Y-110896904D01*
X190062200Y-110896904D02*
X190014580Y-110944523D01*
X150368095Y-69174819D02*
X150368095Y-69984342D01*
X150368095Y-69984342D02*
X150415714Y-70079580D01*
X150415714Y-70079580D02*
X150463333Y-70127200D01*
X150463333Y-70127200D02*
X150558571Y-70174819D01*
X150558571Y-70174819D02*
X150749047Y-70174819D01*
X150749047Y-70174819D02*
X150844285Y-70127200D01*
X150844285Y-70127200D02*
X150891904Y-70079580D01*
X150891904Y-70079580D02*
X150939523Y-69984342D01*
X150939523Y-69984342D02*
X150939523Y-69174819D01*
X151939523Y-70174819D02*
X151368095Y-70174819D01*
X151653809Y-70174819D02*
X151653809Y-69174819D01*
X151653809Y-69174819D02*
X151558571Y-69317676D01*
X151558571Y-69317676D02*
X151463333Y-69412914D01*
X151463333Y-69412914D02*
X151368095Y-69460533D01*
D16*
X130485000Y-110665000D02*
X130485000Y-112165000D01*
X131735000Y-114665000D02*
X136235000Y-114665000D01*
X136235000Y-108165000D02*
X131735000Y-108165000D01*
X137485000Y-112165000D02*
X137485000Y-110665000D01*
X177455000Y-90360000D02*
X177455000Y-90204000D01*
X177455000Y-92676000D02*
X177455000Y-92520000D01*
X174222665Y-90361392D02*
G75*
G02*
X177455000Y-90204484I1672335J-1078608D01*
G01*
X174853870Y-90360163D02*
G75*
G02*
X176935961Y-90360000I1041130J-1079837D01*
G01*
X176935961Y-92520000D02*
G75*
G02*
X174853870Y-92519837I-1040961J1080000D01*
G01*
X177455000Y-92675516D02*
G75*
G02*
X174222665Y-92518608I-1560000J1235516D01*
G01*
X183805000Y-77660000D02*
X183805000Y-77504000D01*
X183805000Y-79976000D02*
X183805000Y-79820000D01*
X180572665Y-77661392D02*
G75*
G02*
X183805000Y-77504484I1672335J-1078608D01*
G01*
X181203870Y-77660163D02*
G75*
G02*
X183285961Y-77660000I1041130J-1079837D01*
G01*
X183285961Y-79820000D02*
G75*
G02*
X181203870Y-79819837I-1040961J1080000D01*
G01*
X183805000Y-79975516D02*
G75*
G02*
X180572665Y-79818608I-1560000J1235516D01*
G01*
X120400000Y-110665000D02*
X120400000Y-112165000D01*
X121650000Y-114665000D02*
X126150000Y-114665000D01*
X126150000Y-108165000D02*
X121650000Y-108165000D01*
X127400000Y-112165000D02*
X127400000Y-110665000D01*
X183805000Y-90360000D02*
X183805000Y-90204000D01*
X183805000Y-92676000D02*
X183805000Y-92520000D01*
X180572665Y-90361392D02*
G75*
G02*
X183805000Y-90204484I1672335J-1078608D01*
G01*
X181203870Y-90360163D02*
G75*
G02*
X183285961Y-90360000I1041130J-1079837D01*
G01*
X183285961Y-92520000D02*
G75*
G02*
X181203870Y-92519837I-1040961J1080000D01*
G01*
X183805000Y-92675516D02*
G75*
G02*
X180572665Y-92518608I-1560000J1235516D01*
G01*
X163500000Y-100865000D02*
X164450000Y-100865000D01*
X164450000Y-99945000D02*
X164450000Y-101785000D01*
X164450000Y-101785000D02*
X168290000Y-101785000D01*
X168290000Y-99945000D02*
X164450000Y-99945000D01*
X168290000Y-101785000D02*
X168290000Y-99945000D01*
X169240000Y-100865000D02*
X168290000Y-100865000D01*
X121635000Y-88250000D02*
X121635000Y-92090000D01*
X121635000Y-92090000D02*
X123475000Y-92090000D01*
X122555000Y-87300000D02*
X122555000Y-88250000D01*
X122555000Y-93040000D02*
X122555000Y-92090000D01*
X123475000Y-88250000D02*
X121635000Y-88250000D01*
X123475000Y-92090000D02*
X123475000Y-88250000D01*
X125480000Y-98600000D02*
X125480000Y-100100000D01*
X126730000Y-102600000D02*
X131230000Y-102600000D01*
X131230000Y-96100000D02*
X126730000Y-96100000D01*
X132480000Y-100100000D02*
X132480000Y-98600000D01*
X125480000Y-72950000D02*
X125480000Y-74450000D01*
X126730000Y-76950000D02*
X131230000Y-76950000D01*
X131230000Y-70450000D02*
X126730000Y-70450000D01*
X132480000Y-74450000D02*
X132480000Y-72950000D01*
X177455000Y-77660000D02*
X177455000Y-77504000D01*
X177455000Y-79976000D02*
X177455000Y-79820000D01*
X174222665Y-77661392D02*
G75*
G02*
X177455000Y-77504484I1672335J-1078608D01*
G01*
X174853870Y-77660163D02*
G75*
G02*
X176935961Y-77660000I1041130J-1079837D01*
G01*
X176935961Y-79820000D02*
G75*
G02*
X174853870Y-79819837I-1040961J1080000D01*
G01*
X177455000Y-79975516D02*
G75*
G02*
X174222665Y-79818608I-1560000J1235516D01*
G01*
X125480000Y-81500000D02*
X125480000Y-83000000D01*
X126730000Y-85500000D02*
X131230000Y-85500000D01*
X131230000Y-79000000D02*
X126730000Y-79000000D01*
X132480000Y-83000000D02*
X132480000Y-81500000D01*
X143340000Y-108455000D02*
X143340000Y-111255000D01*
X143340000Y-111255000D02*
X158920000Y-111255000D01*
X156210000Y-111255000D02*
X156210000Y-108455000D01*
X158920000Y-108455000D02*
X143340000Y-108455000D01*
X158920000Y-111255000D02*
X158920000Y-108455000D01*
X163500000Y-94565000D02*
X164450000Y-94565000D01*
X164450000Y-93645000D02*
X164450000Y-95485000D01*
X164450000Y-95485000D02*
X168290000Y-95485000D01*
X168290000Y-93645000D02*
X164450000Y-93645000D01*
X168290000Y-95485000D02*
X168290000Y-93645000D01*
X169240000Y-94565000D02*
X168290000Y-94565000D01*
X163500000Y-91415000D02*
X164450000Y-91415000D01*
X164450000Y-90495000D02*
X164450000Y-92335000D01*
X164450000Y-92335000D02*
X168290000Y-92335000D01*
X168290000Y-90495000D02*
X164450000Y-90495000D01*
X168290000Y-92335000D02*
X168290000Y-90495000D01*
X169240000Y-91415000D02*
X168290000Y-91415000D01*
X145990000Y-118685000D02*
X145990000Y-121345000D01*
X156210000Y-118685000D02*
X145990000Y-118685000D01*
X156210000Y-118685000D02*
X156210000Y-121345000D01*
X156210000Y-121345000D02*
X145990000Y-121345000D01*
X157480000Y-118685000D02*
X158810000Y-118685000D01*
X158810000Y-118685000D02*
X158810000Y-120015000D01*
X183805000Y-84010000D02*
X183805000Y-83854000D01*
X183805000Y-86326000D02*
X183805000Y-86170000D01*
X180572665Y-84011392D02*
G75*
G02*
X183805000Y-83854484I1672335J-1078608D01*
G01*
X181203870Y-84010163D02*
G75*
G02*
X183285961Y-84010000I1041130J-1079837D01*
G01*
X183285961Y-86170000D02*
G75*
G02*
X181203870Y-86169837I-1040961J1080000D01*
G01*
X183805000Y-86325516D02*
G75*
G02*
X180572665Y-86168608I-1560000J1235516D01*
G01*
X121635000Y-69200000D02*
X121635000Y-73040000D01*
X121635000Y-73040000D02*
X123475000Y-73040000D01*
X122555000Y-68250000D02*
X122555000Y-69200000D01*
X122555000Y-73990000D02*
X122555000Y-73040000D01*
X123475000Y-69200000D02*
X121635000Y-69200000D01*
X123475000Y-73040000D02*
X123475000Y-69200000D01*
X125480000Y-90050000D02*
X125480000Y-91550000D01*
X126730000Y-94050000D02*
X131230000Y-94050000D01*
X131230000Y-87550000D02*
X126730000Y-87550000D01*
X132480000Y-91550000D02*
X132480000Y-90050000D01*
X177455000Y-96710000D02*
X177455000Y-96554000D01*
X177455000Y-99026000D02*
X177455000Y-98870000D01*
X174222665Y-96711392D02*
G75*
G02*
X177455000Y-96554484I1672335J-1078608D01*
G01*
X174853870Y-96710163D02*
G75*
G02*
X176935961Y-96710000I1041130J-1079837D01*
G01*
X176935961Y-98870000D02*
G75*
G02*
X174853870Y-98869837I-1040961J1080000D01*
G01*
X177455000Y-99025516D02*
G75*
G02*
X174222665Y-98868608I-1560000J1235516D01*
G01*
X121635000Y-97775000D02*
X121635000Y-101615000D01*
X121635000Y-101615000D02*
X123475000Y-101615000D01*
X122555000Y-96825000D02*
X122555000Y-97775000D01*
X122555000Y-102565000D02*
X122555000Y-101615000D01*
X123475000Y-97775000D02*
X121635000Y-97775000D01*
X123475000Y-101615000D02*
X123475000Y-97775000D01*
X163500000Y-85115000D02*
X164450000Y-85115000D01*
X164450000Y-84195000D02*
X164450000Y-86035000D01*
X164450000Y-86035000D02*
X168290000Y-86035000D01*
X168290000Y-84195000D02*
X164450000Y-84195000D01*
X168290000Y-86035000D02*
X168290000Y-84195000D01*
X169240000Y-85115000D02*
X168290000Y-85115000D01*
X163500000Y-97715000D02*
X164450000Y-97715000D01*
X164450000Y-96795000D02*
X164450000Y-98635000D01*
X164450000Y-98635000D02*
X168290000Y-98635000D01*
X168290000Y-96795000D02*
X164450000Y-96795000D01*
X168290000Y-98635000D02*
X168290000Y-96795000D01*
X169240000Y-97715000D02*
X168290000Y-97715000D01*
X168850000Y-118685000D02*
X168850000Y-121345000D01*
X179070000Y-118685000D02*
X168850000Y-118685000D01*
X179070000Y-118685000D02*
X179070000Y-121345000D01*
X179070000Y-121345000D02*
X168850000Y-121345000D01*
X180340000Y-118685000D02*
X181670000Y-118685000D01*
X181670000Y-118685000D02*
X181670000Y-120015000D01*
X163135000Y-108485000D02*
X163135000Y-113785000D01*
X163135000Y-113785000D02*
X188655000Y-113785000D01*
X188655000Y-108485000D02*
X163135000Y-108485000D01*
X188655000Y-110135000D02*
X188655000Y-108485000D01*
X188655000Y-113785000D02*
X188655000Y-112135000D01*
X188655000Y-112135000D02*
G75*
G02*
X188655000Y-110135000I0J1000000D01*
G01*
X163500000Y-81965000D02*
X164450000Y-81965000D01*
X164450000Y-81045000D02*
X164450000Y-82885000D01*
X164450000Y-82885000D02*
X168290000Y-82885000D01*
X168290000Y-81045000D02*
X164450000Y-81045000D01*
X168290000Y-82885000D02*
X168290000Y-81045000D01*
X169240000Y-81965000D02*
X168290000Y-81965000D01*
X142370000Y-82550000D02*
X142370000Y-80010000D01*
X143430000Y-70620000D02*
X143430000Y-72480000D01*
X143430000Y-77380000D02*
X143430000Y-106120000D01*
X143430000Y-106120000D02*
X158830000Y-106120000D01*
X145670000Y-70620000D02*
X145670000Y-72880000D01*
X158830000Y-70620000D02*
X143430000Y-70620000D01*
X158830000Y-106120000D02*
X158830000Y-70620000D01*
X145020000Y-74930000D02*
G75*
G02*
X143220000Y-74930000I-900000J0D01*
G01*
X143220000Y-74930000D02*
G75*
G02*
X145020000Y-74930000I900000J0D01*
G01*
X146670000Y-74930000D02*
G75*
G02*
X141570000Y-74930000I-2550000J0D01*
G01*
X141570000Y-74930000D02*
G75*
G02*
X146670000Y-74930000I2550000J0D01*
G01*
X177455000Y-84010000D02*
X177455000Y-83854000D01*
X177455000Y-86326000D02*
X177455000Y-86170000D01*
X174222665Y-84011392D02*
G75*
G02*
X177455000Y-83854484I1672335J-1078608D01*
G01*
X174853870Y-84010163D02*
G75*
G02*
X176935961Y-84010000I1041130J-1079837D01*
G01*
X176935961Y-86170000D02*
G75*
G02*
X174853870Y-86169837I-1040961J1080000D01*
G01*
X177455000Y-86325516D02*
G75*
G02*
X174222665Y-86168608I-1560000J1235516D01*
G01*
X163500000Y-78815000D02*
X164450000Y-78815000D01*
X164450000Y-77895000D02*
X164450000Y-79735000D01*
X164450000Y-79735000D02*
X168290000Y-79735000D01*
X168290000Y-77895000D02*
X164450000Y-77895000D01*
X168290000Y-79735000D02*
X168290000Y-77895000D01*
X169240000Y-78815000D02*
X168290000Y-78815000D01*
X176390000Y-57955000D02*
X185590000Y-57955000D01*
X176390000Y-66555000D02*
X176390000Y-57955000D01*
X176390000Y-72455000D02*
X176390000Y-71155000D01*
X178390000Y-72455000D02*
X176390000Y-72455000D01*
X184190000Y-72755000D02*
X185890000Y-72755000D01*
X185590000Y-57955000D02*
X185590000Y-72455000D01*
X185590000Y-72455000D02*
X183590000Y-72455000D01*
X185890000Y-72755000D02*
X185890000Y-71455000D01*
X120955000Y-106045000D02*
X121905000Y-106045000D01*
X121905000Y-105125000D02*
X121905000Y-106965000D01*
X121905000Y-106965000D02*
X125745000Y-106965000D01*
X125745000Y-105125000D02*
X121905000Y-105125000D01*
X125745000Y-106965000D02*
X125745000Y-105125000D01*
X126695000Y-106045000D02*
X125745000Y-106045000D01*
X131115000Y-106045000D02*
X132065000Y-106045000D01*
X132065000Y-105125000D02*
X132065000Y-106965000D01*
X132065000Y-106965000D02*
X135905000Y-106965000D01*
X135905000Y-105125000D02*
X132065000Y-105125000D01*
X135905000Y-106965000D02*
X135905000Y-105125000D01*
X136855000Y-106045000D02*
X135905000Y-106045000D01*
X121635000Y-78725000D02*
X121635000Y-82565000D01*
X121635000Y-82565000D02*
X123475000Y-82565000D01*
X122555000Y-77775000D02*
X122555000Y-78725000D01*
X122555000Y-83515000D02*
X122555000Y-82565000D01*
X123475000Y-78725000D02*
X121635000Y-78725000D01*
X123475000Y-82565000D02*
X123475000Y-78725000D01*
X143340000Y-114170000D02*
X143340000Y-116970000D01*
X143340000Y-116970000D02*
X158920000Y-116970000D01*
X156210000Y-116970000D02*
X156210000Y-114170000D01*
X158920000Y-114170000D02*
X143340000Y-114170000D01*
X158920000Y-116970000D02*
X158920000Y-114170000D01*
X163500000Y-88265000D02*
X164450000Y-88265000D01*
X164450000Y-87345000D02*
X164450000Y-89185000D01*
X164450000Y-89185000D02*
X168290000Y-89185000D01*
X168290000Y-87345000D02*
X164450000Y-87345000D01*
X168290000Y-89185000D02*
X168290000Y-87345000D01*
X169240000Y-88265000D02*
X168290000Y-88265000D01*
X183805000Y-96710000D02*
X183805000Y-96554000D01*
X183805000Y-99026000D02*
X183805000Y-98870000D01*
X180572665Y-96711392D02*
G75*
G02*
X183805000Y-96554484I1672335J-1078608D01*
G01*
X181203870Y-96710163D02*
G75*
G02*
X183285961Y-96710000I1041130J-1079837D01*
G01*
X183285961Y-98870000D02*
G75*
G02*
X181203870Y-98869837I-1040961J1080000D01*
G01*
X183805000Y-99025516D02*
G75*
G02*
X180572665Y-98868608I-1560000J1235516D01*
G01*
%LPC*%
D17*
X130735000Y-109165000D03*
X137235000Y-109165000D03*
X130735000Y-113665000D03*
X137235000Y-113665000D03*
D18*
X177165000Y-91440000D03*
D19*
X174625000Y-91440000D03*
D18*
X183515000Y-78740000D03*
D19*
X180975000Y-78740000D03*
D17*
X120650000Y-109165000D03*
X127150000Y-109165000D03*
X120650000Y-113665000D03*
X127150000Y-113665000D03*
D18*
X183515000Y-91440000D03*
D19*
X180975000Y-91440000D03*
D20*
X162560000Y-100865000D03*
D21*
X170180000Y-100865000D03*
D20*
X122555000Y-86360000D03*
D21*
X122555000Y-93980000D03*
D17*
X125730000Y-97100000D03*
X132230000Y-97100000D03*
X125730000Y-101600000D03*
X132230000Y-101600000D03*
D22*
X189973949Y-62338949D03*
D17*
X125730000Y-71450000D03*
X132230000Y-71450000D03*
X125730000Y-75950000D03*
X132230000Y-75950000D03*
D18*
X177165000Y-78740000D03*
D19*
X174625000Y-78740000D03*
D17*
X125730000Y-80000000D03*
X132230000Y-80000000D03*
X125730000Y-84500000D03*
X132230000Y-84500000D03*
D22*
X121393949Y-62338949D03*
D23*
X157480000Y-109855000D03*
D24*
X154940000Y-109855000D03*
X152400000Y-109855000D03*
X149860000Y-109855000D03*
X147320000Y-109855000D03*
X144780000Y-109855000D03*
D20*
X162560000Y-94565000D03*
D21*
X170180000Y-94565000D03*
D20*
X162560000Y-91415000D03*
D21*
X170180000Y-91415000D03*
D25*
X157480000Y-120015000D03*
D26*
X154940000Y-120015000D03*
X152400000Y-120015000D03*
X149860000Y-120015000D03*
X147320000Y-120015000D03*
D22*
X121393949Y-120123949D03*
D18*
X183515000Y-85090000D03*
D19*
X180975000Y-85090000D03*
D20*
X122555000Y-74930000D03*
D21*
X122555000Y-67310000D03*
D17*
X125730000Y-88550000D03*
X132230000Y-88550000D03*
X125730000Y-93050000D03*
X132230000Y-93050000D03*
D18*
X177165000Y-97790000D03*
D19*
X174625000Y-97790000D03*
D20*
X122555000Y-103505000D03*
D21*
X122555000Y-95885000D03*
D20*
X162560000Y-85115000D03*
D21*
X170180000Y-85115000D03*
D20*
X162560000Y-97715000D03*
D21*
X170180000Y-97715000D03*
D25*
X180340000Y-120015000D03*
D26*
X177800000Y-120015000D03*
X175260000Y-120015000D03*
X172720000Y-120015000D03*
X170180000Y-120015000D03*
D23*
X187325000Y-107325000D03*
D24*
X184785000Y-107325000D03*
X182245000Y-107325000D03*
X179705000Y-107325000D03*
X177165000Y-107325000D03*
X174625000Y-107325000D03*
X172085000Y-107325000D03*
X169545000Y-107325000D03*
X167005000Y-107325000D03*
X164465000Y-107325000D03*
X164465000Y-114945000D03*
X167005000Y-114945000D03*
X169545000Y-114945000D03*
X172085000Y-114945000D03*
X174625000Y-114945000D03*
X177165000Y-114945000D03*
X179705000Y-114945000D03*
X182245000Y-114945000D03*
X184785000Y-114945000D03*
X187325000Y-114945000D03*
D20*
X162560000Y-81965000D03*
D21*
X170180000Y-81965000D03*
D27*
X147320000Y-81280000D03*
D28*
X147320000Y-83820000D03*
X147320000Y-86360000D03*
X147320000Y-88900000D03*
X147320000Y-91440000D03*
X147320000Y-93980000D03*
X147320000Y-96520000D03*
X147320000Y-99060000D03*
X154940000Y-99060000D03*
X154940000Y-96520000D03*
X154940000Y-93980000D03*
X154940000Y-91440000D03*
X154940000Y-88900000D03*
X154940000Y-86360000D03*
X154940000Y-83820000D03*
X154940000Y-81280000D03*
D18*
X177165000Y-85090000D03*
D19*
X174625000Y-85090000D03*
D20*
X162560000Y-78815000D03*
D21*
X170180000Y-78815000D03*
D29*
X180990000Y-71755000D03*
D30*
X180990000Y-65455000D03*
D31*
X176190000Y-68855000D03*
D20*
X127635000Y-106045000D03*
D21*
X120015000Y-106045000D03*
D20*
X130175000Y-106045000D03*
D21*
X137795000Y-106045000D03*
D20*
X122555000Y-76835000D03*
D21*
X122555000Y-84455000D03*
D23*
X157480000Y-115570000D03*
D24*
X154940000Y-115570000D03*
X152400000Y-115570000D03*
X149860000Y-115570000D03*
X147320000Y-115570000D03*
X144780000Y-115570000D03*
D20*
X162560000Y-88265000D03*
D21*
X170180000Y-88265000D03*
D22*
X189973949Y-120123949D03*
D18*
X183515000Y-97790000D03*
D19*
X180975000Y-97790000D03*
%LPD*%
M02*
