%TF.GenerationSoftware,KiCad,Pcbnew,8.0.3*%
%TF.CreationDate,2024-12-06T19:43:15+13:00*%
%TF.ProjectId,DS8641N_tester,44533836-3431-44e5-9f74-65737465722e,rev?*%
%TF.SameCoordinates,Original*%
%TF.FileFunction,Drillmap*%
%TF.FilePolarity,Positive*%
%FSLAX45Y45*%
G04 Gerber Fmt 4.5, Leading zero omitted, Abs format (unit mm)*
G04 Created by KiCad (PCBNEW 8.0.3) date 2024-12-06 19:43:15*
%MOMM*%
%LPD*%
G01*
G04 APERTURE LIST*
%ADD10C,0.050000*%
%ADD11C,0.200000*%
%ADD12C,0.100000*%
%ADD13C,0.110000*%
G04 APERTURE END LIST*
D10*
X11758395Y-12139395D02*
X11758395Y-6106895D01*
X19124395Y-5852895D02*
G75*
G02*
X19378385Y-6106895I-5J-253995D01*
G01*
X12012395Y-5852895D02*
X19124395Y-5852895D01*
X19378395Y-6106895D02*
X19378395Y-12139395D01*
X19378395Y-12139395D02*
G75*
G02*
X19124395Y-12393395I-254005J5D01*
G01*
X19124395Y-12393395D02*
X12012395Y-12393395D01*
X12012395Y-12393395D02*
G75*
G02*
X11758385Y-12139395I-5J254005D01*
G01*
X11758395Y-6106895D02*
G75*
G02*
X12012395Y-5852895I253995J5D01*
G01*
D11*
D12*
X12220500Y-6696000D02*
X12290500Y-6766000D01*
X12290500Y-6696000D02*
X12220500Y-6766000D01*
X12220500Y-7458000D02*
X12290500Y-7528000D01*
X12290500Y-7458000D02*
X12220500Y-7528000D01*
X12220500Y-7648500D02*
X12290500Y-7718500D01*
X12290500Y-7648500D02*
X12220500Y-7718500D01*
X12220500Y-8410500D02*
X12290500Y-8480500D01*
X12290500Y-8410500D02*
X12220500Y-8480500D01*
X12220500Y-8601000D02*
X12290500Y-8671000D01*
X12290500Y-8601000D02*
X12220500Y-8671000D01*
X12220500Y-9363000D02*
X12290500Y-9433000D01*
X12290500Y-9363000D02*
X12220500Y-9433000D01*
X12220500Y-9553500D02*
X12290500Y-9623500D01*
X12290500Y-9553500D02*
X12220500Y-9623500D01*
X12220500Y-10315500D02*
X12290500Y-10385500D01*
X12290500Y-10315500D02*
X12220500Y-10385500D01*
X16221000Y-7846500D02*
X16291000Y-7916500D01*
X16291000Y-7846500D02*
X16221000Y-7916500D01*
X16221000Y-8161500D02*
X16291000Y-8231500D01*
X16291000Y-8161500D02*
X16221000Y-8231500D01*
X16221000Y-8476500D02*
X16291000Y-8546500D01*
X16291000Y-8476500D02*
X16221000Y-8546500D01*
X16221000Y-8791500D02*
X16291000Y-8861500D01*
X16291000Y-8791500D02*
X16221000Y-8861500D01*
X16221000Y-9106500D02*
X16291000Y-9176500D01*
X16291000Y-9106500D02*
X16221000Y-9176500D01*
X16221000Y-9421500D02*
X16291000Y-9491500D01*
X16291000Y-9421500D02*
X16221000Y-9491500D01*
X16221000Y-9736500D02*
X16291000Y-9806500D01*
X16291000Y-9736500D02*
X16221000Y-9806500D01*
X16221000Y-10051500D02*
X16291000Y-10121500D01*
X16291000Y-10051500D02*
X16221000Y-10121500D01*
X16983000Y-7846500D02*
X17053000Y-7916500D01*
X17053000Y-7846500D02*
X16983000Y-7916500D01*
X16983000Y-8161500D02*
X17053000Y-8231500D01*
X17053000Y-8161500D02*
X16983000Y-8231500D01*
X16983000Y-8476500D02*
X17053000Y-8546500D01*
X17053000Y-8476500D02*
X16983000Y-8546500D01*
X16983000Y-8791500D02*
X17053000Y-8861500D01*
X17053000Y-8791500D02*
X16983000Y-8861500D01*
X16983000Y-9106500D02*
X17053000Y-9176500D01*
X17053000Y-9106500D02*
X16983000Y-9176500D01*
X16983000Y-9421500D02*
X17053000Y-9491500D01*
X17053000Y-9421500D02*
X16983000Y-9491500D01*
X16983000Y-9736500D02*
X17053000Y-9806500D01*
X17053000Y-9736500D02*
X16983000Y-9806500D01*
X16983000Y-10051500D02*
X17053000Y-10121500D01*
X17053000Y-10051500D02*
X16983000Y-10121500D01*
X14518000Y-10985500D02*
G75*
G02*
X14438000Y-10985500I-40000J0D01*
G01*
X14438000Y-10985500D02*
G75*
G02*
X14518000Y-10985500I40000J0D01*
G01*
X14518000Y-11557000D02*
G75*
G02*
X14438000Y-11557000I-40000J0D01*
G01*
X14438000Y-11557000D02*
G75*
G02*
X14518000Y-11557000I40000J0D01*
G01*
X14772000Y-10985500D02*
G75*
G02*
X14692000Y-10985500I-40000J0D01*
G01*
X14692000Y-10985500D02*
G75*
G02*
X14772000Y-10985500I40000J0D01*
G01*
X14772000Y-11557000D02*
G75*
G02*
X14692000Y-11557000I-40000J0D01*
G01*
X14692000Y-11557000D02*
G75*
G02*
X14772000Y-11557000I40000J0D01*
G01*
X15026000Y-10985500D02*
G75*
G02*
X14946000Y-10985500I-40000J0D01*
G01*
X14946000Y-10985500D02*
G75*
G02*
X15026000Y-10985500I40000J0D01*
G01*
X15026000Y-11557000D02*
G75*
G02*
X14946000Y-11557000I-40000J0D01*
G01*
X14946000Y-11557000D02*
G75*
G02*
X15026000Y-11557000I40000J0D01*
G01*
X15280000Y-10985500D02*
G75*
G02*
X15200000Y-10985500I-40000J0D01*
G01*
X15200000Y-10985500D02*
G75*
G02*
X15280000Y-10985500I40000J0D01*
G01*
X15280000Y-11557000D02*
G75*
G02*
X15200000Y-11557000I-40000J0D01*
G01*
X15200000Y-11557000D02*
G75*
G02*
X15280000Y-11557000I40000J0D01*
G01*
X15534000Y-10985500D02*
G75*
G02*
X15454000Y-10985500I-40000J0D01*
G01*
X15454000Y-10985500D02*
G75*
G02*
X15534000Y-10985500I40000J0D01*
G01*
X15534000Y-11557000D02*
G75*
G02*
X15454000Y-11557000I-40000J0D01*
G01*
X15454000Y-11557000D02*
G75*
G02*
X15534000Y-11557000I40000J0D01*
G01*
X15788000Y-10985500D02*
G75*
G02*
X15708000Y-10985500I-40000J0D01*
G01*
X15708000Y-10985500D02*
G75*
G02*
X15788000Y-10985500I40000J0D01*
G01*
X15788000Y-11557000D02*
G75*
G02*
X15708000Y-11557000I-40000J0D01*
G01*
X15708000Y-11557000D02*
G75*
G02*
X15788000Y-11557000I40000J0D01*
G01*
X16486500Y-10732500D02*
G75*
G02*
X16406500Y-10732500I-40000J0D01*
G01*
X16406500Y-10732500D02*
G75*
G02*
X16486500Y-10732500I40000J0D01*
G01*
X16486500Y-11494500D02*
G75*
G02*
X16406500Y-11494500I-40000J0D01*
G01*
X16406500Y-11494500D02*
G75*
G02*
X16486500Y-11494500I40000J0D01*
G01*
X16740500Y-10732500D02*
G75*
G02*
X16660500Y-10732500I-40000J0D01*
G01*
X16660500Y-10732500D02*
G75*
G02*
X16740500Y-10732500I40000J0D01*
G01*
X16740500Y-11494500D02*
G75*
G02*
X16660500Y-11494500I-40000J0D01*
G01*
X16660500Y-11494500D02*
G75*
G02*
X16740500Y-11494500I40000J0D01*
G01*
X16994500Y-10732500D02*
G75*
G02*
X16914500Y-10732500I-40000J0D01*
G01*
X16914500Y-10732500D02*
G75*
G02*
X16994500Y-10732500I40000J0D01*
G01*
X16994500Y-11494500D02*
G75*
G02*
X16914500Y-11494500I-40000J0D01*
G01*
X16914500Y-11494500D02*
G75*
G02*
X16994500Y-11494500I40000J0D01*
G01*
X17248500Y-10732500D02*
G75*
G02*
X17168500Y-10732500I-40000J0D01*
G01*
X17168500Y-10732500D02*
G75*
G02*
X17248500Y-10732500I40000J0D01*
G01*
X17248500Y-11494500D02*
G75*
G02*
X17168500Y-11494500I-40000J0D01*
G01*
X17168500Y-11494500D02*
G75*
G02*
X17248500Y-11494500I40000J0D01*
G01*
X17502500Y-10732500D02*
G75*
G02*
X17422500Y-10732500I-40000J0D01*
G01*
X17422500Y-10732500D02*
G75*
G02*
X17502500Y-10732500I40000J0D01*
G01*
X17502500Y-11494500D02*
G75*
G02*
X17422500Y-11494500I-40000J0D01*
G01*
X17422500Y-11494500D02*
G75*
G02*
X17502500Y-11494500I40000J0D01*
G01*
X17756500Y-10732500D02*
G75*
G02*
X17676500Y-10732500I-40000J0D01*
G01*
X17676500Y-10732500D02*
G75*
G02*
X17756500Y-10732500I40000J0D01*
G01*
X17756500Y-11494500D02*
G75*
G02*
X17676500Y-11494500I-40000J0D01*
G01*
X17676500Y-11494500D02*
G75*
G02*
X17756500Y-11494500I40000J0D01*
G01*
X18010500Y-10732500D02*
G75*
G02*
X17930500Y-10732500I-40000J0D01*
G01*
X17930500Y-10732500D02*
G75*
G02*
X18010500Y-10732500I40000J0D01*
G01*
X18010500Y-11494500D02*
G75*
G02*
X17930500Y-11494500I-40000J0D01*
G01*
X17930500Y-11494500D02*
G75*
G02*
X18010500Y-11494500I40000J0D01*
G01*
X18264500Y-10732500D02*
G75*
G02*
X18184500Y-10732500I-40000J0D01*
G01*
X18184500Y-10732500D02*
G75*
G02*
X18264500Y-10732500I40000J0D01*
G01*
X18264500Y-11494500D02*
G75*
G02*
X18184500Y-11494500I-40000J0D01*
G01*
X18184500Y-11494500D02*
G75*
G02*
X18264500Y-11494500I40000J0D01*
G01*
X18518500Y-10732500D02*
G75*
G02*
X18438500Y-10732500I-40000J0D01*
G01*
X18438500Y-10732500D02*
G75*
G02*
X18518500Y-10732500I40000J0D01*
G01*
X18518500Y-11494500D02*
G75*
G02*
X18438500Y-11494500I-40000J0D01*
G01*
X18438500Y-11494500D02*
G75*
G02*
X18518500Y-11494500I40000J0D01*
G01*
X18772500Y-10732500D02*
G75*
G02*
X18692500Y-10732500I-40000J0D01*
G01*
X18692500Y-10732500D02*
G75*
G02*
X18772500Y-10732500I40000J0D01*
G01*
X18772500Y-11494500D02*
G75*
G02*
X18692500Y-11494500I-40000J0D01*
G01*
X18692500Y-11494500D02*
G75*
G02*
X18772500Y-11494500I40000J0D01*
G01*
X17462500Y-7829000D02*
X17462500Y-7919000D01*
X17417500Y-7874000D02*
X17507500Y-7874000D01*
X17462500Y-8464000D02*
X17462500Y-8554000D01*
X17417500Y-8509000D02*
X17507500Y-8509000D01*
X17462500Y-9099000D02*
X17462500Y-9189000D01*
X17417500Y-9144000D02*
X17507500Y-9144000D01*
X17462500Y-9734000D02*
X17462500Y-9824000D01*
X17417500Y-9779000D02*
X17507500Y-9779000D01*
X17716500Y-7829000D02*
X17716500Y-7919000D01*
X17671500Y-7874000D02*
X17761500Y-7874000D01*
X17716500Y-8464000D02*
X17716500Y-8554000D01*
X17671500Y-8509000D02*
X17761500Y-8509000D01*
X17716500Y-9099000D02*
X17716500Y-9189000D01*
X17671500Y-9144000D02*
X17761500Y-9144000D01*
X17716500Y-9734000D02*
X17716500Y-9824000D01*
X17671500Y-9779000D02*
X17761500Y-9779000D01*
X18097500Y-7829000D02*
X18097500Y-7919000D01*
X18052500Y-7874000D02*
X18142500Y-7874000D01*
X18097500Y-8464000D02*
X18097500Y-8554000D01*
X18052500Y-8509000D02*
X18142500Y-8509000D01*
X18097500Y-9099000D02*
X18097500Y-9189000D01*
X18052500Y-9144000D02*
X18142500Y-9144000D01*
X18097500Y-9734000D02*
X18097500Y-9824000D01*
X18052500Y-9779000D02*
X18142500Y-9779000D01*
X18351500Y-7829000D02*
X18351500Y-7919000D01*
X18306500Y-7874000D02*
X18396500Y-7874000D01*
X18351500Y-8464000D02*
X18351500Y-8554000D01*
X18306500Y-8509000D02*
X18396500Y-8509000D01*
X18351500Y-9099000D02*
X18351500Y-9189000D01*
X18306500Y-9144000D02*
X18396500Y-9144000D01*
X18351500Y-9734000D02*
X18351500Y-9824000D01*
X18306500Y-9779000D02*
X18396500Y-9779000D01*
X14767356Y-8163356D02*
X14767356Y-8092644D01*
X14696644Y-8092644D01*
X14696644Y-8163356D01*
X14767356Y-8163356D01*
X14767356Y-8417356D02*
X14767356Y-8346644D01*
X14696644Y-8346644D01*
X14696644Y-8417356D01*
X14767356Y-8417356D01*
X14767356Y-8671356D02*
X14767356Y-8600644D01*
X14696644Y-8600644D01*
X14696644Y-8671356D01*
X14767356Y-8671356D01*
X14767356Y-8925356D02*
X14767356Y-8854644D01*
X14696644Y-8854644D01*
X14696644Y-8925356D01*
X14767356Y-8925356D01*
X14767356Y-9179356D02*
X14767356Y-9108644D01*
X14696644Y-9108644D01*
X14696644Y-9179356D01*
X14767356Y-9179356D01*
X14767356Y-9433356D02*
X14767356Y-9362644D01*
X14696644Y-9362644D01*
X14696644Y-9433356D01*
X14767356Y-9433356D01*
X14767356Y-9687356D02*
X14767356Y-9616644D01*
X14696644Y-9616644D01*
X14696644Y-9687356D01*
X14767356Y-9687356D01*
X14767356Y-9941356D02*
X14767356Y-9870644D01*
X14696644Y-9870644D01*
X14696644Y-9941356D01*
X14767356Y-9941356D01*
X14767356Y-12036856D02*
X14767356Y-11966144D01*
X14696644Y-11966144D01*
X14696644Y-12036856D01*
X14767356Y-12036856D01*
X15021356Y-12036856D02*
X15021356Y-11966144D01*
X14950644Y-11966144D01*
X14950644Y-12036856D01*
X15021356Y-12036856D01*
X15275356Y-12036856D02*
X15275356Y-11966144D01*
X15204644Y-11966144D01*
X15204644Y-12036856D01*
X15275356Y-12036856D01*
X15529356Y-8163356D02*
X15529356Y-8092644D01*
X15458644Y-8092644D01*
X15458644Y-8163356D01*
X15529356Y-8163356D01*
X15529356Y-8417356D02*
X15529356Y-8346644D01*
X15458644Y-8346644D01*
X15458644Y-8417356D01*
X15529356Y-8417356D01*
X15529356Y-8671356D02*
X15529356Y-8600644D01*
X15458644Y-8600644D01*
X15458644Y-8671356D01*
X15529356Y-8671356D01*
X15529356Y-8925356D02*
X15529356Y-8854644D01*
X15458644Y-8854644D01*
X15458644Y-8925356D01*
X15529356Y-8925356D01*
X15529356Y-9179356D02*
X15529356Y-9108644D01*
X15458644Y-9108644D01*
X15458644Y-9179356D01*
X15529356Y-9179356D01*
X15529356Y-9433356D02*
X15529356Y-9362644D01*
X15458644Y-9362644D01*
X15458644Y-9433356D01*
X15529356Y-9433356D01*
X15529356Y-9687356D02*
X15529356Y-9616644D01*
X15458644Y-9616644D01*
X15458644Y-9687356D01*
X15529356Y-9687356D01*
X15529356Y-9941356D02*
X15529356Y-9870644D01*
X15458644Y-9870644D01*
X15458644Y-9941356D01*
X15529356Y-9941356D01*
X15529356Y-12036856D02*
X15529356Y-11966144D01*
X15458644Y-11966144D01*
X15458644Y-12036856D01*
X15529356Y-12036856D01*
X15783356Y-12036856D02*
X15783356Y-11966144D01*
X15712644Y-11966144D01*
X15712644Y-12036856D01*
X15783356Y-12036856D01*
X17053356Y-12036856D02*
X17053356Y-11966144D01*
X16982644Y-11966144D01*
X16982644Y-12036856D01*
X17053356Y-12036856D01*
X17307356Y-12036856D02*
X17307356Y-11966144D01*
X17236644Y-11966144D01*
X17236644Y-12036856D01*
X17307356Y-12036856D01*
X17561356Y-12036856D02*
X17561356Y-11966144D01*
X17490644Y-11966144D01*
X17490644Y-12036856D01*
X17561356Y-12036856D01*
X17654356Y-6920856D02*
X17654356Y-6850144D01*
X17583644Y-6850144D01*
X17583644Y-6920856D01*
X17654356Y-6920856D01*
X17669000Y-6995500D02*
X17669000Y-6775500D01*
X17569000Y-6775500D02*
G75*
G02*
X17669000Y-6775500I50000J0D01*
G01*
X17569000Y-6775500D02*
X17569000Y-6995500D01*
X17569000Y-6995500D02*
G75*
G03*
X17669000Y-6995500I50000J0D01*
G01*
X17815356Y-12036856D02*
X17815356Y-11966144D01*
X17744644Y-11966144D01*
X17744644Y-12036856D01*
X17815356Y-12036856D01*
X18069356Y-12036856D02*
X18069356Y-11966144D01*
X17998644Y-11966144D01*
X17998644Y-12036856D01*
X18069356Y-12036856D01*
X18134356Y-6580856D02*
X18134356Y-6510144D01*
X18063644Y-6510144D01*
X18063644Y-6580856D01*
X18134356Y-6580856D01*
X18209000Y-6495500D02*
X17989000Y-6495500D01*
X17989000Y-6595500D02*
G75*
G02*
X17989000Y-6495500I0J50000D01*
G01*
X17989000Y-6595500D02*
X18209000Y-6595500D01*
X18209000Y-6595500D02*
G75*
G03*
X18209000Y-6495500I0J50000D01*
G01*
X18134356Y-7210856D02*
X18134356Y-7140144D01*
X18063644Y-7140144D01*
X18063644Y-7210856D01*
X18134356Y-7210856D01*
X18229000Y-7125500D02*
X17969000Y-7125500D01*
X17969000Y-7225500D02*
G75*
G02*
X17969000Y-7125500I0J50000D01*
G01*
X17969000Y-7225500D02*
X18229000Y-7225500D01*
X18229000Y-7225500D02*
G75*
G03*
X18229000Y-7125500I0J50000D01*
G01*
D13*
X12065000Y-10971500D02*
X12120000Y-10916500D01*
X12065000Y-10861500D01*
X12010000Y-10916500D01*
X12065000Y-10971500D01*
X12065000Y-11421500D02*
X12120000Y-11366500D01*
X12065000Y-11311500D01*
X12010000Y-11366500D01*
X12065000Y-11421500D01*
X12573000Y-7200000D02*
X12628000Y-7145000D01*
X12573000Y-7090000D01*
X12518000Y-7145000D01*
X12573000Y-7200000D01*
X12573000Y-7650000D02*
X12628000Y-7595000D01*
X12573000Y-7540000D01*
X12518000Y-7595000D01*
X12573000Y-7650000D01*
X12573000Y-8055000D02*
X12628000Y-8000000D01*
X12573000Y-7945000D01*
X12518000Y-8000000D01*
X12573000Y-8055000D01*
X12573000Y-8505000D02*
X12628000Y-8450000D01*
X12573000Y-8395000D01*
X12518000Y-8450000D01*
X12573000Y-8505000D01*
X12573000Y-8910000D02*
X12628000Y-8855000D01*
X12573000Y-8800000D01*
X12518000Y-8855000D01*
X12573000Y-8910000D01*
X12573000Y-9360000D02*
X12628000Y-9305000D01*
X12573000Y-9250000D01*
X12518000Y-9305000D01*
X12573000Y-9360000D01*
X12573000Y-9765000D02*
X12628000Y-9710000D01*
X12573000Y-9655000D01*
X12518000Y-9710000D01*
X12573000Y-9765000D01*
X12573000Y-10215000D02*
X12628000Y-10160000D01*
X12573000Y-10105000D01*
X12518000Y-10160000D01*
X12573000Y-10215000D01*
X12715000Y-10971500D02*
X12770000Y-10916500D01*
X12715000Y-10861500D01*
X12660000Y-10916500D01*
X12715000Y-10971500D01*
X12715000Y-11421500D02*
X12770000Y-11366500D01*
X12715000Y-11311500D01*
X12660000Y-11366500D01*
X12715000Y-11421500D01*
X13073500Y-10971500D02*
X13128500Y-10916500D01*
X13073500Y-10861500D01*
X13018500Y-10916500D01*
X13073500Y-10971500D01*
X13073500Y-11421500D02*
X13128500Y-11366500D01*
X13073500Y-11311500D01*
X13018500Y-11366500D01*
X13073500Y-11421500D01*
X13223000Y-7200000D02*
X13278000Y-7145000D01*
X13223000Y-7090000D01*
X13168000Y-7145000D01*
X13223000Y-7200000D01*
X13223000Y-7650000D02*
X13278000Y-7595000D01*
X13223000Y-7540000D01*
X13168000Y-7595000D01*
X13223000Y-7650000D01*
X13223000Y-8055000D02*
X13278000Y-8000000D01*
X13223000Y-7945000D01*
X13168000Y-8000000D01*
X13223000Y-8055000D01*
X13223000Y-8505000D02*
X13278000Y-8450000D01*
X13223000Y-8395000D01*
X13168000Y-8450000D01*
X13223000Y-8505000D01*
X13223000Y-8910000D02*
X13278000Y-8855000D01*
X13223000Y-8800000D01*
X13168000Y-8855000D01*
X13223000Y-8910000D01*
X13223000Y-9360000D02*
X13278000Y-9305000D01*
X13223000Y-9250000D01*
X13168000Y-9305000D01*
X13223000Y-9360000D01*
X13223000Y-9765000D02*
X13278000Y-9710000D01*
X13223000Y-9655000D01*
X13168000Y-9710000D01*
X13223000Y-9765000D01*
X13223000Y-10215000D02*
X13278000Y-10160000D01*
X13223000Y-10105000D01*
X13168000Y-10160000D01*
X13223000Y-10215000D01*
X13723500Y-10971500D02*
X13778500Y-10916500D01*
X13723500Y-10861500D01*
X13668500Y-10916500D01*
X13723500Y-10971500D01*
X13723500Y-11421500D02*
X13778500Y-11366500D01*
X13723500Y-11311500D01*
X13668500Y-11366500D01*
X13723500Y-11421500D01*
D11*
X12016672Y-12707379D02*
X12016672Y-12507379D01*
X12016672Y-12507379D02*
X12064291Y-12507379D01*
X12064291Y-12507379D02*
X12092862Y-12516902D01*
X12092862Y-12516902D02*
X12111910Y-12535950D01*
X12111910Y-12535950D02*
X12121434Y-12554998D01*
X12121434Y-12554998D02*
X12130957Y-12593093D01*
X12130957Y-12593093D02*
X12130957Y-12621664D01*
X12130957Y-12621664D02*
X12121434Y-12659760D01*
X12121434Y-12659760D02*
X12111910Y-12678807D01*
X12111910Y-12678807D02*
X12092862Y-12697855D01*
X12092862Y-12697855D02*
X12064291Y-12707379D01*
X12064291Y-12707379D02*
X12016672Y-12707379D01*
X12216672Y-12707379D02*
X12216672Y-12574045D01*
X12216672Y-12612141D02*
X12226195Y-12593093D01*
X12226195Y-12593093D02*
X12235719Y-12583569D01*
X12235719Y-12583569D02*
X12254767Y-12574045D01*
X12254767Y-12574045D02*
X12273815Y-12574045D01*
X12340481Y-12707379D02*
X12340481Y-12574045D01*
X12340481Y-12507379D02*
X12330957Y-12516902D01*
X12330957Y-12516902D02*
X12340481Y-12526426D01*
X12340481Y-12526426D02*
X12350005Y-12516902D01*
X12350005Y-12516902D02*
X12340481Y-12507379D01*
X12340481Y-12507379D02*
X12340481Y-12526426D01*
X12464291Y-12707379D02*
X12445243Y-12697855D01*
X12445243Y-12697855D02*
X12435719Y-12678807D01*
X12435719Y-12678807D02*
X12435719Y-12507379D01*
X12569053Y-12707379D02*
X12550005Y-12697855D01*
X12550005Y-12697855D02*
X12540481Y-12678807D01*
X12540481Y-12678807D02*
X12540481Y-12507379D01*
X12797624Y-12707379D02*
X12797624Y-12507379D01*
X12797624Y-12507379D02*
X12864291Y-12650236D01*
X12864291Y-12650236D02*
X12930957Y-12507379D01*
X12930957Y-12507379D02*
X12930957Y-12707379D01*
X13111910Y-12707379D02*
X13111910Y-12602617D01*
X13111910Y-12602617D02*
X13102386Y-12583569D01*
X13102386Y-12583569D02*
X13083338Y-12574045D01*
X13083338Y-12574045D02*
X13045243Y-12574045D01*
X13045243Y-12574045D02*
X13026195Y-12583569D01*
X13111910Y-12697855D02*
X13092862Y-12707379D01*
X13092862Y-12707379D02*
X13045243Y-12707379D01*
X13045243Y-12707379D02*
X13026195Y-12697855D01*
X13026195Y-12697855D02*
X13016672Y-12678807D01*
X13016672Y-12678807D02*
X13016672Y-12659760D01*
X13016672Y-12659760D02*
X13026195Y-12640712D01*
X13026195Y-12640712D02*
X13045243Y-12631188D01*
X13045243Y-12631188D02*
X13092862Y-12631188D01*
X13092862Y-12631188D02*
X13111910Y-12621664D01*
X13207148Y-12574045D02*
X13207148Y-12774045D01*
X13207148Y-12583569D02*
X13226195Y-12574045D01*
X13226195Y-12574045D02*
X13264291Y-12574045D01*
X13264291Y-12574045D02*
X13283338Y-12583569D01*
X13283338Y-12583569D02*
X13292862Y-12593093D01*
X13292862Y-12593093D02*
X13302386Y-12612141D01*
X13302386Y-12612141D02*
X13302386Y-12669283D01*
X13302386Y-12669283D02*
X13292862Y-12688331D01*
X13292862Y-12688331D02*
X13283338Y-12697855D01*
X13283338Y-12697855D02*
X13264291Y-12707379D01*
X13264291Y-12707379D02*
X13226195Y-12707379D01*
X13226195Y-12707379D02*
X13207148Y-12697855D01*
X13388100Y-12688331D02*
X13397624Y-12697855D01*
X13397624Y-12697855D02*
X13388100Y-12707379D01*
X13388100Y-12707379D02*
X13378576Y-12697855D01*
X13378576Y-12697855D02*
X13388100Y-12688331D01*
X13388100Y-12688331D02*
X13388100Y-12707379D01*
X13388100Y-12583569D02*
X13397624Y-12593093D01*
X13397624Y-12593093D02*
X13388100Y-12602617D01*
X13388100Y-12602617D02*
X13378576Y-12593093D01*
X13378576Y-12593093D02*
X13388100Y-12583569D01*
X13388100Y-12583569D02*
X13388100Y-12602617D01*
D12*
X11685895Y-13000895D02*
X11755895Y-13070895D01*
X11755895Y-13000895D02*
X11685895Y-13070895D01*
D11*
X12054767Y-12927379D02*
X12073815Y-12927379D01*
X12073815Y-12927379D02*
X12092862Y-12936902D01*
X12092862Y-12936902D02*
X12102386Y-12946426D01*
X12102386Y-12946426D02*
X12111910Y-12965474D01*
X12111910Y-12965474D02*
X12121434Y-13003569D01*
X12121434Y-13003569D02*
X12121434Y-13051188D01*
X12121434Y-13051188D02*
X12111910Y-13089283D01*
X12111910Y-13089283D02*
X12102386Y-13108331D01*
X12102386Y-13108331D02*
X12092862Y-13117855D01*
X12092862Y-13117855D02*
X12073815Y-13127379D01*
X12073815Y-13127379D02*
X12054767Y-13127379D01*
X12054767Y-13127379D02*
X12035719Y-13117855D01*
X12035719Y-13117855D02*
X12026195Y-13108331D01*
X12026195Y-13108331D02*
X12016672Y-13089283D01*
X12016672Y-13089283D02*
X12007148Y-13051188D01*
X12007148Y-13051188D02*
X12007148Y-13003569D01*
X12007148Y-13003569D02*
X12016672Y-12965474D01*
X12016672Y-12965474D02*
X12026195Y-12946426D01*
X12026195Y-12946426D02*
X12035719Y-12936902D01*
X12035719Y-12936902D02*
X12054767Y-12927379D01*
X12207148Y-13108331D02*
X12216672Y-13117855D01*
X12216672Y-13117855D02*
X12207148Y-13127379D01*
X12207148Y-13127379D02*
X12197624Y-13117855D01*
X12197624Y-13117855D02*
X12207148Y-13108331D01*
X12207148Y-13108331D02*
X12207148Y-13127379D01*
X12283338Y-12927379D02*
X12416672Y-12927379D01*
X12416672Y-12927379D02*
X12330957Y-13127379D01*
X12530957Y-12927379D02*
X12550005Y-12927379D01*
X12550005Y-12927379D02*
X12569053Y-12936902D01*
X12569053Y-12936902D02*
X12578576Y-12946426D01*
X12578576Y-12946426D02*
X12588100Y-12965474D01*
X12588100Y-12965474D02*
X12597624Y-13003569D01*
X12597624Y-13003569D02*
X12597624Y-13051188D01*
X12597624Y-13051188D02*
X12588100Y-13089283D01*
X12588100Y-13089283D02*
X12578576Y-13108331D01*
X12578576Y-13108331D02*
X12569053Y-13117855D01*
X12569053Y-13117855D02*
X12550005Y-13127379D01*
X12550005Y-13127379D02*
X12530957Y-13127379D01*
X12530957Y-13127379D02*
X12511910Y-13117855D01*
X12511910Y-13117855D02*
X12502386Y-13108331D01*
X12502386Y-13108331D02*
X12492862Y-13089283D01*
X12492862Y-13089283D02*
X12483338Y-13051188D01*
X12483338Y-13051188D02*
X12483338Y-13003569D01*
X12483338Y-13003569D02*
X12492862Y-12965474D01*
X12492862Y-12965474D02*
X12502386Y-12946426D01*
X12502386Y-12946426D02*
X12511910Y-12936902D01*
X12511910Y-12936902D02*
X12530957Y-12927379D01*
X12721434Y-12927379D02*
X12740481Y-12927379D01*
X12740481Y-12927379D02*
X12759529Y-12936902D01*
X12759529Y-12936902D02*
X12769053Y-12946426D01*
X12769053Y-12946426D02*
X12778576Y-12965474D01*
X12778576Y-12965474D02*
X12788100Y-13003569D01*
X12788100Y-13003569D02*
X12788100Y-13051188D01*
X12788100Y-13051188D02*
X12778576Y-13089283D01*
X12778576Y-13089283D02*
X12769053Y-13108331D01*
X12769053Y-13108331D02*
X12759529Y-13117855D01*
X12759529Y-13117855D02*
X12740481Y-13127379D01*
X12740481Y-13127379D02*
X12721434Y-13127379D01*
X12721434Y-13127379D02*
X12702386Y-13117855D01*
X12702386Y-13117855D02*
X12692862Y-13108331D01*
X12692862Y-13108331D02*
X12683338Y-13089283D01*
X12683338Y-13089283D02*
X12673815Y-13051188D01*
X12673815Y-13051188D02*
X12673815Y-13003569D01*
X12673815Y-13003569D02*
X12683338Y-12965474D01*
X12683338Y-12965474D02*
X12692862Y-12946426D01*
X12692862Y-12946426D02*
X12702386Y-12936902D01*
X12702386Y-12936902D02*
X12721434Y-12927379D01*
X12873815Y-13127379D02*
X12873815Y-12994045D01*
X12873815Y-13013093D02*
X12883338Y-13003569D01*
X12883338Y-13003569D02*
X12902386Y-12994045D01*
X12902386Y-12994045D02*
X12930957Y-12994045D01*
X12930957Y-12994045D02*
X12950005Y-13003569D01*
X12950005Y-13003569D02*
X12959529Y-13022617D01*
X12959529Y-13022617D02*
X12959529Y-13127379D01*
X12959529Y-13022617D02*
X12969053Y-13003569D01*
X12969053Y-13003569D02*
X12988100Y-12994045D01*
X12988100Y-12994045D02*
X13016672Y-12994045D01*
X13016672Y-12994045D02*
X13035719Y-13003569D01*
X13035719Y-13003569D02*
X13045243Y-13022617D01*
X13045243Y-13022617D02*
X13045243Y-13127379D01*
X13140481Y-13127379D02*
X13140481Y-12994045D01*
X13140481Y-13013093D02*
X13150005Y-13003569D01*
X13150005Y-13003569D02*
X13169053Y-12994045D01*
X13169053Y-12994045D02*
X13197624Y-12994045D01*
X13197624Y-12994045D02*
X13216672Y-13003569D01*
X13216672Y-13003569D02*
X13226196Y-13022617D01*
X13226196Y-13022617D02*
X13226196Y-13127379D01*
X13226196Y-13022617D02*
X13235719Y-13003569D01*
X13235719Y-13003569D02*
X13254767Y-12994045D01*
X13254767Y-12994045D02*
X13283338Y-12994045D01*
X13283338Y-12994045D02*
X13302386Y-13003569D01*
X13302386Y-13003569D02*
X13311910Y-13022617D01*
X13311910Y-13022617D02*
X13311910Y-13127379D01*
X13702386Y-12917855D02*
X13530958Y-13174998D01*
X13959529Y-12927379D02*
X13978577Y-12927379D01*
X13978577Y-12927379D02*
X13997624Y-12936902D01*
X13997624Y-12936902D02*
X14007148Y-12946426D01*
X14007148Y-12946426D02*
X14016672Y-12965474D01*
X14016672Y-12965474D02*
X14026196Y-13003569D01*
X14026196Y-13003569D02*
X14026196Y-13051188D01*
X14026196Y-13051188D02*
X14016672Y-13089283D01*
X14016672Y-13089283D02*
X14007148Y-13108331D01*
X14007148Y-13108331D02*
X13997624Y-13117855D01*
X13997624Y-13117855D02*
X13978577Y-13127379D01*
X13978577Y-13127379D02*
X13959529Y-13127379D01*
X13959529Y-13127379D02*
X13940481Y-13117855D01*
X13940481Y-13117855D02*
X13930958Y-13108331D01*
X13930958Y-13108331D02*
X13921434Y-13089283D01*
X13921434Y-13089283D02*
X13911910Y-13051188D01*
X13911910Y-13051188D02*
X13911910Y-13003569D01*
X13911910Y-13003569D02*
X13921434Y-12965474D01*
X13921434Y-12965474D02*
X13930958Y-12946426D01*
X13930958Y-12946426D02*
X13940481Y-12936902D01*
X13940481Y-12936902D02*
X13959529Y-12927379D01*
X14111910Y-13108331D02*
X14121434Y-13117855D01*
X14121434Y-13117855D02*
X14111910Y-13127379D01*
X14111910Y-13127379D02*
X14102386Y-13117855D01*
X14102386Y-13117855D02*
X14111910Y-13108331D01*
X14111910Y-13108331D02*
X14111910Y-13127379D01*
X14245243Y-12927379D02*
X14264291Y-12927379D01*
X14264291Y-12927379D02*
X14283339Y-12936902D01*
X14283339Y-12936902D02*
X14292862Y-12946426D01*
X14292862Y-12946426D02*
X14302386Y-12965474D01*
X14302386Y-12965474D02*
X14311910Y-13003569D01*
X14311910Y-13003569D02*
X14311910Y-13051188D01*
X14311910Y-13051188D02*
X14302386Y-13089283D01*
X14302386Y-13089283D02*
X14292862Y-13108331D01*
X14292862Y-13108331D02*
X14283339Y-13117855D01*
X14283339Y-13117855D02*
X14264291Y-13127379D01*
X14264291Y-13127379D02*
X14245243Y-13127379D01*
X14245243Y-13127379D02*
X14226196Y-13117855D01*
X14226196Y-13117855D02*
X14216672Y-13108331D01*
X14216672Y-13108331D02*
X14207148Y-13089283D01*
X14207148Y-13089283D02*
X14197624Y-13051188D01*
X14197624Y-13051188D02*
X14197624Y-13003569D01*
X14197624Y-13003569D02*
X14207148Y-12965474D01*
X14207148Y-12965474D02*
X14216672Y-12946426D01*
X14216672Y-12946426D02*
X14226196Y-12936902D01*
X14226196Y-12936902D02*
X14245243Y-12927379D01*
X14388100Y-12946426D02*
X14397624Y-12936902D01*
X14397624Y-12936902D02*
X14416672Y-12927379D01*
X14416672Y-12927379D02*
X14464291Y-12927379D01*
X14464291Y-12927379D02*
X14483339Y-12936902D01*
X14483339Y-12936902D02*
X14492862Y-12946426D01*
X14492862Y-12946426D02*
X14502386Y-12965474D01*
X14502386Y-12965474D02*
X14502386Y-12984521D01*
X14502386Y-12984521D02*
X14492862Y-13013093D01*
X14492862Y-13013093D02*
X14378577Y-13127379D01*
X14378577Y-13127379D02*
X14502386Y-13127379D01*
X14569053Y-12927379D02*
X14702386Y-12927379D01*
X14702386Y-12927379D02*
X14616672Y-13127379D01*
X14864291Y-12927379D02*
X14826196Y-12927379D01*
X14826196Y-12927379D02*
X14807148Y-12936902D01*
X14807148Y-12936902D02*
X14797624Y-12946426D01*
X14797624Y-12946426D02*
X14778577Y-12974998D01*
X14778577Y-12974998D02*
X14769053Y-13013093D01*
X14769053Y-13013093D02*
X14769053Y-13089283D01*
X14769053Y-13089283D02*
X14778577Y-13108331D01*
X14778577Y-13108331D02*
X14788100Y-13117855D01*
X14788100Y-13117855D02*
X14807148Y-13127379D01*
X14807148Y-13127379D02*
X14845243Y-13127379D01*
X14845243Y-13127379D02*
X14864291Y-13117855D01*
X14864291Y-13117855D02*
X14873815Y-13108331D01*
X14873815Y-13108331D02*
X14883339Y-13089283D01*
X14883339Y-13089283D02*
X14883339Y-13041664D01*
X14883339Y-13041664D02*
X14873815Y-13022617D01*
X14873815Y-13022617D02*
X14864291Y-13013093D01*
X14864291Y-13013093D02*
X14845243Y-13003569D01*
X14845243Y-13003569D02*
X14807148Y-13003569D01*
X14807148Y-13003569D02*
X14788100Y-13013093D01*
X14788100Y-13013093D02*
X14778577Y-13022617D01*
X14778577Y-13022617D02*
X14769053Y-13041664D01*
X14959529Y-12927379D02*
X14959529Y-12965474D01*
X15035720Y-12927379D02*
X15035720Y-12965474D01*
X15330958Y-13203569D02*
X15321434Y-13194045D01*
X15321434Y-13194045D02*
X15302386Y-13165474D01*
X15302386Y-13165474D02*
X15292862Y-13146426D01*
X15292862Y-13146426D02*
X15283339Y-13117855D01*
X15283339Y-13117855D02*
X15273815Y-13070236D01*
X15273815Y-13070236D02*
X15273815Y-13032141D01*
X15273815Y-13032141D02*
X15283339Y-12984521D01*
X15283339Y-12984521D02*
X15292862Y-12955950D01*
X15292862Y-12955950D02*
X15302386Y-12936902D01*
X15302386Y-12936902D02*
X15321434Y-12908331D01*
X15321434Y-12908331D02*
X15330958Y-12898807D01*
X15397624Y-12946426D02*
X15407148Y-12936902D01*
X15407148Y-12936902D02*
X15426196Y-12927379D01*
X15426196Y-12927379D02*
X15473815Y-12927379D01*
X15473815Y-12927379D02*
X15492862Y-12936902D01*
X15492862Y-12936902D02*
X15502386Y-12946426D01*
X15502386Y-12946426D02*
X15511910Y-12965474D01*
X15511910Y-12965474D02*
X15511910Y-12984521D01*
X15511910Y-12984521D02*
X15502386Y-13013093D01*
X15502386Y-13013093D02*
X15388101Y-13127379D01*
X15388101Y-13127379D02*
X15511910Y-13127379D01*
X15683339Y-12994045D02*
X15683339Y-13127379D01*
X15635720Y-12917855D02*
X15588101Y-13060712D01*
X15588101Y-13060712D02*
X15711910Y-13060712D01*
X15940482Y-13127379D02*
X15940482Y-12927379D01*
X16026196Y-13127379D02*
X16026196Y-13022617D01*
X16026196Y-13022617D02*
X16016672Y-13003569D01*
X16016672Y-13003569D02*
X15997624Y-12994045D01*
X15997624Y-12994045D02*
X15969053Y-12994045D01*
X15969053Y-12994045D02*
X15950005Y-13003569D01*
X15950005Y-13003569D02*
X15940482Y-13013093D01*
X16150005Y-13127379D02*
X16130958Y-13117855D01*
X16130958Y-13117855D02*
X16121434Y-13108331D01*
X16121434Y-13108331D02*
X16111910Y-13089283D01*
X16111910Y-13089283D02*
X16111910Y-13032141D01*
X16111910Y-13032141D02*
X16121434Y-13013093D01*
X16121434Y-13013093D02*
X16130958Y-13003569D01*
X16130958Y-13003569D02*
X16150005Y-12994045D01*
X16150005Y-12994045D02*
X16178577Y-12994045D01*
X16178577Y-12994045D02*
X16197624Y-13003569D01*
X16197624Y-13003569D02*
X16207148Y-13013093D01*
X16207148Y-13013093D02*
X16216672Y-13032141D01*
X16216672Y-13032141D02*
X16216672Y-13089283D01*
X16216672Y-13089283D02*
X16207148Y-13108331D01*
X16207148Y-13108331D02*
X16197624Y-13117855D01*
X16197624Y-13117855D02*
X16178577Y-13127379D01*
X16178577Y-13127379D02*
X16150005Y-13127379D01*
X16330958Y-13127379D02*
X16311910Y-13117855D01*
X16311910Y-13117855D02*
X16302386Y-13098807D01*
X16302386Y-13098807D02*
X16302386Y-12927379D01*
X16483339Y-13117855D02*
X16464291Y-13127379D01*
X16464291Y-13127379D02*
X16426196Y-13127379D01*
X16426196Y-13127379D02*
X16407148Y-13117855D01*
X16407148Y-13117855D02*
X16397624Y-13098807D01*
X16397624Y-13098807D02*
X16397624Y-13022617D01*
X16397624Y-13022617D02*
X16407148Y-13003569D01*
X16407148Y-13003569D02*
X16426196Y-12994045D01*
X16426196Y-12994045D02*
X16464291Y-12994045D01*
X16464291Y-12994045D02*
X16483339Y-13003569D01*
X16483339Y-13003569D02*
X16492863Y-13022617D01*
X16492863Y-13022617D02*
X16492863Y-13041664D01*
X16492863Y-13041664D02*
X16397624Y-13060712D01*
X16569053Y-13117855D02*
X16588101Y-13127379D01*
X16588101Y-13127379D02*
X16626196Y-13127379D01*
X16626196Y-13127379D02*
X16645244Y-13117855D01*
X16645244Y-13117855D02*
X16654767Y-13098807D01*
X16654767Y-13098807D02*
X16654767Y-13089283D01*
X16654767Y-13089283D02*
X16645244Y-13070236D01*
X16645244Y-13070236D02*
X16626196Y-13060712D01*
X16626196Y-13060712D02*
X16597624Y-13060712D01*
X16597624Y-13060712D02*
X16578577Y-13051188D01*
X16578577Y-13051188D02*
X16569053Y-13032141D01*
X16569053Y-13032141D02*
X16569053Y-13022617D01*
X16569053Y-13022617D02*
X16578577Y-13003569D01*
X16578577Y-13003569D02*
X16597624Y-12994045D01*
X16597624Y-12994045D02*
X16626196Y-12994045D01*
X16626196Y-12994045D02*
X16645244Y-13003569D01*
X16721434Y-13203569D02*
X16730958Y-13194045D01*
X16730958Y-13194045D02*
X16750005Y-13165474D01*
X16750005Y-13165474D02*
X16759529Y-13146426D01*
X16759529Y-13146426D02*
X16769053Y-13117855D01*
X16769053Y-13117855D02*
X16778577Y-13070236D01*
X16778577Y-13070236D02*
X16778577Y-13032141D01*
X16778577Y-13032141D02*
X16769053Y-12984521D01*
X16769053Y-12984521D02*
X16759529Y-12955950D01*
X16759529Y-12955950D02*
X16750005Y-12936902D01*
X16750005Y-12936902D02*
X16730958Y-12908331D01*
X16730958Y-12908331D02*
X16721434Y-12898807D01*
D12*
X11755895Y-13299895D02*
G75*
G02*
X11675895Y-13299895I-40000J0D01*
G01*
X11675895Y-13299895D02*
G75*
G02*
X11755895Y-13299895I40000J0D01*
G01*
D11*
X12054767Y-13191379D02*
X12073815Y-13191379D01*
X12073815Y-13191379D02*
X12092862Y-13200902D01*
X12092862Y-13200902D02*
X12102386Y-13210426D01*
X12102386Y-13210426D02*
X12111910Y-13229474D01*
X12111910Y-13229474D02*
X12121434Y-13267569D01*
X12121434Y-13267569D02*
X12121434Y-13315188D01*
X12121434Y-13315188D02*
X12111910Y-13353283D01*
X12111910Y-13353283D02*
X12102386Y-13372331D01*
X12102386Y-13372331D02*
X12092862Y-13381855D01*
X12092862Y-13381855D02*
X12073815Y-13391379D01*
X12073815Y-13391379D02*
X12054767Y-13391379D01*
X12054767Y-13391379D02*
X12035719Y-13381855D01*
X12035719Y-13381855D02*
X12026195Y-13372331D01*
X12026195Y-13372331D02*
X12016672Y-13353283D01*
X12016672Y-13353283D02*
X12007148Y-13315188D01*
X12007148Y-13315188D02*
X12007148Y-13267569D01*
X12007148Y-13267569D02*
X12016672Y-13229474D01*
X12016672Y-13229474D02*
X12026195Y-13210426D01*
X12026195Y-13210426D02*
X12035719Y-13200902D01*
X12035719Y-13200902D02*
X12054767Y-13191379D01*
X12207148Y-13372331D02*
X12216672Y-13381855D01*
X12216672Y-13381855D02*
X12207148Y-13391379D01*
X12207148Y-13391379D02*
X12197624Y-13381855D01*
X12197624Y-13381855D02*
X12207148Y-13372331D01*
X12207148Y-13372331D02*
X12207148Y-13391379D01*
X12330957Y-13277093D02*
X12311910Y-13267569D01*
X12311910Y-13267569D02*
X12302386Y-13258045D01*
X12302386Y-13258045D02*
X12292862Y-13238998D01*
X12292862Y-13238998D02*
X12292862Y-13229474D01*
X12292862Y-13229474D02*
X12302386Y-13210426D01*
X12302386Y-13210426D02*
X12311910Y-13200902D01*
X12311910Y-13200902D02*
X12330957Y-13191379D01*
X12330957Y-13191379D02*
X12369053Y-13191379D01*
X12369053Y-13191379D02*
X12388100Y-13200902D01*
X12388100Y-13200902D02*
X12397624Y-13210426D01*
X12397624Y-13210426D02*
X12407148Y-13229474D01*
X12407148Y-13229474D02*
X12407148Y-13238998D01*
X12407148Y-13238998D02*
X12397624Y-13258045D01*
X12397624Y-13258045D02*
X12388100Y-13267569D01*
X12388100Y-13267569D02*
X12369053Y-13277093D01*
X12369053Y-13277093D02*
X12330957Y-13277093D01*
X12330957Y-13277093D02*
X12311910Y-13286617D01*
X12311910Y-13286617D02*
X12302386Y-13296141D01*
X12302386Y-13296141D02*
X12292862Y-13315188D01*
X12292862Y-13315188D02*
X12292862Y-13353283D01*
X12292862Y-13353283D02*
X12302386Y-13372331D01*
X12302386Y-13372331D02*
X12311910Y-13381855D01*
X12311910Y-13381855D02*
X12330957Y-13391379D01*
X12330957Y-13391379D02*
X12369053Y-13391379D01*
X12369053Y-13391379D02*
X12388100Y-13381855D01*
X12388100Y-13381855D02*
X12397624Y-13372331D01*
X12397624Y-13372331D02*
X12407148Y-13353283D01*
X12407148Y-13353283D02*
X12407148Y-13315188D01*
X12407148Y-13315188D02*
X12397624Y-13296141D01*
X12397624Y-13296141D02*
X12388100Y-13286617D01*
X12388100Y-13286617D02*
X12369053Y-13277093D01*
X12530957Y-13191379D02*
X12550005Y-13191379D01*
X12550005Y-13191379D02*
X12569053Y-13200902D01*
X12569053Y-13200902D02*
X12578576Y-13210426D01*
X12578576Y-13210426D02*
X12588100Y-13229474D01*
X12588100Y-13229474D02*
X12597624Y-13267569D01*
X12597624Y-13267569D02*
X12597624Y-13315188D01*
X12597624Y-13315188D02*
X12588100Y-13353283D01*
X12588100Y-13353283D02*
X12578576Y-13372331D01*
X12578576Y-13372331D02*
X12569053Y-13381855D01*
X12569053Y-13381855D02*
X12550005Y-13391379D01*
X12550005Y-13391379D02*
X12530957Y-13391379D01*
X12530957Y-13391379D02*
X12511910Y-13381855D01*
X12511910Y-13381855D02*
X12502386Y-13372331D01*
X12502386Y-13372331D02*
X12492862Y-13353283D01*
X12492862Y-13353283D02*
X12483338Y-13315188D01*
X12483338Y-13315188D02*
X12483338Y-13267569D01*
X12483338Y-13267569D02*
X12492862Y-13229474D01*
X12492862Y-13229474D02*
X12502386Y-13210426D01*
X12502386Y-13210426D02*
X12511910Y-13200902D01*
X12511910Y-13200902D02*
X12530957Y-13191379D01*
X12721434Y-13191379D02*
X12740481Y-13191379D01*
X12740481Y-13191379D02*
X12759529Y-13200902D01*
X12759529Y-13200902D02*
X12769053Y-13210426D01*
X12769053Y-13210426D02*
X12778576Y-13229474D01*
X12778576Y-13229474D02*
X12788100Y-13267569D01*
X12788100Y-13267569D02*
X12788100Y-13315188D01*
X12788100Y-13315188D02*
X12778576Y-13353283D01*
X12778576Y-13353283D02*
X12769053Y-13372331D01*
X12769053Y-13372331D02*
X12759529Y-13381855D01*
X12759529Y-13381855D02*
X12740481Y-13391379D01*
X12740481Y-13391379D02*
X12721434Y-13391379D01*
X12721434Y-13391379D02*
X12702386Y-13381855D01*
X12702386Y-13381855D02*
X12692862Y-13372331D01*
X12692862Y-13372331D02*
X12683338Y-13353283D01*
X12683338Y-13353283D02*
X12673815Y-13315188D01*
X12673815Y-13315188D02*
X12673815Y-13267569D01*
X12673815Y-13267569D02*
X12683338Y-13229474D01*
X12683338Y-13229474D02*
X12692862Y-13210426D01*
X12692862Y-13210426D02*
X12702386Y-13200902D01*
X12702386Y-13200902D02*
X12721434Y-13191379D01*
X12873815Y-13391379D02*
X12873815Y-13258045D01*
X12873815Y-13277093D02*
X12883338Y-13267569D01*
X12883338Y-13267569D02*
X12902386Y-13258045D01*
X12902386Y-13258045D02*
X12930957Y-13258045D01*
X12930957Y-13258045D02*
X12950005Y-13267569D01*
X12950005Y-13267569D02*
X12959529Y-13286617D01*
X12959529Y-13286617D02*
X12959529Y-13391379D01*
X12959529Y-13286617D02*
X12969053Y-13267569D01*
X12969053Y-13267569D02*
X12988100Y-13258045D01*
X12988100Y-13258045D02*
X13016672Y-13258045D01*
X13016672Y-13258045D02*
X13035719Y-13267569D01*
X13035719Y-13267569D02*
X13045243Y-13286617D01*
X13045243Y-13286617D02*
X13045243Y-13391379D01*
X13140481Y-13391379D02*
X13140481Y-13258045D01*
X13140481Y-13277093D02*
X13150005Y-13267569D01*
X13150005Y-13267569D02*
X13169053Y-13258045D01*
X13169053Y-13258045D02*
X13197624Y-13258045D01*
X13197624Y-13258045D02*
X13216672Y-13267569D01*
X13216672Y-13267569D02*
X13226196Y-13286617D01*
X13226196Y-13286617D02*
X13226196Y-13391379D01*
X13226196Y-13286617D02*
X13235719Y-13267569D01*
X13235719Y-13267569D02*
X13254767Y-13258045D01*
X13254767Y-13258045D02*
X13283338Y-13258045D01*
X13283338Y-13258045D02*
X13302386Y-13267569D01*
X13302386Y-13267569D02*
X13311910Y-13286617D01*
X13311910Y-13286617D02*
X13311910Y-13391379D01*
X13702386Y-13181855D02*
X13530958Y-13438998D01*
X13959529Y-13191379D02*
X13978577Y-13191379D01*
X13978577Y-13191379D02*
X13997624Y-13200902D01*
X13997624Y-13200902D02*
X14007148Y-13210426D01*
X14007148Y-13210426D02*
X14016672Y-13229474D01*
X14016672Y-13229474D02*
X14026196Y-13267569D01*
X14026196Y-13267569D02*
X14026196Y-13315188D01*
X14026196Y-13315188D02*
X14016672Y-13353283D01*
X14016672Y-13353283D02*
X14007148Y-13372331D01*
X14007148Y-13372331D02*
X13997624Y-13381855D01*
X13997624Y-13381855D02*
X13978577Y-13391379D01*
X13978577Y-13391379D02*
X13959529Y-13391379D01*
X13959529Y-13391379D02*
X13940481Y-13381855D01*
X13940481Y-13381855D02*
X13930958Y-13372331D01*
X13930958Y-13372331D02*
X13921434Y-13353283D01*
X13921434Y-13353283D02*
X13911910Y-13315188D01*
X13911910Y-13315188D02*
X13911910Y-13267569D01*
X13911910Y-13267569D02*
X13921434Y-13229474D01*
X13921434Y-13229474D02*
X13930958Y-13210426D01*
X13930958Y-13210426D02*
X13940481Y-13200902D01*
X13940481Y-13200902D02*
X13959529Y-13191379D01*
X14111910Y-13372331D02*
X14121434Y-13381855D01*
X14121434Y-13381855D02*
X14111910Y-13391379D01*
X14111910Y-13391379D02*
X14102386Y-13381855D01*
X14102386Y-13381855D02*
X14111910Y-13372331D01*
X14111910Y-13372331D02*
X14111910Y-13391379D01*
X14245243Y-13191379D02*
X14264291Y-13191379D01*
X14264291Y-13191379D02*
X14283339Y-13200902D01*
X14283339Y-13200902D02*
X14292862Y-13210426D01*
X14292862Y-13210426D02*
X14302386Y-13229474D01*
X14302386Y-13229474D02*
X14311910Y-13267569D01*
X14311910Y-13267569D02*
X14311910Y-13315188D01*
X14311910Y-13315188D02*
X14302386Y-13353283D01*
X14302386Y-13353283D02*
X14292862Y-13372331D01*
X14292862Y-13372331D02*
X14283339Y-13381855D01*
X14283339Y-13381855D02*
X14264291Y-13391379D01*
X14264291Y-13391379D02*
X14245243Y-13391379D01*
X14245243Y-13391379D02*
X14226196Y-13381855D01*
X14226196Y-13381855D02*
X14216672Y-13372331D01*
X14216672Y-13372331D02*
X14207148Y-13353283D01*
X14207148Y-13353283D02*
X14197624Y-13315188D01*
X14197624Y-13315188D02*
X14197624Y-13267569D01*
X14197624Y-13267569D02*
X14207148Y-13229474D01*
X14207148Y-13229474D02*
X14216672Y-13210426D01*
X14216672Y-13210426D02*
X14226196Y-13200902D01*
X14226196Y-13200902D02*
X14245243Y-13191379D01*
X14378577Y-13191379D02*
X14502386Y-13191379D01*
X14502386Y-13191379D02*
X14435719Y-13267569D01*
X14435719Y-13267569D02*
X14464291Y-13267569D01*
X14464291Y-13267569D02*
X14483339Y-13277093D01*
X14483339Y-13277093D02*
X14492862Y-13286617D01*
X14492862Y-13286617D02*
X14502386Y-13305664D01*
X14502386Y-13305664D02*
X14502386Y-13353283D01*
X14502386Y-13353283D02*
X14492862Y-13372331D01*
X14492862Y-13372331D02*
X14483339Y-13381855D01*
X14483339Y-13381855D02*
X14464291Y-13391379D01*
X14464291Y-13391379D02*
X14407148Y-13391379D01*
X14407148Y-13391379D02*
X14388100Y-13381855D01*
X14388100Y-13381855D02*
X14378577Y-13372331D01*
X14692862Y-13391379D02*
X14578577Y-13391379D01*
X14635719Y-13391379D02*
X14635719Y-13191379D01*
X14635719Y-13191379D02*
X14616672Y-13219950D01*
X14616672Y-13219950D02*
X14597624Y-13238998D01*
X14597624Y-13238998D02*
X14578577Y-13248521D01*
X14873815Y-13191379D02*
X14778577Y-13191379D01*
X14778577Y-13191379D02*
X14769053Y-13286617D01*
X14769053Y-13286617D02*
X14778577Y-13277093D01*
X14778577Y-13277093D02*
X14797624Y-13267569D01*
X14797624Y-13267569D02*
X14845243Y-13267569D01*
X14845243Y-13267569D02*
X14864291Y-13277093D01*
X14864291Y-13277093D02*
X14873815Y-13286617D01*
X14873815Y-13286617D02*
X14883339Y-13305664D01*
X14883339Y-13305664D02*
X14883339Y-13353283D01*
X14883339Y-13353283D02*
X14873815Y-13372331D01*
X14873815Y-13372331D02*
X14864291Y-13381855D01*
X14864291Y-13381855D02*
X14845243Y-13391379D01*
X14845243Y-13391379D02*
X14797624Y-13391379D01*
X14797624Y-13391379D02*
X14778577Y-13381855D01*
X14778577Y-13381855D02*
X14769053Y-13372331D01*
X14959529Y-13191379D02*
X14959529Y-13229474D01*
X15035720Y-13191379D02*
X15035720Y-13229474D01*
X15330958Y-13467569D02*
X15321434Y-13458045D01*
X15321434Y-13458045D02*
X15302386Y-13429474D01*
X15302386Y-13429474D02*
X15292862Y-13410426D01*
X15292862Y-13410426D02*
X15283339Y-13381855D01*
X15283339Y-13381855D02*
X15273815Y-13334236D01*
X15273815Y-13334236D02*
X15273815Y-13296141D01*
X15273815Y-13296141D02*
X15283339Y-13248521D01*
X15283339Y-13248521D02*
X15292862Y-13219950D01*
X15292862Y-13219950D02*
X15302386Y-13200902D01*
X15302386Y-13200902D02*
X15321434Y-13172331D01*
X15321434Y-13172331D02*
X15330958Y-13162807D01*
X15388101Y-13191379D02*
X15511910Y-13191379D01*
X15511910Y-13191379D02*
X15445243Y-13267569D01*
X15445243Y-13267569D02*
X15473815Y-13267569D01*
X15473815Y-13267569D02*
X15492862Y-13277093D01*
X15492862Y-13277093D02*
X15502386Y-13286617D01*
X15502386Y-13286617D02*
X15511910Y-13305664D01*
X15511910Y-13305664D02*
X15511910Y-13353283D01*
X15511910Y-13353283D02*
X15502386Y-13372331D01*
X15502386Y-13372331D02*
X15492862Y-13381855D01*
X15492862Y-13381855D02*
X15473815Y-13391379D01*
X15473815Y-13391379D02*
X15416672Y-13391379D01*
X15416672Y-13391379D02*
X15397624Y-13381855D01*
X15397624Y-13381855D02*
X15388101Y-13372331D01*
X15588101Y-13210426D02*
X15597624Y-13200902D01*
X15597624Y-13200902D02*
X15616672Y-13191379D01*
X15616672Y-13191379D02*
X15664291Y-13191379D01*
X15664291Y-13191379D02*
X15683339Y-13200902D01*
X15683339Y-13200902D02*
X15692862Y-13210426D01*
X15692862Y-13210426D02*
X15702386Y-13229474D01*
X15702386Y-13229474D02*
X15702386Y-13248521D01*
X15702386Y-13248521D02*
X15692862Y-13277093D01*
X15692862Y-13277093D02*
X15578577Y-13391379D01*
X15578577Y-13391379D02*
X15702386Y-13391379D01*
X15940482Y-13391379D02*
X15940482Y-13191379D01*
X16026196Y-13391379D02*
X16026196Y-13286617D01*
X16026196Y-13286617D02*
X16016672Y-13267569D01*
X16016672Y-13267569D02*
X15997624Y-13258045D01*
X15997624Y-13258045D02*
X15969053Y-13258045D01*
X15969053Y-13258045D02*
X15950005Y-13267569D01*
X15950005Y-13267569D02*
X15940482Y-13277093D01*
X16150005Y-13391379D02*
X16130958Y-13381855D01*
X16130958Y-13381855D02*
X16121434Y-13372331D01*
X16121434Y-13372331D02*
X16111910Y-13353283D01*
X16111910Y-13353283D02*
X16111910Y-13296141D01*
X16111910Y-13296141D02*
X16121434Y-13277093D01*
X16121434Y-13277093D02*
X16130958Y-13267569D01*
X16130958Y-13267569D02*
X16150005Y-13258045D01*
X16150005Y-13258045D02*
X16178577Y-13258045D01*
X16178577Y-13258045D02*
X16197624Y-13267569D01*
X16197624Y-13267569D02*
X16207148Y-13277093D01*
X16207148Y-13277093D02*
X16216672Y-13296141D01*
X16216672Y-13296141D02*
X16216672Y-13353283D01*
X16216672Y-13353283D02*
X16207148Y-13372331D01*
X16207148Y-13372331D02*
X16197624Y-13381855D01*
X16197624Y-13381855D02*
X16178577Y-13391379D01*
X16178577Y-13391379D02*
X16150005Y-13391379D01*
X16330958Y-13391379D02*
X16311910Y-13381855D01*
X16311910Y-13381855D02*
X16302386Y-13362807D01*
X16302386Y-13362807D02*
X16302386Y-13191379D01*
X16483339Y-13381855D02*
X16464291Y-13391379D01*
X16464291Y-13391379D02*
X16426196Y-13391379D01*
X16426196Y-13391379D02*
X16407148Y-13381855D01*
X16407148Y-13381855D02*
X16397624Y-13362807D01*
X16397624Y-13362807D02*
X16397624Y-13286617D01*
X16397624Y-13286617D02*
X16407148Y-13267569D01*
X16407148Y-13267569D02*
X16426196Y-13258045D01*
X16426196Y-13258045D02*
X16464291Y-13258045D01*
X16464291Y-13258045D02*
X16483339Y-13267569D01*
X16483339Y-13267569D02*
X16492863Y-13286617D01*
X16492863Y-13286617D02*
X16492863Y-13305664D01*
X16492863Y-13305664D02*
X16397624Y-13324712D01*
X16569053Y-13381855D02*
X16588101Y-13391379D01*
X16588101Y-13391379D02*
X16626196Y-13391379D01*
X16626196Y-13391379D02*
X16645244Y-13381855D01*
X16645244Y-13381855D02*
X16654767Y-13362807D01*
X16654767Y-13362807D02*
X16654767Y-13353283D01*
X16654767Y-13353283D02*
X16645244Y-13334236D01*
X16645244Y-13334236D02*
X16626196Y-13324712D01*
X16626196Y-13324712D02*
X16597624Y-13324712D01*
X16597624Y-13324712D02*
X16578577Y-13315188D01*
X16578577Y-13315188D02*
X16569053Y-13296141D01*
X16569053Y-13296141D02*
X16569053Y-13286617D01*
X16569053Y-13286617D02*
X16578577Y-13267569D01*
X16578577Y-13267569D02*
X16597624Y-13258045D01*
X16597624Y-13258045D02*
X16626196Y-13258045D01*
X16626196Y-13258045D02*
X16645244Y-13267569D01*
X16721434Y-13467569D02*
X16730958Y-13458045D01*
X16730958Y-13458045D02*
X16750005Y-13429474D01*
X16750005Y-13429474D02*
X16759529Y-13410426D01*
X16759529Y-13410426D02*
X16769053Y-13381855D01*
X16769053Y-13381855D02*
X16778577Y-13334236D01*
X16778577Y-13334236D02*
X16778577Y-13296141D01*
X16778577Y-13296141D02*
X16769053Y-13248521D01*
X16769053Y-13248521D02*
X16759529Y-13219950D01*
X16759529Y-13219950D02*
X16750005Y-13200902D01*
X16750005Y-13200902D02*
X16730958Y-13172331D01*
X16730958Y-13172331D02*
X16721434Y-13162807D01*
D12*
X11710895Y-13518895D02*
X11710895Y-13608895D01*
X11665895Y-13563895D02*
X11755895Y-13563895D01*
D11*
X12054767Y-13455379D02*
X12073815Y-13455379D01*
X12073815Y-13455379D02*
X12092862Y-13464902D01*
X12092862Y-13464902D02*
X12102386Y-13474426D01*
X12102386Y-13474426D02*
X12111910Y-13493474D01*
X12111910Y-13493474D02*
X12121434Y-13531569D01*
X12121434Y-13531569D02*
X12121434Y-13579188D01*
X12121434Y-13579188D02*
X12111910Y-13617283D01*
X12111910Y-13617283D02*
X12102386Y-13636331D01*
X12102386Y-13636331D02*
X12092862Y-13645855D01*
X12092862Y-13645855D02*
X12073815Y-13655379D01*
X12073815Y-13655379D02*
X12054767Y-13655379D01*
X12054767Y-13655379D02*
X12035719Y-13645855D01*
X12035719Y-13645855D02*
X12026195Y-13636331D01*
X12026195Y-13636331D02*
X12016672Y-13617283D01*
X12016672Y-13617283D02*
X12007148Y-13579188D01*
X12007148Y-13579188D02*
X12007148Y-13531569D01*
X12007148Y-13531569D02*
X12016672Y-13493474D01*
X12016672Y-13493474D02*
X12026195Y-13474426D01*
X12026195Y-13474426D02*
X12035719Y-13464902D01*
X12035719Y-13464902D02*
X12054767Y-13455379D01*
X12207148Y-13636331D02*
X12216672Y-13645855D01*
X12216672Y-13645855D02*
X12207148Y-13655379D01*
X12207148Y-13655379D02*
X12197624Y-13645855D01*
X12197624Y-13645855D02*
X12207148Y-13636331D01*
X12207148Y-13636331D02*
X12207148Y-13655379D01*
X12311910Y-13655379D02*
X12350005Y-13655379D01*
X12350005Y-13655379D02*
X12369053Y-13645855D01*
X12369053Y-13645855D02*
X12378576Y-13636331D01*
X12378576Y-13636331D02*
X12397624Y-13607760D01*
X12397624Y-13607760D02*
X12407148Y-13569664D01*
X12407148Y-13569664D02*
X12407148Y-13493474D01*
X12407148Y-13493474D02*
X12397624Y-13474426D01*
X12397624Y-13474426D02*
X12388100Y-13464902D01*
X12388100Y-13464902D02*
X12369053Y-13455379D01*
X12369053Y-13455379D02*
X12330957Y-13455379D01*
X12330957Y-13455379D02*
X12311910Y-13464902D01*
X12311910Y-13464902D02*
X12302386Y-13474426D01*
X12302386Y-13474426D02*
X12292862Y-13493474D01*
X12292862Y-13493474D02*
X12292862Y-13541093D01*
X12292862Y-13541093D02*
X12302386Y-13560141D01*
X12302386Y-13560141D02*
X12311910Y-13569664D01*
X12311910Y-13569664D02*
X12330957Y-13579188D01*
X12330957Y-13579188D02*
X12369053Y-13579188D01*
X12369053Y-13579188D02*
X12388100Y-13569664D01*
X12388100Y-13569664D02*
X12397624Y-13560141D01*
X12397624Y-13560141D02*
X12407148Y-13541093D01*
X12530957Y-13455379D02*
X12550005Y-13455379D01*
X12550005Y-13455379D02*
X12569053Y-13464902D01*
X12569053Y-13464902D02*
X12578576Y-13474426D01*
X12578576Y-13474426D02*
X12588100Y-13493474D01*
X12588100Y-13493474D02*
X12597624Y-13531569D01*
X12597624Y-13531569D02*
X12597624Y-13579188D01*
X12597624Y-13579188D02*
X12588100Y-13617283D01*
X12588100Y-13617283D02*
X12578576Y-13636331D01*
X12578576Y-13636331D02*
X12569053Y-13645855D01*
X12569053Y-13645855D02*
X12550005Y-13655379D01*
X12550005Y-13655379D02*
X12530957Y-13655379D01*
X12530957Y-13655379D02*
X12511910Y-13645855D01*
X12511910Y-13645855D02*
X12502386Y-13636331D01*
X12502386Y-13636331D02*
X12492862Y-13617283D01*
X12492862Y-13617283D02*
X12483338Y-13579188D01*
X12483338Y-13579188D02*
X12483338Y-13531569D01*
X12483338Y-13531569D02*
X12492862Y-13493474D01*
X12492862Y-13493474D02*
X12502386Y-13474426D01*
X12502386Y-13474426D02*
X12511910Y-13464902D01*
X12511910Y-13464902D02*
X12530957Y-13455379D01*
X12721434Y-13455379D02*
X12740481Y-13455379D01*
X12740481Y-13455379D02*
X12759529Y-13464902D01*
X12759529Y-13464902D02*
X12769053Y-13474426D01*
X12769053Y-13474426D02*
X12778576Y-13493474D01*
X12778576Y-13493474D02*
X12788100Y-13531569D01*
X12788100Y-13531569D02*
X12788100Y-13579188D01*
X12788100Y-13579188D02*
X12778576Y-13617283D01*
X12778576Y-13617283D02*
X12769053Y-13636331D01*
X12769053Y-13636331D02*
X12759529Y-13645855D01*
X12759529Y-13645855D02*
X12740481Y-13655379D01*
X12740481Y-13655379D02*
X12721434Y-13655379D01*
X12721434Y-13655379D02*
X12702386Y-13645855D01*
X12702386Y-13645855D02*
X12692862Y-13636331D01*
X12692862Y-13636331D02*
X12683338Y-13617283D01*
X12683338Y-13617283D02*
X12673815Y-13579188D01*
X12673815Y-13579188D02*
X12673815Y-13531569D01*
X12673815Y-13531569D02*
X12683338Y-13493474D01*
X12683338Y-13493474D02*
X12692862Y-13474426D01*
X12692862Y-13474426D02*
X12702386Y-13464902D01*
X12702386Y-13464902D02*
X12721434Y-13455379D01*
X12873815Y-13655379D02*
X12873815Y-13522045D01*
X12873815Y-13541093D02*
X12883338Y-13531569D01*
X12883338Y-13531569D02*
X12902386Y-13522045D01*
X12902386Y-13522045D02*
X12930957Y-13522045D01*
X12930957Y-13522045D02*
X12950005Y-13531569D01*
X12950005Y-13531569D02*
X12959529Y-13550617D01*
X12959529Y-13550617D02*
X12959529Y-13655379D01*
X12959529Y-13550617D02*
X12969053Y-13531569D01*
X12969053Y-13531569D02*
X12988100Y-13522045D01*
X12988100Y-13522045D02*
X13016672Y-13522045D01*
X13016672Y-13522045D02*
X13035719Y-13531569D01*
X13035719Y-13531569D02*
X13045243Y-13550617D01*
X13045243Y-13550617D02*
X13045243Y-13655379D01*
X13140481Y-13655379D02*
X13140481Y-13522045D01*
X13140481Y-13541093D02*
X13150005Y-13531569D01*
X13150005Y-13531569D02*
X13169053Y-13522045D01*
X13169053Y-13522045D02*
X13197624Y-13522045D01*
X13197624Y-13522045D02*
X13216672Y-13531569D01*
X13216672Y-13531569D02*
X13226196Y-13550617D01*
X13226196Y-13550617D02*
X13226196Y-13655379D01*
X13226196Y-13550617D02*
X13235719Y-13531569D01*
X13235719Y-13531569D02*
X13254767Y-13522045D01*
X13254767Y-13522045D02*
X13283338Y-13522045D01*
X13283338Y-13522045D02*
X13302386Y-13531569D01*
X13302386Y-13531569D02*
X13311910Y-13550617D01*
X13311910Y-13550617D02*
X13311910Y-13655379D01*
X13702386Y-13445855D02*
X13530958Y-13702998D01*
X13959529Y-13455379D02*
X13978577Y-13455379D01*
X13978577Y-13455379D02*
X13997624Y-13464902D01*
X13997624Y-13464902D02*
X14007148Y-13474426D01*
X14007148Y-13474426D02*
X14016672Y-13493474D01*
X14016672Y-13493474D02*
X14026196Y-13531569D01*
X14026196Y-13531569D02*
X14026196Y-13579188D01*
X14026196Y-13579188D02*
X14016672Y-13617283D01*
X14016672Y-13617283D02*
X14007148Y-13636331D01*
X14007148Y-13636331D02*
X13997624Y-13645855D01*
X13997624Y-13645855D02*
X13978577Y-13655379D01*
X13978577Y-13655379D02*
X13959529Y-13655379D01*
X13959529Y-13655379D02*
X13940481Y-13645855D01*
X13940481Y-13645855D02*
X13930958Y-13636331D01*
X13930958Y-13636331D02*
X13921434Y-13617283D01*
X13921434Y-13617283D02*
X13911910Y-13579188D01*
X13911910Y-13579188D02*
X13911910Y-13531569D01*
X13911910Y-13531569D02*
X13921434Y-13493474D01*
X13921434Y-13493474D02*
X13930958Y-13474426D01*
X13930958Y-13474426D02*
X13940481Y-13464902D01*
X13940481Y-13464902D02*
X13959529Y-13455379D01*
X14111910Y-13636331D02*
X14121434Y-13645855D01*
X14121434Y-13645855D02*
X14111910Y-13655379D01*
X14111910Y-13655379D02*
X14102386Y-13645855D01*
X14102386Y-13645855D02*
X14111910Y-13636331D01*
X14111910Y-13636331D02*
X14111910Y-13655379D01*
X14245243Y-13455379D02*
X14264291Y-13455379D01*
X14264291Y-13455379D02*
X14283339Y-13464902D01*
X14283339Y-13464902D02*
X14292862Y-13474426D01*
X14292862Y-13474426D02*
X14302386Y-13493474D01*
X14302386Y-13493474D02*
X14311910Y-13531569D01*
X14311910Y-13531569D02*
X14311910Y-13579188D01*
X14311910Y-13579188D02*
X14302386Y-13617283D01*
X14302386Y-13617283D02*
X14292862Y-13636331D01*
X14292862Y-13636331D02*
X14283339Y-13645855D01*
X14283339Y-13645855D02*
X14264291Y-13655379D01*
X14264291Y-13655379D02*
X14245243Y-13655379D01*
X14245243Y-13655379D02*
X14226196Y-13645855D01*
X14226196Y-13645855D02*
X14216672Y-13636331D01*
X14216672Y-13636331D02*
X14207148Y-13617283D01*
X14207148Y-13617283D02*
X14197624Y-13579188D01*
X14197624Y-13579188D02*
X14197624Y-13531569D01*
X14197624Y-13531569D02*
X14207148Y-13493474D01*
X14207148Y-13493474D02*
X14216672Y-13474426D01*
X14216672Y-13474426D02*
X14226196Y-13464902D01*
X14226196Y-13464902D02*
X14245243Y-13455379D01*
X14378577Y-13455379D02*
X14502386Y-13455379D01*
X14502386Y-13455379D02*
X14435719Y-13531569D01*
X14435719Y-13531569D02*
X14464291Y-13531569D01*
X14464291Y-13531569D02*
X14483339Y-13541093D01*
X14483339Y-13541093D02*
X14492862Y-13550617D01*
X14492862Y-13550617D02*
X14502386Y-13569664D01*
X14502386Y-13569664D02*
X14502386Y-13617283D01*
X14502386Y-13617283D02*
X14492862Y-13636331D01*
X14492862Y-13636331D02*
X14483339Y-13645855D01*
X14483339Y-13645855D02*
X14464291Y-13655379D01*
X14464291Y-13655379D02*
X14407148Y-13655379D01*
X14407148Y-13655379D02*
X14388100Y-13645855D01*
X14388100Y-13645855D02*
X14378577Y-13636331D01*
X14683339Y-13455379D02*
X14588100Y-13455379D01*
X14588100Y-13455379D02*
X14578577Y-13550617D01*
X14578577Y-13550617D02*
X14588100Y-13541093D01*
X14588100Y-13541093D02*
X14607148Y-13531569D01*
X14607148Y-13531569D02*
X14654767Y-13531569D01*
X14654767Y-13531569D02*
X14673815Y-13541093D01*
X14673815Y-13541093D02*
X14683339Y-13550617D01*
X14683339Y-13550617D02*
X14692862Y-13569664D01*
X14692862Y-13569664D02*
X14692862Y-13617283D01*
X14692862Y-13617283D02*
X14683339Y-13636331D01*
X14683339Y-13636331D02*
X14673815Y-13645855D01*
X14673815Y-13645855D02*
X14654767Y-13655379D01*
X14654767Y-13655379D02*
X14607148Y-13655379D01*
X14607148Y-13655379D02*
X14588100Y-13645855D01*
X14588100Y-13645855D02*
X14578577Y-13636331D01*
X14864291Y-13522045D02*
X14864291Y-13655379D01*
X14816672Y-13445855D02*
X14769053Y-13588712D01*
X14769053Y-13588712D02*
X14892862Y-13588712D01*
X14959529Y-13455379D02*
X14959529Y-13493474D01*
X15035720Y-13455379D02*
X15035720Y-13493474D01*
X15330958Y-13731569D02*
X15321434Y-13722045D01*
X15321434Y-13722045D02*
X15302386Y-13693474D01*
X15302386Y-13693474D02*
X15292862Y-13674426D01*
X15292862Y-13674426D02*
X15283339Y-13645855D01*
X15283339Y-13645855D02*
X15273815Y-13598236D01*
X15273815Y-13598236D02*
X15273815Y-13560141D01*
X15273815Y-13560141D02*
X15283339Y-13512521D01*
X15283339Y-13512521D02*
X15292862Y-13483950D01*
X15292862Y-13483950D02*
X15302386Y-13464902D01*
X15302386Y-13464902D02*
X15321434Y-13436331D01*
X15321434Y-13436331D02*
X15330958Y-13426807D01*
X15511910Y-13655379D02*
X15397624Y-13655379D01*
X15454767Y-13655379D02*
X15454767Y-13455379D01*
X15454767Y-13455379D02*
X15435720Y-13483950D01*
X15435720Y-13483950D02*
X15416672Y-13502998D01*
X15416672Y-13502998D02*
X15397624Y-13512521D01*
X15683339Y-13455379D02*
X15645243Y-13455379D01*
X15645243Y-13455379D02*
X15626196Y-13464902D01*
X15626196Y-13464902D02*
X15616672Y-13474426D01*
X15616672Y-13474426D02*
X15597624Y-13502998D01*
X15597624Y-13502998D02*
X15588101Y-13541093D01*
X15588101Y-13541093D02*
X15588101Y-13617283D01*
X15588101Y-13617283D02*
X15597624Y-13636331D01*
X15597624Y-13636331D02*
X15607148Y-13645855D01*
X15607148Y-13645855D02*
X15626196Y-13655379D01*
X15626196Y-13655379D02*
X15664291Y-13655379D01*
X15664291Y-13655379D02*
X15683339Y-13645855D01*
X15683339Y-13645855D02*
X15692862Y-13636331D01*
X15692862Y-13636331D02*
X15702386Y-13617283D01*
X15702386Y-13617283D02*
X15702386Y-13569664D01*
X15702386Y-13569664D02*
X15692862Y-13550617D01*
X15692862Y-13550617D02*
X15683339Y-13541093D01*
X15683339Y-13541093D02*
X15664291Y-13531569D01*
X15664291Y-13531569D02*
X15626196Y-13531569D01*
X15626196Y-13531569D02*
X15607148Y-13541093D01*
X15607148Y-13541093D02*
X15597624Y-13550617D01*
X15597624Y-13550617D02*
X15588101Y-13569664D01*
X15940482Y-13655379D02*
X15940482Y-13455379D01*
X16026196Y-13655379D02*
X16026196Y-13550617D01*
X16026196Y-13550617D02*
X16016672Y-13531569D01*
X16016672Y-13531569D02*
X15997624Y-13522045D01*
X15997624Y-13522045D02*
X15969053Y-13522045D01*
X15969053Y-13522045D02*
X15950005Y-13531569D01*
X15950005Y-13531569D02*
X15940482Y-13541093D01*
X16150005Y-13655379D02*
X16130958Y-13645855D01*
X16130958Y-13645855D02*
X16121434Y-13636331D01*
X16121434Y-13636331D02*
X16111910Y-13617283D01*
X16111910Y-13617283D02*
X16111910Y-13560141D01*
X16111910Y-13560141D02*
X16121434Y-13541093D01*
X16121434Y-13541093D02*
X16130958Y-13531569D01*
X16130958Y-13531569D02*
X16150005Y-13522045D01*
X16150005Y-13522045D02*
X16178577Y-13522045D01*
X16178577Y-13522045D02*
X16197624Y-13531569D01*
X16197624Y-13531569D02*
X16207148Y-13541093D01*
X16207148Y-13541093D02*
X16216672Y-13560141D01*
X16216672Y-13560141D02*
X16216672Y-13617283D01*
X16216672Y-13617283D02*
X16207148Y-13636331D01*
X16207148Y-13636331D02*
X16197624Y-13645855D01*
X16197624Y-13645855D02*
X16178577Y-13655379D01*
X16178577Y-13655379D02*
X16150005Y-13655379D01*
X16330958Y-13655379D02*
X16311910Y-13645855D01*
X16311910Y-13645855D02*
X16302386Y-13626807D01*
X16302386Y-13626807D02*
X16302386Y-13455379D01*
X16483339Y-13645855D02*
X16464291Y-13655379D01*
X16464291Y-13655379D02*
X16426196Y-13655379D01*
X16426196Y-13655379D02*
X16407148Y-13645855D01*
X16407148Y-13645855D02*
X16397624Y-13626807D01*
X16397624Y-13626807D02*
X16397624Y-13550617D01*
X16397624Y-13550617D02*
X16407148Y-13531569D01*
X16407148Y-13531569D02*
X16426196Y-13522045D01*
X16426196Y-13522045D02*
X16464291Y-13522045D01*
X16464291Y-13522045D02*
X16483339Y-13531569D01*
X16483339Y-13531569D02*
X16492863Y-13550617D01*
X16492863Y-13550617D02*
X16492863Y-13569664D01*
X16492863Y-13569664D02*
X16397624Y-13588712D01*
X16569053Y-13645855D02*
X16588101Y-13655379D01*
X16588101Y-13655379D02*
X16626196Y-13655379D01*
X16626196Y-13655379D02*
X16645244Y-13645855D01*
X16645244Y-13645855D02*
X16654767Y-13626807D01*
X16654767Y-13626807D02*
X16654767Y-13617283D01*
X16654767Y-13617283D02*
X16645244Y-13598236D01*
X16645244Y-13598236D02*
X16626196Y-13588712D01*
X16626196Y-13588712D02*
X16597624Y-13588712D01*
X16597624Y-13588712D02*
X16578577Y-13579188D01*
X16578577Y-13579188D02*
X16569053Y-13560141D01*
X16569053Y-13560141D02*
X16569053Y-13550617D01*
X16569053Y-13550617D02*
X16578577Y-13531569D01*
X16578577Y-13531569D02*
X16597624Y-13522045D01*
X16597624Y-13522045D02*
X16626196Y-13522045D01*
X16626196Y-13522045D02*
X16645244Y-13531569D01*
X16721434Y-13731569D02*
X16730958Y-13722045D01*
X16730958Y-13722045D02*
X16750005Y-13693474D01*
X16750005Y-13693474D02*
X16759529Y-13674426D01*
X16759529Y-13674426D02*
X16769053Y-13645855D01*
X16769053Y-13645855D02*
X16778577Y-13598236D01*
X16778577Y-13598236D02*
X16778577Y-13560141D01*
X16778577Y-13560141D02*
X16769053Y-13512521D01*
X16769053Y-13512521D02*
X16759529Y-13483950D01*
X16759529Y-13483950D02*
X16750005Y-13464902D01*
X16750005Y-13464902D02*
X16730958Y-13436331D01*
X16730958Y-13436331D02*
X16721434Y-13426807D01*
D12*
X11741251Y-13863251D02*
X11741251Y-13792539D01*
X11670539Y-13792539D01*
X11670539Y-13863251D01*
X11741251Y-13863251D01*
D11*
X12121434Y-13919379D02*
X12007148Y-13919379D01*
X12064291Y-13919379D02*
X12064291Y-13719379D01*
X12064291Y-13719379D02*
X12045243Y-13747950D01*
X12045243Y-13747950D02*
X12026195Y-13766998D01*
X12026195Y-13766998D02*
X12007148Y-13776521D01*
X12207148Y-13900331D02*
X12216672Y-13909855D01*
X12216672Y-13909855D02*
X12207148Y-13919379D01*
X12207148Y-13919379D02*
X12197624Y-13909855D01*
X12197624Y-13909855D02*
X12207148Y-13900331D01*
X12207148Y-13900331D02*
X12207148Y-13919379D01*
X12340481Y-13719379D02*
X12359529Y-13719379D01*
X12359529Y-13719379D02*
X12378576Y-13728902D01*
X12378576Y-13728902D02*
X12388100Y-13738426D01*
X12388100Y-13738426D02*
X12397624Y-13757474D01*
X12397624Y-13757474D02*
X12407148Y-13795569D01*
X12407148Y-13795569D02*
X12407148Y-13843188D01*
X12407148Y-13843188D02*
X12397624Y-13881283D01*
X12397624Y-13881283D02*
X12388100Y-13900331D01*
X12388100Y-13900331D02*
X12378576Y-13909855D01*
X12378576Y-13909855D02*
X12359529Y-13919379D01*
X12359529Y-13919379D02*
X12340481Y-13919379D01*
X12340481Y-13919379D02*
X12321434Y-13909855D01*
X12321434Y-13909855D02*
X12311910Y-13900331D01*
X12311910Y-13900331D02*
X12302386Y-13881283D01*
X12302386Y-13881283D02*
X12292862Y-13843188D01*
X12292862Y-13843188D02*
X12292862Y-13795569D01*
X12292862Y-13795569D02*
X12302386Y-13757474D01*
X12302386Y-13757474D02*
X12311910Y-13738426D01*
X12311910Y-13738426D02*
X12321434Y-13728902D01*
X12321434Y-13728902D02*
X12340481Y-13719379D01*
X12530957Y-13719379D02*
X12550005Y-13719379D01*
X12550005Y-13719379D02*
X12569053Y-13728902D01*
X12569053Y-13728902D02*
X12578576Y-13738426D01*
X12578576Y-13738426D02*
X12588100Y-13757474D01*
X12588100Y-13757474D02*
X12597624Y-13795569D01*
X12597624Y-13795569D02*
X12597624Y-13843188D01*
X12597624Y-13843188D02*
X12588100Y-13881283D01*
X12588100Y-13881283D02*
X12578576Y-13900331D01*
X12578576Y-13900331D02*
X12569053Y-13909855D01*
X12569053Y-13909855D02*
X12550005Y-13919379D01*
X12550005Y-13919379D02*
X12530957Y-13919379D01*
X12530957Y-13919379D02*
X12511910Y-13909855D01*
X12511910Y-13909855D02*
X12502386Y-13900331D01*
X12502386Y-13900331D02*
X12492862Y-13881283D01*
X12492862Y-13881283D02*
X12483338Y-13843188D01*
X12483338Y-13843188D02*
X12483338Y-13795569D01*
X12483338Y-13795569D02*
X12492862Y-13757474D01*
X12492862Y-13757474D02*
X12502386Y-13738426D01*
X12502386Y-13738426D02*
X12511910Y-13728902D01*
X12511910Y-13728902D02*
X12530957Y-13719379D01*
X12721434Y-13719379D02*
X12740481Y-13719379D01*
X12740481Y-13719379D02*
X12759529Y-13728902D01*
X12759529Y-13728902D02*
X12769053Y-13738426D01*
X12769053Y-13738426D02*
X12778576Y-13757474D01*
X12778576Y-13757474D02*
X12788100Y-13795569D01*
X12788100Y-13795569D02*
X12788100Y-13843188D01*
X12788100Y-13843188D02*
X12778576Y-13881283D01*
X12778576Y-13881283D02*
X12769053Y-13900331D01*
X12769053Y-13900331D02*
X12759529Y-13909855D01*
X12759529Y-13909855D02*
X12740481Y-13919379D01*
X12740481Y-13919379D02*
X12721434Y-13919379D01*
X12721434Y-13919379D02*
X12702386Y-13909855D01*
X12702386Y-13909855D02*
X12692862Y-13900331D01*
X12692862Y-13900331D02*
X12683338Y-13881283D01*
X12683338Y-13881283D02*
X12673815Y-13843188D01*
X12673815Y-13843188D02*
X12673815Y-13795569D01*
X12673815Y-13795569D02*
X12683338Y-13757474D01*
X12683338Y-13757474D02*
X12692862Y-13738426D01*
X12692862Y-13738426D02*
X12702386Y-13728902D01*
X12702386Y-13728902D02*
X12721434Y-13719379D01*
X12873815Y-13919379D02*
X12873815Y-13786045D01*
X12873815Y-13805093D02*
X12883338Y-13795569D01*
X12883338Y-13795569D02*
X12902386Y-13786045D01*
X12902386Y-13786045D02*
X12930957Y-13786045D01*
X12930957Y-13786045D02*
X12950005Y-13795569D01*
X12950005Y-13795569D02*
X12959529Y-13814617D01*
X12959529Y-13814617D02*
X12959529Y-13919379D01*
X12959529Y-13814617D02*
X12969053Y-13795569D01*
X12969053Y-13795569D02*
X12988100Y-13786045D01*
X12988100Y-13786045D02*
X13016672Y-13786045D01*
X13016672Y-13786045D02*
X13035719Y-13795569D01*
X13035719Y-13795569D02*
X13045243Y-13814617D01*
X13045243Y-13814617D02*
X13045243Y-13919379D01*
X13140481Y-13919379D02*
X13140481Y-13786045D01*
X13140481Y-13805093D02*
X13150005Y-13795569D01*
X13150005Y-13795569D02*
X13169053Y-13786045D01*
X13169053Y-13786045D02*
X13197624Y-13786045D01*
X13197624Y-13786045D02*
X13216672Y-13795569D01*
X13216672Y-13795569D02*
X13226196Y-13814617D01*
X13226196Y-13814617D02*
X13226196Y-13919379D01*
X13226196Y-13814617D02*
X13235719Y-13795569D01*
X13235719Y-13795569D02*
X13254767Y-13786045D01*
X13254767Y-13786045D02*
X13283338Y-13786045D01*
X13283338Y-13786045D02*
X13302386Y-13795569D01*
X13302386Y-13795569D02*
X13311910Y-13814617D01*
X13311910Y-13814617D02*
X13311910Y-13919379D01*
X13702386Y-13709855D02*
X13530958Y-13966998D01*
X13959529Y-13719379D02*
X13978577Y-13719379D01*
X13978577Y-13719379D02*
X13997624Y-13728902D01*
X13997624Y-13728902D02*
X14007148Y-13738426D01*
X14007148Y-13738426D02*
X14016672Y-13757474D01*
X14016672Y-13757474D02*
X14026196Y-13795569D01*
X14026196Y-13795569D02*
X14026196Y-13843188D01*
X14026196Y-13843188D02*
X14016672Y-13881283D01*
X14016672Y-13881283D02*
X14007148Y-13900331D01*
X14007148Y-13900331D02*
X13997624Y-13909855D01*
X13997624Y-13909855D02*
X13978577Y-13919379D01*
X13978577Y-13919379D02*
X13959529Y-13919379D01*
X13959529Y-13919379D02*
X13940481Y-13909855D01*
X13940481Y-13909855D02*
X13930958Y-13900331D01*
X13930958Y-13900331D02*
X13921434Y-13881283D01*
X13921434Y-13881283D02*
X13911910Y-13843188D01*
X13911910Y-13843188D02*
X13911910Y-13795569D01*
X13911910Y-13795569D02*
X13921434Y-13757474D01*
X13921434Y-13757474D02*
X13930958Y-13738426D01*
X13930958Y-13738426D02*
X13940481Y-13728902D01*
X13940481Y-13728902D02*
X13959529Y-13719379D01*
X14111910Y-13900331D02*
X14121434Y-13909855D01*
X14121434Y-13909855D02*
X14111910Y-13919379D01*
X14111910Y-13919379D02*
X14102386Y-13909855D01*
X14102386Y-13909855D02*
X14111910Y-13900331D01*
X14111910Y-13900331D02*
X14111910Y-13919379D01*
X14245243Y-13719379D02*
X14264291Y-13719379D01*
X14264291Y-13719379D02*
X14283339Y-13728902D01*
X14283339Y-13728902D02*
X14292862Y-13738426D01*
X14292862Y-13738426D02*
X14302386Y-13757474D01*
X14302386Y-13757474D02*
X14311910Y-13795569D01*
X14311910Y-13795569D02*
X14311910Y-13843188D01*
X14311910Y-13843188D02*
X14302386Y-13881283D01*
X14302386Y-13881283D02*
X14292862Y-13900331D01*
X14292862Y-13900331D02*
X14283339Y-13909855D01*
X14283339Y-13909855D02*
X14264291Y-13919379D01*
X14264291Y-13919379D02*
X14245243Y-13919379D01*
X14245243Y-13919379D02*
X14226196Y-13909855D01*
X14226196Y-13909855D02*
X14216672Y-13900331D01*
X14216672Y-13900331D02*
X14207148Y-13881283D01*
X14207148Y-13881283D02*
X14197624Y-13843188D01*
X14197624Y-13843188D02*
X14197624Y-13795569D01*
X14197624Y-13795569D02*
X14207148Y-13757474D01*
X14207148Y-13757474D02*
X14216672Y-13738426D01*
X14216672Y-13738426D02*
X14226196Y-13728902D01*
X14226196Y-13728902D02*
X14245243Y-13719379D01*
X14378577Y-13719379D02*
X14502386Y-13719379D01*
X14502386Y-13719379D02*
X14435719Y-13795569D01*
X14435719Y-13795569D02*
X14464291Y-13795569D01*
X14464291Y-13795569D02*
X14483339Y-13805093D01*
X14483339Y-13805093D02*
X14492862Y-13814617D01*
X14492862Y-13814617D02*
X14502386Y-13833664D01*
X14502386Y-13833664D02*
X14502386Y-13881283D01*
X14502386Y-13881283D02*
X14492862Y-13900331D01*
X14492862Y-13900331D02*
X14483339Y-13909855D01*
X14483339Y-13909855D02*
X14464291Y-13919379D01*
X14464291Y-13919379D02*
X14407148Y-13919379D01*
X14407148Y-13919379D02*
X14388100Y-13909855D01*
X14388100Y-13909855D02*
X14378577Y-13900331D01*
X14597624Y-13919379D02*
X14635719Y-13919379D01*
X14635719Y-13919379D02*
X14654767Y-13909855D01*
X14654767Y-13909855D02*
X14664291Y-13900331D01*
X14664291Y-13900331D02*
X14683339Y-13871760D01*
X14683339Y-13871760D02*
X14692862Y-13833664D01*
X14692862Y-13833664D02*
X14692862Y-13757474D01*
X14692862Y-13757474D02*
X14683339Y-13738426D01*
X14683339Y-13738426D02*
X14673815Y-13728902D01*
X14673815Y-13728902D02*
X14654767Y-13719379D01*
X14654767Y-13719379D02*
X14616672Y-13719379D01*
X14616672Y-13719379D02*
X14597624Y-13728902D01*
X14597624Y-13728902D02*
X14588100Y-13738426D01*
X14588100Y-13738426D02*
X14578577Y-13757474D01*
X14578577Y-13757474D02*
X14578577Y-13805093D01*
X14578577Y-13805093D02*
X14588100Y-13824141D01*
X14588100Y-13824141D02*
X14597624Y-13833664D01*
X14597624Y-13833664D02*
X14616672Y-13843188D01*
X14616672Y-13843188D02*
X14654767Y-13843188D01*
X14654767Y-13843188D02*
X14673815Y-13833664D01*
X14673815Y-13833664D02*
X14683339Y-13824141D01*
X14683339Y-13824141D02*
X14692862Y-13805093D01*
X14864291Y-13786045D02*
X14864291Y-13919379D01*
X14816672Y-13709855D02*
X14769053Y-13852712D01*
X14769053Y-13852712D02*
X14892862Y-13852712D01*
X14959529Y-13719379D02*
X14959529Y-13757474D01*
X15035720Y-13719379D02*
X15035720Y-13757474D01*
X15330958Y-13995569D02*
X15321434Y-13986045D01*
X15321434Y-13986045D02*
X15302386Y-13957474D01*
X15302386Y-13957474D02*
X15292862Y-13938426D01*
X15292862Y-13938426D02*
X15283339Y-13909855D01*
X15283339Y-13909855D02*
X15273815Y-13862236D01*
X15273815Y-13862236D02*
X15273815Y-13824141D01*
X15273815Y-13824141D02*
X15283339Y-13776521D01*
X15283339Y-13776521D02*
X15292862Y-13747950D01*
X15292862Y-13747950D02*
X15302386Y-13728902D01*
X15302386Y-13728902D02*
X15321434Y-13700331D01*
X15321434Y-13700331D02*
X15330958Y-13690807D01*
X15397624Y-13738426D02*
X15407148Y-13728902D01*
X15407148Y-13728902D02*
X15426196Y-13719379D01*
X15426196Y-13719379D02*
X15473815Y-13719379D01*
X15473815Y-13719379D02*
X15492862Y-13728902D01*
X15492862Y-13728902D02*
X15502386Y-13738426D01*
X15502386Y-13738426D02*
X15511910Y-13757474D01*
X15511910Y-13757474D02*
X15511910Y-13776521D01*
X15511910Y-13776521D02*
X15502386Y-13805093D01*
X15502386Y-13805093D02*
X15388101Y-13919379D01*
X15388101Y-13919379D02*
X15511910Y-13919379D01*
X15683339Y-13719379D02*
X15645243Y-13719379D01*
X15645243Y-13719379D02*
X15626196Y-13728902D01*
X15626196Y-13728902D02*
X15616672Y-13738426D01*
X15616672Y-13738426D02*
X15597624Y-13766998D01*
X15597624Y-13766998D02*
X15588101Y-13805093D01*
X15588101Y-13805093D02*
X15588101Y-13881283D01*
X15588101Y-13881283D02*
X15597624Y-13900331D01*
X15597624Y-13900331D02*
X15607148Y-13909855D01*
X15607148Y-13909855D02*
X15626196Y-13919379D01*
X15626196Y-13919379D02*
X15664291Y-13919379D01*
X15664291Y-13919379D02*
X15683339Y-13909855D01*
X15683339Y-13909855D02*
X15692862Y-13900331D01*
X15692862Y-13900331D02*
X15702386Y-13881283D01*
X15702386Y-13881283D02*
X15702386Y-13833664D01*
X15702386Y-13833664D02*
X15692862Y-13814617D01*
X15692862Y-13814617D02*
X15683339Y-13805093D01*
X15683339Y-13805093D02*
X15664291Y-13795569D01*
X15664291Y-13795569D02*
X15626196Y-13795569D01*
X15626196Y-13795569D02*
X15607148Y-13805093D01*
X15607148Y-13805093D02*
X15597624Y-13814617D01*
X15597624Y-13814617D02*
X15588101Y-13833664D01*
X15940482Y-13919379D02*
X15940482Y-13719379D01*
X16026196Y-13919379D02*
X16026196Y-13814617D01*
X16026196Y-13814617D02*
X16016672Y-13795569D01*
X16016672Y-13795569D02*
X15997624Y-13786045D01*
X15997624Y-13786045D02*
X15969053Y-13786045D01*
X15969053Y-13786045D02*
X15950005Y-13795569D01*
X15950005Y-13795569D02*
X15940482Y-13805093D01*
X16150005Y-13919379D02*
X16130958Y-13909855D01*
X16130958Y-13909855D02*
X16121434Y-13900331D01*
X16121434Y-13900331D02*
X16111910Y-13881283D01*
X16111910Y-13881283D02*
X16111910Y-13824141D01*
X16111910Y-13824141D02*
X16121434Y-13805093D01*
X16121434Y-13805093D02*
X16130958Y-13795569D01*
X16130958Y-13795569D02*
X16150005Y-13786045D01*
X16150005Y-13786045D02*
X16178577Y-13786045D01*
X16178577Y-13786045D02*
X16197624Y-13795569D01*
X16197624Y-13795569D02*
X16207148Y-13805093D01*
X16207148Y-13805093D02*
X16216672Y-13824141D01*
X16216672Y-13824141D02*
X16216672Y-13881283D01*
X16216672Y-13881283D02*
X16207148Y-13900331D01*
X16207148Y-13900331D02*
X16197624Y-13909855D01*
X16197624Y-13909855D02*
X16178577Y-13919379D01*
X16178577Y-13919379D02*
X16150005Y-13919379D01*
X16330958Y-13919379D02*
X16311910Y-13909855D01*
X16311910Y-13909855D02*
X16302386Y-13890807D01*
X16302386Y-13890807D02*
X16302386Y-13719379D01*
X16483339Y-13909855D02*
X16464291Y-13919379D01*
X16464291Y-13919379D02*
X16426196Y-13919379D01*
X16426196Y-13919379D02*
X16407148Y-13909855D01*
X16407148Y-13909855D02*
X16397624Y-13890807D01*
X16397624Y-13890807D02*
X16397624Y-13814617D01*
X16397624Y-13814617D02*
X16407148Y-13795569D01*
X16407148Y-13795569D02*
X16426196Y-13786045D01*
X16426196Y-13786045D02*
X16464291Y-13786045D01*
X16464291Y-13786045D02*
X16483339Y-13795569D01*
X16483339Y-13795569D02*
X16492863Y-13814617D01*
X16492863Y-13814617D02*
X16492863Y-13833664D01*
X16492863Y-13833664D02*
X16397624Y-13852712D01*
X16569053Y-13909855D02*
X16588101Y-13919379D01*
X16588101Y-13919379D02*
X16626196Y-13919379D01*
X16626196Y-13919379D02*
X16645244Y-13909855D01*
X16645244Y-13909855D02*
X16654767Y-13890807D01*
X16654767Y-13890807D02*
X16654767Y-13881283D01*
X16654767Y-13881283D02*
X16645244Y-13862236D01*
X16645244Y-13862236D02*
X16626196Y-13852712D01*
X16626196Y-13852712D02*
X16597624Y-13852712D01*
X16597624Y-13852712D02*
X16578577Y-13843188D01*
X16578577Y-13843188D02*
X16569053Y-13824141D01*
X16569053Y-13824141D02*
X16569053Y-13814617D01*
X16569053Y-13814617D02*
X16578577Y-13795569D01*
X16578577Y-13795569D02*
X16597624Y-13786045D01*
X16597624Y-13786045D02*
X16626196Y-13786045D01*
X16626196Y-13786045D02*
X16645244Y-13795569D01*
X16892863Y-13843188D02*
X17045244Y-13843188D01*
X16969053Y-13919379D02*
X16969053Y-13766998D01*
X17273815Y-13719379D02*
X17397625Y-13719379D01*
X17397625Y-13719379D02*
X17330958Y-13795569D01*
X17330958Y-13795569D02*
X17359529Y-13795569D01*
X17359529Y-13795569D02*
X17378577Y-13805093D01*
X17378577Y-13805093D02*
X17388101Y-13814617D01*
X17388101Y-13814617D02*
X17397625Y-13833664D01*
X17397625Y-13833664D02*
X17397625Y-13881283D01*
X17397625Y-13881283D02*
X17388101Y-13900331D01*
X17388101Y-13900331D02*
X17378577Y-13909855D01*
X17378577Y-13909855D02*
X17359529Y-13919379D01*
X17359529Y-13919379D02*
X17302387Y-13919379D01*
X17302387Y-13919379D02*
X17283339Y-13909855D01*
X17283339Y-13909855D02*
X17273815Y-13900331D01*
X17626196Y-13909855D02*
X17645244Y-13919379D01*
X17645244Y-13919379D02*
X17683339Y-13919379D01*
X17683339Y-13919379D02*
X17702387Y-13909855D01*
X17702387Y-13909855D02*
X17711910Y-13890807D01*
X17711910Y-13890807D02*
X17711910Y-13881283D01*
X17711910Y-13881283D02*
X17702387Y-13862236D01*
X17702387Y-13862236D02*
X17683339Y-13852712D01*
X17683339Y-13852712D02*
X17654768Y-13852712D01*
X17654768Y-13852712D02*
X17635720Y-13843188D01*
X17635720Y-13843188D02*
X17626196Y-13824141D01*
X17626196Y-13824141D02*
X17626196Y-13814617D01*
X17626196Y-13814617D02*
X17635720Y-13795569D01*
X17635720Y-13795569D02*
X17654768Y-13786045D01*
X17654768Y-13786045D02*
X17683339Y-13786045D01*
X17683339Y-13786045D02*
X17702387Y-13795569D01*
X17826196Y-13919379D02*
X17807149Y-13909855D01*
X17807149Y-13909855D02*
X17797625Y-13890807D01*
X17797625Y-13890807D02*
X17797625Y-13719379D01*
X17930958Y-13919379D02*
X17911910Y-13909855D01*
X17911910Y-13909855D02*
X17902387Y-13900331D01*
X17902387Y-13900331D02*
X17892863Y-13881283D01*
X17892863Y-13881283D02*
X17892863Y-13824141D01*
X17892863Y-13824141D02*
X17902387Y-13805093D01*
X17902387Y-13805093D02*
X17911910Y-13795569D01*
X17911910Y-13795569D02*
X17930958Y-13786045D01*
X17930958Y-13786045D02*
X17959530Y-13786045D01*
X17959530Y-13786045D02*
X17978577Y-13795569D01*
X17978577Y-13795569D02*
X17988101Y-13805093D01*
X17988101Y-13805093D02*
X17997625Y-13824141D01*
X17997625Y-13824141D02*
X17997625Y-13881283D01*
X17997625Y-13881283D02*
X17988101Y-13900331D01*
X17988101Y-13900331D02*
X17978577Y-13909855D01*
X17978577Y-13909855D02*
X17959530Y-13919379D01*
X17959530Y-13919379D02*
X17930958Y-13919379D01*
X18054768Y-13786045D02*
X18130958Y-13786045D01*
X18083339Y-13719379D02*
X18083339Y-13890807D01*
X18083339Y-13890807D02*
X18092863Y-13909855D01*
X18092863Y-13909855D02*
X18111910Y-13919379D01*
X18111910Y-13919379D02*
X18130958Y-13919379D01*
X18188101Y-13909855D02*
X18207149Y-13919379D01*
X18207149Y-13919379D02*
X18245244Y-13919379D01*
X18245244Y-13919379D02*
X18264291Y-13909855D01*
X18264291Y-13909855D02*
X18273815Y-13890807D01*
X18273815Y-13890807D02*
X18273815Y-13881283D01*
X18273815Y-13881283D02*
X18264291Y-13862236D01*
X18264291Y-13862236D02*
X18245244Y-13852712D01*
X18245244Y-13852712D02*
X18216672Y-13852712D01*
X18216672Y-13852712D02*
X18197625Y-13843188D01*
X18197625Y-13843188D02*
X18188101Y-13824141D01*
X18188101Y-13824141D02*
X18188101Y-13814617D01*
X18188101Y-13814617D02*
X18197625Y-13795569D01*
X18197625Y-13795569D02*
X18216672Y-13786045D01*
X18216672Y-13786045D02*
X18245244Y-13786045D01*
X18245244Y-13786045D02*
X18264291Y-13795569D01*
X18340482Y-13995569D02*
X18350006Y-13986045D01*
X18350006Y-13986045D02*
X18369053Y-13957474D01*
X18369053Y-13957474D02*
X18378577Y-13938426D01*
X18378577Y-13938426D02*
X18388101Y-13909855D01*
X18388101Y-13909855D02*
X18397625Y-13862236D01*
X18397625Y-13862236D02*
X18397625Y-13824141D01*
X18397625Y-13824141D02*
X18388101Y-13776521D01*
X18388101Y-13776521D02*
X18378577Y-13747950D01*
X18378577Y-13747950D02*
X18369053Y-13728902D01*
X18369053Y-13728902D02*
X18350006Y-13700331D01*
X18350006Y-13700331D02*
X18340482Y-13690807D01*
D13*
X11700895Y-14146895D02*
X11755895Y-14091895D01*
X11700895Y-14036895D01*
X11645895Y-14091895D01*
X11700895Y-14146895D01*
D11*
X12121434Y-14183379D02*
X12007148Y-14183379D01*
X12064291Y-14183379D02*
X12064291Y-13983379D01*
X12064291Y-13983379D02*
X12045243Y-14011950D01*
X12045243Y-14011950D02*
X12026195Y-14030998D01*
X12026195Y-14030998D02*
X12007148Y-14040521D01*
X12207148Y-14164331D02*
X12216672Y-14173855D01*
X12216672Y-14173855D02*
X12207148Y-14183379D01*
X12207148Y-14183379D02*
X12197624Y-14173855D01*
X12197624Y-14173855D02*
X12207148Y-14164331D01*
X12207148Y-14164331D02*
X12207148Y-14183379D01*
X12407148Y-14183379D02*
X12292862Y-14183379D01*
X12350005Y-14183379D02*
X12350005Y-13983379D01*
X12350005Y-13983379D02*
X12330957Y-14011950D01*
X12330957Y-14011950D02*
X12311910Y-14030998D01*
X12311910Y-14030998D02*
X12292862Y-14040521D01*
X12530957Y-13983379D02*
X12550005Y-13983379D01*
X12550005Y-13983379D02*
X12569053Y-13992902D01*
X12569053Y-13992902D02*
X12578576Y-14002426D01*
X12578576Y-14002426D02*
X12588100Y-14021474D01*
X12588100Y-14021474D02*
X12597624Y-14059569D01*
X12597624Y-14059569D02*
X12597624Y-14107188D01*
X12597624Y-14107188D02*
X12588100Y-14145283D01*
X12588100Y-14145283D02*
X12578576Y-14164331D01*
X12578576Y-14164331D02*
X12569053Y-14173855D01*
X12569053Y-14173855D02*
X12550005Y-14183379D01*
X12550005Y-14183379D02*
X12530957Y-14183379D01*
X12530957Y-14183379D02*
X12511910Y-14173855D01*
X12511910Y-14173855D02*
X12502386Y-14164331D01*
X12502386Y-14164331D02*
X12492862Y-14145283D01*
X12492862Y-14145283D02*
X12483338Y-14107188D01*
X12483338Y-14107188D02*
X12483338Y-14059569D01*
X12483338Y-14059569D02*
X12492862Y-14021474D01*
X12492862Y-14021474D02*
X12502386Y-14002426D01*
X12502386Y-14002426D02*
X12511910Y-13992902D01*
X12511910Y-13992902D02*
X12530957Y-13983379D01*
X12721434Y-13983379D02*
X12740481Y-13983379D01*
X12740481Y-13983379D02*
X12759529Y-13992902D01*
X12759529Y-13992902D02*
X12769053Y-14002426D01*
X12769053Y-14002426D02*
X12778576Y-14021474D01*
X12778576Y-14021474D02*
X12788100Y-14059569D01*
X12788100Y-14059569D02*
X12788100Y-14107188D01*
X12788100Y-14107188D02*
X12778576Y-14145283D01*
X12778576Y-14145283D02*
X12769053Y-14164331D01*
X12769053Y-14164331D02*
X12759529Y-14173855D01*
X12759529Y-14173855D02*
X12740481Y-14183379D01*
X12740481Y-14183379D02*
X12721434Y-14183379D01*
X12721434Y-14183379D02*
X12702386Y-14173855D01*
X12702386Y-14173855D02*
X12692862Y-14164331D01*
X12692862Y-14164331D02*
X12683338Y-14145283D01*
X12683338Y-14145283D02*
X12673815Y-14107188D01*
X12673815Y-14107188D02*
X12673815Y-14059569D01*
X12673815Y-14059569D02*
X12683338Y-14021474D01*
X12683338Y-14021474D02*
X12692862Y-14002426D01*
X12692862Y-14002426D02*
X12702386Y-13992902D01*
X12702386Y-13992902D02*
X12721434Y-13983379D01*
X12873815Y-14183379D02*
X12873815Y-14050045D01*
X12873815Y-14069093D02*
X12883338Y-14059569D01*
X12883338Y-14059569D02*
X12902386Y-14050045D01*
X12902386Y-14050045D02*
X12930957Y-14050045D01*
X12930957Y-14050045D02*
X12950005Y-14059569D01*
X12950005Y-14059569D02*
X12959529Y-14078617D01*
X12959529Y-14078617D02*
X12959529Y-14183379D01*
X12959529Y-14078617D02*
X12969053Y-14059569D01*
X12969053Y-14059569D02*
X12988100Y-14050045D01*
X12988100Y-14050045D02*
X13016672Y-14050045D01*
X13016672Y-14050045D02*
X13035719Y-14059569D01*
X13035719Y-14059569D02*
X13045243Y-14078617D01*
X13045243Y-14078617D02*
X13045243Y-14183379D01*
X13140481Y-14183379D02*
X13140481Y-14050045D01*
X13140481Y-14069093D02*
X13150005Y-14059569D01*
X13150005Y-14059569D02*
X13169053Y-14050045D01*
X13169053Y-14050045D02*
X13197624Y-14050045D01*
X13197624Y-14050045D02*
X13216672Y-14059569D01*
X13216672Y-14059569D02*
X13226196Y-14078617D01*
X13226196Y-14078617D02*
X13226196Y-14183379D01*
X13226196Y-14078617D02*
X13235719Y-14059569D01*
X13235719Y-14059569D02*
X13254767Y-14050045D01*
X13254767Y-14050045D02*
X13283338Y-14050045D01*
X13283338Y-14050045D02*
X13302386Y-14059569D01*
X13302386Y-14059569D02*
X13311910Y-14078617D01*
X13311910Y-14078617D02*
X13311910Y-14183379D01*
X13702386Y-13973855D02*
X13530958Y-14230998D01*
X13959529Y-13983379D02*
X13978577Y-13983379D01*
X13978577Y-13983379D02*
X13997624Y-13992902D01*
X13997624Y-13992902D02*
X14007148Y-14002426D01*
X14007148Y-14002426D02*
X14016672Y-14021474D01*
X14016672Y-14021474D02*
X14026196Y-14059569D01*
X14026196Y-14059569D02*
X14026196Y-14107188D01*
X14026196Y-14107188D02*
X14016672Y-14145283D01*
X14016672Y-14145283D02*
X14007148Y-14164331D01*
X14007148Y-14164331D02*
X13997624Y-14173855D01*
X13997624Y-14173855D02*
X13978577Y-14183379D01*
X13978577Y-14183379D02*
X13959529Y-14183379D01*
X13959529Y-14183379D02*
X13940481Y-14173855D01*
X13940481Y-14173855D02*
X13930958Y-14164331D01*
X13930958Y-14164331D02*
X13921434Y-14145283D01*
X13921434Y-14145283D02*
X13911910Y-14107188D01*
X13911910Y-14107188D02*
X13911910Y-14059569D01*
X13911910Y-14059569D02*
X13921434Y-14021474D01*
X13921434Y-14021474D02*
X13930958Y-14002426D01*
X13930958Y-14002426D02*
X13940481Y-13992902D01*
X13940481Y-13992902D02*
X13959529Y-13983379D01*
X14111910Y-14164331D02*
X14121434Y-14173855D01*
X14121434Y-14173855D02*
X14111910Y-14183379D01*
X14111910Y-14183379D02*
X14102386Y-14173855D01*
X14102386Y-14173855D02*
X14111910Y-14164331D01*
X14111910Y-14164331D02*
X14111910Y-14183379D01*
X14245243Y-13983379D02*
X14264291Y-13983379D01*
X14264291Y-13983379D02*
X14283339Y-13992902D01*
X14283339Y-13992902D02*
X14292862Y-14002426D01*
X14292862Y-14002426D02*
X14302386Y-14021474D01*
X14302386Y-14021474D02*
X14311910Y-14059569D01*
X14311910Y-14059569D02*
X14311910Y-14107188D01*
X14311910Y-14107188D02*
X14302386Y-14145283D01*
X14302386Y-14145283D02*
X14292862Y-14164331D01*
X14292862Y-14164331D02*
X14283339Y-14173855D01*
X14283339Y-14173855D02*
X14264291Y-14183379D01*
X14264291Y-14183379D02*
X14245243Y-14183379D01*
X14245243Y-14183379D02*
X14226196Y-14173855D01*
X14226196Y-14173855D02*
X14216672Y-14164331D01*
X14216672Y-14164331D02*
X14207148Y-14145283D01*
X14207148Y-14145283D02*
X14197624Y-14107188D01*
X14197624Y-14107188D02*
X14197624Y-14059569D01*
X14197624Y-14059569D02*
X14207148Y-14021474D01*
X14207148Y-14021474D02*
X14216672Y-14002426D01*
X14216672Y-14002426D02*
X14226196Y-13992902D01*
X14226196Y-13992902D02*
X14245243Y-13983379D01*
X14483339Y-14050045D02*
X14483339Y-14183379D01*
X14435719Y-13973855D02*
X14388100Y-14116712D01*
X14388100Y-14116712D02*
X14511910Y-14116712D01*
X14569053Y-13983379D02*
X14692862Y-13983379D01*
X14692862Y-13983379D02*
X14626196Y-14059569D01*
X14626196Y-14059569D02*
X14654767Y-14059569D01*
X14654767Y-14059569D02*
X14673815Y-14069093D01*
X14673815Y-14069093D02*
X14683339Y-14078617D01*
X14683339Y-14078617D02*
X14692862Y-14097664D01*
X14692862Y-14097664D02*
X14692862Y-14145283D01*
X14692862Y-14145283D02*
X14683339Y-14164331D01*
X14683339Y-14164331D02*
X14673815Y-14173855D01*
X14673815Y-14173855D02*
X14654767Y-14183379D01*
X14654767Y-14183379D02*
X14597624Y-14183379D01*
X14597624Y-14183379D02*
X14578577Y-14173855D01*
X14578577Y-14173855D02*
X14569053Y-14164331D01*
X14759529Y-13983379D02*
X14883339Y-13983379D01*
X14883339Y-13983379D02*
X14816672Y-14059569D01*
X14816672Y-14059569D02*
X14845243Y-14059569D01*
X14845243Y-14059569D02*
X14864291Y-14069093D01*
X14864291Y-14069093D02*
X14873815Y-14078617D01*
X14873815Y-14078617D02*
X14883339Y-14097664D01*
X14883339Y-14097664D02*
X14883339Y-14145283D01*
X14883339Y-14145283D02*
X14873815Y-14164331D01*
X14873815Y-14164331D02*
X14864291Y-14173855D01*
X14864291Y-14173855D02*
X14845243Y-14183379D01*
X14845243Y-14183379D02*
X14788100Y-14183379D01*
X14788100Y-14183379D02*
X14769053Y-14173855D01*
X14769053Y-14173855D02*
X14759529Y-14164331D01*
X14959529Y-13983379D02*
X14959529Y-14021474D01*
X15035720Y-13983379D02*
X15035720Y-14021474D01*
X15330958Y-14259569D02*
X15321434Y-14250045D01*
X15321434Y-14250045D02*
X15302386Y-14221474D01*
X15302386Y-14221474D02*
X15292862Y-14202426D01*
X15292862Y-14202426D02*
X15283339Y-14173855D01*
X15283339Y-14173855D02*
X15273815Y-14126236D01*
X15273815Y-14126236D02*
X15273815Y-14088141D01*
X15273815Y-14088141D02*
X15283339Y-14040521D01*
X15283339Y-14040521D02*
X15292862Y-14011950D01*
X15292862Y-14011950D02*
X15302386Y-13992902D01*
X15302386Y-13992902D02*
X15321434Y-13964331D01*
X15321434Y-13964331D02*
X15330958Y-13954807D01*
X15397624Y-14002426D02*
X15407148Y-13992902D01*
X15407148Y-13992902D02*
X15426196Y-13983379D01*
X15426196Y-13983379D02*
X15473815Y-13983379D01*
X15473815Y-13983379D02*
X15492862Y-13992902D01*
X15492862Y-13992902D02*
X15502386Y-14002426D01*
X15502386Y-14002426D02*
X15511910Y-14021474D01*
X15511910Y-14021474D02*
X15511910Y-14040521D01*
X15511910Y-14040521D02*
X15502386Y-14069093D01*
X15502386Y-14069093D02*
X15388101Y-14183379D01*
X15388101Y-14183379D02*
X15511910Y-14183379D01*
X15683339Y-14050045D02*
X15683339Y-14183379D01*
X15635720Y-13973855D02*
X15588101Y-14116712D01*
X15588101Y-14116712D02*
X15711910Y-14116712D01*
X15940482Y-14183379D02*
X15940482Y-13983379D01*
X16026196Y-14183379D02*
X16026196Y-14078617D01*
X16026196Y-14078617D02*
X16016672Y-14059569D01*
X16016672Y-14059569D02*
X15997624Y-14050045D01*
X15997624Y-14050045D02*
X15969053Y-14050045D01*
X15969053Y-14050045D02*
X15950005Y-14059569D01*
X15950005Y-14059569D02*
X15940482Y-14069093D01*
X16150005Y-14183379D02*
X16130958Y-14173855D01*
X16130958Y-14173855D02*
X16121434Y-14164331D01*
X16121434Y-14164331D02*
X16111910Y-14145283D01*
X16111910Y-14145283D02*
X16111910Y-14088141D01*
X16111910Y-14088141D02*
X16121434Y-14069093D01*
X16121434Y-14069093D02*
X16130958Y-14059569D01*
X16130958Y-14059569D02*
X16150005Y-14050045D01*
X16150005Y-14050045D02*
X16178577Y-14050045D01*
X16178577Y-14050045D02*
X16197624Y-14059569D01*
X16197624Y-14059569D02*
X16207148Y-14069093D01*
X16207148Y-14069093D02*
X16216672Y-14088141D01*
X16216672Y-14088141D02*
X16216672Y-14145283D01*
X16216672Y-14145283D02*
X16207148Y-14164331D01*
X16207148Y-14164331D02*
X16197624Y-14173855D01*
X16197624Y-14173855D02*
X16178577Y-14183379D01*
X16178577Y-14183379D02*
X16150005Y-14183379D01*
X16330958Y-14183379D02*
X16311910Y-14173855D01*
X16311910Y-14173855D02*
X16302386Y-14154807D01*
X16302386Y-14154807D02*
X16302386Y-13983379D01*
X16483339Y-14173855D02*
X16464291Y-14183379D01*
X16464291Y-14183379D02*
X16426196Y-14183379D01*
X16426196Y-14183379D02*
X16407148Y-14173855D01*
X16407148Y-14173855D02*
X16397624Y-14154807D01*
X16397624Y-14154807D02*
X16397624Y-14078617D01*
X16397624Y-14078617D02*
X16407148Y-14059569D01*
X16407148Y-14059569D02*
X16426196Y-14050045D01*
X16426196Y-14050045D02*
X16464291Y-14050045D01*
X16464291Y-14050045D02*
X16483339Y-14059569D01*
X16483339Y-14059569D02*
X16492863Y-14078617D01*
X16492863Y-14078617D02*
X16492863Y-14097664D01*
X16492863Y-14097664D02*
X16397624Y-14116712D01*
X16569053Y-14173855D02*
X16588101Y-14183379D01*
X16588101Y-14183379D02*
X16626196Y-14183379D01*
X16626196Y-14183379D02*
X16645244Y-14173855D01*
X16645244Y-14173855D02*
X16654767Y-14154807D01*
X16654767Y-14154807D02*
X16654767Y-14145283D01*
X16654767Y-14145283D02*
X16645244Y-14126236D01*
X16645244Y-14126236D02*
X16626196Y-14116712D01*
X16626196Y-14116712D02*
X16597624Y-14116712D01*
X16597624Y-14116712D02*
X16578577Y-14107188D01*
X16578577Y-14107188D02*
X16569053Y-14088141D01*
X16569053Y-14088141D02*
X16569053Y-14078617D01*
X16569053Y-14078617D02*
X16578577Y-14059569D01*
X16578577Y-14059569D02*
X16597624Y-14050045D01*
X16597624Y-14050045D02*
X16626196Y-14050045D01*
X16626196Y-14050045D02*
X16645244Y-14059569D01*
X16721434Y-14259569D02*
X16730958Y-14250045D01*
X16730958Y-14250045D02*
X16750005Y-14221474D01*
X16750005Y-14221474D02*
X16759529Y-14202426D01*
X16759529Y-14202426D02*
X16769053Y-14173855D01*
X16769053Y-14173855D02*
X16778577Y-14126236D01*
X16778577Y-14126236D02*
X16778577Y-14088141D01*
X16778577Y-14088141D02*
X16769053Y-14040521D01*
X16769053Y-14040521D02*
X16759529Y-14011950D01*
X16759529Y-14011950D02*
X16750005Y-13992902D01*
X16750005Y-13992902D02*
X16730958Y-13964331D01*
X16730958Y-13964331D02*
X16721434Y-13954807D01*
M02*
